<svg id="Group_1684" data-name="Group 1684" xmlns="http://www.w3.org/2000/svg" xmlns:xlink="http://www.w3.org/1999/xlink" width="43.778" height="43.777" viewBox="0 0 43.778 43.777">
  <defs>
    <linearGradient id="linear-gradient" x1="0.5" x2="0.5" y2="1" gradientUnits="objectBoundingBox">
      <stop offset="0" stop-color="#6749ce"/>
      <stop offset="0.49" stop-color="#fe2f74"/>
      <stop offset="1" stop-color="#fcc95f"/>
    </linearGradient>
  </defs>
  <path id="Path_1558" data-name="Path 1558" d="M0,0H43.778V43.777H0Z" fill="url(#linear-gradient)"/>
  <path id="Icon_awesome-instagram" data-name="Icon awesome-instagram" d="M10.382,7.3a5.324,5.324,0,1,0,5.324,5.324A5.315,5.315,0,0,0,10.382,7.3Zm0,8.785a3.461,3.461,0,1,1,3.461-3.461,3.467,3.467,0,0,1-3.461,3.461Zm6.783-9a1.242,1.242,0,1,1-1.242-1.242A1.239,1.239,0,0,1,17.165,7.078Zm3.526,1.26a6.145,6.145,0,0,0-1.677-4.351,6.186,6.186,0,0,0-4.351-1.677c-1.714-.1-6.853-.1-8.567,0A6.177,6.177,0,0,0,1.745,3.983,6.165,6.165,0,0,0,.068,8.334c-.1,1.714-.1,6.853,0,8.567a6.145,6.145,0,0,0,1.677,4.351A6.193,6.193,0,0,0,6.1,22.929c1.714.1,6.853.1,8.567,0a6.145,6.145,0,0,0,4.351-1.677A6.185,6.185,0,0,0,20.691,16.9c.1-1.714.1-6.848,0-8.562Zm-2.215,10.4A3.5,3.5,0,0,1,16.5,20.714c-1.367.542-4.61.417-6.121.417s-4.759.12-6.121-.417a3.5,3.5,0,0,1-1.974-1.974c-.542-1.367-.417-4.61-.417-6.121S1.75,7.861,2.287,6.5A3.5,3.5,0,0,1,4.261,4.525c1.367-.542,4.61-.417,6.121-.417s4.759-.12,6.121.417A3.5,3.5,0,0,1,18.476,6.5c.542,1.367.417,4.61.417,6.121S19.018,17.378,18.476,18.741Z" transform="translate(11.51 9.27)" fill="#fff"/>
</svg>
