<svg id="Group_1685" data-name="Group 1685" xmlns="http://www.w3.org/2000/svg" width="43.778" height="43.777" viewBox="0 0 43.778 43.777">
  <rect id="Rectangle_843" data-name="Rectangle 843" width="43.778" height="43.777" fill="#2d67b3"/>
  <path id="Icon_awesome-linkedin-in" data-name="Icon awesome-linkedin-in" d="M4.523,20.209H.334V6.717h4.19ZM2.426,4.876A2.438,2.438,0,1,1,4.853,2.427,2.447,2.447,0,0,1,2.426,4.876ZM20.2,20.209H16.023V13.641c0-1.565-.032-3.573-2.178-3.573-2.178,0-2.512,1.7-2.512,3.46v6.681H7.148V6.717h4.018v1.84h.059a4.4,4.4,0,0,1,3.964-2.179c4.24,0,5.02,2.792,5.02,6.419v7.411Z" transform="translate(12.508 11.613)" fill="#fff"/>
</svg>
