<svg id="Group_1686" data-name="Group 1686" xmlns="http://www.w3.org/2000/svg" width="43.778" height="43.777" viewBox="0 0 43.778 43.777">
  <rect id="Rectangle_843" data-name="Rectangle 843" width="43.778" height="43.777" fill="#fe0100"/>
  <path id="Icon_awesome-youtube" data-name="Icon awesome-youtube" d="M22.737,6.937a2.783,2.783,0,0,0-1.958-1.971C19.051,4.5,12.125,4.5,12.125,4.5s-6.926,0-8.654.466A2.783,2.783,0,0,0,1.513,6.937,29.2,29.2,0,0,0,1.05,12.3a29.2,29.2,0,0,0,.463,5.366,2.742,2.742,0,0,0,1.958,1.939c1.727.466,8.654.466,8.654.466s6.926,0,8.654-.466a2.742,2.742,0,0,0,1.958-1.939A29.2,29.2,0,0,0,23.2,12.3a29.2,29.2,0,0,0-.463-5.366ZM9.859,15.6V9.009L15.648,12.3,9.859,15.6Z" transform="translate(9.671 9.794)" fill="#fff"/>
</svg>
