<svg xmlns="http://www.w3.org/2000/svg" width="96.866" height="96.894" viewBox="0 0 96.866 96.894">
    <g data-name="money-bag (2)" transform="translate(-1 -.982)">
        <g data-name="Group 2436">
            <g data-name="Group 2434">
                <path data-name="Path 3174" d="M53.687 59.93v4.8h-3.125A1.567 1.567 0 0 1 49 63.164v-.156a18.86 18.86 0 0 0 4.687-3.078z" transform="translate(26.993 33.15)" style="fill:#fbde08"/>
                <path data-name="Path 3175" d="M56 59h6.249v6.249H56z" transform="translate(30.929 32.627)" style="fill:#fbde08"/>
                <path data-name="Path 3176" d="M56 55h6.249v6.249H56z" transform="translate(30.929 30.377)" style="fill:#fbde08"/>
                <path data-name="Path 3177" d="M56 51h6.249v6.249H56z" transform="translate(30.929 28.128)" style="fill:#fbde08"/>
                <path data-name="Path 3178" d="M62.249 47v6.249H56V47h6.249z" transform="translate(30.929 25.878)" style="fill:#fbde08"/>
                <path data-name="Path 3179" d="M59.7 43v6.249h-3.579A60.212 60.212 0 0 0 54.98 43z" transform="translate(30.356 23.629)" style="fill:#fbde08"/>
                <path data-name="Path 3180" d="M55.6 45.249A78.32 78.32 0 0 0 53.88 39h6.437v6.249z" transform="translate(29.737 21.379)" style="fill:#fbde08"/>
                <path data-name="Path 3181" d="M62.249 35v6.249H56V35z" transform="translate(30.929 19.13)" style="fill:#fbde08"/>
            </g>
            <g data-name="Group 2435">
                <path data-name="Path 3182" d="M56.163 47v6.249A46.893 46.893 0 0 0 55.71 47z" transform="translate(30.766 25.878)" style="fill:#ffc008"/>
                <path data-name="Path 3183" d="M56.388 51v6.249H55.31A18.432 18.432 0 0 0 56.388 51z" transform="translate(30.541 28.128)" style="fill:#ffc008"/>
                <path data-name="Path 3184" d="M52.93 61.249A18.764 18.764 0 0 0 56.648 55h1.078v6.249z" transform="translate(29.203 30.377)" style="fill:#ffc008"/>
                <path data-name="Path 3185" d="M58.249 59v6.249H52v-4.8A18.214 18.214 0 0 0 53.453 59z" transform="translate(28.68 32.627)" style="fill:#ffc008"/>
                <path data-name="Path 3186" d="M60 65.249V59h3.125a1.567 1.567 0 0 1 1.562 1.562v3.125a1.567 1.567 0 0 1-1.562 1.562z" transform="translate(33.179 32.627)" style="fill:#ffc008"/>
                <path data-name="Path 3187" d="M60 61.249V55h3.125a1.567 1.567 0 0 1 1.562 1.562v3.125a1.567 1.567 0 0 1-1.562 1.562z" transform="translate(33.179 30.377)" style="fill:#ffc008"/>
                <path data-name="Path 3188" d="M60 57.249V51h3.125a1.567 1.567 0 0 1 1.562 1.562v3.125a1.567 1.567 0 0 1-1.562 1.562z" transform="translate(33.179 28.128)" style="fill:#ffc008"/>
                <path data-name="Path 3189" d="M60 53.249V47h3.125a1.567 1.567 0 0 1 1.562 1.562v3.125a1.567 1.567 0 0 1-1.562 1.562z" transform="translate(33.179 25.878)" style="fill:#ffc008"/>
                <path data-name="Path 3190" d="M62.687 44.562v3.125a1.567 1.567 0 0 1-1.562 1.562H58V43h3.125a1.567 1.567 0 0 1 1.562 1.562z" transform="translate(32.054 23.629)" style="fill:#ffc008"/>
                <path data-name="Path 3191" d="M62.687 40.562v3.125a1.567 1.567 0 0 1-1.562 1.562H58V39h3.125a1.567 1.567 0 0 1 1.562 1.562z" transform="translate(32.054 21.379)" style="fill:#ffc008"/>
                <path data-name="Path 3192" d="M58 35v6.249h-3.31A83.158 83.158 0 0 0 52.44 35z" transform="translate(28.927 19.13)" style="fill:#ffc008"/>
                <path data-name="Path 3193" d="M60 41.249V35h3.125a1.567 1.567 0 0 1 1.562 1.562v3.125a1.567 1.567 0 0 1-1.562 1.562z" transform="translate(33.179 19.13)" style="fill:#ffc008"/>
            </g>
        </g>
        <g data-name="Group 2438">
            <path data-name="Path 3194" d="M62.249 36.86v3.34H56v-2.34h3.125a5.286 5.286 0 0 0 3.124-1z" transform="translate(30.929 20.176)" style="fill:#ffc008"/>
            <g data-name="Group 2437">
                <path data-name="Path 3195" d="M64.687 36.562v3.125a1.567 1.567 0 0 1-1.562 1.562H60v-3.343A5.366 5.366 0 0 0 62.109 35h1.016a1.567 1.567 0 0 1 1.562 1.562z" transform="translate(33.179 19.13)" style="fill:#ffa10b"/>
                <path data-name="Path 3196" d="M57.473 37.5v2.344h-3.312c-.25-.781-.5-1.562-.781-2.344z" transform="translate(29.456 20.536)" style="fill:#ffa10b"/>
            </g>
        </g>
        <g data-name="Group 2439">
            <path data-name="Path 3197" d="M59.906 40.86v3.34h-4.718c-.172-.781-.375-1.562-.578-2.344h2.172a5.286 5.286 0 0 0 3.124-.996z" transform="translate(30.148 22.425)" style="fill:#ffc008"/>
            <path data-name="Path 3198" d="M62.687 40.562v3.125a1.567 1.567 0 0 1-1.562 1.562H58v-3.343A5.366 5.366 0 0 0 60.109 39h1.016a1.567 1.567 0 0 1 1.562 1.562z" transform="translate(32.054 21.379)" style="fill:#ffa10b"/>
        </g>
        <g data-name="Group 2440">
            <path data-name="Path 3199" d="M59.417 44.86v3.34h-3.578a45.969 45.969 0 0 0-.359-2.344h.812a5.286 5.286 0 0 0 3.125-.996z" transform="translate(30.637 24.675)" style="fill:#ffc008"/>
            <path data-name="Path 3200" d="M62.687 44.562v3.125a1.567 1.567 0 0 1-1.562 1.562H58v-3.343A5.366 5.366 0 0 0 60.109 43h1.016a1.567 1.567 0 0 1 1.562 1.562z" transform="translate(32.054 23.629)" style="fill:#ffa10b"/>
        </g>
        <g data-name="Group 2441">
            <path data-name="Path 3201" d="M62.249 48.86v3.34H56v-2.34h3.125a5.286 5.286 0 0 0 3.124-1z" transform="translate(30.93 26.924)" style="fill:#ffc008"/>
            <path data-name="Path 3202" d="M64.687 48.562v3.125a1.567 1.567 0 0 1-1.562 1.562H60v-3.343A5.366 5.366 0 0 0 62.109 47h1.016a1.567 1.567 0 0 1 1.562 1.562z" transform="translate(33.179 25.878)" style="fill:#ffa10b"/>
        </g>
        <g data-name="Group 2443">
            <path data-name="Path 3203" d="M62.249 52.86v3.34H56v-2.34h3.125a5.286 5.286 0 0 0 3.124-1z" transform="translate(30.93 29.174)" style="fill:#ffc008"/>
            <g data-name="Group 2442">
                <path data-name="Path 3204" d="M64.687 52.562v3.125a1.567 1.567 0 0 1-1.562 1.562H60v-3.343A5.366 5.366 0 0 0 62.109 51h1.016a1.567 1.567 0 0 1 1.562 1.562z" transform="translate(33.179 28.128)" style="fill:#ffa10b"/>
                <path data-name="Path 3205" d="M56.388 53.5v2.344H55.31a18.477 18.477 0 0 0 .672-2.344z" transform="translate(30.542 29.534)" style="fill:#ffa10b"/>
            </g>
        </g>
        <g data-name="Group 2445">
            <path data-name="Path 3206" d="M62.249 56.86v3.34H56v-2.34h3.125a5.286 5.286 0 0 0 3.124-1z" transform="translate(30.929 31.423)" style="fill:#ffc008"/>
            <g data-name="Group 2444">
                <path data-name="Path 3207" d="M64.687 56.562v3.125a1.567 1.567 0 0 1-1.562 1.562H60v-3.343A5.366 5.366 0 0 0 62.109 55h1.016a1.567 1.567 0 0 1 1.562 1.562z" transform="translate(33.179 30.377)" style="fill:#ffa10b"/>
                <path data-name="Path 3208" d="M57.726 57.5v2.344h-4.8a18.516 18.516 0 0 0 1.785-2.344z" transform="translate(29.203 31.783)" style="fill:#ffa10b"/>
            </g>
        </g>
        <g data-name="Group 2447">
            <path data-name="Path 3209" d="M62.249 60.86v3.34H56v-2.34h3.125a5.286 5.286 0 0 0 3.124-1z" transform="translate(30.929 33.673)" style="fill:#ffc008"/>
            <path data-name="Path 3210" d="M50.219 61.5h3.468v2.344h-3.125A1.567 1.567 0 0 1 49 62.281v-.156z" transform="translate(26.993 34.033)" style="fill:#ffc008"/>
            <g data-name="Group 2446">
                <path data-name="Path 3211" d="M64.687 60.562v3.125a1.567 1.567 0 0 1-1.562 1.562H60v-3.343A5.366 5.366 0 0 0 62.109 59h1.016a1.567 1.567 0 0 1 1.562 1.562z" transform="translate(33.179 32.627)" style="fill:#ffa10b"/>
                <path data-name="Path 3212" d="M52 61.5h6.249v2.344H52z" transform="translate(28.68 34.033)" style="fill:#ffa10b"/>
            </g>
        </g>
        <g data-name="Group 2448">
            <path data-name="Path 3213" d="M22.311 59H3.562A1.567 1.567 0 0 0 2 60.562v3.125a1.567 1.567 0 0 0 1.562 1.562h18.749a1.547 1.547 0 0 0 1.484-1.109 1.451 1.451 0 0 0 .078-.453v-3.125A1.567 1.567 0 0 0 22.311 59z" transform="translate(.562 32.627)" style="fill:#ffc008"/>
            <path data-name="Path 3214" d="M23.311 55H4.562A1.567 1.567 0 0 0 3 56.562v3.125a1.567 1.567 0 0 0 1.562 1.562h18.749a1.567 1.567 0 0 0 1.562-1.562v-3.125A1.567 1.567 0 0 0 23.311 55z" transform="translate(1.125 30.377)" style="fill:#ffc008"/>
            <path data-name="Path 3215" d="M22.311 51H3.562A1.567 1.567 0 0 0 2 52.562v3.125a1.567 1.567 0 0 0 1.562 1.562h18.749a1.567 1.567 0 0 0 1.562-1.562v-3.125A1.567 1.567 0 0 0 22.311 51z" transform="translate(.562 28.128)" style="fill:#ffc008"/>
            <path data-name="Path 3216" d="M23.311 47H4.562A1.567 1.567 0 0 0 3 48.562v3.125a1.567 1.567 0 0 0 1.562 1.562h18.749a1.567 1.567 0 0 0 1.562-1.562v-3.125A1.567 1.567 0 0 0 23.311 47z" transform="translate(1.125 25.878)" style="fill:#ffc008"/>
            <path data-name="Path 3217" d="M21.311 43H2.562A1.567 1.567 0 0 0 1 44.562v3.125a1.567 1.567 0 0 0 1.562 1.562h18.749a1.567 1.567 0 0 0 1.562-1.562v-3.125A1.567 1.567 0 0 0 21.311 43z" transform="translate(0 23.629)" style="fill:#ffc008"/>
            <path data-name="Path 3218" d="M21.311 39H2.562A1.567 1.567 0 0 0 1 40.562v3.125a1.567 1.567 0 0 0 1.562 1.562h18.749a1.567 1.567 0 0 0 1.562-1.562v-3.125A1.567 1.567 0 0 0 21.311 39z" transform="translate(0 21.379)" style="fill:#ffc008"/>
            <path data-name="Path 3219" d="M23.311 35H4.562A1.567 1.567 0 0 0 3 36.562v3.125a1.567 1.567 0 0 0 1.562 1.562h18.749a1.567 1.567 0 0 0 1.562-1.562v-3.125A1.567 1.567 0 0 0 23.311 35z" transform="translate(1.125 19.13)" style="fill:#ffc008"/>
        </g>
        <path data-name="Path 3220" d="M12.249 13c0 4.687 6.249 6.249 6.249 6.249s-6.249 1.562-6.249 6.249c0-4.686-6.249-6.249-6.249-6.249s6.249-1.562 6.249-6.249z" transform="translate(2.812 6.758)" style="fill:#ff9700"/>
        <g data-name="Group 2449">
            <path data-name="Path 3221" d="M56.249 9c0 4.687 6.249 6.249 6.249 6.249s-6.249 1.562-6.249 6.249c0-4.687-6.249-6.249-6.249-6.249S56.249 13.687 56.249 9z" transform="translate(27.555 4.509)" style="fill:#fbde08"/>
            <path data-name="Path 3222" d="M18.687 36.562v3.125a1.567 1.567 0 0 1-1.562 1.562H14V35h3.125a1.567 1.567 0 0 1 1.562 1.562z" transform="translate(7.311 19.13)" style="fill:#fbde08"/>
            <path data-name="Path 3223" d="M6 35h6.249v6.249H6z" transform="translate(2.812 19.13)" style="fill:#fbde08"/>
            <path data-name="Path 3224" d="M16.687 40.562v3.125a1.567 1.567 0 0 1-1.562 1.562H12V39h3.125a1.567 1.567 0 0 1 1.562 1.562z" transform="translate(6.186 21.38)" style="fill:#fbde08"/>
            <path data-name="Path 3225" d="M10.249 39v6.249H4V39h6.249z" transform="translate(1.687 21.38)" style="fill:#fbde08"/>
            <path data-name="Path 3226" d="M16.687 44.562v3.125a1.567 1.567 0 0 1-1.562 1.562H12V43h3.125a1.567 1.567 0 0 1 1.562 1.562z" transform="translate(6.186 23.629)" style="fill:#fbde08"/>
            <path data-name="Path 3227" d="M10.249 43v6.249H4V43z" transform="translate(1.687 23.629)" style="fill:#fbde08"/>
            <path data-name="Path 3228" d="M18.687 51.687a1.567 1.567 0 0 1-1.562 1.562H14V47h3.125a1.567 1.567 0 0 1 1.562 1.562z" transform="translate(7.311 25.879)" style="fill:#fbde08"/>
            <path data-name="Path 3229" d="M9.125 47h3.125v6.249H6V47z" transform="translate(2.812 25.879)" style="fill:#fbde08"/>
            <path data-name="Path 3230" d="M17.687 52.562v3.125a1.567 1.567 0 0 1-1.562 1.562H13V51h3.125a1.567 1.567 0 0 1 1.562 1.562z" transform="translate(6.748 28.128)" style="fill:#fbde08"/>
            <path data-name="Path 3231" d="M5 51h6.249v6.249H5z" transform="translate(2.249 28.128)" style="fill:#fbde08"/>
            <path data-name="Path 3232" d="M18.687 56.562v3.125a1.567 1.567 0 0 1-1.562 1.562H14V55h3.125a1.567 1.567 0 0 1 1.562 1.562z" transform="translate(7.311 30.377)" style="fill:#fbde08"/>
            <path data-name="Path 3233" d="M12.249 55v6.249H6V55h6.249z" transform="translate(2.812 30.377)" style="fill:#fbde08"/>
            <path data-name="Path 3234" d="M17.687 60.562v3.125a1.451 1.451 0 0 1-.078.453 1.547 1.547 0 0 1-1.484 1.109H13V59h3.125a1.567 1.567 0 0 1 1.562 1.562z" transform="translate(6.748 32.627)" style="fill:#fbde08"/>
            <path data-name="Path 3235" d="M5 59h6.249v6.249H5z" transform="translate(2.249 32.627)" style="fill:#fbde08"/>
        </g>
        <path data-name="Path 3236" d="M23.873 60.562v3.125a1.451 1.451 0 0 1-.078.453 1.547 1.547 0 0 1-1.484 1.109H3.562A1.567 1.567 0 0 1 2 63.687v-.781h14.061a5.286 5.286 0 0 0 3.125-1A5.366 5.366 0 0 0 21.3 59h1.016a1.567 1.567 0 0 1 1.557 1.562z" transform="translate(.562 32.627)" style="fill:#ffa10b"/>
        <path data-name="Path 3237" d="M17.687 60.562v3.125a1.451 1.451 0 0 1-.078.453 1.547 1.547 0 0 1-1.484 1.109H13v-3.343A5.366 5.366 0 0 0 15.109 59h1.016a1.567 1.567 0 0 1 1.562 1.562z" transform="translate(6.748 32.627)" style="fill:#ffc008"/>
        <path data-name="Path 3238" d="M5 61.5h6.249v2.344H5z" transform="translate(2.249 34.032)" style="fill:#ffc008"/>
        <path data-name="Path 3239" d="M23.311 31H4.562A1.567 1.567 0 0 0 3 32.562v3.125a1.567 1.567 0 0 0 1.562 1.562h18.749a1.567 1.567 0 0 0 1.562-1.562v-3.125A1.567 1.567 0 0 0 23.311 31z" transform="translate(1.125 16.881)" style="fill:#ffc008"/>
        <path data-name="Path 3240" d="M18.687 32.562v3.125a1.567 1.567 0 0 1-1.562 1.562H14V31h3.125a1.567 1.567 0 0 1 1.562 1.562z" transform="translate(7.311 16.881)" style="fill:#fbde08"/>
        <path data-name="Path 3241" d="M6 31h6.249v6.249H6z" transform="translate(2.812 16.881)" style="fill:#fbde08"/>
        <g data-name="Group 2451">
            <path data-name="Path 3242" d="M16.249 32.86v3.34H10v-2.34h3.125a5.286 5.286 0 0 0 3.124-1z" transform="translate(5.061 17.927)" style="fill:#ffa10b"/>
            <path data-name="Path 3243" d="M7.687 33.5v2.344H4.562A1.567 1.567 0 0 1 3 34.281V33.5z" transform="translate(1.125 18.287)" style="fill:#ffa10b"/>
            <g data-name="Group 2450">
                <path data-name="Path 3244" d="M18.687 32.562v3.125a1.567 1.567 0 0 1-1.562 1.562H14v-3.343A5.366 5.366 0 0 0 16.109 31h1.016a1.567 1.567 0 0 1 1.562 1.562z" transform="translate(7.311 16.881)" style="fill:#ffc008"/>
                <path data-name="Path 3245" d="M6 33.5h6.249v2.344H6z" transform="translate(2.812 18.287)" style="fill:#ffc008"/>
            </g>
        </g>
        <g data-name="Group 2453">
            <path data-name="Path 3246" d="M16.249 36.86v3.34H10v-2.34h3.125a5.286 5.286 0 0 0 3.124-1z" transform="translate(5.061 20.176)" style="fill:#ffa10b"/>
            <path data-name="Path 3247" d="M7.687 37.5v2.344H4.562A1.567 1.567 0 0 1 3 38.281V37.5z" transform="translate(1.125 20.536)" style="fill:#ffa10b"/>
            <g data-name="Group 2452">
                <path data-name="Path 3248" d="M18.687 36.562v3.125a1.567 1.567 0 0 1-1.562 1.562H14v-3.343A5.366 5.366 0 0 0 16.109 35h1.016a1.567 1.567 0 0 1 1.562 1.562z" transform="translate(7.311 19.13)" style="fill:#ffc008"/>
                <path data-name="Path 3249" d="M6 37.5h6.249v2.344H6z" transform="translate(2.812 20.536)" style="fill:#ffc008"/>
            </g>
        </g>
        <g data-name="Group 2455">
            <path data-name="Path 3250" d="M14.249 40.86v3.34H8v-2.34h3.125a5.286 5.286 0 0 0 3.124-1z" transform="translate(3.936 22.425)" style="fill:#ffa10b"/>
            <path data-name="Path 3251" d="M5.687 41.5v2.344H2.562A1.567 1.567 0 0 1 1 42.281V41.5z" transform="translate(0 22.785)" style="fill:#ffa10b"/>
            <g data-name="Group 2454">
                <path data-name="Path 3252" d="M16.687 40.562v3.125a1.567 1.567 0 0 1-1.562 1.562H12v-3.343A5.366 5.366 0 0 0 14.109 39h1.016a1.567 1.567 0 0 1 1.562 1.562z" transform="translate(6.186 21.379)" style="fill:#ffc008"/>
                <path data-name="Path 3253" d="M4 41.5h6.249v2.344H4z" transform="translate(1.687 22.785)" style="fill:#ffc008"/>
            </g>
        </g>
        <g data-name="Group 2457">
            <path data-name="Path 3254" d="M14.249 44.86v3.34H8v-2.34h3.125a5.286 5.286 0 0 0 3.124-1z" transform="translate(3.936 24.675)" style="fill:#ffa10b"/>
            <path data-name="Path 3255" d="M5.687 45.5v2.344H2.562A1.567 1.567 0 0 1 1 46.281V45.5z" transform="translate(0 25.035)" style="fill:#ffa10b"/>
            <g data-name="Group 2456">
                <path data-name="Path 3256" d="M16.687 44.562v3.125a1.567 1.567 0 0 1-1.562 1.562H12v-3.343A5.366 5.366 0 0 0 14.109 43h1.016a1.567 1.567 0 0 1 1.562 1.562z" transform="translate(6.186 23.629)" style="fill:#ffc008"/>
                <path data-name="Path 3257" d="M4 45.5h6.249v2.344H4z" transform="translate(1.687 25.035)" style="fill:#ffc008"/>
            </g>
        </g>
        <g data-name="Group 2459">
            <path data-name="Path 3258" d="M16.249 48.86v3.34H10v-2.34h3.125a5.286 5.286 0 0 0 3.124-1z" transform="translate(5.061 26.924)" style="fill:#ffa10b"/>
            <path data-name="Path 3259" d="M7.687 49.5v2.344H4.562A1.567 1.567 0 0 1 3 50.281V49.5z" transform="translate(1.125 27.284)" style="fill:#ffa10b"/>
            <g data-name="Group 2458">
                <path data-name="Path 3260" d="M18.687 48.562v3.125a1.567 1.567 0 0 1-1.562 1.562H14v-3.343A5.366 5.366 0 0 0 16.109 47h1.016a1.567 1.567 0 0 1 1.562 1.562z" transform="translate(7.311 25.878)" style="fill:#ffc008"/>
                <path data-name="Path 3261" d="M6 49.5h6.249v2.344H6z" transform="translate(2.812 27.284)" style="fill:#ffc008"/>
            </g>
        </g>
        <g data-name="Group 2461">
            <path data-name="Path 3262" d="M15.249 52.86v3.34H9v-2.34h3.125a5.286 5.286 0 0 0 3.124-1z" transform="translate(4.498 29.174)" style="fill:#ffa10b"/>
            <path data-name="Path 3263" d="M6.687 53.5v2.344H3.562A1.567 1.567 0 0 1 2 54.281V53.5z" transform="translate(.562 29.534)" style="fill:#ffa10b"/>
            <g data-name="Group 2460">
                <path data-name="Path 3264" d="M17.687 52.562v3.125a1.567 1.567 0 0 1-1.562 1.562H13v-3.343A5.366 5.366 0 0 0 15.109 51h1.016a1.567 1.567 0 0 1 1.562 1.562z" transform="translate(6.748 28.128)" style="fill:#ffc008"/>
                <path data-name="Path 3265" d="M5 53.5h6.249v2.344H5z" transform="translate(2.249 29.534)" style="fill:#ffc008"/>
            </g>
        </g>
        <g data-name="Group 2463">
            <path data-name="Path 3266" d="M16.249 56.86v3.34H10v-2.34h3.125a5.286 5.286 0 0 0 3.124-1z" transform="translate(5.061 31.423)" style="fill:#ffa10b"/>
            <path data-name="Path 3267" d="M7.687 57.5v2.344H4.562A1.567 1.567 0 0 1 3 58.281V57.5z" transform="translate(1.125 31.783)" style="fill:#ffa10b"/>
            <g data-name="Group 2462">
                <path data-name="Path 3268" d="M18.687 56.562v3.125a1.567 1.567 0 0 1-1.562 1.562H14v-3.343A5.366 5.366 0 0 0 16.109 55h1.016a1.567 1.567 0 0 1 1.562 1.562z" transform="translate(7.311 30.377)" style="fill:#ffc008"/>
                <path data-name="Path 3269" d="M6 57.5h6.249v2.344H6z" transform="translate(2.812 31.783)" style="fill:#ffc008"/>
            </g>
        </g>
        <circle data-name="Ellipse 46" cx="12.499" cy="12.499" r="12.499" transform="translate(36.934 52.568)" style="fill:#fff"/>
        <path data-name="Path 3270" d="M48.705 45.279A12.5 12.5 0 0 1 24.52 49.7a12.5 12.5 0 0 0 21.061-9.109 12.21 12.21 0 0 0-.812-4.421 12.474 12.474 0 0 1 3.936 9.109z" transform="translate(13.227 19.788)" style="fill:#f0f0f0"/>
        <path data-name="Path 3271" d="M51.092 17.427a2.27 2.27 0 0 0 2.015-1.187c8.968 5.812 16.545 17.327 21.326 29.31a83.158 83.158 0 0 1 2.25 6.249c.672 2.109 1.25 4.2 1.719 6.249a60.213 60.213 0 0 1 1.141 6.252A46.9 46.9 0 0 1 80 70.547a18.432 18.432 0 0 1-1.082 6.253 18.764 18.764 0 0 1-3.718 6.246 18.964 18.964 0 0 1-6.14 4.531 18.433 18.433 0 0 1-7.813 1.723h-37.5a18.519 18.519 0 0 1-6.328-1.109 1.452 1.452 0 0 0 .078-.453v-3.129a1.567 1.567 0 0 0-1.562-1.562H17.5a1.567 1.567 0 0 0 1.562-1.562v-3.126A1.567 1.567 0 0 0 17.5 76.8h-1.561a1.567 1.567 0 0 0 1.561-1.565V72.11a1.567 1.567 0 0 0-1.562-1.562H17.5a1.567 1.567 0 0 0 1.562-1.562V65.86A1.567 1.567 0 0 0 17.5 64.3h-3.123a1.567 1.567 0 0 0 1.562-1.562v-3.127a1.567 1.567 0 0 0-1.562-1.562 1.567 1.567 0 0 0 1.562-1.562v-3.125a1.567 1.567 0 0 0-1.562-1.562H17.5a1.567 1.567 0 0 0 1.562-1.562v-3.126A1.567 1.567 0 0 0 17.5 45.55a1.567 1.567 0 0 0 1.562-1.562v-3.125A1.567 1.567 0 0 0 17.5 39.3h-4.17c4.718-9.593 11.171-18.28 18.561-23.06a2.27 2.27 0 0 0 2.015 1.187h17.186zM55 56.486a12.5 12.5 0 1 0-12.5 12.5 12.5 12.5 0 0 0 12.5-12.5z" transform="translate(6.934 8.58)" style="fill:#003adc"/>
        <path data-name="Path 3272" d="M79.057 70.547a18.432 18.432 0 0 1-1.078 6.253 18.764 18.764 0 0 1-3.718 6.249 18.964 18.964 0 0 1-6.14 4.531 18.433 18.433 0 0 1-7.813 1.72h-37.5a18.519 18.519 0 0 1-6.328-1.109 1.452 1.452 0 0 0 .078-.453v-3.129A1.567 1.567 0 0 0 15 83.046h35.934a18.433 18.433 0 0 0 7.812-1.719 18.964 18.964 0 0 0 6.14-4.531 18.764 18.764 0 0 0 3.714-6.249 18.431 18.431 0 0 0 1.082-6.247 46.893 46.893 0 0 0-.453-6.249 60.215 60.215 0 0 0-1.14-6.251 78.117 78.117 0 0 0-1.719-6.249 83.158 83.158 0 0 0-2.25-6.249 77.02 77.02 0 0 0-13.092-22.046 2.193 2.193 0 0 0 1.141-1.016c8.968 5.812 16.545 17.327 21.326 29.31a83.158 83.158 0 0 1 2.25 6.249c.672 2.109 1.25 4.2 1.719 6.249A60.215 60.215 0 0 1 78.6 64.3a46.893 46.893 0 0 1 .457 6.247z" transform="translate(7.873 8.58)" style="fill:#012a9e"/>
        <path data-name="Path 3273" d="M23.3 79.886A18.519 18.519 0 0 0 29.624 81h-6.25a18.519 18.519 0 0 1-6.328-1.109 1.452 1.452 0 0 0 .078-.453v-3.13a1.567 1.567 0 0 0-1.562-1.562h1.562a1.567 1.567 0 0 0 1.562-1.562v-3.125a1.567 1.567 0 0 0-1.561-1.559h-1.563a1.567 1.567 0 0 0 1.562-1.562v-3.129a1.567 1.567 0 0 0-1.562-1.562h1.562a1.567 1.567 0 0 0 1.562-1.562V57.56A1.567 1.567 0 0 0 17.125 56H14a1.567 1.567 0 0 0 1.562-1.562v-3.127A1.567 1.567 0 0 0 14 49.748a1.567 1.567 0 0 0 1.562-1.562v-3.125A1.567 1.567 0 0 0 14 43.5h3.125a1.567 1.567 0 0 0 1.562-1.562v-3.126a1.567 1.567 0 0 0-1.562-1.562 1.567 1.567 0 0 0 1.562-1.562v-3.126A1.567 1.567 0 0 0 17.125 31h6.249a1.567 1.567 0 0 1 1.562 1.562v3.125a1.567 1.567 0 0 1-1.562 1.562 1.567 1.567 0 0 1 1.562 1.562v3.125a1.567 1.567 0 0 1-1.562 1.564h-3.125a1.567 1.567 0 0 1 1.562 1.562v3.125a1.567 1.567 0 0 1-1.562 1.562 1.567 1.567 0 0 1 1.562 1.562v3.125A1.567 1.567 0 0 1 20.249 56h3.125a1.567 1.567 0 0 1 1.562 1.562v3.125a1.567 1.567 0 0 1-1.562 1.562h-1.562a1.567 1.567 0 0 1 1.562 1.562v3.125a1.567 1.567 0 0 1-1.562 1.564h1.562a1.567 1.567 0 0 1 1.562 1.562v3.125a1.567 1.567 0 0 1-1.562 1.562h-1.562a1.567 1.567 0 0 1 1.562 1.562v3.125a1.452 1.452 0 0 1-.074.45z" transform="translate(7.311 16.881)" style="fill:#3d3f42"/>
        <path data-name="Path 3274" d="M32.25 3.9a14.4 14.4 0 0 1 15.233-1.328C39.484 9.322 33.75 5.244 32.25 3.9z" transform="translate(17.574)" style="fill:#001d70"/>
        <path data-name="Path 3275" d="m53.247 2.542-5.781 14.436a2.146 2.146 0 0 0-1.25-.375H29.031a2.146 2.146 0 0 0-1.25.375L22 2.542s9.374-3.953 15.624.953c0 0 .141.141.391.375 1.499 1.343 7.233 5.421 15.232-1.328z" transform="translate(11.809 .03)" style="fill:#003adc"/>
        <g data-name="Group 2464">
            <path data-name="Path 3276" d="M38.689 25.374a1.564 1.564 0 0 1-1.4-.864l-3.124-6.25a1.563 1.563 0 1 1 2.8-1.4l3.125 6.249a1.564 1.564 0 0 1-1.4 2.262z" transform="translate(18.557 8.446)" style="fill:#364449"/>
        </g>
        <g data-name="Group 2465">
            <path data-name="Path 3277" d="M27.561 25.373a1.561 1.561 0 0 1-1.4-2.261l3.125-6.249a1.563 1.563 0 0 1 2.8 1.4l-3.125 6.249a1.565 1.565 0 0 1-1.4.862z" transform="translate(14.059 8.447)" style="fill:#364449"/>
        </g>
        <path data-name="Path 3278" d="M46.873 16.344a2.083 2.083 0 0 1-.328 1.156 2.27 2.27 0 0 1-2.015 1.187H27.344a2.27 2.27 0 0 1-2.016-1.187A2.083 2.083 0 0 1 25 16.344 2.34 2.34 0 0 1 27.344 14h17.185a2.34 2.34 0 0 1 2.344 2.344z" transform="translate(13.497 7.321)" style="fill:#ffc008"/>
        <path data-name="Path 3279" d="M44.529 11a2.146 2.146 0 0 1 1.25.375 2.317 2.317 0 0 1 1.094 1.969 2.34 2.34 0 0 1-2.344 2.344H27.344A2.34 2.34 0 0 1 25 13.344a2.317 2.317 0 0 1 1.094-1.969 2.146 2.146 0 0 1 1.25-.375z" transform="translate(13.497 5.633)" style="fill:#fbde08"/>
        <path data-name="Path 3280" d="M38.375 48.5a4.693 4.693 0 0 0-4.687-4.687 1.562 1.562 0 1 1 0-3.125 1.547 1.547 0 0 1 1.345.772 1.562 1.562 0 1 0 2.715-1.544 4.621 4.621 0 0 0-2.5-2.05v-.3a1.562 1.562 0 1 0-3.125 0v.287a4.676 4.676 0 0 0 1.562 9.087 1.562 1.562 0 1 1 0 3.125 1.545 1.545 0 0 1-1.345-.772 1.562 1.562 0 1 0-2.715 1.544 4.621 4.621 0 0 0 2.5 2.05v.3a1.562 1.562 0 0 0 3.125 0V52.9a4.681 4.681 0 0 0 3.125-4.4z" transform="translate(15.745 19.692)" style="fill:#ff7757"/>
    </g>
</svg>
