<svg xmlns="http://www.w3.org/2000/svg" width="51.715" height="51.715" viewBox="0 0 51.715 51.715">
  <defs>
    <style>
      .cls-1 {
        fill: #fff;
      }
    </style>
  </defs>
  <path id="Icon_awesome-thumbs-up" data-name="Icon awesome-thumbs-up" class="cls-1" d="M10.5,29.09H2.424A2.424,2.424,0,0,1,0,26.665V2.424A2.424,2.424,0,0,1,2.424,0H10.5a2.424,2.424,0,0,1,2.424,2.424V26.665A2.424,2.424,0,0,1,10.5,29.09ZM6.464,4.04A2.424,2.424,0,1,0,8.888,6.464,2.424,2.424,0,0,0,6.464,4.04ZM38.786,43.488c0-4.284-2.623-6.687-3.361-9.55H45.7a6.035,6.035,0,0,0,6.015-5.868A7.313,7.313,0,0,0,49.751,23.1l-.011-.011a8.437,8.437,0,0,0-.94-8.027,7.987,7.987,0,0,0-1.655-7.551A5.362,5.362,0,0,0,46.524,3C44.463.042,39.353,0,35.033,0h-.287c-4.877,0-8.869,1.777-12.076,3.2a15.9,15.9,0,0,1-5.318,1.634,1.212,1.212,0,0,0-1.19,1.212V27.642a1.211,1.211,0,0,0,.359.861c4,3.954,5.722,8.14,9,11.425,1.5,1.5,2.039,3.761,2.565,5.949.449,1.869,1.389,5.838,3.427,5.838C33.938,51.715,38.786,50.907,38.786,43.488Z"/>
</svg>
