<?xml version="1.0" encoding="utf-8"?>
<!-- Generator: Adobe Illustrator 27.7.0, SVG Export Plug-In . SVG Version: 6.00 Build 0)  -->
<svg version="1.1" id="Layer_1" xmlns="http://www.w3.org/2000/svg" xmlns:xlink="http://www.w3.org/1999/xlink" x="0px" y="0px"
	 viewBox="0 0 1080 1080" style="enable-background:new 0 0 1080 1080;" xml:space="preserve">
<style type="text/css">
	.st0{fill:#FF7757;}
</style>
<g>
	<g>
		<path class="st0" d="M185.7,729.1c0-43,0-86,0-129.1c0-20.9,15.5-36.4,36.4-36.4c31.1,0,62.2-0.2,93.4,0.1
			c15.2,0.1,26.2,7.5,32.6,21.3c1,2.1,2.2,2.3,4,2.3c10.8,0,21.6,0,32.5,0c13.3-0.1,23.8,5,31.4,16.1c0.9,1.3,1.6,2.7,3.4,1.1
			c9-8,19.7-13,30.4-17.8c14.1-6.2,24.3-16.4,32.3-29.3c12.9-20.9,19.9-43.8,21.9-68.2c0.5-5.6,0.3-11.4,1.2-16.9
			c2.3-14.4,11.8-24,26.2-26.1c21-3,37.8,5.4,51.4,20.6c11.5,12.7,16.2,28.3,16.3,45.2c0.2,27.6,0.1,55.2,0,82.8
			c0,3.4,0.6,4.5,4.3,4.5c33.8-0.2,67.6-0.1,101.5-0.1c25.4,0,45.7,18.7,47.7,44.1c0.7,9.2-1.7,18.1-3.9,26.9
			c-11.3,44.9-25.4,88.9-39.8,132.9c-3.9,12-7.4,24.3-14.3,35.1c-9.1,14.1-21.7,21.5-38.7,21.4c-69.7-0.1-139.5-0.1-209.2-0.1
			c-9.3,0-18-2.1-25.9-7.2c-1.8-1.2-2.4-0.7-3.4,0.9c-7.7,12.9-19.2,18.4-33.9,18.2c-10.5-0.2-20.9,0-31.4,0c-1.8,0-3,0.1-3.9,2.2
			c-6.1,13.4-16.8,21.1-31.5,21.3c-32.1,0.5-64.2,0.3-96.3,0.1c-19-0.1-34.5-16.2-34.5-35.3C185.7,816.2,185.7,772.6,185.7,729.1z
			 M551.4,835.8c34.8,0,69.6-0.1,104.4,0.1c8,0,14-3.1,18.2-9.8c2.1-3.3,4-6.8,5.4-10.5c4.7-12.2,8.4-24.7,12.3-37.1
			c12.4-38.9,24.9-77.8,34.5-117.5c1.4-5.7,3.2-11.5,2.4-17.5c-1.6-12.3-11.5-20.8-24.2-20.8c-38.2,0-76.5,0-114.7,0
			c-9.8,0-14.3-4.4-14.3-14.1c0-32.2,0.1-64.3,0-96.5c0-13.7-4.4-25.7-15.2-34.6c-7.1-5.8-15.1-9.4-24.5-8.1
			c-5.9,0.8-7.4,2.9-7.5,8.9c-0.6,31.1-8.3,60.4-23.7,87.4c-11.1,19.5-26.1,34.7-47.1,43.4c-4.9,2-9.5,4.6-14.1,7.2
			c-14.4,8-21.5,19.9-21.4,36.7c0.3,52.4,0.1,104.8,0.1,157.2c0,15.9,9.7,25.6,25.5,25.6C482.1,835.8,516.8,835.8,551.4,835.8z
			 M327.4,729.3c0-42.8,0-85.6,0-128.3c0-9-4.6-13.6-13.6-13.6c-30.1,0-60.3,0-90.4,0c-9.6,0-14,4.4-14,14c0,85.3,0,170.6,0,255.9
			c0,9.8,4.4,14.1,14.2,14.1c29.9,0,59.8,0,89.7,0c9.9,0,14.2-4.3,14.2-14.1C327.4,814.6,327.4,771.9,327.4,729.3z M351.1,728.9
			c0,38.3,0,76.7-0.1,115c0,3.1,0.7,3.9,3.8,3.9c10.1-0.2,20.2-0.1,30.2-0.1c8.6,0,13.2-4.7,13.2-13.3c0-70,0-140,0-210
			c0-8.8-4.7-13.4-13.5-13.4c-9.8,0-19.7,0.1-29.5-0.1c-3.2-0.1-4.3,0.7-4.3,4.2C351.1,653,351.1,691,351.1,728.9z"/>
		<path class="st0" d="M823.4,350.6c5.5-0.1,9.8,3.2,11.8,9.4c3,9.3,6.8,18.2,12,26.4c9.1,14.4,21,25.9,36.1,34
			c1.3,0.7,2.6,1.4,3.9,2.1c4.4,2.3,7.1,5.7,7,10.8c0,5-2.5,8.6-6.9,10.9c-9.3,4.7-17.7,10.6-25.2,17.9
			c-12.8,12.5-21.7,27.5-27,44.7c-2.5,8.3-10,11.7-17.3,8.1c-3.5-1.7-5.1-4.8-6.2-8.3c-6-19.6-16.7-36-32.3-49.3
			c-5.9-5.1-12.5-9.2-19.4-12.7c-4.5-2.3-7.4-5.7-7.4-11c0-5.2,2.7-8.8,7.3-11.1c25.7-12.9,42.2-33.5,51.2-60.5
			C813.7,353.9,817.4,350.7,823.4,350.6z M858.8,433.8c-0.3-1.4-1.4-1.8-2.3-2.4c-12.8-9.7-23.2-21.6-31.1-35.6
			c-1.7-3-2.6-2.4-4,0.1c-8,14.3-18.7,26.2-31.8,36c-2,1.5-1.6,2.2,0.1,3.5c12.9,9.7,23.5,21.6,31.8,35.5c1.7,2.9,2.5,2.3,4-0.1
			c8.2-14,18.9-25.7,31.8-35.6C857.8,434.7,858.3,434.2,858.8,433.8z"/>
		<path class="st0" d="M185.7,433.2c0.2-5.2,3.1-8.7,7.8-11c14.7-7.3,26.8-17.7,36.3-31.1c6.6-9.4,11.5-19.7,15-30.7
			c1-3.1,2.4-5.9,5.3-7.8c6.7-4.3,14.8-1.5,17.7,6.2c2.3,6.1,4.2,12.3,7.2,18.2c9.9,19.6,24.2,34.8,43.9,44.8
			c0.8,0.4,1.5,0.8,2.3,1.2c8.6,5,8.6,16.2-0.2,20.9c-10.7,5.7-20.5,12.6-28.9,21.5c-11.1,11.9-18.9,25.7-23.7,41.2
			c-2.6,8.4-9.8,11.8-17.2,8.4c-3.7-1.7-5.3-4.9-6.4-8.5c-5.3-17-14.1-31.8-26.9-44.3c-7.4-7.2-15.5-13.2-24.8-17.7
			C188.5,442.2,185.8,438.6,185.7,433.2z M256.5,473.8c1.1-1.8,1.9-2.9,2.6-4c8-13.2,18.2-24.5,30.4-33.8c2.8-2.1,2.4-3,0-4.8
			c-12.7-9.5-22.8-21.2-30.8-34.9c-2-3.5-2.3-3.5-4.3,0c-8,14-18.5,25.8-31.3,35.4c-2.2,1.6-2,2.4,0,3.9c6.8,5.1,13,10.9,18.6,17.4
			C247.2,459.2,251.9,466.1,256.5,473.8z"/>
		<path class="st0" d="M658,321.1c0.2-4.5,2.1-8.1,6.1-10.3c18.1-10,29.3-25.3,35.4-44.8c2.1-6.7,6.2-10,12-10
			c5.5,0,9.6,3.5,11.6,10.1c5.8,19.5,17.2,34.5,35,44.7c8.2,4.7,8.6,16.2,0.4,20.6c-18.6,10-29.5,25.8-35.6,45.5
			c-2.5,8.1-9.7,11.5-17.1,8.1c-3.7-1.7-5.3-4.9-6.5-8.5c-3.2-10.6-8.1-20.3-15.2-28.8c-5.4-6.5-11.9-11.7-19.4-15.7
			C660.5,329.4,658.3,325.9,658,321.1z M711.3,298.2c-0.9,0.1-1.1,0.9-1.5,1.5c-5,7.4-10.5,14.2-17.3,20c-1.5,1.3-0.7,2,0.3,2.8
			c6.6,5.6,12.1,12.2,16.7,19.5c1.5,2.4,2.3,2.1,3.6-0.1c4.4-7.4,10-13.7,16.4-19.3c1.6-1.4,1.5-2,0-3.3c-6.5-5.7-12-12.3-16.8-19.5
			C712.3,299.2,712.1,298.4,711.3,298.2z"/>
		<path class="st0" d="M422,321.2c-0.3,4.3-1.9,7.9-5.9,10c-18.5,9.7-29.4,25.5-35.5,45.1c-2,6.3-6.1,9.8-11.8,9.8
			c-5.5,0-9.7-3.3-11.7-9.5c-2.2-7.1-5.1-13.8-8.9-20.2c-6.3-10.3-14.5-18.6-25.2-24.3c-4.5-2.4-7.3-5.8-7.3-11
			c0-5.2,2.8-8.6,7.2-11.1c16.4-9.2,27-23.2,33.1-40.9c0.4-1.2,0.7-2.3,1.1-3.5c2.1-6.5,6.2-9.7,11.9-9.7c5.4,0.1,9.6,3.5,11.5,9.7
			c1.4,4.5,2.9,8.9,5,13.1c6.7,13.4,16.3,24.2,29.5,31.5C419.4,312.6,421.7,316.1,422,321.2z M368.5,344c1.2-0.1,1.4-1.1,1.9-1.8
			c4.5-7.4,10.2-13.9,16.6-19.6c1.6-1.5,1.4-2.1,0-3.3c-6.4-5.8-12-12.3-16.7-19.6c-1.2-1.9-1.9-1.7-3,0c-4.8,7.4-10.3,14-17,19.7
			c-1.2,1-1.5,1.7-0.2,2.9c7,5.8,12.6,12.7,17.4,20.4C367.7,343.2,368.2,343.6,368.5,344z"/>
		<path class="st0" d="M847.1,184.9c5.4,0,9.8,3.5,11.6,9.6c1.9,6.7,4.5,13,8.2,18.9c5.2,8.3,12.1,14.8,20.4,19.9
			c9.4,5.7,9.3,16.2-0.2,21.7c-15,8.7-23.5,22.3-28.4,38.5c-2.5,8.4-9.7,11.9-17.1,8.5c-3.5-1.7-5.2-4.7-6.3-8.2
			c-1.4-4.6-3.1-9.1-5.2-13.4c-5.5-11-13.2-19.7-24-25.8c-8.4-4.7-8.8-15.7-0.6-20.5c15.4-9,24.8-22.4,29.8-39.2
			C837.2,188.2,841.4,184.9,847.1,184.9z M847.3,261.2c0.3-0.3,0.6-0.6,0.9-1c3.6-5.5,7.6-10.6,12.5-15c1.2-1.1,0.5-1.9-0.3-2.7
			c-4.5-4.2-8.4-9-11.9-14.1c-1.1-1.7-1.9-2-3.1-0.1c-3.2,5.1-7.2,9.7-11.6,13.8c-1.3,1.3-1.6,2.2-0.1,3.6
			c4.5,4.1,8.3,8.7,11.6,13.8C845.8,260.2,846.2,261.1,847.3,261.2z"/>
		<path class="st0" d="M280.3,243.5c-0.1,4.7-1.7,8.4-5.6,10.5c-15.8,8.7-24.8,22.6-30,39.5c-2.5,8.4-9.8,11.9-17.2,8.4
			c-3.4-1.6-5.1-4.5-6.2-7.9c-3.3-10.9-8.1-20.8-16-29.2c-3.9-4.2-8.4-7.5-13.4-10.4c-8.5-4.9-8.7-15.8-0.2-20.8
			c15.2-8.9,24.4-22.1,29.3-38.7c2.5-8.4,9.1-12.1,16.2-9.3c4,1.6,6.2,4.7,7.3,8.7c1.9,7.2,5,13.9,9,20.1
			c5.2,7.9,11.8,14.1,19.9,18.8C277.7,235.7,280.1,239.1,280.3,243.5z M247.8,244c-0.5-0.6-0.9-1.1-1.3-1.5
			c-4.5-4.4-8.7-9.1-12-14.4c-1.4-2.3-2.1-1-3,0.4c-3.3,4.9-7,9.5-11.4,13.5c-1.5,1.3-1.8,2.3-0.2,3.9c4.5,4.1,8.3,8.8,11.6,13.8
			c1.3,2,2.1,1.9,3.3-0.1c3.2-5.1,7-9.8,11.5-13.9C246.7,245.2,247.2,244.7,247.8,244z"/>
		<path class="st0" d="M551.8,380c0,5.9,0.1,11.8,0,17.7c-0.1,7.1-4.9,11.9-11.8,12c-6.8,0.1-11.8-4.8-11.8-11.9
			c-0.1-11.8-0.1-23.6,0-35.5c0.1-7,5.1-11.8,12-11.8c6.6,0,11.5,4.9,11.6,11.7C551.9,368.2,551.8,374.1,551.8,380z"/>
		<path class="st0" d="M456.8,372.5c2.2-0.2,4.8,1.4,7.1,3.6c8.5,8.4,17,16.8,25.3,25.4c5,5.2,4.8,11.5,0,16.4
			c-4.9,5-11.4,5.2-16.7,0c-8.6-8.3-16.9-16.8-25.3-25.3c-3.5-3.6-4.6-7.9-2.4-12.5C446.9,375.5,450.4,372.6,456.8,372.5z"/>
		<path class="st0" d="M623.2,372.5c6.4,0.1,9.9,3,12,7.5c2,4.1,1.5,8.4-1.6,11.7c-8.9,9.2-17.9,18.3-27.1,27.1
			c-4.6,4.4-11.1,3.6-15.6-0.9c-4.6-4.6-5.2-10.8-0.7-15.5c8.7-9.2,17.8-18.1,26.8-27C618.9,373.4,621.4,372.3,623.2,372.5z"/>
		<path class="st0" d="M256.6,835.8c0,6.5-5.2,11.7-11.7,11.9c-6.4,0.1-11.9-5.2-11.9-11.6c-0.1-6.6,5.3-12,11.9-12
			C251.2,824,256.6,829.4,256.6,835.8z"/>
	</g>
</g>
</svg>
