<?xml version="1.0" encoding="utf-8"?>
<!-- Generator: Adobe Illustrator 27.7.0, SVG Export Plug-In . SVG Version: 6.00 Build 0)  -->
<svg version="1.1" id="Layer_1" xmlns="http://www.w3.org/2000/svg" xmlns:xlink="http://www.w3.org/1999/xlink" x="0px" y="0px"
	 viewBox="0 0 1080 1080" style="enable-background:new 0 0 1080 1080;" xml:space="preserve">
<style type="text/css">
	.st0{fill:#FF7757;}
</style>
<g>
	<g>
		<path class="st0" d="M529.3,448c-19.1,0-38.3,0-57.4,0c-2.6,0-4.4,0.8-6.2,2.7c-25.3,25.4-50.7,50.8-76.1,76.2
			c-2.5,2.5-5.4,3.7-8.9,3.7c-20,0-40,0-60,0c-4.8,0-8.6-1.8-10.6-6.4c-1.7-4.1-0.7-7.8,2.2-11c2.3-2.6,5.4-3.2,8.8-3.2
			c17.6,0,35.3,0,52.9,0.1c2.5,0,4.2-0.8,5.9-2.5c25.3-25.4,50.6-50.6,75.9-76c2.9-3,6.3-4.2,10.4-4.2c37.9,0.1,75.9,0,113.8,0.1
			c2.7,0,4.6-0.8,6.5-2.7c39.6-39.7,79.3-79.4,119-119c1.9-1.9,1.6-2.7-0.1-4.4c-13.9-13.8-27.7-27.6-41.5-41.4
			c-3.3-3.3-4.8-7.1-2.9-11.7c2-4.7,5.8-6.6,10.8-6.6c33.6,0,67.3,0,100.9,0c7.2,0,11.4,4.2,11.4,11.4c0,33.6,0,67.3,0,100.9
			c0,4.7-1.6,8.4-6.1,10.4c-4.5,2-8.3,1.3-12.3-2.7c-13.5-13.5-27-27.1-40.5-40.6c-3.1-3.1-3-3.1-6.2,0.1
			c-40.8,40.8-81.6,81.6-122.4,122.5c-3,3-6.4,4.4-10.6,4.4C567.2,448,548.2,448,529.3,448z M763.1,329.6c0.2-0.6,0.3-0.8,0.3-1
			c0-21.4,0-42.7,0.1-64.1c0-2.7-1.4-2.3-3-2.3c-20.6,0-41.2,0-61.8,0c-0.8,0-1.7-0.4-2.3,0.3C718.5,284.9,740.7,307.2,763.1,329.6z
			"/>
		<path class="st0" d="M849.9,726.6c-8.8,0-17.6,0.1-26.4-0.1c-2.7,0-3,0.5-2,3c7.7,17.7,15.3,35.4,22.9,53.2
			c3.3,7.8,1.7,12-5.8,15.8c-12.7,6.5-25.5,12.9-38.3,19.1c-7.6,3.7-12.9,1.4-16.2-6.4c-7.7-18.1-15.4-36.1-23.1-54.2
			c-1.2-2.8-1.9-0.9-2.8-0.1c-11.9,11.8-23.8,23.6-35.7,35.4c-1.3,1.3-2.5,2.7-3.9,3.8c-3.4,2.7-7.1,3.4-11.1,1.5
			c-3.9-1.9-5.8-5-5.9-9.2c-0.1-8.4,0-16.8,0-25.1c0-70.2,0-140.4,0-210.5c0-4.3,1.1-7.9,4.8-10.3c4.6-2.9,9.3-2.2,13.7,2.1
			c8.4,8.3,16.7,16.7,25.1,25.1c45.4,45.4,90.7,90.7,136.1,136.1c1,1,2,2,2.9,3c3.1,3.4,4.3,7.2,2.3,11.5c-1.9,4.3-5.5,6.2-10.1,6.2
			C867.5,726.6,858.7,726.6,849.9,726.6z M850.7,705.9c-42.8-42.8-85.7-85.7-128.3-128.3c0,61.4,0,123.3,0,185.2
			c0.3,0.2,0.5,0.4,0.8,0.6c1.7-1.9,3.3-3.8,5.1-5.6c9.1-9.1,18.2-18.2,27.4-27.3c3.5-3.5,7.5-4.9,12.3-2.9c3.1,1.3,4.7,3.9,6,6.9
			c8.2,19.3,16.5,38.7,24.7,58c0.9,2,1.5,2.5,3.6,1.4c5.9-3.1,11.8-6,17.9-8.9c1.9-0.9,2.4-1.7,1.4-3.8
			c-8.6-19.7-17.2-39.5-25.6-59.4c-3.8-8.9,1-15.7,10.7-15.7c13.9,0,27.7,0,41.6,0C849.1,705.9,850.1,705.9,850.7,705.9z"/>
		<path class="st0" d="M619,613.1c0,37.1,0,74.2,0,111.2c0,8.7-3.8,12.6-12.5,12.6c-39.8,0-79.5,0-119.3,0
			c-8.9,0-12.7-3.8-12.7-12.8c0-74.2,0-148.3,0-222.5c0-8.5,3.9-12.4,12.4-12.4c40,0,80,0,119.9,0c8.3,0,12.2,3.9,12.2,12.3
			C619,538.7,619,575.9,619,613.1z M495.1,612.7c0,33.4,0,66.8-0.1,100.2c0,2.7,0.7,3.4,3.3,3.3c32.1-0.1,64.3-0.1,96.4,0
			c2.7,0,3.6-0.5,3.6-3.4c-0.1-66.5-0.1-133,0-199.5c0-2.8-0.7-3.5-3.5-3.5c-32,0.1-64,0.1-96.1,0c-2.8,0-3.8,0.5-3.7,3.6
			C495.2,546.6,495.1,579.6,495.1,612.7z"/>
		<path class="st0" d="M660.2,571.8c0-50.9,0-101.9,0-152.8c0-8.3,3.9-12.2,12.2-12.2c40.1,0,80.2,0,120.3,0c8,0,12,4,12,11.8
			c0,50.6,0,101.2,0,151.8c0,6-2.3,9.6-7.3,11.2c-6.3,2-12.7-2.2-13.3-8.8c-0.1-1.2-0.1-2.4-0.1-3.5c0-46,0-92,0.1-138
			c0-3.4-1-3.9-4.1-3.9c-31.9,0.1-63.8,0.1-95.8,0c-2.9,0-3.5,0.8-3.5,3.5c0.1,98,0.1,196,0.1,294c0,6.3-2.3,9.8-7.3,11.5
			c-6.3,2-12.7-2.3-13.3-8.8c-0.1-1.1,0-2.1,0-3.2C660.2,673.4,660.2,622.6,660.2,571.8z"/>
		<path class="st0" d="M288.7,654.5c0-23.5,0-47.1,0-70.6c0-8,4-12,12.1-12c40.1,0,80.2,0,120.3,0c8.1,0,12.1,4,12.1,12
			c0,47,0,93.9,0,140.9c0,8.3-3.9,12.2-12.3,12.2c-39.9,0-79.7,0-119.6,0c-8.8,0-12.6-3.8-12.6-12.5
			C288.7,701.1,288.7,677.8,288.7,654.5z M309.4,654.3c0,19.7,0,39.3-0.1,59c0,2.3,0.5,3.1,3,3.1c32.4-0.1,64.9-0.1,97.3,0
			c2.5,0,3-0.7,3-3.1c-0.1-39.2-0.1-78.4,0-117.6c0-2.4-0.5-3.2-3.1-3.2c-32.3,0.1-64.7,0.1-97,0c-2.6,0-3.1,0.8-3.1,3.2
			C309.4,615.2,309.4,634.7,309.4,654.3z"/>
		<path class="st0" d="M531.2,778.2c-6.4,0-12.9,0-19.3,0c-6.9,0-11.6-4.2-11.5-10.3c0-6.1,4.6-10.3,11.5-10.3c13,0,26,0,39,0
			c6.7,0,11.3,4.2,11.4,10.1c0.1,6.1-4.5,10.5-11.4,10.5C544.3,778.2,537.7,778.2,531.2,778.2z"/>
		<path class="st0" d="M582.8,767.9c0-5.7,4.9-10.4,10.6-10.3c5.6,0.1,10.1,4.9,10,10.5c-0.1,5.6-4.8,10.2-10.4,10.1
			C587.4,778.1,582.8,773.5,582.8,767.9z"/>
	</g>
</g>
</svg>
