<?xml version="1.0" encoding="utf-8"?>
<!-- Generator: Adobe Illustrator 27.7.0, SVG Export Plug-In . SVG Version: 6.00 Build 0)  -->
<svg version="1.1" id="Layer_1" xmlns="http://www.w3.org/2000/svg" xmlns:xlink="http://www.w3.org/1999/xlink" x="0px" y="0px"
	 viewBox="0 0 1080 1080" style="enable-background:new 0 0 1080 1080;" xml:space="preserve">
<style type="text/css">
	.st0{fill:#FF7757;}
</style>
<g>
	<path class="st0" d="M500.1,229.9c30.7,0,61.4,0,92.1,0c10.6,0,14.9,4.3,14.9,14.9c0,52.8,0,105.5,0,158.3c0,10.5-4.4,14.9-15,14.9
		c-53.5,0-106.9,0-160.4,0c-15.6,0-30.6,2.8-45.1,8.5c-3,1.2-6,2.6-9.5,2c-5.8-1.1-10-5.5-10.6-11c-0.5-5.2,2.6-10.2,8-12.6
		c9.5-4.1,19.5-6.9,29.7-8.9c9.4-1.8,18.9-2.4,28.5-2.4c15.3,0,30.6-0.1,45.8,0.1c3.1,0,4.2-0.6,4.2-4c-0.1-43.8-0.1-87.5-0.1-131.3
		c0-2.2,0.1-4-3-4c-24.1,0.3-48.3-0.9-72.4,1.1c-41,3.5-79.8,14.9-115.5,35.4c-68.9,39.7-114.6,97.7-136.4,174.3
		c-5.5,19.3-8.2,39.1-9.6,59.2c-0.2,3.3,1.3,3.5,3.8,3.5c20.1-0.1,40.1-0.1,60.2-0.1c23.5,0,46.9-0.1,70.4,0.1
		c3.6,0,5.1-0.7,5.6-4.7c3.4-30.7,15.6-57.6,36.1-80.7c4.7-5.2,9.8-6.4,15-4c6,2.8,10.7,11.6,4.1,19.2c-6.6,7.7-12.6,15.8-17.4,24.7
		c-33.1,61.4-7.4,138.7,55.8,168c16.7,7.7,34.3,11.5,52.7,11.5c53.6,0,107.2,0,160.8,0c7.6,0,12.1,3,13.7,9.2
		c0.4,1.6,0.4,3.2,0.4,4.9c0,53.2,0,106.3,0,159.5c0,9.9-4.5,14.5-14.5,14.5c-55.4,0-110.8,0.5-166.1-0.2
		c-51.5-0.7-99.7-14.6-144.7-39.5c-6.6-3.7-8.7-10.4-5.4-16.7c3.3-6.3,10.4-8.4,17.2-4.7c21.3,11.6,43.4,20.8,66.9,27
		c24.4,6.4,49.2,9.6,74.4,9.7c14.6,0,29.2-0.1,43.8,0.1c3,0,4.3-0.5,4.3-4c-0.1-43.8-0.1-87.5,0-131.3c0-3.5-1.3-4-4.3-4
		c-15.7,0.1-31.4,0-47.1,0c-71.9-0.1-132.9-51.7-144.9-122.5c-0.4-2.5-1-5.1-0.9-7.7c0.1-3.4-1.6-4-4.5-4
		c-43.6,0.1-87.3,0.1-130.9,0c-3.5,0-4.3,0.9-4.1,4.4c5.7,79.1,38.9,144.5,97.8,197.2c3.4,3.1,7.3,5.9,8,10.9
		c0.7,4.9-1.7,9.8-5.8,12.2c-4.7,2.7-9.4,2.6-13.7-0.8c-9.9-7.9-19-16.8-27.6-26.1c-38.5-41.6-64.5-89.8-76.7-145.3
		c-8.6-38.9-9.3-78-2.5-117.3c10.2-58.7,35.3-110.3,75.1-154.4c45.1-49.9,100.7-82.2,166.7-96.3c20.6-4.4,41.4-6.5,62.5-6.6
		C453.2,229.9,476.6,229.9,500.1,229.9z M507.2,323.9c0,21.9,0,43.9-0.1,65.8c0,2.7,0.5,3.8,3.5,3.8c22.5-0.1,45-0.1,67.5,0
		c3.3,0,4.4-0.7,4.4-4.2c-0.1-43.5-0.1-87,0-130.4c0-3.5-0.8-4.7-4.5-4.6c-22.4,0.2-44.7,0.2-67.1,0c-3.1,0-3.9,0.9-3.8,3.9
		C507.3,280.1,507.2,302,507.2,323.9z M507.2,755.8c0,21.9,0,43.9,0,65.8c0,2.6,0.4,3.8,3.5,3.8c22.6-0.1,45.3-0.2,67.9,0
		c3.4,0,4-1.1,4-4.2c-0.1-43.6-0.1-87.2,0-130.9c0-3.5-1.2-4.3-4.4-4.3c-22.2,0.1-44.5,0.1-66.7,0c-3.3,0-4.4,0.8-4.3,4.2
		C507.3,712.2,507.2,734,507.2,755.8z"/>
	<path class="st0" d="M863.3,467.9c-15.4,0-30.8,0-46.2,0c-9.6,0-19.1-1-27.5-6.4c-11.9-7.8-19-18.5-19.8-33
		c-1.2-20.7,2-40.6,13.4-58.3c21.1-32.7,51.3-48,90.1-44.7c41.3,3.5,74.6,32.9,83.6,73.1c2.6,11.5,3.2,23.2,1.2,34.9
		c-2.9,16.8-18.9,31.5-36.3,33.7c-4.6,0.6-9.2,0.8-13.9,0.8C893,467.8,878.1,467.9,863.3,467.9z M863.6,443.2
		C863.6,443.2,863.6,443.2,863.6,443.2c16.9,0,33.8,0.1,50.7-0.1c12.3-0.1,20.1-8.2,20.1-20.4c0-1.8,0-3.5,0-5.3
		c-1-48.3-49.5-80-94.5-63.9c-28.7,10.2-48.6,38.2-45.6,73.9c0.5,5.4,3,9.6,7.4,12.6c3.9,2.7,8.3,3.3,12.9,3.3
		C830.9,443.2,847.2,443.2,863.6,443.2z"/>
	<path class="st0" d="M863.4,899.8c-15.4,0-30.8,0-46.2,0c-9.9,0-19.7-1.1-28.2-6.8c-11.6-7.9-18.4-18.6-19.2-32.9
		c-1.1-20.7,2.1-40.6,13.6-58.3c21.1-32.5,51.2-47.8,89.8-44.5c41.4,3.5,74.6,32.9,83.7,73c2.6,11.5,3.2,23.2,1.2,34.9
		c-2.8,16.8-18.8,31.6-36.2,33.8c-4.6,0.6-9.2,0.8-13.9,0.8C893.1,899.8,878.2,899.8,863.4,899.8z M863.6,875.1
		C863.6,875.1,863.6,875.1,863.6,875.1c16.9,0,33.8,0.1,50.7-0.1c12.3-0.1,20-8.2,20.1-20.5c0-1.8,0-3.5,0-5.3
		c-1.1-48.3-49.6-80-94.6-63.9c-28.8,10.3-48.6,38.3-45.6,73.9c0.4,4.4,2.3,8.1,5.5,11.1c4.1,3.7,9.1,4.8,14.4,4.8
		C830.6,875.1,847.1,875.1,863.6,875.1z"/>
	<path class="st0" d="M864.2,307.6c-34.8,0.3-63.7-28.2-64-63c-0.2-35.3,28.1-64.1,63.5-64.4c34.8-0.3,63.9,28.4,64.1,63.4
		C928.1,278.9,899.8,307.4,864.2,307.6z M864.2,283.1c21.8,0,39.2-17.5,39.2-39.2c0-21.6-17.8-39.2-39.4-39.2
		c-21.6,0-39.2,17.8-39.2,39.4C824.8,265.7,842.4,283.1,864.2,283.1z"/>
	<path class="st0" d="M864.1,739.6c-34.8,0.2-63.6-28.4-63.8-63.2c-0.2-35.3,28.3-64.1,63.6-64.3c34.9-0.2,63.8,28.5,64,63.5
		C928,710.9,899.6,739.4,864.1,739.6z M864.2,715c21.8,0,39.2-17.5,39.1-39.2c0-21.6-17.8-39.2-39.4-39.1
		c-21.6,0.1-39.2,17.8-39.1,39.4C824.8,697.7,842.4,715.1,864.2,715z"/>
	<path class="st0" d="M686.5,254.3c-14,0-28.1,0-42.1,0c-3.9,0-7.6-0.5-10.6-3.4c-3.4-3.5-4.8-7.5-3.2-12.3c1.5-4.7,4.6-7.6,9.5-8.4
		c0.8-0.1,1.6-0.2,2.4-0.2c29.3,0,58.6-0.1,87.9,0c7.6,0,12.8,5.6,12.5,12.7c-0.3,6.8-5.5,11.6-13.2,11.7c-11.8,0.1-23.7,0-35.5,0
		C691.6,254.2,689,254.2,686.5,254.3C686.5,254.2,686.5,254.3,686.5,254.3z"/>
	<path class="st0" d="M686.7,825.4c14.3,0,28.6,0,42.9,0c5.8,0,10,2.3,12.4,7.6c2.9,6.2-0.8,14-7.4,16.1c-2,0.6-4,0.7-6.1,0.7
		c-28.1,0-56.1,0-84.2,0c-6.1,0-11-1.8-13.5-7.8c-2.8-6.8,1.2-14.6,8.5-16.2c2-0.4,4-0.5,6.1-0.5
		C659.2,825.4,672.9,825.4,686.7,825.4z"/>
	<path class="st0" d="M680.2,393.5c11.4,0,22.9-0.1,34.3,0c5.5,0.1,9.2,2.9,11.3,7.9c1.8,4.5,0.7,8.5-2.2,12.2
		c-2.4,2.9-5.7,4.2-9.4,4.2c-22.7,0-45.5,0.1-68.2,0c-7.5,0-12.7-5.3-12.7-12.1c0-7.1,5.2-12.1,13-12.2
		C657.6,393.4,668.9,393.5,680.2,393.5C680.2,393.5,680.2,393.5,680.2,393.5z"/>
	<path class="st0" d="M680.2,661.8c11.3,0,22.6,0,33.9,0c5.3,0,9.1,2.5,11.4,7.3c2.1,4.3,1.3,8.5-1.5,12.3c-2.3,3.2-5.6,4.8-9.5,4.8
		c-23,0.1-46,0.2-69,0c-7.3-0.1-12.3-5.5-12.2-12.1c0.1-6.9,5.2-12,12.7-12.1C657.4,661.7,668.8,661.8,680.2,661.8z"/>
	<path class="st0" d="M745.8,743.6c8.2,0,16.3,0,24.5,0c8.1,0.1,13.5,5,13.6,12.1c0.1,7.1-5.3,12.2-13.4,12.3
		c-16.5,0.1-32.9,0.1-49.4,0c-8.1,0-13.5-5.2-13.3-12.3c0.1-7.1,5.5-12,13.6-12.1C729.5,743.6,737.7,743.6,745.8,743.6z"/>
	<path class="st0" d="M753.9,336.1c-5.6,0-11.2,0.1-16.7,0c-7.8-0.2-13.1-5.2-13-12.2c0-7.1,5.3-12.1,13-12.2
		c11.3-0.1,22.6-0.1,33.9,0c7.5,0.1,12.7,5.1,12.9,11.9c0.1,6.8-5,12.1-12.5,12.4C765.6,336.2,759.7,336.1,753.9,336.1
		C753.9,336.1,753.9,336.1,753.9,336.1z"/>
	<path class="st0" d="M668.1,311.7c5,0,10.1-0.1,15.1,0c7.7,0.2,13.2,5.3,13.1,12.2c-0.1,7.1-5.3,12.1-13.1,12.2
		c-10.2,0.1-20.5,0.1-30.7,0c-5.5-0.1-9.7-2.5-11.8-7.8c-2-5-0.6-9.4,2.9-13.2c2.4-2.6,5.6-3.3,8.9-3.4
		C657.7,311.6,662.9,311.7,668.1,311.7C668.1,311.7,668.1,311.7,668.1,311.7z"/>
	<path class="st0" d="M660,743.6c2.6,0,5.2-0.1,7.8,0c7,0.4,12.1,5.4,12.2,11.8c0.1,6.9-4.7,12.1-12,12.4c-5.3,0.3-10.6,0.3-15.9,0
		c-7.3-0.4-12.3-5.6-12.2-12.2c0.1-6.7,5.2-11.7,12.4-12.1C654.8,743.5,657.4,743.7,660,743.6C660,743.7,660,743.6,660,743.6z"/>
</g>
</svg>
