<svg xmlns="http://www.w3.org/2000/svg" width="202.535" height="43.018" viewBox="0 0 232.535 43.018">
  <g id="Group_12" data-name="Group 12" transform="translate(-401.234 -6799.712)">
    <g id="Group_9" data-name="Group 9" transform="translate(401.234 6799.712)">
      <path id="Path_11" data-name="Path 11" d="M49.444,43.058H33.865L24.722,19.8,15.579,43.058H0L16.908.041h0L24.722,19.8,32.538.046ZM32.536.042Z" transform="translate(0 -0.041)" fill="gray"/>
      <path id="Path_36" data-name="Path 36" d="M-1412.265,11.392h-9.245L-1420.181,8h6.579l1.333,3.391Z" transform="translate(1441.649 31.626)" fill="gray"/>
      <path id="Path_35" data-name="Path 35" d="M-1430.6,7Zm0,0h-5.4l.734-1.868.973-2.511,1-2.62.788,2.043h0l1.522,3.96.391,1Z" transform="translate(1458.044 30.084)" fill="gray"/>
    </g>
    <path id="ALLAN_MARSHALL" data-name="ALLAN MARSHALL" d="M6.025-19.7H8.367L13.273-6.208h-2.12l-.935-2.564H4.175L3.25-6.208H1.12ZM4.917-10.776H9.476L7.192-17.04ZM15.74-6.208V-19.7h2V-8.212h5.811v2Zm10.707,0V-19.7h2V-8.212h5.811v2ZM41.26-19.7H43.6L48.507-6.208h-2.12l-.935-2.564H39.41l-.925,2.564h-2.13Zm-1.108,8.924H44.71L42.426-17.04ZM51.09-6.208V-19.7h2.168l6.187,9.869V-19.7h2V-6.208H59.292l-6.207-9.869v9.869Zm18.957,0L72.659-19.7h1.619l3.46,9.088L81.178-19.7H82.8L85.419-6.208H83.376l-1.744-9.03L78.4-6.719H77.054l-3.219-8.52L72.09-6.208ZM92.088-19.7H94.43L99.335-6.208h-2.12L96.28-8.771H90.238l-.925,2.564h-2.13ZM90.98-10.776h4.559L93.254-17.04Zm10.939,4.568V-19.7h4.963a3.7,3.7,0,0,1,1.971.54,3.957,3.957,0,0,1,1.4,1.45,4.045,4.045,0,0,1,.516,2.029,4.1,4.1,0,0,1-.357,1.725,3.9,3.9,0,0,1-.983,1.33,3.783,3.783,0,0,1-1.446.79l3.257,5.628h-2.313l-3.161-5.445h-1.85v5.445Zm1.995-7.45h2.756a1.98,1.98,0,0,0,1.046-.289,2.188,2.188,0,0,0,.761-.771,2.1,2.1,0,0,0,.284-1.089,2.128,2.128,0,0,0-.284-1.094,2.136,2.136,0,0,0-.761-.771,2,2,0,0,0-1.046-.284h-2.756Zm14.822,7.7a6.578,6.578,0,0,1-2.13-.347,5.371,5.371,0,0,1-1.783-1,3.668,3.668,0,0,1-1.089-1.547l1.879-.7a1.814,1.814,0,0,0,.631.824,3.516,3.516,0,0,0,1.118.564,4.6,4.6,0,0,0,1.373.2,4.158,4.158,0,0,0,1.45-.251,2.829,2.829,0,0,0,1.1-.694,1.466,1.466,0,0,0,.419-1.041,1.3,1.3,0,0,0-.438-1.012,3.174,3.174,0,0,0-1.118-.626,8.473,8.473,0,0,0-1.412-.347,12.323,12.323,0,0,1-2.539-.675,4.228,4.228,0,0,1-1.773-1.243,3.2,3.2,0,0,1-.651-2.082,3.348,3.348,0,0,1,.689-2.1,4.549,4.549,0,0,1,1.821-1.393,6.042,6.042,0,0,1,2.453-.5,6.559,6.559,0,0,1,2.106.342,5.478,5.478,0,0,1,1.793.993,3.667,3.667,0,0,1,1.113,1.576l-1.9.684a1.76,1.76,0,0,0-.626-.824,3.576,3.576,0,0,0-1.113-.554,4.6,4.6,0,0,0-1.373-.2,3.872,3.872,0,0,0-1.441.246,2.93,2.93,0,0,0-1.094.7,1.446,1.446,0,0,0-.424,1.031,1.446,1.446,0,0,0,.4,1.1,2.414,2.414,0,0,0,1.065.554q.67.178,1.5.323a10.187,10.187,0,0,1,2.462.7,4.882,4.882,0,0,1,1.821,1.306,2.99,2.99,0,0,1,.689,2,3.354,3.354,0,0,1-.689,2.1,4.531,4.531,0,0,1-1.821,1.4A6.066,6.066,0,0,1,118.736-5.957ZM134.811-19.7h2V-6.208h-2v-6.226h-6.1v6.226h-2V-19.7h2v5.262h6.1Zm9.377,0h2.342l4.905,13.492h-2.12l-.935-2.564h-6.043l-.925,2.564h-2.13Zm-1.108,8.924h4.559l-2.284-6.264ZM153.9-6.208V-19.7h2V-8.212h5.811v2Zm10.707,0V-19.7h2V-8.212h5.811v2Z" transform="translate(461.344 6834.312)" fill="gray"/>
  </g>
</svg>
