<?xml version="1.0" encoding="UTF-8"?>
<svg xmlns="http://www.w3.org/2000/svg" xmlns:xlink="http://www.w3.org/1999/xlink" width="120px" height="50px" viewBox="0 0 120 50" version="1.1">
<g id="surface1">
<path style=" stroke:none;fill-rule:nonzero;fill:rgb(13.72549%,12.156863%,12.54902%);fill-opacity:1;" d="M 44.65625 3.050781 C 50.253906 9.570312 57.980469 14.804688 66.835938 16.277344 C 67.113281 16.304688 68.519531 16.492188 68.769531 16.542969 C 69.320312 16.589844 70.148438 16.636719 70.699219 16.683594 C 77.324219 16.921875 83.695312 15.066406 89.691406 12.351562 C 86.15625 14.613281 82.164062 16.328125 77.949219 17.277344 C 71.578125 18.753906 64.703125 18.039062 58.808594 15.328125 C 52.988281 12.613281 47.96875 8.308594 44.65625 3.050781 Z M 44.65625 3.050781 "/>
<path style=" stroke:none;fill-rule:nonzero;fill:rgb(13.72549%,12.156863%,12.54902%);fill-opacity:1;" d="M 89.667969 10.210938 C 76.320312 5.261719 60.941406 4.429688 49.75 14.183594 C 48.222656 15.421875 46.839844 16.945312 45.511719 18.375 C 46.742188 16.515625 48.144531 14.707031 49.777344 13.136719 C 50.101562 12.78125 51.105469 11.949219 51.480469 11.617188 C 52.132812 11.042969 52.9375 10.519531 53.640625 9.996094 C 53.839844 9.878906 55.046875 9.117188 55.296875 8.972656 C 56.652344 8.238281 58.082031 7.546875 59.5625 7.023438 C 69.320312 3.550781 80.761719 5.40625 89.667969 10.210938 Z M 89.667969 10.210938 "/>
<path style=" stroke:none;fill-rule:nonzero;fill:rgb(55.294118%,58.823529%,60.392157%);fill-opacity:1;" d="M 78.679688 17.375 C 75.996094 20.15625 72.582031 22.277344 68.917969 23.75 C 61.46875 26.796875 52.761719 26.273438 45.585938 22.773438 C 42 21.085938 38.738281 18.847656 35.902344 16.253906 C 39.089844 18.46875 42.425781 20.441406 45.988281 21.941406 C 46.992188 22.371094 48.019531 22.703125 49.046875 23.085938 C 49.25 23.132812 49.875 23.324219 50.101562 23.371094 C 51.03125 23.65625 51.984375 23.820312 52.914062 24.058594 C 52.914062 24.058594 54.34375 24.296875 54.34375 24.296875 C 55.019531 24.417969 55.796875 24.464844 56.5 24.535156 C 57.203125 24.558594 57.980469 24.605469 58.65625 24.605469 C 58.65625 24.605469 60.113281 24.582031 60.113281 24.582031 C 66.863281 24.179688 73.460938 21.492188 78.679688 17.375 Z M 78.679688 17.375 "/>
<path style=" stroke:none;fill-rule:nonzero;fill:rgb(55.294118%,58.823529%,60.392157%);fill-opacity:1;" d="M 81.085938 13.164062 C 75.292969 11.449219 68.96875 11.355469 63.125 12.925781 C 53.1875 15.519531 45.863281 23.0625 40.519531 31.101562 C 42.703125 26.726562 45.6875 22.5625 49.398438 19.160156 C 53.136719 15.707031 57.753906 13.089844 62.824219 11.828125 C 68.820312 10.378906 75.417969 10.710938 81.085938 13.164062 Z M 81.085938 13.164062 "/>
<path style=" stroke:none;fill-rule:nonzero;fill:rgb(55.294118%,58.823529%,60.392157%);fill-opacity:1;" d="M 35.273438 19.039062 C 36.402344 19.730469 37.558594 20.46875 38.6875 21.15625 C 39.789062 21.824219 40.945312 22.539062 42.175781 22.941406 C 42.175781 22.941406 42.652344 23.109375 42.652344 23.109375 C 42.652344 23.109375 42.351562 23.488281 42.351562 23.488281 C 41.046875 25.273438 39.640625 27.011719 38.660156 28.984375 C 39.136719 26.820312 40.46875 24.894531 41.746094 23.085938 C 41.746094 23.085938 41.921875 23.632812 41.921875 23.632812 C 41.222656 23.417969 40.617188 23.085938 40.015625 22.75 C 38.3125 21.679688 36.703125 20.441406 35.273438 19.039062 Z M 35.273438 19.039062 "/>
<path style=" stroke:none;fill-rule:nonzero;fill:rgb(55.294118%,58.823529%,60.392157%);fill-opacity:1;" d="M 32.238281 19.824219 C 33.367188 20.515625 34.523438 21.253906 35.652344 21.941406 C 36.753906 22.609375 37.910156 23.324219 39.136719 23.726562 C 39.136719 23.726562 39.617188 23.894531 39.617188 23.894531 L 39.3125 24.273438 C 38.007812 26.058594 36.605469 27.796875 35.625 29.769531 C 36.101562 27.605469 37.433594 25.679688 38.710938 23.871094 C 38.710938 23.871094 38.886719 24.417969 38.886719 24.417969 C 38.183594 24.203125 37.582031 23.871094 36.980469 23.535156 C 35.273438 22.488281 33.667969 21.253906 32.238281 19.824219 Z M 32.238281 19.824219 "/>
<path style=" stroke:none;fill-rule:nonzero;fill:rgb(13.72549%,13.72549%,13.72549%);fill-opacity:1;" d="M 9.886719 37.359375 C 10.664062 37.359375 11.367188 37.527344 11.941406 37.886719 C 12.519531 38.242188 12.945312 38.671875 13.195312 39.21875 C 13.195312 39.21875 13.195312 39.097656 13.171875 38.882812 C 13.148438 38.671875 13.148438 38.527344 13.148438 38.433594 L 13.148438 37.527344 L 14.25 37.527344 L 14.25 45.546875 L 13.148438 45.546875 L 13.148438 44.667969 L 13.195312 43.882812 C 12.921875 44.429688 12.496094 44.855469 11.917969 45.214844 C 11.339844 45.570312 10.664062 45.738281 9.859375 45.738281 C 8.605469 45.738281 7.550781 45.332031 6.75 44.523438 C 5.945312 43.714844 5.542969 42.714844 5.542969 41.550781 C 5.542969 40.382812 5.945312 39.382812 6.75 38.574219 C 7.578125 37.765625 8.605469 37.359375 9.886719 37.359375 Z M 9.933594 38.335938 C 9.03125 38.335938 8.28125 38.644531 7.652344 39.265625 C 7.023438 39.882812 6.699219 40.644531 6.699219 41.550781 C 6.699219 42.453125 7.023438 43.214844 7.652344 43.855469 C 8.28125 44.476562 9.058594 44.808594 9.933594 44.808594 C 10.886719 44.808594 11.667969 44.5 12.269531 43.882812 C 12.871094 43.261719 13.171875 42.5 13.171875 41.574219 C 13.171875 40.667969 12.871094 39.90625 12.269531 39.289062 C 11.667969 38.644531 10.886719 38.335938 9.933594 38.335938 Z M 9.933594 38.335938 "/>
<path style=" stroke:none;fill-rule:nonzero;fill:rgb(13.72549%,13.72549%,13.72549%);fill-opacity:1;" d="M 25.664062 37.359375 C 25.867188 37.359375 26.066406 37.386719 26.269531 37.410156 L 26.242188 38.457031 C 26.066406 38.410156 25.839844 38.382812 25.566406 38.382812 C 24.914062 38.382812 24.335938 38.574219 23.859375 38.980469 C 23.382812 39.382812 23.132812 39.882812 23.132812 40.527344 L 23.132812 45.570312 L 21.976562 45.570312 L 21.976562 37.550781 L 23.082031 37.550781 L 23.082031 38.671875 C 23.332031 38.289062 23.683594 37.980469 24.136719 37.742188 C 24.585938 37.503906 25.089844 37.359375 25.664062 37.359375 Z M 25.664062 37.359375 "/>
<path style=" stroke:none;fill-rule:nonzero;fill:rgb(13.72549%,13.72549%,13.72549%);fill-opacity:1;" d="M 36.179688 37.359375 C 36.378906 37.359375 36.578125 37.386719 36.78125 37.410156 L 36.753906 38.457031 C 36.578125 38.410156 36.355469 38.382812 36.078125 38.382812 C 35.425781 38.382812 34.847656 38.574219 34.371094 38.980469 C 33.894531 39.382812 33.644531 39.882812 33.644531 40.527344 L 33.644531 45.570312 L 32.488281 45.570312 L 32.488281 37.550781 L 33.59375 37.550781 L 33.59375 38.671875 C 33.84375 38.289062 34.195312 37.980469 34.648438 37.742188 C 35.097656 37.503906 35.601562 37.359375 36.179688 37.359375 Z M 36.179688 37.359375 "/>
<path style=" stroke:none;fill-rule:nonzero;fill:rgb(13.72549%,13.72549%,13.72549%);fill-opacity:1;" d="M 43.003906 38.574219 C 43.804688 37.765625 44.832031 37.359375 46.089844 37.359375 C 47.34375 37.359375 48.371094 37.765625 49.175781 38.574219 C 49.976562 39.382812 50.378906 40.382812 50.378906 41.550781 C 50.378906 42.714844 49.976562 43.691406 49.175781 44.523438 C 48.371094 45.355469 47.34375 45.761719 46.089844 45.761719 C 44.832031 45.761719 43.804688 45.355469 43.003906 44.523438 C 42.199219 43.691406 41.796875 42.714844 41.796875 41.550781 C 41.796875 40.382812 42.199219 39.382812 43.003906 38.574219 Z M 46.089844 38.3125 C 45.160156 38.3125 44.40625 38.621094 43.832031 39.242188 C 43.226562 39.859375 42.953125 40.621094 42.953125 41.550781 C 42.953125 42.476562 43.253906 43.238281 43.832031 43.855469 C 44.433594 44.476562 45.183594 44.785156 46.089844 44.785156 C 46.992188 44.785156 47.742188 44.476562 48.347656 43.855469 C 48.949219 43.238281 49.25 42.476562 49.25 41.550781 C 49.25 40.644531 48.949219 39.859375 48.347656 39.242188 C 47.742188 38.621094 46.992188 38.3125 46.089844 38.3125 Z M 46.089844 38.3125 "/>
<path style=" stroke:none;fill-rule:nonzero;fill:rgb(13.72549%,13.72549%,13.72549%);fill-opacity:1;" d="M 66.585938 45.664062 L 65.082031 45.664062 L 62.746094 38.765625 L 60.390625 45.664062 L 58.933594 45.664062 L 56.074219 37.550781 L 57.351562 37.550781 L 59.535156 44.238281 C 59.535156 44.261719 59.585938 44.40625 59.660156 44.640625 L 59.6875 44.640625 L 59.835938 44.238281 L 62.121094 37.550781 L 63.476562 37.550781 L 65.734375 44.238281 C 65.734375 44.261719 65.757812 44.308594 65.78125 44.378906 C 65.808594 44.429688 65.832031 44.476562 65.832031 44.523438 C 65.832031 44.570312 65.859375 44.59375 65.859375 44.640625 L 65.882812 44.640625 C 65.882812 44.617188 65.910156 44.570312 65.933594 44.523438 C 65.957031 44.476562 65.957031 44.429688 65.984375 44.378906 C 66.007812 44.332031 66.007812 44.285156 66.035156 44.238281 L 68.214844 37.550781 L 69.496094 37.550781 Z M 66.585938 45.664062 "/>
<path style=" stroke:none;fill-rule:nonzero;fill:rgb(13.72549%,13.72549%,13.72549%);fill-opacity:1;" d="M 78.777344 34.148438 C 79.40625 34.148438 79.957031 34.292969 80.382812 34.554688 L 80.007812 35.410156 C 79.683594 35.195312 79.355469 35.101562 78.953125 35.101562 C 78.402344 35.101562 77.976562 35.265625 77.675781 35.578125 C 77.347656 35.886719 77.199219 36.363281 77.199219 36.957031 L 77.199219 37.550781 L 79.28125 37.550781 L 79.28125 38.480469 L 77.296875 38.480469 L 77.296875 45.570312 L 76.144531 45.570312 L 76.144531 38.480469 L 74.816406 38.480469 L 74.816406 37.550781 L 76.144531 37.550781 L 76.144531 36.8125 C 76.144531 35.910156 76.394531 35.242188 76.871094 34.816406 C 77.347656 34.386719 78 34.148438 78.777344 34.148438 Z M 78.777344 34.148438 "/>
<path style=" stroke:none;fill-rule:nonzero;fill:rgb(13.72549%,13.72549%,13.72549%);fill-opacity:1;" d="M 97.621094 37.359375 C 98.648438 37.359375 99.425781 37.648438 99.980469 38.195312 L 99.378906 38.933594 C 98.898438 38.503906 98.324219 38.3125 97.644531 38.3125 C 97.167969 38.3125 96.769531 38.433594 96.464844 38.644531 C 96.164062 38.859375 96.015625 39.144531 96.015625 39.503906 C 96.015625 40.121094 96.464844 40.574219 97.371094 40.859375 L 98.273438 41.144531 C 99.578125 41.574219 100.230469 42.3125 100.230469 43.382812 C 100.230469 44.046875 99.953125 44.617188 99.402344 45.09375 C 98.851562 45.570312 98.148438 45.808594 97.320312 45.808594 C 96.089844 45.808594 95.160156 45.425781 94.558594 44.667969 L 95.160156 43.929688 C 95.714844 44.546875 96.441406 44.855469 97.292969 44.855469 C 97.769531 44.855469 98.199219 44.738281 98.550781 44.476562 C 98.898438 44.214844 99.074219 43.855469 99.074219 43.453125 C 99.074219 42.761719 98.625 42.285156 97.695312 42.023438 L 96.691406 41.714844 C 95.464844 41.335938 94.859375 40.644531 94.859375 39.621094 C 94.859375 39.003906 95.113281 38.480469 95.640625 38.050781 C 96.191406 37.550781 96.84375 37.359375 97.621094 37.359375 Z M 97.621094 37.359375 "/>
<path style=" stroke:none;fill-rule:nonzero;fill:rgb(13.72549%,13.72549%,13.72549%);fill-opacity:1;" d="M 108.460938 37.527344 L 108.460938 38.671875 C 108.710938 38.289062 109.0625 37.980469 109.539062 37.742188 C 110.015625 37.503906 110.542969 37.359375 111.144531 37.359375 C 112.121094 37.359375 112.925781 37.597656 113.527344 38.097656 C 114.128906 38.597656 114.429688 39.289062 114.429688 40.214844 L 114.429688 45.546875 L 113.300781 45.546875 L 113.300781 40.476562 C 113.300781 39.742188 113.074219 39.21875 112.625 38.835938 C 112.171875 38.480469 111.621094 38.289062 110.96875 38.289062 C 110.316406 38.289062 109.738281 38.503906 109.238281 38.90625 C 108.734375 39.3125 108.484375 39.835938 108.484375 40.429688 L 108.484375 45.546875 L 107.332031 45.546875 L 107.332031 34.195312 L 108.484375 34.195312 L 108.484375 37.527344 Z M 108.460938 37.527344 "/>
<path style=" stroke:none;fill-rule:nonzero;fill:rgb(13.72549%,13.72549%,13.72549%);fill-opacity:1;" d="M 86.957031 34.507812 C 87.160156 34.507812 87.335938 34.578125 87.460938 34.695312 C 87.609375 34.839844 87.6875 34.980469 87.6875 35.195312 C 87.6875 35.386719 87.609375 35.554688 87.460938 35.695312 C 87.308594 35.839844 87.132812 35.886719 86.957031 35.886719 C 86.757812 35.886719 86.582031 35.816406 86.429688 35.695312 C 86.28125 35.578125 86.230469 35.386719 86.230469 35.195312 C 86.230469 35.003906 86.304688 34.839844 86.429688 34.695312 C 86.582031 34.578125 86.730469 34.507812 86.957031 34.507812 Z M 87.535156 45.570312 L 86.382812 45.570312 L 86.382812 37.550781 L 87.535156 37.550781 Z M 87.535156 45.570312 "/>
</g>
</svg>
