<svg xmlns="http://www.w3.org/2000/svg" width="111.309" height="111.316" viewBox="0 0 111.309 111.316">
    <g data-name="Group 2364">
        <g data-name="Group 2363">
            <path data-name="Rectangle 1699" transform="translate(89.315 100.319)" style="fill:#ff7757" d="M0 0h10.997v10.997H0z"/>
            <path data-name="Path 3079" d="M622.39 412.3v111.316h78.318v-11h11v-11h11v11h11V412.3z" transform="translate(-622.39 -412.3)" style="fill:#ff7757"/>
        </g>
        <path d="M718.937 497.612a50.369 50.369 0 0 0-10.5-7.028c-3.146-1.513-4.3-1.479-6.526.127-1.854 1.339-3.052 2.584-5.187 2.115s-6.339-3.641-10.415-7.7-7.255-8.286-7.7-10.415.8-3.333 2.115-5.187c1.606-2.229 1.653-3.38.127-6.526a49.566 49.566 0 0 0-7.021-10.5c-2.289-2.289-2.8-1.787-4.063-1.339a22.685 22.685 0 0 0-3.715 1.975 11.26 11.26 0 0 0-4.471 4.719c-.89 1.914-1.914 5.482 3.313 14.792A82.672 82.672 0 0 0 679.4 492l.013.013.013.013a83.164 83.164 0 0 0 19.35 14.511c9.31 5.234 12.878 4.2 14.792 3.313a11.023 11.023 0 0 0 4.719-4.471 23.24 23.24 0 0 0 1.975-3.715c.469-1.254.978-1.769-1.325-4.052z" transform="translate(-635.11 -425.024)" style="fill:#f6f9ff"/>
    </g>
</svg>
