<svg xmlns="http://www.w3.org/2000/svg" xmlns:xlink="http://www.w3.org/1999/xlink" width="179" height="28.893" viewBox="0 0 179 28.893">
  <defs>
    <clipPath id="clip-path">
      <path id="Path_3450" data-name="Path 3450" d="M490.9,506.593H480.044a9.643,9.643,0,0,1-9.645-9.644v-9.6a9.643,9.643,0,0,1,9.645-9.645H490.9a9.643,9.643,0,0,1,9.645,9.645v9.624A9.652,9.652,0,0,1,490.9,506.593Z" transform="translate(-470.4 -477.7)"/>
    </clipPath>
    <clipPath id="clip-path-2">
      <path id="Path_3452" data-name="Path 3452" d="M490.9,506.593H480.044a9.643,9.643,0,0,1-9.645-9.644v-9.6a9.643,9.643,0,0,1,9.645-9.645H490.9a9.643,9.643,0,0,1,9.645,9.645v9.624A9.652,9.652,0,0,1,490.9,506.593Z" transform="translate(-470.4 -477.7)" fill="#636363"/>
    </clipPath>
  </defs>
  <g id="eco_smart-01" data-name="eco smart-01" transform="translate(-98.2 -477.7)">
    <g id="Group_2613" data-name="Group 2613" transform="translate(98.2 481.622)">
      <path id="Path_3440" data-name="Path 3440" d="M114.072,506.4H100.384a6.585,6.585,0,0,0,.91,3.195,5.226,5.226,0,0,0,2.143,2,6.411,6.411,0,0,0,2.891.687,5.774,5.774,0,0,0,3.457-.991,4.715,4.715,0,0,0,1.86-2.689h2.224a6.886,6.886,0,0,1-2.588,3.943,7.919,7.919,0,0,1-4.974,1.516,8.177,8.177,0,0,1-4.165-1.051,7.389,7.389,0,0,1-2.891-2.952,10.2,10.2,0,0,1-.02-8.977,7.094,7.094,0,0,1,2.871-2.952,8.472,8.472,0,0,1,4.206-1.031,8.008,8.008,0,0,1,4.125,1.031,7,7,0,0,1,2.709,2.77,7.953,7.953,0,0,1,.95,3.842A10.532,10.532,0,0,1,114.072,506.4Zm-2.831-4.853a4.921,4.921,0,0,0-2.1-1.961,6.4,6.4,0,0,0-2.891-.667,5.759,5.759,0,0,0-4.024,1.516,6.014,6.014,0,0,0-1.84,4.246h11.586A5.675,5.675,0,0,0,111.241,501.548Z" transform="translate(-98.2 -497.1)" fill="#636363"/>
      <path id="Path_3441" data-name="Path 3441" d="M192.331,501.1a7.378,7.378,0,0,1,2.831-2.952,8.252,8.252,0,0,1,4.145-1.051,8.06,8.06,0,0,1,5.035,1.516,6.843,6.843,0,0,1,2.548,4.1h-2.265a4.615,4.615,0,0,0-1.82-2.79,5.846,5.846,0,0,0-3.478-1.011,5.926,5.926,0,0,0-2.992.748,5.387,5.387,0,0,0-2.1,2.244,8.028,8.028,0,0,0-.768,3.66,8.118,8.118,0,0,0,.768,3.68,5.2,5.2,0,0,0,2.1,2.265,5.926,5.926,0,0,0,2.992.748,5.8,5.8,0,0,0,3.478-1.011,4.651,4.651,0,0,0,1.82-2.831h2.265a6.907,6.907,0,0,1-2.568,4.084,7.926,7.926,0,0,1-5.014,1.537,8.049,8.049,0,0,1-4.145-1.051,7.12,7.12,0,0,1-2.831-2.952,10.2,10.2,0,0,1,0-8.937Z" transform="translate(-172.476 -497.1)" fill="#636363"/>
    </g>
    <g id="Group_2615" data-name="Group 2615" transform="translate(207.747 477.72)">
      <g id="Group_2614" data-name="Group 2614" transform="translate(0 0)">
        <path id="Path_3442" data-name="Path 3442" d="M664.384,498.56a7.2,7.2,0,0,1,1.82,5.3v9.665h-2.083V504.1a5.848,5.848,0,0,0-1.294-4.1,4.542,4.542,0,0,0-3.538-1.415,4.748,4.748,0,0,0-3.72,1.537,6.432,6.432,0,0,0-1.4,4.468v8.937h-2.083V504.1A5.848,5.848,0,0,0,650.8,500a4.587,4.587,0,0,0-3.559-1.415,4.748,4.748,0,0,0-3.72,1.537,6.432,6.432,0,0,0-1.4,4.468v8.937H640V497.044h2.123v2.831a5.544,5.544,0,0,1,2.224-2.345,6.676,6.676,0,0,1,3.235-.809,6.812,6.812,0,0,1,3.761,1.031,5.887,5.887,0,0,1,2.345,3.013,5.566,5.566,0,0,1,2.285-3.013,6.677,6.677,0,0,1,3.66-1.051A6.476,6.476,0,0,1,664.384,498.56Z" transform="translate(-640 -492.879)" fill="#636363"/>
        <path id="Path_3443" data-name="Path 3443" d="M789.087,501.1a7.2,7.2,0,0,1,2.81-2.952,8,8,0,0,1,4.064-1.051,7.354,7.354,0,0,1,4.064,1.092,6.47,6.47,0,0,1,2.467,2.77v-3.619h2.1v16.479h-2.1v-3.66a6.584,6.584,0,0,1-2.487,2.79,7.354,7.354,0,0,1-4.064,1.092,7.711,7.711,0,0,1-4.024-1.051,7.439,7.439,0,0,1-2.81-2.992,9.578,9.578,0,0,1-1.011-4.468A8.995,8.995,0,0,1,789.087,501.1Zm12.556.991a5.738,5.738,0,0,0-2.224-2.325,5.991,5.991,0,0,0-3.094-.809,6.221,6.221,0,0,0-3.134.789,5.421,5.421,0,0,0-2.184,2.285,7.491,7.491,0,0,0-.809,3.538,7.313,7.313,0,0,0,.809,3.538,5.525,5.525,0,0,0,2.184,2.325,6.289,6.289,0,0,0,3.134.809,5.991,5.991,0,0,0,3.094-.809,5.872,5.872,0,0,0,2.224-2.325,8.013,8.013,0,0,0,0-7.016Z" transform="translate(-758.152 -493.198)" fill="#636363"/>
        <path id="Path_3444" data-name="Path 3444" d="M897.666,497.649a6.767,6.767,0,0,1,3.518-.849V499H900.6a5.3,5.3,0,0,0-3.68,1.233c-.93.829-1.4,2.2-1.4,4.145v9.2H893.4V497.1h2.123v2.932A5.121,5.121,0,0,1,897.666,497.649Z" transform="translate(-842.165 -492.958)" fill="#636363"/>
        <path id="Path_3445" data-name="Path 3445" d="M943.628,483.724v10.231a2.918,2.918,0,0,0,.566,2.083,2.812,2.812,0,0,0,2.022.566h1.941v1.82h-2.265a3.846,3.846,0,0,1-4.408-4.468V483.724H939.2v-1.779h2.285V477.8h2.143v4.145h4.529v1.779Z" transform="translate(-878.704 -477.8)" fill="#636363"/>
      </g>
    </g>
    <g id="Group_2620" data-name="Group 2620" transform="translate(134.619 481.339)">
      <g id="Group_2617" data-name="Group 2617" transform="translate(0 6.409)">
        <g id="Group_2616" data-name="Group 2616">
          <path id="Path_3446" data-name="Path 3446" d="M296.292,531.484a6.51,6.51,0,0,1-1.9,3.114,7.525,7.525,0,0,1-2.406,1.618,7.331,7.331,0,0,1-2.952.586,7.689,7.689,0,0,1-2.952-.586,7.528,7.528,0,0,1-4.468-5.479l1.031-.02a.307.307,0,0,0,.243-.485l-1.355-1.8-.687-.91a.3.3,0,0,0-.485,0l-.647.89-1.334,1.86a.307.307,0,0,0,.243.485l1.173-.02a9.375,9.375,0,0,0,9.26,7.865c4.1,0,8.047-3.8,9.321-7.481l-.93,1.193a.317.317,0,0,1-.445,0Z" transform="translate(-278.321 -527.4)" fill="#636363"/>
        </g>
      </g>
      <g id="Group_2619" data-name="Group 2619" transform="translate(1.135 0)">
        <g id="Group_2618" data-name="Group 2618">
          <path id="Path_3447" data-name="Path 3447" d="M286.882,503.5a5.779,5.779,0,0,1,.91-2.285,6.625,6.625,0,0,1,.849-1.011,7.526,7.526,0,0,1,2.406-1.617A7.33,7.33,0,0,1,294,498a7.689,7.689,0,0,1,2.952.586,7.528,7.528,0,0,1,4.468,5.479l-1.031.02a.307.307,0,0,0-.243.485l1.355,1.8.687.91a.3.3,0,0,0,.485,0l.647-.89,1.334-1.86a.307.307,0,0,0-.243-.485l-1.173.02a9.376,9.376,0,0,0-18.339-.809l.667-.728a.375.375,0,0,1,.566.02l.748.95Z" transform="translate(-284.705 -496.099)" fill="#636363"/>
          <path id="Path_3447_-_Outline" data-name="Path 3447 - Outline" d="M301.662,507.1a.4.4,0,0,1-.324-.162l-.687-.91-1.357-1.8a.412.412,0,0,1-.027-.428.4.4,0,0,1,.352-.217l.908-.018a7.254,7.254,0,0,0-.413-1.317h0a7.436,7.436,0,0,0-3.97-3.97,7.594,7.594,0,0,0-2.913-.578,7.257,7.257,0,0,0-2.912.578h0a7.424,7.424,0,0,0-2.374,1.6,6.508,6.508,0,0,0-.837,1,5.684,5.684,0,0,0-.894,2.246l-.038.224-.889-1.129a.255.255,0,0,0-.205-.1.3.3,0,0,0-.209.088l-.935,1.02.1-.387a9.315,9.315,0,0,1,1.241-2.839,9.481,9.481,0,0,1,17.281,3.57l1.087-.019a.4.4,0,0,1,.353.217.412.412,0,0,1-.027.428h0l-1.334,1.86-.648.891A.4.4,0,0,1,301.662,507.1Zm-2.2-2.991,1.354,1.8.687.91a.2.2,0,0,0,.323,0l.646-.889,1.334-1.859a.208.208,0,0,0,.013-.218.194.194,0,0,0-.173-.108l-1.259.022-.014-.086a9.277,9.277,0,0,0-18.031-1.2l.388-.423a.5.5,0,0,1,.353-.148.459.459,0,0,1,.364.178l.61.775a5.859,5.859,0,0,1,.884-2.1,6.7,6.7,0,0,1,.861-1.026,7.626,7.626,0,0,1,2.438-1.639,7.458,7.458,0,0,1,2.992-.595,7.8,7.8,0,0,1,2.991.594,7.629,7.629,0,0,1,4.529,5.552l.025.119-1.155.023a.194.194,0,0,0-.173.108A.208.208,0,0,0,299.459,504.113Z" transform="translate(-283.937 -495.7)" fill="#636363"/>
        </g>
      </g>
    </g>
    <g id="Group_2621" data-name="Group 2621" transform="translate(157.826 490.559)">
      <path id="Path_3448" data-name="Path 3448" d="M404.847,541.3v1.779H393.1V541.3Z" transform="translate(-393.1 -541.3)" fill="#636363"/>
    </g>
    <g id="Group_2625" data-name="Group 2625" transform="translate(173.456 477.7)">
      <g id="Group_2622" data-name="Group 2622" transform="translate(0)" clip-path="url(#clip-path)">
        <path id="Path_3449" data-name="Path 3449" d="M490.557,506.673h-9.988A10.07,10.07,0,0,1,470.5,496.6v-8.735A10.07,10.07,0,0,1,480.569,477.8h9.988a10.07,10.07,0,0,1,10.069,10.069V496.6A10.083,10.083,0,0,1,490.557,506.673Z" transform="translate(-470.48 -477.78)" fill="#fff"/>
      </g>
      <g id="Group_2623" data-name="Group 2623" transform="translate(0)" clip-path="url(#clip-path-2)">
        <path id="Path_3451" data-name="Path 3451" d="M525.363,446.218V452s9.119-.445,8.391,8.29a6.618,6.618,0,0,0-4.954-2.345s-5.864-5.6-11.1.627c0,0,4.954,5.237,10.918.445,0,0,5.318.546,5.176,6.672,0,0,.182,6.49-8.047,6.773v6.41l16.944,3.073-.91-30.308L531.146,440.9Z" transform="translate(-508.136 -448.341)" fill="#636363"/>
      </g>
      <g id="Group_2624" data-name="Group 2624" transform="translate(0)" clip-path="url(#clip-path-2)">
        <path id="Path_3453" data-name="Path 3453" d="M460.55,446v10.292s-7.582-1.153-8.169,6.672c0,0-.607,5.884,5.115,6.672,0,0,6.248-5.176,11.121.485,0,0-4.569,6.308-11,.728a9.344,9.344,0,0,1-5.257-2.406s-.971,8.472,8.128,8.351v6.794l-15.144-5.54L441.2,460.5l6.733-10.939Z" transform="translate(-447.104 -452.409)" fill="#636363"/>
      </g>
    </g>
  </g>
</svg>
