<svg xmlns="http://www.w3.org/2000/svg" width="227" height="51.005" viewBox="0 0 227 51.005">
  <g id="Souffront-01" transform="translate(-109.2 -88.626)">
    <g id="Group_2556" data-name="Group 2556" transform="translate(109.2 88.627)">
      <path id="Path_3307" data-name="Path 3307" d="M129.754,139.467H119.336c-.394,0-.451-.056-.507-.451v-6.87c0-.619,0-.563-.563-.563-2.421-.056-4.9,0-7.321,0a7.179,7.179,0,0,1-1.126-.056c-.451,0-.507-.113-.507-.507a3.118,3.118,0,0,1,.113-1.014,1.44,1.44,0,0,0,0-.845,6.361,6.361,0,0,1,0-1.464c0-.113.056-.225,0-.282a1.947,1.947,0,0,1-.113-1.126,1.324,1.324,0,0,1,.676-1.183c.113-.056.169-.169.225-.225.113-.113.169-.225.338-.282a3.281,3.281,0,0,0,.845-.619c.507-.507,1.126-.9,1.633-1.352.394-.338.732-.732,1.126-1.07s.732-.732,1.126-1.014a9.351,9.351,0,0,0,.788-.732c.676-.619,1.408-1.183,2.084-1.746.451-.394.845-.788,1.3-1.183.394-.338.788-.732,1.126-1.07a3.866,3.866,0,0,0,.957-.957l.169-.169c.451-.282.788-.619,1.183-.9a1.79,1.79,0,0,0,.619-.676c.282-.394.451-.451.845-.169.225.169.451.394.676.563a3.031,3.031,0,0,0,.676.507c.056,0,.056.056.113.056.169.394.563.507.845.845a1.355,1.355,0,0,0,.451.338q.591.338,0,.676a3.1,3.1,0,0,0-.507.394c-.056.056-.113.113-.169.113-.225.113-.451.225-.507.451a.121.121,0,0,1-.113.113c-.282.113-.451.394-.676.563l-.845.676a3.877,3.877,0,0,0-.732.619c-.338.338-.732.619-1.07.957a10.119,10.119,0,0,0-1.126,1.07c-.282.282-.563.507-.845.788-.169.169-.451.282-.619.563a.777.777,0,0,1-.225.169c-.169.113-.338.169-.394.394q-.084.169-.169.169a2.942,2.942,0,0,0-.619.451c-.338.225-.619.563-.957.788a10.49,10.49,0,0,0-1.464,1.3l-.169.169a1.2,1.2,0,0,0-.619.563c-.056.113-.169.113-.282.169a.384.384,0,0,0-.282.507c.056.225.225.225.451.225,1.8,0,3.6.056,5.406.056.619,0,1.183,0,1.8-.056.451,0,.563.113.676.507a1.559,1.559,0,0,1,.056.507c.056.619-.056,1.3-.056,1.915v3.379a5.464,5.464,0,0,1-.056.957c-.056.394.113.563.507.619.169,0,.394.056.563.056h9.573c.845,0,1.689,0,2.534-.056.507,0,.563-.056.563-.563v-6.927c0-.451,0-.451.451-.451h7.264c.394-.056.507-.338.225-.676a2.293,2.293,0,0,0-.788-.676,1.76,1.76,0,0,1-.619-.507.562.562,0,0,0-.282-.225.55.55,0,0,1-.394-.451c0-.113-.113-.169-.225-.169a1.231,1.231,0,0,1-.282-.169,21.582,21.582,0,0,0-1.633-1.577,8.427,8.427,0,0,0-.732-.619,6.481,6.481,0,0,1-.957-.788c-.394-.338-.732-.676-1.126-.957a2.758,2.758,0,0,1-1.014-.957.2.2,0,0,0-.056-.113c-.451-.113-.563-.563-.957-.788a3.838,3.838,0,0,1-.676-.676c-.788-.732-1.689-1.464-2.534-2.14-.056-.056-.113-.056-.113-.113a1.518,1.518,0,0,0-.451-.394,1.518,1.518,0,0,1-.451-.394c-.056-.113-.113-.113-.169-.169a.879.879,0,0,1-.451-.451c-.056-.056-.056-.169-.113-.169a14.1,14.1,0,0,1-1.915-1.746c-.451-.394-.9-.732-1.352-1.126a16.966,16.966,0,0,0-1.577-1.239l-.169-.169c-.113-.225-.394-.338-.563-.563a9.8,9.8,0,0,0-.788-.676c-.225-.169-.338-.394-.619-.507-.169-.056-.225-.282-.225-.451v-.845c.056-2.421,0-4.9,0-7.321V97.795a2.111,2.111,0,0,0-.056-.619.345.345,0,0,0-.563-.225c-.056.056-.113.056-.113.169,0,.225-.113.225-.282.282a1.351,1.351,0,0,0-.676.394,1.875,1.875,0,0,1-.563.338,1.124,1.124,0,0,0-.563.451.341.341,0,0,1-.338.169,2,2,0,0,0-.507.225,7.337,7.337,0,0,1-.845.563c-.056.056-.169.113-.169.169a.814.814,0,0,1-.563.394c-.113.056-.225.056-.282.169-.225.282-.563.338-.788.563a9.26,9.26,0,0,1-1.239.788c-.225.113-.451.338-.676.451a.562.562,0,0,0-.282.225.923.923,0,0,1-.619.394.293.293,0,0,0-.225.113,1.1,1.1,0,0,1-.507.507c-.113.056-.113.169-.113.282v13.853a.512.512,0,0,1-.225.451.508.508,0,0,0-.338.338v.056c-.451.282-.676.732-1.126.957a.055.055,0,0,0-.056.056c-.169.394-.676.507-.9.9-.056.056-.056.113-.113.169a1.2,1.2,0,0,0-.563.619c-.056.169-.619.282-.845.169-.113-.056-.113-.169-.113-.282.056-.225.056-.394.113-.619a9.7,9.7,0,0,0,.225-2.2c-.113-1.52,0-2.985-.056-4.505a4.263,4.263,0,0,1,.056-.845c.056-.394-.056-.732,0-1.126v-1.07c.056-.9-.056-1.8,0-2.759,0-.619.056-1.239.056-1.8,0-.619.056-1.239,0-1.858a7.508,7.508,0,0,1,0-1.126,10.823,10.823,0,0,0,0-1.352,1.17,1.17,0,0,1,.507-1.07,19.469,19.469,0,0,1,1.746-1.239,7.369,7.369,0,0,0,1.352-.957.2.2,0,0,1,.113-.056,6.571,6.571,0,0,0,1.464-.957c.507-.394,1.126-.676,1.633-1.07a7.764,7.764,0,0,1,1.408-.957,2.969,2.969,0,0,0,.845-.619c.676-.507,1.352-.9,2.027-1.408.619-.451,1.3-.845,1.858-1.3.451-.338.9-.619,1.352-.957s.957-.619,1.408-.957a16.76,16.76,0,0,0,1.633-1.126c.056-.056.113-.113.169-.113.338-.169.563-.056.507.338-.282,5.181-.056,10.362-.113,15.486a1.643,1.643,0,0,0,.9,1.408.778.778,0,0,1,.225.169c.394.338.788.676,1.183.957.056.056.225.056.225.169a1.2,1.2,0,0,0,.563.619l.169.169a.781.781,0,0,0,.451.394.121.121,0,0,1,.113.113,5.989,5.989,0,0,0,.845.845c.282.338.619.563.9.845.225.169.451.394.676.563a1.226,1.226,0,0,0,.451.282c.169,0,.225.169.338.282.169.169.282.394.563.451.113,0,.169.113.225.225,0,.056,0,.113.056.113.451.225.676.676,1.07.957.056.056.169.056.169.113a3.838,3.838,0,0,0,.676.676,9.727,9.727,0,0,0,1.577,1.464,8.121,8.121,0,0,0,1.52,1.239,3.776,3.776,0,0,0,.788.507c.056,0,.056.056.113.056.113.451.563.619.845.9.338.338.676.619,1.07.957.056.056.113.056.113.113a3.837,3.837,0,0,0,.676.676c.394.451.9.788,1.3,1.183.225.225.619.394.788.732l.056.056c.338-.113.394.225.563.394.056.113.225.169.338.225a.562.562,0,0,1,.282.225,1.233,1.233,0,0,0,.563.507.254.254,0,0,1,.169.169c.056.282.282.394.507.507a.44.44,0,0,1,.225.225.781.781,0,0,0,.451.394h.056c.225.394.619.563.9.9.113.113.169.282.394.338s.282.225.282.451v.845q-.084,1.858,0,3.717v.676a.266.266,0,0,1-.282.282h-8.053a3.463,3.463,0,0,0-.788.056c-.338.056-.394.169-.394.507a5.463,5.463,0,0,1,.056.957c-.113,1.408-.056,2.872-.056,4.28a3.211,3.211,0,0,0,.056.732,1.442,1.442,0,0,1-.225,1.07.707.707,0,0,1-.619.338h-.676c-3.66-.225-6.927-.225-10.136-.225Z" transform="translate(-109.2 -88.687)" fill="#636363"/>
      <path id="Path_3308" data-name="Path 3308" d="M168.358,110.855v7.433c0,.676.056,1.352.056,2.084v.282c0,.113.056.282-.113.394-.169.056-.282-.056-.394-.113-.282-.282-.619-.563-.9-.845a12.686,12.686,0,0,0-1.352-1.183c-.507-.394-1.014-.845-1.52-1.239a.7.7,0,0,1-.225-.451v-.507c0-.788.056-1.577,0-2.309v-7.546a12.726,12.726,0,0,1,.056-1.464c0-.676-.056-1.3-.056-1.971a.85.85,0,0,0-.619-.9,7.553,7.553,0,0,1-1.577-1.014,1.711,1.711,0,0,0-.394-.282c-.957-.507-1.746-1.239-2.647-1.8a11.217,11.217,0,0,1-1.07-.676c-.225-.169-.394-.282-.619-.451a1.226,1.226,0,0,0-.451-.282,1.715,1.715,0,0,1-.732-.507c-.113-.169-.338-.169-.507-.282-.113-.056-.282-.113-.225-.338,0-.169-.169-.225-.338-.113a.511.511,0,0,0-.169.394,1.559,1.559,0,0,0-.056.507c-.056,3.041-.056,6.082-.056,9.066,0,.451.056.9.056,1.352v.282c-.056.225-.113.282-.338.169a1.647,1.647,0,0,1-.676-.394l-.507-.507c-.056-.056-.169-.113-.169-.169a.716.716,0,0,0-.507-.394.508.508,0,0,1-.338-.338c-.056-.169-.113-.282-.282-.282-.056,0-.113-.056-.169-.113-.225-.394-.732-.563-.957-.957a.562.562,0,0,0-.282-.225.512.512,0,0,1-.225-.451v-.169c.056-1.07,0-2.14,0-3.21V91.427c0-.676,0-1.408-.056-2.084v-.282c0-.394.113-.507.507-.394a1.169,1.169,0,0,1,.563.338,1.272,1.272,0,0,0,.619.451c.056.056.169.056.169.113a2.538,2.538,0,0,0,.788.563c.113.056.282.113.338.282a.055.055,0,0,0,.056.056,5.705,5.705,0,0,1,1.126.788,7.18,7.18,0,0,0,1.408.845c.056,0,.056.056.113.056a7.7,7.7,0,0,0,1.352,1.014,1.231,1.231,0,0,0,.282.169c.282.056.451.282.676.451a4.566,4.566,0,0,0,1.577.957.121.121,0,0,1,.113.113c0,.113.113.169.169.225a15.9,15.9,0,0,0,1.633,1.014.777.777,0,0,1,.225.169c.056.056.113.169.169.169.451.225.788.676,1.239.845a3.1,3.1,0,0,1,.788.507,4.7,4.7,0,0,1,.9.676c.056.056.113.056.225.113a1.34,1.34,0,0,1,.732.507c0,.056.056.056.113.056a16.762,16.762,0,0,1,1.633,1.126,1.67,1.67,0,0,0,.845.394c.169,0,.225.169.225.282v.845c-.056,1.633,0,3.266-.056,4.9a33.921,33.921,0,0,0-.169,4.167Z" transform="translate(-127.024 -88.627)" fill="#636363"/>
    </g>
    <g id="Group_2557" data-name="Group 2557" transform="translate(185.28 100.212)">
      <path id="Path_3309" data-name="Path 3309" d="M255.844,109.2a3.837,3.837,0,0,1,2.7,1.014,3.368,3.368,0,0,1,1.183,2.534v19.2a3.2,3.2,0,0,1-1.183,2.534,3.883,3.883,0,0,1-2.7,1.07h-7.715a3.65,3.65,0,0,1-2.7-1.07,3.15,3.15,0,0,1-1.126-2.534v-19.2a3.331,3.331,0,0,1,1.126-2.534,4.036,4.036,0,0,1,2.7-1.014Zm-6.307,4.9v16.613h4.956V114.1Z" transform="translate(-244.3 -109.2)" fill="#636363"/>
      <path id="Path_3310" data-name="Path 3310" d="M285.637,130.712h4.956V109.2h5.237v22.751a3.2,3.2,0,0,1-1.183,2.534,3.883,3.883,0,0,1-2.7,1.07h-7.715a3.65,3.65,0,0,1-2.7-1.07,3.15,3.15,0,0,1-1.126-2.534V109.2h5.237Z" transform="translate(-260.071 -109.2)" fill="#636363"/>
      <path id="Path_3311" data-name="Path 3311" d="M316.9,109.2h13.966v4.9h-8.729v5.857H329.4v4.9h-7.264v10.7H316.9Z" transform="translate(-276.016 -109.2)" fill="#636363"/>
      <path id="Path_3312" data-name="Path 3312" d="M347,109.2h13.966v4.9h-8.729v5.857H359.5v4.9h-7.264v10.7H347Z" transform="translate(-289.166 -109.2)" fill="#636363"/>
      <path id="Path_3313" data-name="Path 3313" d="M382.337,126.207v9.348H377.1V109.2h11.544a3.837,3.837,0,0,1,2.7,1.014,3.368,3.368,0,0,1,1.183,2.534v6.814a4.847,4.847,0,0,1-2.027,4.111,4.949,4.949,0,0,1,2.027,4.167v7.715h-5.237V127.9a1.52,1.52,0,0,0-.563-1.239,1.879,1.879,0,0,0-1.3-.507h-3.1Zm3.1-4.9a1.784,1.784,0,0,0,1.3-.507,1.488,1.488,0,0,0,.563-1.183V114.1h-4.956v7.208Z" transform="translate(-302.315 -109.2)" fill="#636363"/>
      <path id="Path_3314" data-name="Path 3314" d="M424.544,109.2a3.837,3.837,0,0,1,2.7,1.014,3.368,3.368,0,0,1,1.183,2.534v19.2a3.2,3.2,0,0,1-1.183,2.534,3.883,3.883,0,0,1-2.7,1.07h-7.715a3.65,3.65,0,0,1-2.7-1.07A3.15,3.15,0,0,1,413,131.951v-19.2a3.331,3.331,0,0,1,1.126-2.534,4.036,4.036,0,0,1,2.7-1.014Zm-6.363,4.9v16.613h4.956V114.1Z" transform="translate(-317.999 -109.2)" fill="#636363"/>
      <path id="Path_3315" data-name="Path 3315" d="M454.537,118.6v16.95H449.3V109.2h7.264l4.28,17.063V109.2h5.237v26.355h-7.264Z" transform="translate(-333.857 -109.2)" fill="#636363"/>
      <path id="Path_3316" data-name="Path 3316" d="M490.025,114.1H484.9v-4.9h15.43v4.9h-5.125v21.455h-5.181Z" transform="translate(-349.409 -109.2)" fill="#636363"/>
    </g>
    <g id="Group_2558" data-name="Group 2558" transform="translate(160.84 131.86)">
      <path id="Path_3317" data-name="Path 3317" d="M205.8,165.513a2.854,2.854,0,0,1,.732.113,2.082,2.082,0,0,1,.619.282,2.6,2.6,0,0,1,.394.394.908.908,0,0,1,.169.507v.788h-1.126v-.788c0-.056-.056-.056-.169-.169a1.211,1.211,0,0,0-.563-.113h-2.985a.678.678,0,0,0-.732.619V169.4a.512.512,0,0,0,.225.451.839.839,0,0,0,.507.225h2.985a1.413,1.413,0,0,0,.563-.113q.169-.084.169-.169V169h1.126v.788a.908.908,0,0,1-.169.507,2.821,2.821,0,0,1-.394.451,1.25,1.25,0,0,1-.619.282,2.853,2.853,0,0,1-.732.113h-2.985a2.854,2.854,0,0,1-.732-.113,2.326,2.326,0,0,1-.619-.394,2.023,2.023,0,0,1-.394-.563,1.5,1.5,0,0,1-.169-.676v-2.253a1.5,1.5,0,0,1,.169-.676,2.023,2.023,0,0,1,.394-.563,2.325,2.325,0,0,1,.619-.394,1.546,1.546,0,0,1,.732-.113H205.8Z" transform="translate(-200.9 -165.4)" fill="#636363"/>
      <path id="Path_3318" data-name="Path 3318" d="M216.615,171.231a2.854,2.854,0,0,1-.732-.113,6.139,6.139,0,0,1-.619-.338,3.1,3.1,0,0,1-.394-.507,1.5,1.5,0,0,1-.169-.676v-2.253a1.5,1.5,0,0,1,.169-.676,2.023,2.023,0,0,1,.394-.563,2.325,2.325,0,0,1,.619-.394,1.546,1.546,0,0,1,.732-.113H219.6a2.853,2.853,0,0,1,.732.113,2.325,2.325,0,0,1,.619.394,2.023,2.023,0,0,1,.394.563,1.5,1.5,0,0,1,.169.676V169.6a1.5,1.5,0,0,1-.169.676,1.226,1.226,0,0,1-.394.507,1.342,1.342,0,0,1-.619.338,1.546,1.546,0,0,1-.732.113Zm-.732-1.689a.512.512,0,0,0,.225.451.688.688,0,0,0,.507.169H219.6a.908.908,0,0,0,.507-.169.512.512,0,0,0,.225-.451v-2.253a.512.512,0,0,0-.225-.451,1.012,1.012,0,0,0-.507-.225h-2.985a.549.549,0,0,0-.507.225.7.7,0,0,0-.225.451Z" transform="translate(-206.929 -165.487)" fill="#636363"/>
      <path id="Path_3319" data-name="Path 3319" d="M234.275,165.738a2.326,2.326,0,0,1,.619.394,2.022,2.022,0,0,1,.394.563,1.5,1.5,0,0,1,.169.676v3.942h-1.126v-3.942a.512.512,0,0,0-.225-.451,1.012,1.012,0,0,0-.507-.225h-3.717v4.618H228.7v-5.631h4.9A1.387,1.387,0,0,1,234.275,165.738Z" transform="translate(-213.045 -165.513)" fill="#636363"/>
      <path id="Path_3320" data-name="Path 3320" d="M249.27,167.277h-1.183v-.451c-.056,0-.113-.056-.282-.113a1.1,1.1,0,0,0-.451-.056h-2.985a.549.549,0,0,0-.507.225c-.113.169-.225.282-.225.451a.582.582,0,0,0,.225.451.688.688,0,0,0,.507.169h2.985a2.853,2.853,0,0,1,.732.113,6.141,6.141,0,0,1,.619.338,3.1,3.1,0,0,1,.394.507,1.284,1.284,0,0,1,.169.619,1.5,1.5,0,0,1-.169.676,1.226,1.226,0,0,1-.394.507,2.186,2.186,0,0,1-.619.338,1.546,1.546,0,0,1-.732.113h-2.985a2.975,2.975,0,0,1-.732-.056,2.018,2.018,0,0,1-.619-.225,2.448,2.448,0,0,1-.394-.338.639.639,0,0,1-.169-.451v-.507h1.183v.451c.056.056.113.056.225.113a1.1,1.1,0,0,0,.451.056H247.3a.908.908,0,0,0,.507-.169.563.563,0,0,0,0-.9.908.908,0,0,0-.507-.169h-2.985a2.853,2.853,0,0,1-.732-.113,6.136,6.136,0,0,1-.619-.338,1.753,1.753,0,0,1-.394-.507,1.135,1.135,0,0,1-.169-.619,1.5,1.5,0,0,1,.169-.676,2.022,2.022,0,0,1,.394-.563,1.342,1.342,0,0,1,.619-.338,1.546,1.546,0,0,1,.732-.113H247.3a3.4,3.4,0,0,1,1.352.282.907.907,0,0,1,.563.788v.507Z" transform="translate(-219.03 -165.531)" fill="#636363"/>
      <path id="Path_3321" data-name="Path 3321" d="M255.8,165.6h6.7v1.014h-2.759v4.618h-1.126v-4.618h-2.759V165.6Z" transform="translate(-224.884 -165.487)" fill="#636363"/>
      <path id="Path_3322" data-name="Path 3322" d="M273.8,165.6a2.854,2.854,0,0,1,.732.113,2.326,2.326,0,0,1,.619.394,2.022,2.022,0,0,1,.394.563,1.5,1.5,0,0,1,.169.676v.563a1.135,1.135,0,0,1-.169.619,1.226,1.226,0,0,1-.394.507,4.871,4.871,0,0,1-.563.394,1.559,1.559,0,0,1-.732.169l1.858,1.577-.845.732-2.647-2.309h-2.2v1.633H268.9V165.6h4.9Zm.732,1.746a.512.512,0,0,0-.225-.451.908.908,0,0,0-.507-.169h-3.773v1.858H273.8a.908.908,0,0,0,.507-.169.512.512,0,0,0,.225-.451Z" transform="translate(-230.607 -165.487)" fill="#636363"/>
      <path id="Path_3323" data-name="Path 3323" d="M288.331,165.6h1.183v3.942a1.5,1.5,0,0,1-.169.676,2.023,2.023,0,0,1-.394.563,2.326,2.326,0,0,1-.619.394,1.546,1.546,0,0,1-.732.113h-2.985a2.854,2.854,0,0,1-.732-.113,2.326,2.326,0,0,1-.619-.394,2.023,2.023,0,0,1-.394-.563,1.5,1.5,0,0,1-.169-.676V165.6h1.183v3.942a.512.512,0,0,0,.225.451.688.688,0,0,0,.507.169H287.6a.908.908,0,0,0,.507-.169.512.512,0,0,0,.225-.451Z" transform="translate(-236.635 -165.487)" fill="#636363"/>
      <path id="Path_3324" data-name="Path 3324" d="M301.4,165.513a2.854,2.854,0,0,1,.732.113,2.082,2.082,0,0,1,.619.282,2.6,2.6,0,0,1,.394.394.908.908,0,0,1,.169.507v.788h-1.126v-.788c0-.056-.056-.056-.169-.169a1.212,1.212,0,0,0-.563-.113h-2.985a.678.678,0,0,0-.732.619V169.4a.512.512,0,0,0,.225.451.839.839,0,0,0,.507.225h2.985a1.413,1.413,0,0,0,.563-.113q.169-.084.169-.169V169h1.126v.788a.908.908,0,0,1-.169.507,2.821,2.821,0,0,1-.394.451,1.25,1.25,0,0,1-.619.282,2.853,2.853,0,0,1-.732.113h-2.985a2.854,2.854,0,0,1-.732-.113,2.327,2.327,0,0,1-.619-.394,2.024,2.024,0,0,1-.394-.563,1.5,1.5,0,0,1-.169-.676v-2.253a1.5,1.5,0,0,1,.169-.676,2.023,2.023,0,0,1,.394-.563,2.326,2.326,0,0,1,.619-.394,1.546,1.546,0,0,1,.732-.113H301.4Z" transform="translate(-242.664 -165.4)" fill="#636363"/>
      <path id="Path_3325" data-name="Path 3325" d="M309.8,165.6h6.7v1.014h-2.759v4.618h-1.126v-4.618h-2.759V165.6Z" transform="translate(-248.474 -165.487)" fill="#636363"/>
      <path id="Path_3326" data-name="Path 3326" d="M323.1,171.231V165.6h1.183v5.631Z" transform="translate(-254.285 -165.487)" fill="#636363"/>
      <path id="Path_3327" data-name="Path 3327" d="M328.915,171.231a2.853,2.853,0,0,1-.732-.113,6.137,6.137,0,0,1-.619-.338,3.1,3.1,0,0,1-.394-.507A1.5,1.5,0,0,1,327,169.6v-2.253a1.5,1.5,0,0,1,.169-.676,2.022,2.022,0,0,1,.394-.563,2.325,2.325,0,0,1,.619-.394,1.546,1.546,0,0,1,.732-.113H331.9a2.853,2.853,0,0,1,.732.113,2.325,2.325,0,0,1,.619.394,2.023,2.023,0,0,1,.394.563,1.5,1.5,0,0,1,.169.676V169.6a1.5,1.5,0,0,1-.169.676,1.226,1.226,0,0,1-.394.507,1.342,1.342,0,0,1-.619.338,1.546,1.546,0,0,1-.732.113Zm-.732-1.689a.512.512,0,0,0,.225.451.688.688,0,0,0,.507.169H331.9a.908.908,0,0,0,.507-.169.512.512,0,0,0,.225-.451v-2.253a.512.512,0,0,0-.225-.451,1.012,1.012,0,0,0-.507-.225h-2.985a.549.549,0,0,0-.507.225.7.7,0,0,0-.225.451Z" transform="translate(-255.989 -165.487)" fill="#636363"/>
      <path id="Path_3328" data-name="Path 3328" d="M346.631,165.738a2.326,2.326,0,0,1,.619.394,2.023,2.023,0,0,1,.394.563,1.5,1.5,0,0,1,.169.676v3.942h-1.126v-3.942a.512.512,0,0,0-.225-.451,1.012,1.012,0,0,0-.507-.225h-3.829v4.618H341v-5.631h4.9A1.621,1.621,0,0,1,346.631,165.738Z" transform="translate(-262.105 -165.513)" fill="#636363"/>
      <path id="Path_3329" data-name="Path 3329" d="M364.257,169.815H363.3V168.8h.957v-.9h1.183v.9h1.014v1.014h-1.07v.9h-1.126Z" transform="translate(-271.847 -166.492)" fill="#636363"/>
      <path id="Path_3330" data-name="Path 3330" d="M380.183,166.614v.788h5.631v1.07h-5.631v1.746h5.631v1.014H379V165.6h6.814v1.014Z" transform="translate(-278.705 -165.487)" fill="#636363"/>
      <path id="Path_3331" data-name="Path 3331" d="M398.775,165.738a2.326,2.326,0,0,1,.619.394,2.022,2.022,0,0,1,.394.563,1.5,1.5,0,0,1,.169.676v3.942h-1.126v-3.942a.512.512,0,0,0-.225-.451,1.012,1.012,0,0,0-.507-.225h-3.717v4.618H393.2v-5.631h4.9A1.387,1.387,0,0,1,398.775,165.738Z" transform="translate(-284.909 -165.513)" fill="#636363"/>
      <path id="Path_3332" data-name="Path 3332" d="M411.956,165.6a2.854,2.854,0,0,1,.732.113,2.082,2.082,0,0,1,.619.282,1.518,1.518,0,0,1,.394.451.908.908,0,0,1,.169.507v.788h-1.183v-.788q0-.084-.169-.169a1.212,1.212,0,0,0-.563-.113h-2.985a.549.549,0,0,0-.507.225c-.113.169-.225.282-.225.45V169.6a.512.512,0,0,0,.225.451.908.908,0,0,0,.507.169h2.985a.908.908,0,0,0,.507-.169.407.407,0,0,0,.225-.338V169.2h-3.435v-1.07h4.618v1.577a1.135,1.135,0,0,1-.169.619,3.1,3.1,0,0,1-.394.507,6.143,6.143,0,0,1-.619.338,2.853,2.853,0,0,1-.732.113h-2.985a3.8,3.8,0,0,1-.788-.113,6.151,6.151,0,0,1-.619-.338,1.554,1.554,0,0,1-.394-.507,1.5,1.5,0,0,1-.169-.676V167.4a1.5,1.5,0,0,1,.169-.676,2.023,2.023,0,0,1,.394-.563,2.327,2.327,0,0,1,.619-.394,1.663,1.663,0,0,1,.732-.113h3.041Z" transform="translate(-290.938 -165.487)" fill="#636363"/>
      <path id="Path_3333" data-name="Path 3333" d="M421.1,171.231V165.6h1.183v5.631Z" transform="translate(-297.097 -165.487)" fill="#636363"/>
      <path id="Path_3334" data-name="Path 3334" d="M430.875,165.738a2.326,2.326,0,0,1,.619.394,2.022,2.022,0,0,1,.394.563,1.5,1.5,0,0,1,.169.676v3.942h-1.126v-3.942a.512.512,0,0,0-.225-.451,1.012,1.012,0,0,0-.507-.225h-3.717v4.618H425.3v-5.631h4.9A1.387,1.387,0,0,1,430.875,165.738Z" transform="translate(-298.932 -165.513)" fill="#636363"/>
      <path id="Path_3335" data-name="Path 3335" d="M440.483,166.614v.788h5.631v1.07h-5.631v1.746h5.631v1.014H439.3V165.6h6.814v1.014Z" transform="translate(-305.048 -165.487)" fill="#636363"/>
      <path id="Path_3336" data-name="Path 3336" d="M454.583,166.614v.788h5.631v1.07h-5.631v1.746h5.631v1.014H453.4V165.6h6.814v1.014Z" transform="translate(-311.208 -165.487)" fill="#636363"/>
      <path id="Path_3337" data-name="Path 3337" d="M472.2,165.6a2.853,2.853,0,0,1,.732.113,2.326,2.326,0,0,1,.619.394,2.023,2.023,0,0,1,.394.563,1.5,1.5,0,0,1,.169.676v.563a1.136,1.136,0,0,1-.169.619,1.226,1.226,0,0,1-.394.507,4.871,4.871,0,0,1-.563.394,1.559,1.559,0,0,1-.732.169l1.858,1.577-.845.732-2.647-2.309h-2.2v1.633H467.3V165.6h4.9Zm.732,1.746a.512.512,0,0,0-.225-.451.908.908,0,0,0-.507-.169h-3.773v1.858H472.2a.908.908,0,0,0,.507-.169.512.512,0,0,0,.225-.451Z" transform="translate(-317.281 -165.487)" fill="#636363"/>
      <path id="Path_3338" data-name="Path 3338" d="M481.2,171.231V165.6h1.183v5.631Z" transform="translate(-323.353 -165.487)" fill="#636363"/>
      <path id="Path_3339" data-name="Path 3339" d="M490.975,165.738a2.325,2.325,0,0,1,.619.394,2.024,2.024,0,0,1,.394.563,1.5,1.5,0,0,1,.169.676v3.942h-1.126v-3.942a.512.512,0,0,0-.225-.451,1.012,1.012,0,0,0-.507-.225h-3.717v4.618H485.4v-5.631h4.9A1.387,1.387,0,0,1,490.975,165.738Z" transform="translate(-325.188 -165.513)" fill="#636363"/>
      <path id="Path_3340" data-name="Path 3340" d="M504.156,165.6a2.853,2.853,0,0,1,.732.113,2.081,2.081,0,0,1,.619.282,1.519,1.519,0,0,1,.394.451.908.908,0,0,1,.169.507v.788h-1.183v-.788q0-.084-.169-.169a1.212,1.212,0,0,0-.563-.113h-2.985a.549.549,0,0,0-.507.225c-.113.169-.225.282-.225.45V169.6a.512.512,0,0,0,.225.451.908.908,0,0,0,.507.169h2.985a.908.908,0,0,0,.507-.169.407.407,0,0,0,.225-.338V169.2h-3.435v-1.07h4.618v1.577a1.135,1.135,0,0,1-.169.619,3.1,3.1,0,0,1-.394.507,6.137,6.137,0,0,1-.619.338,2.853,2.853,0,0,1-.732.113h-2.985a3.8,3.8,0,0,1-.788-.113,6.138,6.138,0,0,1-.619-.338,1.553,1.553,0,0,1-.394-.507,1.5,1.5,0,0,1-.169-.676V167.4a1.5,1.5,0,0,1,.169-.676,2.023,2.023,0,0,1,.394-.563,2.325,2.325,0,0,1,.619-.394,1.663,1.663,0,0,1,.732-.113h3.041Z" transform="translate(-331.216 -165.487)" fill="#636363"/>
    </g>
    <g id="Group_2559" data-name="Group 2559" transform="translate(161.403 94.468)">
      <path id="Path_3341" data-name="Path 3341" d="M214.345,104.969H208.32v5.068c0,1.352,1.014,2.084,3.041,2.084a10.144,10.144,0,0,1,6.589,2.084,7.159,7.159,0,0,1,2.816,5.913v6.589a3.923,3.923,0,0,1-1.408,3.1,4.731,4.731,0,0,1-3.322,1.3h-9.348a4.83,4.83,0,0,1-3.322-1.3,4,4,0,0,1-1.408-3.1V120.23h6.363v4.9h6.026v-5.068c0-1.352-1.014-2.084-3.041-2.084a10.144,10.144,0,0,1-6.589-2.084,7.159,7.159,0,0,1-2.816-5.913v-6.589a3.923,3.923,0,0,1,1.408-3.1A4.731,4.731,0,0,1,206.63,99h9.4a4.83,4.83,0,0,1,3.322,1.3,4,4,0,0,1,1.408,3.1v6.42h-6.42Z" transform="translate(-201.9 -99)" fill="#636363"/>
    </g>
  </g>
</svg>
