<svg xmlns="http://www.w3.org/2000/svg" width="228.587" height="72.746" viewBox="0 0 228.587 72.746">
  <g id="Steam_Sauna-01" data-name="Steam Sauna-01" transform="translate(-40.064 -0.029)">
    <g id="Group_2555" data-name="Group 2555" transform="translate(40.064 0.03)">
      <path id="Path_3301" data-name="Path 3301" d="M262.842,72.775a33.55,33.55,0,0,1-5.137-.328,25.7,25.7,0,0,1-5.856-1.718c-.484-.219-1-.375-1.5-.562a25.138,25.138,0,0,1-5.106-2.748,29.931,29.931,0,0,1-4.435-3.5,31.219,31.219,0,0,1-2.764-3.154c-.344-.453-.671-.89-1.046-1.312a22.843,22.843,0,0,1-3.545-6.043A26.232,26.232,0,0,1,231.5,46.76a21.8,21.8,0,0,1-.328-5.793c.156-1.452.187-2.9.484-4.325a29.543,29.543,0,0,1,2.17-7.058,28.849,28.849,0,0,1,2.92-5.09,50.978,50.978,0,0,1,6.465-6.9c1.733-1.546,3.576-2.951,5.309-4.481,1.093-.953,2.327-1.733,3.451-2.655a59.231,59.231,0,0,0,4.591-4.029A30.867,30.867,0,0,0,260.952.665,1.48,1.48,0,0,1,261.109.4c.219-.281.422-.281.562.062a5.91,5.91,0,0,1,.562,2.3c.047,1.624.156,3.264.063,4.887a17.954,17.954,0,0,1-2.42,7.979,24.071,24.071,0,0,1-4.638,5.934c-2,1.827-3.826,3.81-5.637,5.824a22.985,22.985,0,0,0-4.091,6.152c-.515,1.187-.906,2.436-1.312,3.67a7.923,7.923,0,0,0-.375,2.186,23.825,23.825,0,0,0,.25,5.481c.047.281.2.718-.125.828-.39.141-.515-.328-.687-.578a5.631,5.631,0,0,1-.656-1.468c-.375-1.327-.749-2.639-1.077-3.982a13.955,13.955,0,0,1-.2-4.029,19.343,19.343,0,0,1,1.28-5.715,5.071,5.071,0,0,0,.2-1.733c0-.265-.172-.406-.39-.2a5.014,5.014,0,0,0-1.671,1.936,2.043,2.043,0,0,1-.187.422,16.74,16.74,0,0,0-1.905,4.325,19.41,19.41,0,0,0-.687,3.513c-.172,1.2-.219,2.436-.3,3.654a20.974,20.974,0,0,0,.359,4.638,11.484,11.484,0,0,0,.7,2.186,27.865,27.865,0,0,0,4.528,8.26,28.947,28.947,0,0,0,4.091,4.091,26.357,26.357,0,0,0,5.044,3.17,18.926,18.926,0,0,0,2.967,1,34.006,34.006,0,0,0,7.089,1.093,20.708,20.708,0,0,0,3.81-.187,22.5,22.5,0,0,0,4.856-.968,27.266,27.266,0,0,0,4.279-1.858,23,23,0,0,0,8.947-8.463,22.434,22.434,0,0,0,2.311-4.31A23.527,23.527,0,0,0,288.2,45.7a20.081,20.081,0,0,0-.593-9.666c-.531-1.546-.952-3.107-1.64-4.606a34.4,34.4,0,0,0-4.122-6.605A73.032,73.032,0,0,0,273.96,16.4c-1.39-1.312-2.826-2.576-4.091-4.013a21.077,21.077,0,0,1-3.326-4.45,15.666,15.666,0,0,1-1.8-6.5,6.937,6.937,0,0,1,.062-.984c.016-.172.047-.375.265-.422a.455.455,0,0,1,.468.2A12.918,12.918,0,0,0,266.652,1.4c1.905,2,3.935,3.841,5.918,5.762,1.28,1.249,2.53,2.514,3.81,3.748,1.062,1.031,2.17,2.014,3.232,3.029,2.327,2.249,4.669,4.5,6.855,6.871a27.322,27.322,0,0,1,2.858,3.576,34.658,34.658,0,0,1,3.263,6.043,35.417,35.417,0,0,1,1.671,5.153,22.117,22.117,0,0,1,.39,2.264,33.516,33.516,0,0,1-.265,9.759,25.319,25.319,0,0,1-1.671,5.387,31.872,31.872,0,0,1-7.011,10.29,33.58,33.58,0,0,1-8.073,5.887,35.2,35.2,0,0,1-7.323,2.826A29.915,29.915,0,0,1,262.842,72.775Z" transform="translate(-231.096 -0.03)" fill="#636363"/>
      <path id="Path_3302" data-name="Path 3302" d="M360.957,176.276a12.994,12.994,0,0,1-2.3,8.01c-.312.437-.531.937-.812,1.39a13.81,13.81,0,0,1-3.217,3.248,29.824,29.824,0,0,1-2.483,1.655,15.676,15.676,0,0,1-6.105,2.077c-.453.078-.906.109-1.358.2a6,6,0,0,1-1.905.078c-1.234-.156-2.483-.3-3.7-.547a9.1,9.1,0,0,1-2.436-.874,24.588,24.588,0,0,1-6.262-4.31,12.651,12.651,0,0,1-3.357-5.793c-.312-1.218-.546-2.436-.8-3.654a8.237,8.237,0,0,1-.016-2.967,26.132,26.132,0,0,1,1.093-4.216,19.66,19.66,0,0,1,1.624-3.107,15.055,15.055,0,0,1,2.717-3.076,19.55,19.55,0,0,1,8.1-4.747,3.005,3.005,0,0,1,.828-.172c.343-.031.8-.109.968.265.156.359-.156.671-.406.921a7.545,7.545,0,0,1-.765.64,1.48,1.48,0,0,1-.265.156c-2.373,1.155-4.185,3.045-6.09,4.809a12.359,12.359,0,0,0-3.061,5.621,11.786,11.786,0,0,0-.515,3.763,17.962,17.962,0,0,0,.874,4.716,3.865,3.865,0,0,0,.718,1.343,5.687,5.687,0,0,1,.672.937,6.463,6.463,0,0,0,2.077,2.186c.718.484,1.358,1.124,2.092,1.624a6.721,6.721,0,0,0,2.733,1.093,23.952,23.952,0,0,0,4.481.437,12.482,12.482,0,0,0,8.744-3.623,18.438,18.438,0,0,0,1.515-1.608,7.768,7.768,0,0,0,1.452-2.748,1.4,1.4,0,0,1,.125-.359c.984-1.843.843-3.794.593-5.762a12.5,12.5,0,0,0-2.014-5.387,20.106,20.106,0,0,0-4.263-4.638,12.455,12.455,0,0,0-2.467-1.515,3.184,3.184,0,0,1-1.234-1,4.147,4.147,0,0,0-.609-.671,2,2,0,0,1-.437-.609c-.187-.406-.078-.625.375-.687a1.849,1.849,0,0,1,.828.062,13.507,13.507,0,0,1,4.482,1.889c.64.468,1.327.859,1.983,1.28A19.023,19.023,0,0,1,359.193,169a15.5,15.5,0,0,1,1.39,3.873A11.57,11.57,0,0,1,360.957,176.276Z" transform="translate(-311.254 -134.48)" fill="#636363"/>
      <path id="Path_3303" data-name="Path 3303" d="M381.322,256.078a10.087,10.087,0,0,1-4.825-.953,7.756,7.756,0,0,1-1.546-1.109,11.544,11.544,0,0,1-3.81-5.59,6.613,6.613,0,0,1-.281-2.342,1.5,1.5,0,0,1,.765-1.327,7.25,7.25,0,0,1,5.262-1.015,15.232,15.232,0,0,1,4.778,1.967,15.08,15.08,0,0,0,4.122,1.764,4.754,4.754,0,0,0,3.217-.187c.656-.281,1.327-.5,1.967-.828.562-.3.968-.016.89.625a5.9,5.9,0,0,1-.469,1.686c-.219.484-.453.968-.671,1.452a10.088,10.088,0,0,1-6.98,5.668A10.416,10.416,0,0,1,381.322,256.078Z" transform="translate(-349.03 -205.569)" fill="#636363"/>
    </g>
    <path id="Path_3305" data-name="Path 3305" d="M1.536-1.685v-2.38a4.621,4.621,0,0,0,.979.649,7.936,7.936,0,0,0,1.2.487,9.567,9.567,0,0,0,1.268.306,7.069,7.069,0,0,0,1.178.108A4.613,4.613,0,0,0,8.945-3.2a2.337,2.337,0,0,0,.919-1.989,2.335,2.335,0,0,0-.306-1.214,3.452,3.452,0,0,0-.847-.943,8.407,8.407,0,0,0-1.28-.817q-.739-.391-1.592-.823-.9-.457-1.683-.925A7.291,7.291,0,0,1,2.8-10.951a4.311,4.311,0,0,1-.907-1.28,3.962,3.962,0,0,1-.33-1.676,3.942,3.942,0,0,1,.517-2.049,4.432,4.432,0,0,1,1.358-1.436,6.157,6.157,0,0,1,1.917-.841,8.777,8.777,0,0,1,2.193-.276,8.4,8.4,0,0,1,3.714.613v2.271a6.731,6.731,0,0,0-3.918-1.058,6.444,6.444,0,0,0-1.322.138,3.734,3.734,0,0,0-1.178.451A2.609,2.609,0,0,0,4-15.289a2.137,2.137,0,0,0-.324,1.2,2.474,2.474,0,0,0,.246,1.142,2.8,2.8,0,0,0,.727.877,7.242,7.242,0,0,0,1.172.769q.691.373,1.592.817.925.457,1.755.961A8.02,8.02,0,0,1,10.622-8.4a4.967,4.967,0,0,1,.991,1.358,3.818,3.818,0,0,1,.367,1.707,4.328,4.328,0,0,1-.5,2.157,4.093,4.093,0,0,1-1.346,1.436,5.879,5.879,0,0,1-1.953.8A10.7,10.7,0,0,1,5.851-.7a9.5,9.5,0,0,1-1.01-.066q-.6-.066-1.226-.192A10,10,0,0,1,2.431-1.27,3.683,3.683,0,0,1,1.536-1.685Zm18.532.577a3.8,3.8,0,0,1-1.839.385Q15-.723,15-4.329v-7.283H12.881v-1.683H15v-3l1.971-.637v3.641h3.1v1.683h-3.1v6.934a2.875,2.875,0,0,0,.421,1.767,1.679,1.679,0,0,0,1.394.529,2.072,2.072,0,0,0,1.286-.409ZM32.59-6.648H23.9a4.6,4.6,0,0,0,1.106,3.173,3.812,3.812,0,0,0,2.908,1.118,6.047,6.047,0,0,0,3.822-1.37v1.851A7.143,7.143,0,0,1,27.447-.7a5.2,5.2,0,0,1-4.1-1.676,6.862,6.862,0,0,1-1.49-4.717,6.729,6.729,0,0,1,1.628-4.681,5.221,5.221,0,0,1,4.044-1.809,4.627,4.627,0,0,1,3.738,1.562A6.514,6.514,0,0,1,32.59-7.682Zm-2.019-1.67a4.01,4.01,0,0,0-.823-2.656,2.8,2.8,0,0,0-2.253-.949,3.184,3.184,0,0,0-2.368,1,4.527,4.527,0,0,0-1.2,2.608ZM44.38-.988H42.409V-2.911h-.048A4.126,4.126,0,0,1,38.575-.7,4.046,4.046,0,0,1,35.7-1.673a3.373,3.373,0,0,1-1.04-2.584q0-3.449,4.062-4.014l3.69-.517q0-3.137-2.536-3.137a6.058,6.058,0,0,0-4.014,1.514v-2.019a7.626,7.626,0,0,1,4.182-1.154q4.338,0,4.338,4.591ZM42.409-7.213,39.441-6.8a4.82,4.82,0,0,0-2.067.679,1.958,1.958,0,0,0-.7,1.725,1.878,1.878,0,0,0,.643,1.472,2.485,2.485,0,0,0,1.713.571,3.163,3.163,0,0,0,2.422-1.028,3.671,3.671,0,0,0,.955-2.6ZM65.568-.988H63.6V-8.054a5.331,5.331,0,0,0-.631-2.956,2.393,2.393,0,0,0-2.121-.913A2.627,2.627,0,0,0,58.7-10.77a4.414,4.414,0,0,0-.883,2.764V-.988H55.845V-8.295q0-3.629-2.8-3.629a2.594,2.594,0,0,0-2.139,1.088,4.5,4.5,0,0,0-.841,2.83V-.988H48.094V-13.294h1.971v1.947h.048a4.181,4.181,0,0,1,3.822-2.235,3.563,3.563,0,0,1,2.2.7,3.537,3.537,0,0,1,1.286,1.845,4.392,4.392,0,0,1,4.086-2.548q4.062,0,4.062,5.011Zm9.927-.7v-2.38a4.621,4.621,0,0,0,.979.649,7.935,7.935,0,0,0,1.2.487,9.567,9.567,0,0,0,1.268.306,7.069,7.069,0,0,0,1.178.108A4.613,4.613,0,0,0,82.9-3.2a2.337,2.337,0,0,0,.919-1.989,2.335,2.335,0,0,0-.306-1.214,3.452,3.452,0,0,0-.847-.943,8.407,8.407,0,0,0-1.28-.817q-.739-.391-1.592-.823-.9-.457-1.683-.925a7.291,7.291,0,0,1-1.358-1.034,4.311,4.311,0,0,1-.907-1.28,3.961,3.961,0,0,1-.33-1.676,3.942,3.942,0,0,1,.517-2.049,4.432,4.432,0,0,1,1.358-1.436,6.157,6.157,0,0,1,1.917-.841A8.777,8.777,0,0,1,81.5-18.51a8.4,8.4,0,0,1,3.714.613v2.271A6.731,6.731,0,0,0,81.3-16.683a6.444,6.444,0,0,0-1.322.138,3.734,3.734,0,0,0-1.178.451,2.609,2.609,0,0,0-.841.805,2.137,2.137,0,0,0-.324,1.2,2.474,2.474,0,0,0,.246,1.142,2.8,2.8,0,0,0,.727.877,7.242,7.242,0,0,0,1.172.769q.691.373,1.592.817.925.457,1.755.961A8.019,8.019,0,0,1,84.58-8.4a4.967,4.967,0,0,1,.991,1.358,3.818,3.818,0,0,1,.367,1.707,4.328,4.328,0,0,1-.5,2.157,4.093,4.093,0,0,1-1.346,1.436,5.879,5.879,0,0,1-1.953.8A10.7,10.7,0,0,1,79.809-.7,9.5,9.5,0,0,1,78.8-.765q-.6-.066-1.226-.192A10,10,0,0,1,76.39-1.27,3.683,3.683,0,0,1,75.495-1.685Zm22.425.7H95.949V-2.911H95.9A4.126,4.126,0,0,1,92.115-.7a4.046,4.046,0,0,1-2.878-.973A3.373,3.373,0,0,1,88.2-4.257q0-3.449,4.062-4.014l3.69-.517q0-3.137-2.536-3.137A6.058,6.058,0,0,0,89.4-10.41v-2.019a7.626,7.626,0,0,1,4.182-1.154q4.338,0,4.338,4.591ZM95.949-7.213,92.981-6.8a4.82,4.82,0,0,0-2.067.679,1.958,1.958,0,0,0-.7,1.725,1.878,1.878,0,0,0,.643,1.472,2.485,2.485,0,0,0,1.713.571,3.163,3.163,0,0,0,2.422-1.028,3.671,3.671,0,0,0,.955-2.6ZM111.584-.988h-1.971V-2.935h-.048a4.047,4.047,0,0,1-3.8,2.235q-4.4,0-4.4-5.24v-7.355h1.959v7.042q0,3.894,2.98,3.894a3.015,3.015,0,0,0,2.374-1.064,4.07,4.07,0,0,0,.931-2.782v-7.091h1.971Zm14.193,0h-1.971V-8.006q0-3.918-2.86-3.918a3.1,3.1,0,0,0-2.446,1.112,4.12,4.12,0,0,0-.967,2.806V-.988h-1.971V-13.294h1.971v2.043h.048a4.442,4.442,0,0,1,4.038-2.331,3.765,3.765,0,0,1,3.089,1.3,5.808,5.808,0,0,1,1.07,3.768Zm12.523,0h-1.971V-2.911h-.048A4.126,4.126,0,0,1,132.5-.7a4.046,4.046,0,0,1-2.878-.973,3.373,3.373,0,0,1-1.04-2.584q0-3.449,4.062-4.014l3.689-.517q0-3.137-2.536-3.137a6.058,6.058,0,0,0-4.014,1.514v-2.019a7.627,7.627,0,0,1,4.182-1.154q4.338,0,4.338,4.591Zm-1.971-6.225-2.968.409a4.82,4.82,0,0,0-2.067.679,1.958,1.958,0,0,0-.7,1.725,1.878,1.878,0,0,0,.643,1.472,2.485,2.485,0,0,0,1.713.571,3.163,3.163,0,0,0,2.422-1.028,3.671,3.671,0,0,0,.955-2.6Z" transform="translate(114.391 39.469)" fill="#636363"/>
    <path id="Path_3306" data-name="Path 3306" d="M6.646-.56H1.377V-10.5H6.424v1.054H2.542v3.307H6.133v1.047H2.542v3.481h4.1Zm6.947-7.1L11.209-4.069,13.552-.56H12.228l-1.394-2.3q-.132-.215-.312-.541h-.028q-.035.062-.326.541L8.747-.56H7.437l2.42-3.481L7.541-7.66H8.865l1.373,2.427q.153.27.3.555h.028L12.339-7.66Zm2.5,6.074h-.028V2.705H14.925V-7.66h1.137v1.248h.028a2.689,2.689,0,0,1,2.454-1.414,2.6,2.6,0,0,1,2.142.953,3.949,3.949,0,0,1,.77,2.555,4.4,4.4,0,0,1-.867,2.853A2.886,2.886,0,0,1,18.218-.394,2.375,2.375,0,0,1,16.09-1.587ZM16.062-4.45v.991a2.111,2.111,0,0,0,.572,1.494,1.9,1.9,0,0,0,1.453.614,1.9,1.9,0,0,0,1.619-.79,3.626,3.626,0,0,0,.586-2.2A2.862,2.862,0,0,0,19.744-6.2,1.813,1.813,0,0,0,18.26-6.87a2.015,2.015,0,0,0-1.595.69A2.533,2.533,0,0,0,16.062-4.45Zm12.917.624H23.966A2.655,2.655,0,0,0,24.6-2a2.2,2.2,0,0,0,1.678.645,3.488,3.488,0,0,0,2.2-.79v1.068a4.121,4.121,0,0,1-2.475.679,3,3,0,0,1-2.364-.967,3.959,3.959,0,0,1-.86-2.721,3.882,3.882,0,0,1,.939-2.7A3.012,3.012,0,0,1,26.06-7.827a2.669,2.669,0,0,1,2.156.9,3.758,3.758,0,0,1,.763,2.5ZM27.814-4.79a2.313,2.313,0,0,0-.475-1.532,1.618,1.618,0,0,0-1.3-.548,1.837,1.837,0,0,0-1.366.575,2.612,2.612,0,0,0-.693,1.5ZM34.4-6.509a1.39,1.39,0,0,0-.86-.229,1.451,1.451,0,0,0-1.217.686,3.173,3.173,0,0,0-.489,1.872V-.56H30.7v-7.1h1.137V-6.2h.028a2.479,2.479,0,0,1,.742-1.168,1.692,1.692,0,0,1,1.116-.419,1.856,1.856,0,0,1,.679.1ZM38.928-.63a2.192,2.192,0,0,1-1.061.222Q36-.408,36-2.488v-4.2h-1.22V-7.66H36V-9.394l1.137-.367v2.1h1.789v.971H37.14v4a1.658,1.658,0,0,0,.243,1.019.968.968,0,0,0,.8.305,1.2,1.2,0,0,0,.742-.236Zm1.089-.187v-1.22a3.365,3.365,0,0,0,2.045.686q1.5,0,1.5-1a.866.866,0,0,0-.128-.482,1.278,1.278,0,0,0-.347-.35,2.669,2.669,0,0,0-.513-.274q-.295-.121-.634-.253a8.17,8.17,0,0,1-.829-.378,2.5,2.5,0,0,1-.6-.43,1.6,1.6,0,0,1-.361-.544,1.926,1.926,0,0,1-.121-.714,1.7,1.7,0,0,1,.229-.884,2.029,2.029,0,0,1,.61-.645,2.845,2.845,0,0,1,.87-.392,3.86,3.86,0,0,1,1.009-.132,4.073,4.073,0,0,1,1.65.319v1.151a3.216,3.216,0,0,0-1.8-.513,2.107,2.107,0,0,0-.575.073,1.409,1.409,0,0,0-.44.2.945.945,0,0,0-.284.315.831.831,0,0,0-.1.406.973.973,0,0,0,.1.465,1.023,1.023,0,0,0,.295.333,2.252,2.252,0,0,0,.471.263q.277.118.631.257a8.782,8.782,0,0,1,.846.371,2.9,2.9,0,0,1,.638.43,1.68,1.68,0,0,1,.406.551,1.778,1.778,0,0,1,.142.742,1.749,1.749,0,0,1-.232.915,1.991,1.991,0,0,1-.621.645,2.842,2.842,0,0,1-.894.381,4.416,4.416,0,0,1-1.061.125A4.028,4.028,0,0,1,40.017-.817Z" transform="translate(114.4 54.172)" fill="#636363"/>
    <rect id="Rectangle_1811" data-name="Rectangle 1811" width="93.84" height="1.559" transform="translate(174.812 49.47)" fill="#636363"/>
    <path id="Path_3304" data-name="Path 3304" d="M417.048,163.6s-1.983,3.295-3.748,4.091h6.855A9.508,9.508,0,0,1,417.048,163.6Z" transform="translate(-344.785 -138.029)" fill="#636363"/>
  </g>
</svg>
