<svg xmlns="http://www.w3.org/2000/svg" width="157.68" height="60.73" viewBox="0 0 157.68 60.73">
  <g id="vfheaderlogo2-1" transform="translate(-15.6 -13.576)">
    <path id="Path_3485" data-name="Path 3485" d="M43.969,68.533c-.588-.639-1.134-1.283-1.732-1.874-1.068-1.055-2.164-2.082-3.256-3.112-.625-.59-1.254-1.177-1.9-1.742-.965-.841-1.952-1.659-2.924-2.493-.845-.725-1.675-1.468-2.525-2.187-.726-.615-1.475-1.2-2.206-1.812-.533-.445-1.057-.9-1.578-1.364-1.135-1-2.288-1.991-3.389-3.031-.777-.734-1.5-1.526-2.21-2.329a24.583,24.583,0,0,1-1.98-2.449A40.275,40.275,0,0,1,17.735,42a16.307,16.307,0,0,1-1.789-5.276c-.142-1.092-.241-2.191-.306-3.291a18.4,18.4,0,0,1,0-2.435A15.115,15.115,0,0,1,17,25.438a32.942,32.942,0,0,1,1.807-3.36,15.394,15.394,0,0,1,1.914-2.341,21.512,21.512,0,0,1,2.405-2.176,16.962,16.962,0,0,1,5.212-2.735,33.257,33.257,0,0,1,3.92-.962,18.688,18.688,0,0,1,4.648-.241,19.269,19.269,0,0,1,4.956,1.007,22.1,22.1,0,0,1,3.105,1.385,20.532,20.532,0,0,1,3.376,2.355.61.61,0,0,1,.211.41c.012,2.783.009,5.566.007,8.349a1.784,1.784,0,0,1-.022.182c-.071-.039-.147-.053-.166-.094-.25-.525-.463-1.069-.743-1.576-.311-.563-.678-1.1-1.026-1.638a4.117,4.117,0,0,0-.356-.488,12.352,12.352,0,0,0-2.469-2.291c-.36-.236-.714-.481-1.081-.7a12.358,12.358,0,0,0-4.465-1.586,15.6,15.6,0,0,0-2.993-.226,16.736,16.736,0,0,0-4.4.713,15.058,15.058,0,0,0-3.95,1.8A12.761,12.761,0,0,0,24.1,23.7a13.284,13.284,0,0,0-1.564,2.149,17.249,17.249,0,0,0-1.388,3.257,12.281,12.281,0,0,0-.428,4.379c.063.817.219,1.627.338,2.439a15.656,15.656,0,0,0,2.424,5.787,23.121,23.121,0,0,0,2.748,3.618c.6.661,1.211,1.324,1.868,1.932,1.007.932,2.061,1.812,3.087,2.724.641.569,1.252,1.171,1.9,1.728.681.583,1.4,1.123,2.092,1.691.589.483,1.168.977,1.747,1.47q1.378,1.173,2.751,2.351c.549.471,1.1.94,1.637,1.425.676.611,1.352,1.224,2,1.86.562.548,1.081,1.138,1.636,1.693.7.7,1.427,1.372,2.122,2.077.479.486.926,1,1.379,1.513a.444.444,0,0,1,.1.27q0,4.058-.01,8.116a.954.954,0,0,1-.041.124,2.172,2.172,0,0,1-.277-.274c-.6-.874-1.141-1.789-1.791-2.621C45.671,70.422,44.811,69.5,43.969,68.533Z" transform="translate(0 0)" fill="gray"/>
    <path id="Path_3486" data-name="Path 3486" d="M183.94,214.937a1.805,1.805,0,0,1,1.587.994c.716,1.481,1.415,2.969,2.129,4.451.4.82.771,1.653,1.225,2.44a1.857,1.857,0,0,0,1.662.962c3.078.008,6.155-.006,9.233.006q6.822.026,13.643.08A1.9,1.9,0,0,1,215.215,225a2.076,2.076,0,0,1-.222,2.21,2.051,2.051,0,0,1-1.834.877q-12.465.016-24.929.006a2.486,2.486,0,0,1-2.266-1.457c-.416-.75-.82-1.506-1.25-2.3-.228.486-.435.93-.643,1.373-.656,1.4-1.316,2.789-1.967,4.186-.293.63-.56,1.272-.855,1.9-.592,1.257-1.2,2.506-1.793,3.764-.891,1.9-1.773,3.8-2.66,5.693q-.375.8-.761,1.6a1.623,1.623,0,0,1-.173.222l-8.487-17.656c-.516.661-.98,1.339-1.534,1.932a2.772,2.772,0,0,1-1.092.639,3.255,3.255,0,0,1-1.057.1q-4.424.009-8.848,0a2.27,2.27,0,0,1-1.7-.616,2.2,2.2,0,0,1-.138-2.893,1.732,1.732,0,0,1,1.4-.644c2.283.006,4.565-.01,6.848.008a2.594,2.594,0,0,0,2.345-1.268c.724-1.081,1.547-2.1,2.332-3.136a10.828,10.828,0,0,1,.88-1.1,2.014,2.014,0,0,1,3.2.59c.3.669.676,1.3,1.007,1.954.489.967.967,1.94,1.449,2.911s.955,1.921,1.428,2.884c.284.577.557,1.16.842,1.737s.567,1.123.887,1.754c.367-.854.707-1.657,1.057-2.455.335-.763.687-1.518,1.019-2.283s.622-1.516.954-2.264c.623-1.405,1.272-2.8,1.892-4.206.437-.991.853-1.991,1.262-2.993a1.717,1.717,0,0,1,1.673-1.13A4.571,4.571,0,0,1,183.94,214.937Z" transform="translate(-126.387 -185.861)" fill="gray"/>
    <path id="Path_3487" data-name="Path 3487" d="M476.53,14.827a23.953,23.953,0,0,1,2.537-.546,25.991,25.991,0,0,1,3.127-.162,23.161,23.161,0,0,1,6.228,1.005,21.839,21.839,0,0,1,3.66,1.525,15.731,15.731,0,0,1,1.748,1.126,17.123,17.123,0,0,1,3.086,2.732,18.587,18.587,0,0,1,3.218,4.806,16.6,16.6,0,0,1,1.449,4.56c.1.727.116,1.467.166,2.2a11.172,11.172,0,0,1,.069,1.332c-.051.962-.142,1.923-.236,2.882a.333.333,0,0,1-.248.2c-1.614.012-3.228.009-4.926.009.05-.506.122-.978.137-1.451.034-1.078.071-2.158.044-3.236a7.91,7.91,0,0,0-.244-1.954A14.575,14.575,0,0,0,493.9,24.9a14.31,14.31,0,0,0-3.132-3.021,13.888,13.888,0,0,0-5.676-2.3,23.542,23.542,0,0,0-3.466-.376,13.556,13.556,0,0,0-5.74,1.214,12.671,12.671,0,0,0-4.519,3.356A10.653,10.653,0,0,0,469.5,26.8c-.1.246-.241.473-.353.715a1.15,1.15,0,0,0-.054.261l-.188-.135c-.006-.146-.019-.292-.019-.438,0-2.5.009-5-.01-7.5a1.142,1.142,0,0,1,.5-1.13c.9-.589,1.724-1.289,2.642-1.84a22.372,22.372,0,0,1,2.687-1.314C475.281,15.168,475.9,15.031,476.53,14.827Z" transform="translate(-418.399 -0.501)" fill="gray"/>
    <path id="Path_3488" data-name="Path 3488" d="M476.218,430.611c-.688.689-1.385,1.332-2.019,2.032-1.039,1.147-2.069,2.3-3.04,3.508-.656.813-1.206,1.712-1.8,2.573l-.293.42a2.484,2.484,0,0,1-.1-.429c0-2.59-.018-5.181.019-7.77,0-.274.292-.563.49-.811a11.341,11.341,0,0,1,.887-.972c.686-.678,1.391-1.338,2.079-2.014.272-.267.5-.576.778-.839.963-.925,1.912-1.868,2.913-2.749,1.493-1.315,3.03-2.58,4.543-3.873.971-.83,1.924-1.681,2.9-2.506.734-.621,1.5-1.208,2.233-1.826.446-.375.871-.775,1.3-1.173,1.258-1.176,2.525-2.343,3.761-3.542a17.354,17.354,0,0,0,1.206-1.416.794.794,0,0,1,.676-.339c1.423.02,2.847,0,4.27.014.462,0,.924.073,1.457.118a5.382,5.382,0,0,1-.335.652c-.5.7-1,1.4-1.524,2.083-.509.663-1.025,1.323-1.578,1.948-.584.661-1.2,1.3-1.831,1.911s-1.329,1.185-1.992,1.78c-.589.529-1.165,1.073-1.761,1.594-.669.584-1.357,1.147-2.032,1.724-.4.343-.789.7-1.194,1.04-1.154.961-2.323,1.9-3.469,2.873-.889.752-1.754,1.533-2.627,2.3-.711.629-1.43,1.251-2.122,1.9C477.4,429.4,476.828,430,476.218,430.611Z" transform="translate(-418.474 -364.886)" fill="gray"/>
    <path id="Path_3489" data-name="Path 3489" d="M1469.286,299.828c.229,1.413.456,2.793.694,4.236-.533,0-.966.013-1.4-.012-.078,0-.192-.157-.211-.255-.072-.384-.1-.778-.178-1.16a.4.4,0,0,0-.279-.251c-.42-.028-.843-.012-1.317-.012-.094.551-.186,1.093-.283,1.665h-1.426c.486-3.02.969-6.014,1.458-9.051.646,0,1.324-.011,2,.014.084,0,.212.193.232.311.218,1.279.419,2.561.623,3.843.034.212.055.426.084.673m-2-2.414q-.225,1.809-.45,3.621h1.078c-.02-.17-.032-.307-.053-.444-.114-.747-.222-1.5-.348-2.24A8.54,8.54,0,0,0,1467.285,297.414Z" transform="translate(-1337.761 -259.754)" fill="gray"/>
    <path id="Path_3490" data-name="Path 3490" d="M1067.11,298.841c-.134-.8-.257-1.576-.37-2.35-.057-.387-.1-.776-.15-1.2h1.534q.514,3.288,1.028,6.585l.045-.009c.145-1.1.275-2.193.437-3.285s.353-2.189.535-3.3h1.441c-.135.842-.266,1.671-.4,2.5-.168,1.032-.348,2.062-.507,3.1q-.246,1.59-.456,3.185c-.028.216-.115.284-.317.281-.615-.006-1.231,0-1.913,0C1067.719,302.515,1067.422,300.693,1067.11,298.841Z" transform="translate(-970.112 -260.024)" fill="gray"/>
    <path id="Path_3491" data-name="Path 3491" d="M1758,301.452V295.32h3.816v1.422h-2.168v2.539h1.707v1.384h-1.724v3.684H1758Z" transform="translate(-1608.315 -260.063)" fill="gray"/>
    <path id="Path_3492" data-name="Path 3492" d="M1332.38,298.612v5.747h-1.522V296.78h-1.448v-1.452h4.5c0,.417.015.835-.015,1.249,0,.069-.2.172-.309.179-.382.022-.766.009-1.21.009Z" transform="translate(-1212.706 -260.07)" fill="gray"/>
    <path id="Path_3493" data-name="Path 3493" d="M2008.841,303.725v-6.986h-1.431v-1.451h4.4v1.429h-1.425v7.607h-1.546Z" transform="translate(-1838.532 -260.033)" fill="gray"/>
    <path id="Path_3494" data-name="Path 3494" d="M1620,300.439v-5.132h1.525v7.581h2.215v1.452H1620Z" transform="translate(-1480.935 -260.051)" fill="gray"/>
    <path id="Path_3495" data-name="Path 3495" d="M1898,297.6v-2.284h1.509v9.032H1898Z" transform="translate(-1737.541 -260.059)" fill="gray"/>
    <path id="Path_3496" data-name="Path 3496" d="M1222.822,302.594v1.746h-1.432v-9.033h1.432Z" transform="translate(-1112.999 -260.051)" fill="gray"/>
  </g>
</svg>
