<svg xmlns="http://www.w3.org/2000/svg" width="541.253" height="464.419" viewBox="0 0 541.253 464.419">
  <g id="Group_2847" data-name="Group 2847" transform="translate(-7785.231 -12824.28)">
    <g id="Group_2845" data-name="Group 2845" transform="translate(6859.131 8660.629)">
      <g id="Group_2842" data-name="Group 2842" transform="translate(940.57 4178.24)" opacity="0.15">
        <path id="Path_3926" data-name="Path 3926" d="M413.306,399.7q29.308,2.483,58.525,5.886a6.131,6.131,0,0,0,6.714-5.15q5.273-43.411,10.515-86.821a6.131,6.131,0,0,0-5.61-6.653c-6.53-.766-13.06-1.472-19.621-2.177a53.836,53.836,0,0,1,8.431-14.348,54.141,54.141,0,0,0,0-68.243A53.834,53.834,0,0,1,460,188.069a58.245,58.245,0,0,1,.705-8.615,50.975,50.975,0,0,0,.736-8.584A54.233,54.233,0,0,0,426.7,120.317a53.926,53.926,0,0,1-31.3-31.209,54.141,54.141,0,0,0-50.523-34.827,57.39,57.39,0,0,0-8.553.644A53.987,53.987,0,0,1,293.62,43.551a54.018,54.018,0,0,0-68.243,0,54.2,54.2,0,0,1-34.121,12.263,51.629,51.629,0,0,1-8.615-.736,57.786,57.786,0,0,0-8.584-.644A53.987,53.987,0,0,0,123.6,89.107a53.5,53.5,0,0,1-31.3,31.209,54.141,54.141,0,0,0-34.8,50.462,52.331,52.331,0,0,0,.736,8.676,59.878,59.878,0,0,1,.644,8.492A54.6,54.6,0,0,1,46.8,222.185a53.926,53.926,0,0,0,0,68.248,53.069,53.069,0,0,1,8.308,14.348c-6.53.705-13.06,1.41-19.59,2.177a6.131,6.131,0,0,0-5.641,6.653q5.242,43.411,10.515,86.821a6.131,6.131,0,0,0,6.745,5.15q29.247-3.434,58.555-5.886a56.014,56.014,0,0,1,5.641,4.782A54.172,54.172,0,0,1,123.6,423.424a53.8,53.8,0,0,0,59.046,34.152,51.566,51.566,0,0,1,8.615-.705,53.9,53.9,0,0,1,34.121,12.263,54.141,54.141,0,0,0,68.243,0,53.711,53.711,0,0,1,34.06-12.263,51.662,51.662,0,0,1,8.645.705A53.865,53.865,0,0,0,395.4,423.424a53.466,53.466,0,0,1,12.263-18.946,52.115,52.115,0,0,1,5.641-4.783Z" transform="translate(3.97 -31.41)" fill="#231f20"/>
        <path id="Path_3927" data-name="Path 3927" d="M257.683,140.906q-16.77-2.391-33.723-4.476-3.863,30.994-7.695,61.989-29.308,6.806-58.065,14.593,43.9,4.047,87.649,10.27-4.782-21.705-9.964-43.38Q246.677,160.373,257.683,140.906Z" transform="translate(269.1 185.533)" fill="#231f20"/>
        <path id="Path_3928" data-name="Path 3928" d="M163.895,152.325q-7.45,12.753-14.685,25.507,36.421-10.546,73.853-19.529C220.151,158.334,163.895,152.079,163.895,152.325Z" transform="translate(250.529 218.353)" fill="#231f20"/>
        <path id="Path_3929" data-name="Path 3929" d="M52.543,136.43q-16.831,2.054-33.723,4.476,11.037,19.467,21.675,39-5.15,21.644-9.933,43.349,43.687-6.131,87.618-10.27-28.726-7.726-58.065-14.562Q56.375,167.424,52.543,136.43Z" transform="translate(-18.82 185.533)" fill="#231f20"/>
        <path id="Path_3930" data-name="Path 3930" d="M36.17,158.273q37.463,9.013,73.976,19.559-7.235-12.784-14.654-25.507C95.461,152.05,36.814,158.61,36.17,158.273Z" transform="translate(17.02 218.352)" fill="#231f20"/>
      </g>
      <path id="Path_3931" data-name="Path 3931" d="M464.259,285.671A53.558,53.558,0,0,0,452,319.7a58.255,58.255,0,0,0,.705,8.645,50.829,50.829,0,0,1,.705,8.553,54.171,54.171,0,0,1-34.765,50.554,53.251,53.251,0,0,0-18.977,12.263A54.109,54.109,0,0,0,387.4,418.631a54.049,54.049,0,0,1-50.492,34.888,57.89,57.89,0,0,1-8.584-.705,51.288,51.288,0,0,0-8.615-.705,53.65,53.65,0,0,0-34.06,12.263,54.141,54.141,0,0,1-68.243,0,53.956,53.956,0,0,0-34.121-12.263,51.29,51.29,0,0,0-8.615.705,58.244,58.244,0,0,1-8.584.705,53.953,53.953,0,0,1-50.457-34.876,54.14,54.14,0,0,0-31.306-31.221,54.11,54.11,0,0,1-34.8-50.462,52.118,52.118,0,0,1,.705-8.645,60.576,60.576,0,0,0,.674-8.492A54.079,54.079,0,0,0,38.8,285.64a53.987,53.987,0,0,1,0-68.212,54.478,54.478,0,0,0,12.11-34.275,60.579,60.579,0,0,0-.674-8.492,51.659,51.659,0,0,1-.705-8.645,54.11,54.11,0,0,1,34.8-50.431,53.712,53.712,0,0,0,31.3-31.209,54.018,54.018,0,0,1,50.462-34.857,58.248,58.248,0,0,1,8.584.674,51.29,51.29,0,0,0,8.615.705,54.233,54.233,0,0,0,34.122-12.079,53.926,53.926,0,0,1,68.243,0,54.049,54.049,0,0,0,42.675,11.374,57.851,57.851,0,0,1,8.584-.674A54.11,54.11,0,0,1,387.4,84.375a54.661,54.661,0,0,0,12.263,18.977,53.527,53.527,0,0,0,18.977,12.263,54.171,54.171,0,0,1,34.765,50.554,50.584,50.584,0,0,1-.705,8.553,58.711,58.711,0,0,0-.705,8.645,53.987,53.987,0,0,0,12.263,34.122,54.079,54.079,0,0,1,0,68.212Z" transform="translate(937.947 4137)" fill="#ff7757"/>
      <circle id="Ellipse_81" data-name="Ellipse 81" cx="185.568" cy="185.568" r="185.568" transform="translate(1003.877 4202.951)" fill="#222c2e"/>
      <path id="Path_3932" data-name="Path 3932" d="M210.5,374.481A163.985,163.985,0,1,1,374.481,210.5,163.985,163.985,0,0,1,210.5,374.481Zm0-322.422A158.467,158.467,0,1,0,368.932,210.506,158.474,158.474,0,0,0,210.5,52.059Z" transform="translate(978.95 4178.023)" fill="#fff"/>
      <path id="Path_3933" data-name="Path 3933" d="M39.882,219.085a3.066,3.066,0,0,1-3.372-2.606L26.147,129.657a3.066,3.066,0,0,1,2.82-3.311,1910.867,1910.867,0,0,1,447.228,0,3.066,3.066,0,0,1,2.82,3.311q-5.212,43.411-10.362,86.821a3.066,3.066,0,0,1-3.372,2.606,1817.994,1817.994,0,0,0-425.4,0Z" transform="translate(936.864 4315.822)" fill="#ff7757"/>
      <path id="Path_3934" data-name="Path 3934" d="M478.034,131.288l-10.24,86.852a1820.455,1820.455,0,0,0-426.135,0Q36.509,174.7,31.42,131.288a1908.446,1908.446,0,0,1,446.553,0m.674-5.886a1913.57,1913.57,0,0,0-447.933,0,6.131,6.131,0,0,0-5.61,6.622q5.242,43.411,10.515,86.821a6.131,6.131,0,0,0,6.714,5.181,1815.37,1815.37,0,0,1,424.695,0,6.131,6.131,0,0,0,6.744-5.181q5.242-43.411,10.515-86.821a6.131,6.131,0,0,0-5.641-6.622Z" transform="translate(934.688 4313.824)" fill="#fff"/>
      <path id="Path_3935" data-name="Path 3935" d="M231.175,175.152q5.15,21.644,9.964,43.349-43.748-6.131-87.649-10.27,28.757-7.726,58.065-14.562,3.8-30.994,7.664-61.989,16.831,2.054,33.723,4.476Q241.875,155.623,231.175,175.152Z" transform="translate(1199.941 4353.961)" fill="#ff7757"/>
      <path id="Path_3936" data-name="Path 3936" d="M218.3,153.523q-37.433,9.013-73.853,19.559,7.235-12.784,14.654-25.507C159.135,147.3,215.391,153.554,218.3,153.523Z" transform="translate(1181.267 4386.779)" fill="#222c2e"/>
      <path id="Path_3937" data-name="Path 3937" d="M113.46,208.231q-43.9,4.139-87.649,10.27,4.783-21.705,9.933-43.349Q25.137,155.562,14.1,136.125q16.8-2.33,33.723-4.445,3.863,30.994,7.695,61.989Q84.7,200.475,113.46,208.231Z" transform="translate(912 4353.961)" fill="#ff7757"/>
      <path id="Path_3938" data-name="Path 3938" d="M31.42,153.52c.644.337,59.291-6.131,59.322-5.947q7.388,12.753,14.654,25.507Q68.883,162.533,31.42,153.52Z" transform="translate(947.778 4386.783)" fill="#222c2e"/>
      <path id="Path_3939" data-name="Path 3939" d="M172.082,122.84q2.483,7.848,4.936,15.727l17.015,2.7q-7.113,4.507-14.194,9.2,1.38,8.093,2.7,16.187-6.714-5.058-13.489-10.056-7.6,3.74-15.083,7.48,2.759-7.726,5.549-15.329c-4.108-3.863-8.216-7.664-12.263-11.5l17.229.4C166.932,132.528,169.476,127.684,172.082,122.84Z" transform="translate(1187.051 4335.7)" fill="#fff"/>
      <path id="Path_3940" data-name="Path 3940" d="M59.379,122.84c2.606,4.844,5.15,9.718,7.695,14.593l17.229-.4c-4.139,3.832-8.247,7.634-12.263,11.5q2.79,7.664,5.549,15.329-7.511-3.771-15.083-7.48-6.745,5-13.489,10.056,1.318-8.093,2.7-16.187-7.082-4.568-14.194-9.2l16.8-2.391Q56.9,130.719,59.379,122.84Z" transform="translate(960.379 4335.7)" fill="#fff"/>
      <path id="Path_3950" data-name="Path 3950" d="M96.4,57.62l4.231,10.73,11.5.705-8.86,7.327,2.851,11.159L96.4,81.379l-9.718,6.162,2.882-11.159L80.67,69.055l11.5-.705Z" transform="translate(1049.515 4200.974)" fill="#ff7757"/>
      <path id="Path_3951" data-name="Path 3951" d="M124.457,57.62l4.231,10.73,11.5.705-8.86,7.327,2.851,11.159-9.718-6.162-9.718,6.162,2.882-11.159-8.891-7.327,11.5-.705Z" transform="translate(1107.479 4200.974)" fill="#ff7757"/>
      <path id="Path_3952" data-name="Path 3952" d="M110.427,57.62l4.231,10.73,11.5.705-8.86,7.327,2.851,11.159-9.718-6.162-9.718,6.162,2.882-11.159L94.7,69.055l11.5-.705Z" transform="translate(1078.497 4200.974)" fill="#ff7757"/>
    </g>
    <text id="Days" transform="translate(8021.57 13076.489)" fill="#fff" font-size="24" font-family="GTEestiDisplayTrial-Bd, GT Eesti Display Trial Bd"><tspan x="0" y="0">Days</tspan></text>
    <path id="Path_4053" data-name="Path 4053" d="M15.64-16.2v5.56h7.2c-.32,2.28-2.2,4.84-6.72,4.84-5.4,0-8.44-3.48-8.44-8.24,0-4.64,2.96-8.16,8.28-8.16a11.4,11.4,0,0,1,7.16,2.6l4.04-5.32A17.3,17.3,0,0,0,16.12-28.6C6.6-28.6.84-22.76.84-14.08.84-4.96,7.04.6,15.68.6,25.08.6,29.4-5.96,29.4-14.76c0-.48,0-.96-.04-1.44ZM49.48-28v16.12c0,3.52-1.8,6-5.32,6s-5.32-2.48-5.32-6V-28h-6.6v16.68c0,7.24,4,11.84,11.92,11.84,7.88,0,11.88-4.6,11.88-11.84V-28ZM85.32,0,74.28-28H67.72L56.68,0h6.96l2-5.68H76.4L78.4,0ZM71-21.12l3.48,9.92H67.56ZM109.6,0l-8-10.92a7.992,7.992,0,0,0,6.52-8.32c0-4.88-3.24-8.76-9.52-8.76H87.4V0h6.2V-10.6h1.2L101.84,0ZM97.68-22.36c2.48,0,3.88,1.2,3.88,3.28,0,2.32-1.4,3.28-3.88,3.28H93.6v-6.56ZM138.28,0,127.24-28h-6.56L109.64,0h6.96l2-5.68h10.76l2,5.68ZM123.96-21.12l3.48,9.92h-6.92ZM159.04-28v17.32H159L145.6-28h-5.24V0h6.2V-17.24h.04L159.96,0h5.28V-28Zm8.84,0v5.8h7.4V0h6.2V-22.2h7.36V-28Zm29.8,15.84h10V-17.8h-10v-4.4H208.8V-28H191.48V0H209V-5.8H197.68Zm21.2,0h10V-17.8h-10v-4.4H230V-28H212.68V0H230.2V-5.8H218.88Z" transform="matrix(1, 0.017, -0.017, 1, 7931.361, 13147.934)" fill="#fff"/>
    <path id="Path_4052" data-name="Path 4052" d="M54.88-27.328V-75.6H37.3L1.68-25.536v12.88h37.3V0h15.9V-12.656h6.832V-27.328ZM38.528-54.992h.448v27.664H18.928ZM121.744,0V-15.008l-30.128.224,16.352-15.568c9.856-9.3,13.552-16.016,13.552-24.64,0-13.888-9.632-22.288-25.76-22.288-17.248,0-27.44,9.408-27.44,25.536H85.456c0-6.5,3.36-9.968,9.856-9.968,5.6,0,8.624,2.912,8.624,7.952,0,4.368-2.464,8.4-9.408,15.232L69.1-13.328V0Z" transform="translate(7985 13046)" fill="#fff"/>
  </g>
</svg>
