<svg xmlns="http://www.w3.org/2000/svg" xmlns:xlink="http://www.w3.org/1999/xlink" width="301.266" height="234.5" viewBox="0 0 301.266 234.5">
  <defs>
    <filter id="Path_4061" x="0" y="0" width="301.266" height="234.5" filterUnits="userSpaceOnUse">
      <feOffset dy="3" input="SourceAlpha"/>
      <feGaussianBlur stdDeviation="20" result="blur"/>
      <feFlood flood-opacity="0.161"/>
      <feComposite operator="in" in2="blur"/>
      <feComposite in="SourceGraphic"/>
    </filter>
    <linearGradient id="linear-gradient" x1="-2.034" y1="-0.026" x2="5.435" y2="1.531" gradientUnits="objectBoundingBox">
      <stop offset="0" stop-color="#05ccff"/>
      <stop offset="0.435" stop-color="#04a2ff"/>
      <stop offset="0.793" stop-color="#0486ff"/>
      <stop offset="1" stop-color="#047cff"/>
    </linearGradient>
    <linearGradient id="linear-gradient-2" x1="-1.65" y1="-0.22" x2="3.094" y2="1.365" gradientUnits="objectBoundingBox">
      <stop offset="0" stop-color="#ffc21a"/>
      <stop offset="0.033" stop-color="#ffbe1a"/>
      <stop offset="0.468" stop-color="#ff911d"/>
      <stop offset="0.805" stop-color="#ff751e"/>
      <stop offset="1" stop-color="#ff6b1f"/>
    </linearGradient>
    <linearGradient id="linear-gradient-3" x1="-1.652" y1="-0.22" x2="3.091" y2="1.365" xlink:href="#linear-gradient-2"/>
    <linearGradient id="linear-gradient-4" x1="-1.661" y1="-0.22" x2="3.082" y2="1.365" xlink:href="#linear-gradient-2"/>
    <linearGradient id="linear-gradient-5" x1="-4.896" y1="-0.383" x2="4.563" y2="1.164" xlink:href="#linear-gradient"/>
    <linearGradient id="linear-gradient-6" x1="-1.599" y1="-0.619" x2="1.455" y2="1.01" xlink:href="#linear-gradient-2"/>
    <linearGradient id="linear-gradient-7" x1="-4.579" y1="-0.755" x2="1.739" y2="0.809" xlink:href="#linear-gradient"/>
    <linearGradient id="linear-gradient-8" x1="-8.154" y1="-1.107" x2="0.206" y2="0.445" xlink:href="#linear-gradient"/>
  </defs>
  <g id="Group_3037" data-name="Group 3037" transform="translate(-23 -1135.354)">
    <g transform="matrix(1, 0, 0, 1, 23, 1135.35)" filter="url(#Path_4061)">
      <path id="Path_4061-2" data-name="Path 4061" d="M367.8,267.3H221.862c-9.737,0-17.662-7-17.662-15.6V168.4c0-8.6,7.925-15.6,17.662-15.6H367.8c9.737,0,17.662,7,17.662,15.6v83.3C385.466,260.3,377.541,267.3,367.8,267.3Z" transform="translate(-144.2 -95.8)" fill="#fff"/>
    </g>
    <g id="Group_2890" data-name="Group 2890" transform="translate(-121.2 1039.554)">
      <path id="Path_4062" data-name="Path 4062" d="M228.2,220.9h0a2.9,2.9,0,0,1-2.9-2.9V182.6a2.9,2.9,0,0,1,2.9-2.9h0a2.9,2.9,0,0,1,2.9,2.9V218A2.9,2.9,0,0,1,228.2,220.9Z" transform="translate(-0.1 0)" fill="url(#linear-gradient)"/>
      <path id="Path_4063" data-name="Path 4063" d="M244.2,220.9h0a2.9,2.9,0,0,1-2.9-2.9V198.1a2.9,2.9,0,0,1,2.9-2.9h0a2.9,2.9,0,0,1,2.9,2.9V218A2.9,2.9,0,0,1,244.2,220.9Z" transform="translate(2.9 0)" fill="url(#linear-gradient-2)"/>
      <path id="Path_4064" data-name="Path 4064" d="M308.7,220.9h0a2.9,2.9,0,0,1-2.9-2.9V198.1a2.9,2.9,0,0,1,2.9-2.9h0a2.9,2.9,0,0,1,2.9,2.9V218A2.9,2.9,0,0,1,308.7,220.9Z" transform="translate(13.4 0)" fill="url(#linear-gradient-3)"/>
      <path id="Path_4065" data-name="Path 4065" d="M340.4,220.9h0a2.9,2.9,0,0,1-2.9-2.9V198.1a2.9,2.9,0,0,1,2.9-2.9h0a2.9,2.9,0,0,1,2.9,2.9V218A2.9,2.9,0,0,1,340.4,220.9Z" transform="translate(19.7 0)" fill="url(#linear-gradient-4)"/>
      <path id="Path_4066" data-name="Path 4066" d="M260.3,220.9h0a2.9,2.9,0,0,1-2.9-2.9V171.3a2.9,2.9,0,0,1,2.9-2.9h0a2.9,2.9,0,0,1,2.9,2.9V218A2.9,2.9,0,0,1,260.3,220.9Z" transform="translate(5.8)" fill="url(#linear-gradient-5)"/>
      <path id="Path_4067" data-name="Path 4067" d="M276.4,220.9h0a2.9,2.9,0,0,1-2.9-2.9V207.7a2.9,2.9,0,0,1,2.9-2.9h0a2.9,2.9,0,0,1,2.9,2.9V218A2.9,2.9,0,0,1,276.4,220.9Z" transform="translate(8.7 0)" fill="url(#linear-gradient-6)"/>
      <path id="Path_4068" data-name="Path 4068" d="M292.5,220.9h0a2.9,2.9,0,0,1-2.9-2.9V189.1a2.9,2.9,0,0,1,2.9-2.9h0a2.9,2.9,0,0,1,2.9,2.9V218A2.9,2.9,0,0,1,292.5,220.9Z" transform="translate(10.6 0)" fill="url(#linear-gradient-7)"/>
      <path id="Path_4069" data-name="Path 4069" d="M324.6,220.9h0a2.9,2.9,0,0,1-2.9-2.9V177.5a2.9,2.9,0,0,1,2.9-2.9h0a2.9,2.9,0,0,1,2.9,2.9V218A2.84,2.84,0,0,1,324.6,220.9Z" transform="translate(16.5)" fill="url(#linear-gradient-8)"/>
    </g>
    <path id="Path_4124" data-name="Path 4124" d="M1.344-18.9v4.06H2.408V0H6.692V-18.9Zm15.988-.42c-4.984,0-7.812,3.556-7.812,9.856S12.376.42,17.332.42c4.984,0,7.812-3.584,7.812-9.884S22.344-19.32,17.332-19.32Zm0,4c2.184,0,3.444,2.128,3.444,5.852s-1.26,5.88-3.444,5.88c-2.156,0-3.416-2.156-3.416-5.88S15.176-15.316,17.332-15.316ZM26.068-4.508V0h4.48V-4.508ZM39.928.42c4.536,0,7.224-2.072,7.224-5.572A4.624,4.624,0,0,0,43.54-9.968v-.084a4.144,4.144,0,0,0,3.08-4.172c0-3.164-2.576-5.1-6.692-5.1s-6.664,1.932-6.664,5.1a4.121,4.121,0,0,0,3.052,4.172v.084A4.651,4.651,0,0,0,32.7-5.152C32.7-1.652,35.392.42,39.928.42Zm0-12.124a2,2,0,0,1-2.184-1.988,1.988,1.988,0,0,1,2.184-2.016,1.988,1.988,0,0,1,2.184,2.016A2,2,0,0,1,39.928-11.7Zm0,8.344A2.515,2.515,0,0,1,37.24-5.936a2.537,2.537,0,0,1,2.688-2.6,2.537,2.537,0,0,1,2.688,2.6A2.5,2.5,0,0,1,39.928-3.36Zm17.64-3.7,5.124-5.88H57.456l-3.78,5.1V-19.6H49.448V0h4.228V-5.936L58.072,0h5.46Z" transform="translate(102 1291.915)" fill="#0d0d0d"/>
    <path id="Path_4123" data-name="Path 4123" d="M7.2,2.6,5.172,7.76H5.148L3.12,2.6H2.1L.06,11H1.392L2.784,5h.024L4.692,9.716h.936L7.512,5h.024l1.392,6H10.26L8.22,2.6Zm6.516,2.676A2.911,2.911,0,0,0,10.68,8.228a2.911,2.911,0,0,0,3.036,2.952,2.911,2.911,0,0,0,3.036-2.952A2.911,2.911,0,0,0,13.716,5.276Zm0,1.152a1.7,1.7,0,0,1,1.788,1.8,1.7,1.7,0,0,1-1.788,1.8,1.7,1.7,0,0,1-1.788-1.8A1.7,1.7,0,0,1,13.716,6.428Zm7.128-1.152A1.958,1.958,0,0,0,19.032,6.3h-.024v-.84H17.832V11h1.176V8.348c0-1.38.612-1.9,1.476-1.9.792,0,1.272.4,1.272,1.344V11h1.176V7.592C22.932,5.912,22.032,5.276,20.844,5.276Zm5.916.18H25.632V3.236H24.456v2.22h-.984v1h.984V9.584a1.323,1.323,0,0,0,1.5,1.428h.54V9.932h-.288c-.408,0-.576-.18-.576-.576v-2.9H26.76ZM27.78,2.6V11h1.176V8.348c0-1.38.612-1.9,1.476-1.9.792,0,1.272.4,1.272,1.344V11H32.88V7.592c0-1.68-.912-2.316-2.088-2.316A1.958,1.958,0,0,0,28.98,6.3h-.024V2.6Zm6.54,0V11H35.5V2.6Zm4.824,6.492L37.62,5.456h-1.4l2.328,5.04-1.332,2.9H38.46l3.456-7.944h-1.3ZM4.8,14.42A4.236,4.236,0,0,0,.42,18.8,4.236,4.236,0,0,0,4.8,23.18,4.236,4.236,0,0,0,9.18,18.8,4.236,4.236,0,0,0,4.8,14.42Zm0,1.272A2.944,2.944,0,0,1,7.812,18.8,2.944,2.944,0,0,1,4.8,21.908,2.944,2.944,0,0,1,1.788,18.8,2.944,2.944,0,0,1,4.8,15.692Zm8.556,1.6a1.85,1.85,0,0,0-1.836,1.38H11.5V17.456H10.32V23H11.5V20.54c0-1.32.612-1.872,1.764-1.872h.18v-1.38Zm3.42,8.292c1.428,0,2.556-.408,2.616-2.58V17.456H18.216v.816h-.024a2.026,2.026,0,0,0-1.872-1,2.721,2.721,0,0,0-2.7,2.952,2.721,2.721,0,0,0,2.7,2.952,2.026,2.026,0,0,0,1.872-1h.024v.66c0,1.224-.384,1.6-1.44,1.6a9.387,9.387,0,0,1-1.908-.252l-.228,1.14A12.043,12.043,0,0,0,16.776,25.58Zm-.2-3.552a1.664,1.664,0,0,1-1.7-1.8,1.707,1.707,0,1,1,3.408,0A1.664,1.664,0,0,1,16.572,22.028Zm6.6,1.152a2.026,2.026,0,0,0,1.872-1h.024V23h1.176V17.456H25.068v.816h-.024a2.026,2.026,0,0,0-1.872-1,2.721,2.721,0,0,0-2.7,2.952A2.721,2.721,0,0,0,23.172,23.18Zm.252-1.152a1.664,1.664,0,0,1-1.7-1.8,1.707,1.707,0,1,1,3.408,0A1.664,1.664,0,0,1,23.424,22.028ZM30.7,17.276a1.958,1.958,0,0,0-1.812,1.02H28.86v-.84H27.684V23H28.86V20.348c0-1.38.612-1.9,1.476-1.9.792,0,1.272.4,1.272,1.344V23h1.176V19.592C32.784,17.912,31.884,17.276,30.7,17.276Zm3.4-2.556v1.44h1.44V14.72ZM35.4,23V17.456H34.224V23Zm4.188.18a3.327,3.327,0,0,0,1.9-.564l-.552-1a2.636,2.636,0,0,1-1.38.42,1.707,1.707,0,0,1-1.764-1.812,1.707,1.707,0,0,1,1.764-1.812,2.636,2.636,0,0,1,1.38.42l.552-1a3.327,3.327,0,0,0-1.9-.564,2.954,2.954,0,1,0,0,5.9ZM50.724,14.6l-2.172,6.624h-.036L46.344,14.6H44.9L47.952,23h1.164l3.048-8.4Zm2.028.12v1.44h1.44V14.72ZM54.06,23V17.456H52.884V23Zm3.036.18c1.3,0,2.16-.552,2.16-1.68a1.632,1.632,0,0,0-1.1-1.56l-1.032-.492c-.48-.228-.636-.4-.636-.66s.168-.42.684-.42a3.818,3.818,0,0,1,1.476.36l.48-1.02a4.866,4.866,0,0,0-1.92-.432c-1.212,0-1.968.552-1.968,1.572a1.723,1.723,0,0,0,1.164,1.6l1.008.492c.468.228.588.4.588.624,0,.348-.3.516-.864.516a3.5,3.5,0,0,1-1.764-.528l-.528,1.044A4.611,4.611,0,0,0,57.1,23.18Zm3.048-8.46v1.44h1.44V14.72ZM61.452,23V17.456H60.276V23ZM65.7,17.456H64.572v-2.22H63.4v2.22h-.984v1H63.4v3.132a1.323,1.323,0,0,0,1.5,1.428h.54v-1.08h-.288c-.408,0-.576-.18-.576-.576v-2.9H65.7Zm3.4-.18a2.953,2.953,0,1,0,3.036,2.952A2.911,2.911,0,0,0,69.1,17.276Zm0,1.152a1.7,1.7,0,0,1,1.788,1.8,1.788,1.788,0,1,1-3.576,0A1.7,1.7,0,0,1,69.1,18.428Zm7.152-1.14a1.85,1.85,0,0,0-1.836,1.38h-.024V17.456H73.212V23h1.176V20.54c0-1.32.612-1.872,1.764-1.872h.18v-1.38Zm2.4,5.892c1.3,0,2.16-.552,2.16-1.68a1.632,1.632,0,0,0-1.1-1.56l-1.032-.492c-.48-.228-.636-.4-.636-.66s.168-.42.684-.42a3.818,3.818,0,0,1,1.476.36l.48-1.02a4.866,4.866,0,0,0-1.92-.432c-1.212,0-1.968.552-1.968,1.572a1.723,1.723,0,0,0,1.164,1.6l1.008.492c.468.228.588.4.588.624,0,.348-.3.516-.864.516a3.5,3.5,0,0,1-1.764-.528l-.528,1.044A4.61,4.61,0,0,0,78.648,23.18Z" transform="translate(171.6 1268.915)" fill="#0d0d0d"/>
  </g>
</svg>
