<svg xmlns="http://www.w3.org/2000/svg" xmlns:xlink="http://www.w3.org/1999/xlink" width="279.801" height="200.062" viewBox="0 0 279.801 200.062">
  <defs>
    <filter id="Path_4081" x="0" y="0" width="279.801" height="200.062" filterUnits="userSpaceOnUse">
      <feOffset dy="3" input="SourceAlpha"/>
      <feGaussianBlur stdDeviation="20" result="blur"/>
      <feFlood flood-opacity="0.078"/>
      <feComposite operator="in" in2="blur"/>
      <feComposite in="SourceGraphic"/>
    </filter>
  </defs>
  <g id="Group_3039" data-name="Group 3039" transform="translate(-1301.554 378.146)">
    <g id="Group_2906" data-name="Group 2906" transform="translate(1178.254 -638.246)">
      <g id="Group_2905" data-name="Group 2905" transform="translate(198.8 331.062)" opacity="0.54">
        <g id="Group_2904" data-name="Group 2904" opacity="0.51">
          <path id="Path_4080" data-name="Path 4080" d="M324.1,392.5H203a4.225,4.225,0,0,1-4.2-4.2V364.4c0-2.3,1.9-35,4.2-35H324.1c2.3,0,4.2,32.7,4.2,35v23.9A4.225,4.225,0,0,1,324.1,392.5Z" transform="translate(-198.8 -329.4)" fill="#843ea1"/>
        </g>
      </g>
      <g transform="matrix(1, 0, 0, 1, 123.3, 260.1)" filter="url(#Path_4081)">
        <path id="Path_4081-2" data-name="Path 4081" d="M327.5,397.162H198.9a15.788,15.788,0,0,1-15.6-15.931v-48.2A15.788,15.788,0,0,1,198.9,317.1H327.5a15.788,15.788,0,0,1,15.6,15.931v48.2A15.661,15.661,0,0,1,327.5,397.162Z" transform="translate(-123.3 -260.1)" fill="#fff"/>
      </g>
    </g>
    <circle id="Ellipse_88" data-name="Ellipse 88" cx="19.2" cy="19.2" r="19.2" transform="translate(1365.896 -286.579) rotate(-45)" fill="#ff7757"/>
    <path id="Path_4082" data-name="Path 4082" d="M214.8,352.9a12.6,12.6,0,0,0-9.3,4.1.785.785,0,0,0,0,1.1,12.6,12.6,0,0,0,18.6,0,.785.785,0,0,0,0-1.1A12.438,12.438,0,0,0,214.8,352.9Zm.7,8.2a3.567,3.567,0,0,1-4.2-4.2,3.651,3.651,0,0,1,2.8-2.8,3.567,3.567,0,0,1,4.2,4.2A3.4,3.4,0,0,1,215.5,361.1Z" transform="translate(1178.254 -644.211)" fill="#fff"/>
    <g id="Group_2907" data-name="Group 2907" transform="translate(1182.254 -647.4)">
      <path id="Path_4083" data-name="Path 4083" d="M304.6,370.1s3.3-7.9,14.3-8.4a16.509,16.509,0,0,0,14.6-9.3" fill="none" stroke="#ff7757" stroke-linecap="round" stroke-linejoin="round" stroke-miterlimit="10" stroke-width="0.954"/>
      <path id="Path_4084" data-name="Path 4084" d="M330.7,358.6h0a2.433,2.433,0,0,1-2.4-2.4h0a2.433,2.433,0,0,1,2.4-2.4h0a2.433,2.433,0,0,1,2.4,2.4h0A2.432,2.432,0,0,1,330.7,358.6Z" fill="#ff7757"/>
    </g>
    <path id="Path_4134" data-name="Path 4134" d="M.84-8.4V0H2.112V-8.4ZM6.684-5.724A1.958,1.958,0,0,0,4.872-4.7H4.848v-.84H3.672V0H4.848V-2.652c0-1.38.612-1.9,1.476-1.9.792,0,1.272.4,1.272,1.344V0H8.772V-3.408C8.772-5.088,7.872-5.724,6.684-5.724ZM12.84.18a3.327,3.327,0,0,0,1.9-.564l-.552-1a2.636,2.636,0,0,1-1.38.42A1.707,1.707,0,0,1,11.04-2.772,1.707,1.707,0,0,1,12.8-4.584a2.636,2.636,0,0,1,1.38.42l.552-1a3.327,3.327,0,0,0-1.9-.564A2.861,2.861,0,0,0,9.792-2.772,2.861,2.861,0,0,0,12.84.18Zm5.892-5.892A1.85,1.85,0,0,0,16.9-4.332h-.024V-5.544H15.7V0h1.176V-2.46c0-1.32.612-1.872,1.764-1.872h.18v-1.38Zm3.1-.012A2.75,2.75,0,0,0,19-2.76,2.746,2.746,0,0,0,21.888.18,2.947,2.947,0,0,0,24.4-1.14l-.828-.78a2.094,2.094,0,0,1-1.7.972,1.622,1.622,0,0,1-1.68-1.632h4.3v-.192C24.48-4.56,23.52-5.724,21.828-5.724Zm-.072,1.08a1.291,1.291,0,0,1,1.452,1.212H20.244A1.406,1.406,0,0,1,21.756-4.644ZM27.9.18a2.026,2.026,0,0,0,1.872-1H29.8V0h1.176V-5.544H29.8v.816h-.024a2.026,2.026,0,0,0-1.872-1,2.721,2.721,0,0,0-2.7,2.952A2.721,2.721,0,0,0,27.9.18Zm.252-1.152a1.664,1.664,0,0,1-1.7-1.8,1.664,1.664,0,0,1,1.7-1.8,1.664,1.664,0,0,1,1.7,1.8A1.664,1.664,0,0,1,28.152-.972ZM34.128.18c1.3,0,2.16-.552,2.16-1.68a1.632,1.632,0,0,0-1.1-1.56l-1.032-.492c-.48-.228-.636-.4-.636-.66s.168-.42.684-.42a3.818,3.818,0,0,1,1.476.36l.48-1.02a4.866,4.866,0,0,0-1.92-.432c-1.212,0-1.968.552-1.968,1.572a1.723,1.723,0,0,0,1.164,1.6l1.008.492c.468.228.588.4.588.624,0,.348-.3.516-.864.516A3.5,3.5,0,0,1,32.4-1.452L31.872-.408A4.611,4.611,0,0,0,34.128.18Zm5.592-5.9A2.75,2.75,0,0,0,36.888-2.76,2.746,2.746,0,0,0,39.78.18a2.947,2.947,0,0,0,2.508-1.32l-.828-.78a2.094,2.094,0,0,1-1.7.972,1.622,1.622,0,0,1-1.68-1.632h4.3v-.192C42.372-4.56,41.412-5.724,39.72-5.724Zm-.072,1.08A1.291,1.291,0,0,1,41.1-3.432H38.136A1.406,1.406,0,0,1,39.648-4.644Zm7.4-3.756V0h1.272V-8.4ZM52.9-5.724A1.958,1.958,0,0,0,51.084-4.7H51.06v-.84H49.884V0H51.06V-2.652c0-1.38.612-1.9,1.476-1.9.792,0,1.272.4,1.272,1.344V0h1.176V-3.408C54.984-5.088,54.084-5.724,52.9-5.724ZM4.8,3.42A4.236,4.236,0,0,0,.42,7.8,4.236,4.236,0,0,0,4.8,12.18,4.236,4.236,0,0,0,9.18,7.8,4.236,4.236,0,0,0,4.8,3.42Zm0,1.272A2.944,2.944,0,0,1,7.812,7.8,2.944,2.944,0,0,1,4.8,10.908,2.944,2.944,0,0,1,1.788,7.8,2.944,2.944,0,0,1,4.8,4.692Zm8.556,1.6a1.85,1.85,0,0,0-1.836,1.38H11.5V6.456H10.32V12H11.5V9.54c0-1.32.612-1.872,1.764-1.872h.18V6.288Zm3.42,8.292c1.428,0,2.556-.408,2.616-2.58V6.456H18.216v.816h-.024a2.026,2.026,0,0,0-1.872-1,2.721,2.721,0,0,0-2.7,2.952,2.721,2.721,0,0,0,2.7,2.952,2.026,2.026,0,0,0,1.872-1h.024v.66c0,1.224-.384,1.6-1.44,1.6a9.387,9.387,0,0,1-1.908-.252l-.228,1.14A12.042,12.042,0,0,0,16.776,14.58Zm-.2-3.552a1.664,1.664,0,0,1-1.7-1.8,1.707,1.707,0,1,1,3.408,0A1.664,1.664,0,0,1,16.572,11.028Zm6.6,1.152a2.026,2.026,0,0,0,1.872-1h.024V12h1.176V6.456H25.068v.816h-.024a2.026,2.026,0,0,0-1.872-1,2.721,2.721,0,0,0-2.7,2.952A2.721,2.721,0,0,0,23.172,12.18Zm.252-1.152a1.664,1.664,0,0,1-1.7-1.8,1.707,1.707,0,1,1,3.408,0A1.664,1.664,0,0,1,23.424,11.028ZM30.7,6.276A1.958,1.958,0,0,0,28.884,7.3H28.86v-.84H27.684V12H28.86V9.348c0-1.38.612-1.9,1.476-1.9.792,0,1.272.4,1.272,1.344V12h1.176V8.592C32.784,6.912,31.884,6.276,30.7,6.276Zm3.4-2.556V5.16h1.44V3.72ZM35.4,12V6.456H34.224V12Zm4.188.18a3.327,3.327,0,0,0,1.9-.564l-.552-1a2.636,2.636,0,0,1-1.38.42,1.707,1.707,0,0,1-1.764-1.812,1.707,1.707,0,0,1,1.764-1.812,2.636,2.636,0,0,1,1.38.42l.552-1a3.327,3.327,0,0,0-1.9-.564A2.861,2.861,0,0,0,36.54,9.228,2.861,2.861,0,0,0,39.588,12.18ZM44.964,3.6V4.776h2.364V12h1.248V4.776H50.94V3.6Zm8.892,2.688a1.85,1.85,0,0,0-1.836,1.38H52V6.456H50.82V12H52V9.54c0-1.32.612-1.872,1.764-1.872h.18V6.288ZM56.82,12.18a2.026,2.026,0,0,0,1.872-1h.024V12h1.176V6.456H58.716v.816h-.024a2.026,2.026,0,0,0-1.872-1,2.721,2.721,0,0,0-2.7,2.952A2.721,2.721,0,0,0,56.82,12.18Zm.252-1.152a1.664,1.664,0,0,1-1.7-1.8,1.707,1.707,0,1,1,3.408,0A1.664,1.664,0,0,1,57.072,11.028Zm7.02-6.456V3.48h-.228a1.989,1.989,0,0,0-2.136,2.208v.768h-.876v1h.876V12H62.9V7.452H64v-1H62.9v-.8c0-.8.444-1.08,1.008-1.08Zm3.6,0V3.48h-.228a1.989,1.989,0,0,0-2.136,2.208v.768h-.876v1h.876V12H66.5V7.452H67.6v-1H66.5v-.8c0-.8.444-1.08,1.008-1.08Zm.768-.852V5.16H69.9V3.72ZM69.768,12V6.456H68.592V12Zm4.188.18a3.327,3.327,0,0,0,1.9-.564l-.552-1a2.636,2.636,0,0,1-1.38.42,1.707,1.707,0,0,1-1.764-1.812A1.707,1.707,0,0,1,73.92,7.416a2.636,2.636,0,0,1,1.38.42l.552-1a3.327,3.327,0,0,0-1.9-.564,2.861,2.861,0,0,0-3.048,2.952A2.861,2.861,0,0,0,73.956,12.18Z" transform="translate(1418.077 -270.115)" fill="#0d0d0d"/>
    <path id="Path_4135" data-name="Path 4135" d="M1.008-14.175v3.045h.8V0H5.019V-14.175Zm7.119,0v3.045h.8V0h3.213V-14.175Zm7.119,0v3.045h.8V0h3.213V-14.175ZM31.626,0V-2.814l-5.649.042,3.066-2.919c1.848-1.743,2.541-3,2.541-4.62,0-2.6-1.806-4.179-4.83-4.179-3.234,0-5.145,1.764-5.145,4.788h3.213a1.66,1.66,0,0,1,1.848-1.869c1.05,0,1.617.546,1.617,1.491,0,.819-.462,1.575-1.764,2.856L21.756-2.5V0Zm1.428-3.381V0h3.36V-3.381Zm5.187-10.794v3.045h.8V0h3.213V-14.175ZM54.621,0V-2.814l-5.649.042,3.066-2.919c1.848-1.743,2.541-3,2.541-4.62,0-2.6-1.806-4.179-4.83-4.179-3.234,0-5.145,1.764-5.145,4.788h3.213a1.66,1.66,0,0,1,1.848-1.869c1.05,0,1.617.546,1.617,1.491,0,.819-.462,1.575-1.764,2.856L44.751-2.5V0ZM59.6-7.25a3.35,3.35,0,0,1-2.528-.995,3.694,3.694,0,0,1-.959-2.676,4.06,4.06,0,0,1,1.02-2.912,3.574,3.574,0,0,1,2.722-1.077,3.331,3.331,0,0,1,2.548.974,3.837,3.837,0,0,1,.918,2.738A4.006,4.006,0,0,1,62.3-8.316,3.563,3.563,0,0,1,59.6-7.25Zm.195-5.855q-1.5,0-1.5,2.082,0,1.969,1.425,1.969,1.456,0,1.456-2.051Q61.176-13.1,59.792-13.1Zm10.541-1.6L60.756,0h-2.5l9.557-14.7ZM68.754.205A3.35,3.35,0,0,1,66.226-.79a3.694,3.694,0,0,1-.959-2.676,4.06,4.06,0,0,1,1.02-2.912A3.574,3.574,0,0,1,69.01-7.455a3.347,3.347,0,0,1,2.553.964,3.813,3.813,0,0,1,.913,2.728A4.043,4.043,0,0,1,71.461-.872,3.545,3.545,0,0,1,68.754.205Zm.164-5.855q-1.487,0-1.487,2.082,0,1.969,1.446,1.969T70.333-3.65a2.432,2.432,0,0,0-.39-1.477A1.219,1.219,0,0,0,68.918-5.65Z" transform="translate(1418 -286)" fill="#0d0d0d"/>
  </g>
</svg>
