<svg xmlns="http://www.w3.org/2000/svg" xmlns:xlink="http://www.w3.org/1999/xlink" width="311.74" height="249.705" viewBox="0 0 311.74 249.705">
  <defs>
    <filter id="Path_4126" x="0" y="0" width="311.74" height="249.705" filterUnits="userSpaceOnUse">
      <feOffset dy="3" input="SourceAlpha"/>
      <feGaussianBlur stdDeviation="20" result="blur"/>
      <feFlood flood-opacity="0.161"/>
      <feComposite operator="in" in2="blur"/>
      <feComposite in="SourceGraphic"/>
    </filter>
    <clipPath id="clip-path">
      <path id="Path_4127" data-name="Path 4127" d="M204.04,44.719V147.386A13.574,13.574,0,0,1,190.447,160.9H25.894A13.526,13.526,0,0,1,12.3,147.386V44.719A13.575,13.575,0,0,1,25.894,31.2H190.447A13.526,13.526,0,0,1,204.04,44.719Z" transform="translate(-12.3 -31.2)"/>
    </clipPath>
  </defs>
  <g id="Group_3069" data-name="Group 3069" transform="translate(3846.925 -6813.255)">
    <g transform="matrix(1, 0, 0, 1, -3846.93, 6813.26)" filter="url(#Path_4126)">
      <path id="Path_4126-2" data-name="Path 4126" d="M204.04,44.719V147.386A13.574,13.574,0,0,1,190.447,160.9H25.894A13.526,13.526,0,0,1,12.3,147.386V44.719A13.575,13.575,0,0,1,25.894,31.2H190.447A13.526,13.526,0,0,1,204.04,44.719Z" transform="translate(47.7 25.8)" fill="#fff"/>
    </g>
    <g id="Group_3059" data-name="Group 3059" transform="translate(-3780.016 6881.371)" opacity="0.2">
      <g id="Group_3042" data-name="Group 3042" transform="translate(0 15.096)">
        <rect id="Rectangle_1919" data-name="Rectangle 1919" width="177.996" height="0.451" fill="#757575" opacity="0.25"/>
      </g>
      <g id="Group_3043" data-name="Group 3043" transform="translate(0 30.417)">
        <rect id="Rectangle_1920" data-name="Rectangle 1920" width="177.996" height="0.451" fill="#757575" opacity="0.25"/>
      </g>
      <g id="Group_3044" data-name="Group 3044" transform="translate(0 45.813)">
        <rect id="Rectangle_1921" data-name="Rectangle 1921" width="177.996" height="0.451" fill="#757575" opacity="0.25"/>
      </g>
      <g id="Group_3045" data-name="Group 3045" transform="translate(0 61.135)">
        <rect id="Rectangle_1922" data-name="Rectangle 1922" width="177.996" height="0.451" fill="#757575" opacity="0.25"/>
      </g>
      <g id="Group_3046" data-name="Group 3046" transform="translate(0 76.456)">
        <rect id="Rectangle_1923" data-name="Rectangle 1923" width="177.996" height="0.451" fill="#757575" opacity="0.25"/>
      </g>
      <g id="Group_3047" data-name="Group 3047" transform="translate(0 91.777)">
        <rect id="Rectangle_1924" data-name="Rectangle 1924" width="177.996" height="0.451" fill="#757575" opacity="0.25"/>
      </g>
      <g id="Group_3048" data-name="Group 3048" transform="translate(162.901 0)">
        <rect id="Rectangle_1925" data-name="Rectangle 1925" width="0.451" height="107.399" fill="#757575" opacity="0.25"/>
      </g>
      <g id="Group_3049" data-name="Group 3049" transform="translate(148.105 0)">
        <rect id="Rectangle_1926" data-name="Rectangle 1926" width="0.451" height="107.399" fill="#757575" opacity="0.25"/>
      </g>
      <g id="Group_3050" data-name="Group 3050" transform="translate(133.234 0)">
        <rect id="Rectangle_1927" data-name="Rectangle 1927" width="0.451" height="107.399" fill="#757575" opacity="0.25"/>
      </g>
      <g id="Group_3051" data-name="Group 3051" transform="translate(118.439 0)">
        <rect id="Rectangle_1928" data-name="Rectangle 1928" width="0.451" height="107.399" fill="#757575" opacity="0.25"/>
      </g>
      <g id="Group_3052" data-name="Group 3052" transform="translate(103.568 0)">
        <rect id="Rectangle_1929" data-name="Rectangle 1929" width="0.451" height="107.399" fill="#757575" opacity="0.25"/>
      </g>
      <g id="Group_3053" data-name="Group 3053" transform="translate(88.773 0)">
        <rect id="Rectangle_1930" data-name="Rectangle 1930" width="0.451" height="107.399" fill="#757575" opacity="0.25"/>
      </g>
      <g id="Group_3054" data-name="Group 3054" transform="translate(73.902 0)">
        <rect id="Rectangle_1931" data-name="Rectangle 1931" width="0.451" height="107.399" fill="#757575" opacity="0.25"/>
      </g>
      <g id="Group_3055" data-name="Group 3055" transform="translate(59.107 0)">
        <rect id="Rectangle_1932" data-name="Rectangle 1932" width="0.451" height="107.399" fill="#757575" opacity="0.25"/>
      </g>
      <g id="Group_3056" data-name="Group 3056" transform="translate(44.236 0)">
        <rect id="Rectangle_1933" data-name="Rectangle 1933" width="0.451" height="107.399" fill="#757575" opacity="0.25"/>
      </g>
      <g id="Group_3057" data-name="Group 3057" transform="translate(29.441 0)">
        <rect id="Rectangle_1934" data-name="Rectangle 1934" width="0.451" height="107.399" fill="#757575" opacity="0.25"/>
      </g>
      <g id="Group_3058" data-name="Group 3058" transform="translate(14.57 0)">
        <rect id="Rectangle_1935" data-name="Rectangle 1935" width="0.451" height="107.399" fill="#757575" opacity="0.25"/>
      </g>
    </g>
    <g id="Group_3065" data-name="Group 3065" transform="translate(-3786.925 6870.255)">
      <g id="Group_3064" data-name="Group 3064" transform="translate(0 0)">
        <g id="Group_3063" data-name="Group 3063" clip-path="url(#clip-path)">
          <g id="Group_3060" data-name="Group 3060" transform="translate(-47.412 -3.994)">
            <rect id="Rectangle_1936" data-name="Rectangle 1936" width="255.946" height="117.768" fill="none"/>
          </g>
          <g id="Group_3061" data-name="Group 3061" transform="translate(-45.709 -3.235)">
            <rect id="Rectangle_1937" data-name="Rectangle 1937" width="252.589" height="114.288" fill="none"/>
          </g>
          <g id="Group_3062" data-name="Group 3062" transform="translate(-45.84 -4.066)">
            <rect id="Rectangle_1938" data-name="Rectangle 1938" width="252.694" height="115.961" fill="none"/>
          </g>
          <circle id="Ellipse_93" data-name="Ellipse 93" cx="2.779" cy="2.779" r="2.779" transform="translate(176.87 21.254)" fill="#0494ff"/>
        </g>
      </g>
    </g>
    <path id="Path_4131" data-name="Path 4131" d="M25.5-11.281V-17.89l-13.267.1,7.2-6.856C23.77-28.741,25.4-31.7,25.4-35.5c0-6.116-4.242-9.815-11.344-9.815-7.6,0-12.084,4.143-12.084,11.245H9.516c0-2.861,1.48-4.39,4.34-4.39,2.466,0,3.8,1.282,3.8,3.5,0,1.924-1.085,3.7-4.143,6.708l-11.2,11.1v5.869Zm1.085-33.292v6.954H40.934L27.864-11.281h7.891L48.726-37.914v-6.658ZM62.536-10.541c7.99,0,12.725-3.65,12.725-9.815,0-4.34-2.417-7.6-6.362-8.483v-.148a7.3,7.3,0,0,0,5.425-7.349c0-5.573-4.538-8.976-11.788-8.976S50.8-41.909,50.8-36.336a7.259,7.259,0,0,0,5.376,7.349v.148c-3.9.888-6.362,4.143-6.362,8.483C49.811-14.191,54.546-10.541,62.536-10.541Zm0-21.356a3.519,3.519,0,0,1-3.847-3.5c0-2.121,1.529-3.551,3.847-3.551s3.847,1.43,3.847,3.551A3.519,3.519,0,0,1,62.536-31.9Zm0,14.7A4.43,4.43,0,0,1,57.8-21.737a4.468,4.468,0,0,1,4.735-4.587,4.468,4.468,0,0,1,4.735,4.587A4.4,4.4,0,0,1,62.536-17.2Z" transform="translate(-3770.579 6997.729)" fill="#ff7241"/>
    <path id="Path_4132" data-name="Path 4132" d="M1.225-15.106V-3.761H8.033V-5.722H3.3v-9.384Zm11,3.614a3.731,3.731,0,0,0-3.89,4,3.769,3.769,0,0,0,4.036,3.971,4.582,4.582,0,0,0,3.241-1.345l-1-1.442a3.165,3.165,0,0,1-2.237,1.021A1.955,1.955,0,0,1,10.269-7.1h5.592v-.389C15.861-10.049,14.5-11.492,12.23-11.492Zm-.1,1.6A1.568,1.568,0,0,1,13.851-8.38H10.318A1.666,1.666,0,0,1,12.133-9.887Zm8.136,6.37a2.73,2.73,0,0,0,2.5-1.3H22.8v1.053h1.977v-7.488H22.8V-10.2h-.032a2.73,2.73,0,0,0-2.5-1.3c-1.961,0-3.6,1.426-3.6,3.987S18.308-3.518,20.269-3.518Zm.5-1.88A1.962,1.962,0,0,1,18.746-7.5a1.962,1.962,0,0,1,2.026-2.107A1.962,1.962,0,0,1,22.8-7.5,1.962,1.962,0,0,1,20.772-5.4Zm8.865,1.88a2.73,2.73,0,0,0,2.5-1.3h.032v1.053h1.977V-15.106H32.165V-10.2h-.032a2.73,2.73,0,0,0-2.5-1.3c-1.961,0-3.6,1.426-3.6,3.987S27.676-3.518,29.637-3.518Zm.5-1.88A1.962,1.962,0,0,1,28.114-7.5,1.962,1.962,0,0,1,30.14-9.612,1.962,1.962,0,0,1,32.165-7.5,1.962,1.962,0,0,1,30.14-5.4Zm8.347,1.88c1.864,0,3.1-.746,3.1-2.4A2.238,2.238,0,0,0,39.929-8.1l-1.345-.583c-.519-.227-.713-.389-.713-.681,0-.276.178-.454.762-.454a5.59,5.59,0,0,1,2.107.519l.665-1.669a7.815,7.815,0,0,0-2.658-.519c-1.88,0-2.9.81-2.9,2.269A2.36,2.36,0,0,0,37.53-6.986l1.345.583c.438.211.648.357.648.648,0,.373-.308.535-.924.535A5.035,5.035,0,0,1,36.088-6l-.81,1.686A6.765,6.765,0,0,0,38.486-3.518ZM6.785,9.273v1.912h3.258A3.042,3.042,0,0,1,6.72,13.811a3.607,3.607,0,0,1-3.825-3.793A3.585,3.585,0,0,1,6.639,6.226,4.771,4.771,0,0,1,9.751,7.377L11.128,5.61A6.836,6.836,0,0,0,6.72,4.1C3.008,4.1.626,6.518.626,10.019a5.652,5.652,0,0,0,6,5.916c3.825,0,5.64-2.788,5.64-6.013,0-.211,0-.421-.016-.648ZM16.9,7.96a3.731,3.731,0,0,0-3.89,4,3.769,3.769,0,0,0,4.036,3.971,4.582,4.582,0,0,0,3.241-1.345l-1-1.442a3.165,3.165,0,0,1-2.237,1.021,1.955,1.955,0,0,1-2.107-1.815h5.592v-.389C20.529,9.4,19.167,7.96,16.9,7.96Zm-.1,1.6a1.568,1.568,0,0,1,1.718,1.507H14.986A1.666,1.666,0,0,1,16.8,9.565Zm9.433-1.6a2.715,2.715,0,0,0-2.447,1.378h-.032V8.2H21.793v7.488H23.77V12.028c0-1.621.729-2.22,1.75-2.22.972,0,1.54.519,1.54,1.734v4.149h1.994V11.072C29.054,8.868,27.854,7.96,26.234,7.96Zm7.925,0a3.731,3.731,0,0,0-3.89,4A3.769,3.769,0,0,0,34.3,15.934a4.582,4.582,0,0,0,3.241-1.345l-1-1.442A3.165,3.165,0,0,1,34.3,14.168,1.955,1.955,0,0,1,32.2,12.352h5.592v-.389C37.789,9.4,36.428,7.96,34.159,7.96Zm-.1,1.6a1.568,1.568,0,0,1,1.718,1.507H32.247A1.666,1.666,0,0,1,34.062,9.565Zm9.465-1.588a2.457,2.457,0,0,0-2.48,1.815h-.032V8.2H39.054v7.488h1.977V12.628c0-1.831.762-2.512,2.35-2.512h.227V7.976Zm3.89,7.958a2.73,2.73,0,0,0,2.5-1.3h.032v1.053h1.977V8.2H49.945V9.257h-.032a2.73,2.73,0,0,0-2.5-1.3c-1.961,0-3.6,1.426-3.6,3.987S45.456,15.934,47.417,15.934Zm.5-1.88a1.962,1.962,0,0,1-2.026-2.107,2.027,2.027,0,1,1,4.052,0A1.962,1.962,0,0,1,47.919,14.054ZM57.887,8.2h-1.54v-3H54.353v3H52.976V9.873h1.378v3.614a2,2,0,0,0,2.253,2.22h.875V13.86h-.34c-.583,0-.794-.243-.794-.843V9.873h1.54ZM62.2,7.96a3.731,3.731,0,0,0-3.89,4,3.769,3.769,0,0,0,4.036,3.971,4.582,4.582,0,0,0,3.241-1.345l-1-1.442a3.165,3.165,0,0,1-2.237,1.021,1.955,1.955,0,0,1-2.107-1.815h5.592v-.389C65.828,9.4,64.467,7.96,62.2,7.96Zm-.1,1.6a1.568,1.568,0,0,1,1.718,1.507H60.285A1.666,1.666,0,0,1,62.1,9.565Zm8.136,6.37a2.73,2.73,0,0,0,2.5-1.3h.032v1.053h1.977V4.346H72.765V9.257h-.032a2.73,2.73,0,0,0-2.5-1.3c-1.961,0-3.6,1.426-3.6,3.987S68.276,15.934,70.237,15.934Zm.5-1.88a1.962,1.962,0,0,1-2.026-2.107,2.027,2.027,0,1,1,4.052,0A1.962,1.962,0,0,1,70.739,14.054Z" transform="translate(-3687.343 6970.249)"/>
    <path id="Path_4130" data-name="Path 4130" d="M-3760.547,6944.585s7.192-14.59,17.467-10.274,17.878,1.849,26.509-7.4,7.4,6.37,18.083,7.4,11.1-2.67,20.344-10.068,16.03,14.589,27.537,10.068,22.194-35.551,28.769-28.975,11.713-6.987,11.713-6.987" transform="translate(-6.567 -6.994)" fill="none" stroke="#003adc" stroke-width="2"/>
    <g id="Group_3068" data-name="Group 3068" transform="translate(-3620.345 6885.651)">
      <circle id="Ellipse_94" data-name="Ellipse 94" cx="6.985" cy="6.985" r="6.985" transform="translate(1.352 1.352)" fill="#f9b500"/>
      <g id="Group_3066" data-name="Group 3066" transform="translate(0 0)">
        <path id="Path_4128" data-name="Path 4128" d="M247.437,68.373a8.337,8.337,0,1,1,8.337-8.337A8.366,8.366,0,0,1,247.437,68.373Zm0-15.321a6.985,6.985,0,1,0,6.985,6.985A7.02,7.02,0,0,0,247.437,53.052Z" transform="translate(-239.1 -51.7)" fill="#ffde56"/>
      </g>
      <g id="Group_3067" data-name="Group 3067" transform="translate(5.708 3.755)">
        <path id="Path_4129" data-name="Path 4129" d="M248.352,60.3a2.7,2.7,0,0,0,.676.376V58.8a1.011,1.011,0,0,0-.676.376.853.853,0,0,0-.225.6A.439.439,0,0,0,248.352,60.3Zm2.1,3.154a.853.853,0,0,0,.225-.6.454.454,0,0,0-.225-.451,1.51,1.51,0,0,0-.6-.3v1.727A4.191,4.191,0,0,0,250.455,63.459Zm.9.676a2.341,2.341,0,0,1-1.5.676v1.051h-.976V64.811a5.692,5.692,0,0,1-1.2-.225,4.046,4.046,0,0,1-.976-.526l.451-.9a3.452,3.452,0,0,0,1.8.751V61.882a3.959,3.959,0,0,1-1.127-.376,1.907,1.907,0,0,1-.751-.6,1.468,1.468,0,0,1-.3-1.051,2.079,2.079,0,0,1,.225-.976,2.387,2.387,0,0,1,.751-.751,2.523,2.523,0,0,1,1.051-.376V56.7h.976v1.051a4.3,4.3,0,0,1,1.051.3,3.1,3.1,0,0,1,.826.526l-.451.9a3.023,3.023,0,0,0-1.5-.676v2.1a2.82,2.82,0,0,1,1.051.376,1.907,1.907,0,0,1,.751.6,1.385,1.385,0,0,1,.3.976A1.44,1.44,0,0,1,251.356,64.135Z" transform="translate(-246.7 -56.7)" fill="#ffde56"/>
      </g>
    </g>
  </g>
</svg>
