<svg xmlns="http://www.w3.org/2000/svg" xmlns:xlink="http://www.w3.org/1999/xlink" width="280.1" height="234.5" viewBox="0 0 280.1 234.5">
  <defs>
    <filter id="Path_4061" x="0" y="0" width="280.1" height="234.5" filterUnits="userSpaceOnUse">
      <feOffset dy="3" input="SourceAlpha"/>
      <feGaussianBlur stdDeviation="20" result="blur"/>
      <feFlood flood-opacity="0.161"/>
      <feComposite operator="in" in2="blur"/>
      <feComposite in="SourceGraphic"/>
    </filter>
    <linearGradient id="linear-gradient" x1="-2.034" y1="-0.026" x2="5.435" y2="1.531" gradientUnits="objectBoundingBox">
      <stop offset="0" stop-color="#05ccff"/>
      <stop offset="0.435" stop-color="#04a2ff"/>
      <stop offset="0.793" stop-color="#0486ff"/>
      <stop offset="1" stop-color="#047cff"/>
    </linearGradient>
    <linearGradient id="linear-gradient-2" x1="-1.65" y1="-0.22" x2="3.094" y2="1.365" gradientUnits="objectBoundingBox">
      <stop offset="0" stop-color="#ffc21a"/>
      <stop offset="0.033" stop-color="#ffbe1a"/>
      <stop offset="0.468" stop-color="#ff911d"/>
      <stop offset="0.805" stop-color="#ff751e"/>
      <stop offset="1" stop-color="#ff6b1f"/>
    </linearGradient>
    <linearGradient id="linear-gradient-3" x1="-1.652" y1="-0.22" x2="3.091" y2="1.365" xlink:href="#linear-gradient-2"/>
    <linearGradient id="linear-gradient-4" x1="-1.661" y1="-0.22" x2="3.082" y2="1.365" xlink:href="#linear-gradient-2"/>
    <linearGradient id="linear-gradient-5" x1="-4.896" y1="-0.383" x2="4.563" y2="1.164" xlink:href="#linear-gradient"/>
    <linearGradient id="linear-gradient-6" x1="-1.599" y1="-0.619" x2="1.455" y2="1.01" xlink:href="#linear-gradient-2"/>
    <linearGradient id="linear-gradient-7" x1="-4.579" y1="-0.755" x2="1.739" y2="0.809" xlink:href="#linear-gradient"/>
    <linearGradient id="linear-gradient-8" x1="-8.154" y1="-1.107" x2="0.206" y2="0.445" xlink:href="#linear-gradient"/>
  </defs>
  <g id="Group_2911" data-name="Group 2911" transform="translate(-445.1 -1565.408)">
    <g id="Group_2893" data-name="Group 2893" transform="translate(300.9 1469.608)">
      <g transform="matrix(1, 0, 0, 1, 144.2, 95.8)" filter="url(#Path_4061)">
        <path id="Path_4061-2" data-name="Path 4061" d="M348.7,267.3H219.8a15.62,15.62,0,0,1-15.6-15.6V168.4a15.62,15.62,0,0,1,15.6-15.6H348.7a15.62,15.62,0,0,1,15.6,15.6v83.3A15.62,15.62,0,0,1,348.7,267.3Z" transform="translate(-144.2 -95.8)" fill="#fff"/>
      </g>
      <g id="Group_2890" data-name="Group 2890">
        <path id="Path_4062" data-name="Path 4062" d="M228.2,220.9h0a2.9,2.9,0,0,1-2.9-2.9V182.6a2.9,2.9,0,0,1,2.9-2.9h0a2.9,2.9,0,0,1,2.9,2.9V218A2.9,2.9,0,0,1,228.2,220.9Z" fill="url(#linear-gradient)"/>
        <path id="Path_4063" data-name="Path 4063" d="M244.2,220.9h0a2.9,2.9,0,0,1-2.9-2.9V198.1a2.9,2.9,0,0,1,2.9-2.9h0a2.9,2.9,0,0,1,2.9,2.9V218A2.9,2.9,0,0,1,244.2,220.9Z" fill="url(#linear-gradient-2)"/>
        <path id="Path_4064" data-name="Path 4064" d="M308.7,220.9h0a2.9,2.9,0,0,1-2.9-2.9V198.1a2.9,2.9,0,0,1,2.9-2.9h0a2.9,2.9,0,0,1,2.9,2.9V218A2.9,2.9,0,0,1,308.7,220.9Z" fill="url(#linear-gradient-3)"/>
        <path id="Path_4065" data-name="Path 4065" d="M340.4,220.9h0a2.9,2.9,0,0,1-2.9-2.9V198.1a2.9,2.9,0,0,1,2.9-2.9h0a2.9,2.9,0,0,1,2.9,2.9V218A2.9,2.9,0,0,1,340.4,220.9Z" fill="url(#linear-gradient-4)"/>
        <path id="Path_4066" data-name="Path 4066" d="M260.3,220.9h0a2.9,2.9,0,0,1-2.9-2.9V171.3a2.9,2.9,0,0,1,2.9-2.9h0a2.9,2.9,0,0,1,2.9,2.9V218A2.9,2.9,0,0,1,260.3,220.9Z" fill="url(#linear-gradient-5)"/>
        <path id="Path_4067" data-name="Path 4067" d="M276.4,220.9h0a2.9,2.9,0,0,1-2.9-2.9V207.7a2.9,2.9,0,0,1,2.9-2.9h0a2.9,2.9,0,0,1,2.9,2.9V218A2.9,2.9,0,0,1,276.4,220.9Z" fill="url(#linear-gradient-6)"/>
        <path id="Path_4068" data-name="Path 4068" d="M292.5,220.9h0a2.9,2.9,0,0,1-2.9-2.9V189.1a2.9,2.9,0,0,1,2.9-2.9h0a2.9,2.9,0,0,1,2.9,2.9V218A2.9,2.9,0,0,1,292.5,220.9Z" fill="url(#linear-gradient-7)"/>
        <path id="Path_4069" data-name="Path 4069" d="M324.6,220.9h0a2.9,2.9,0,0,1-2.9-2.9V177.5a2.9,2.9,0,0,1,2.9-2.9h0a2.9,2.9,0,0,1,2.9,2.9V218A2.84,2.84,0,0,1,324.6,220.9Z" fill="url(#linear-gradient-8)"/>
      </g>
      <g id="Group_2891" data-name="Group 2891">
        <path id="Path_4089" data-name="Path 4089" d="M13.473-5.362V-17.238H9.147L.384-4.921v3.169H9.56V1.362h3.913V-1.752h1.681v-3.61ZM9.45-12.168h.11v6.806H4.628Zm7.66,9.093V1.362h4.409V-3.075ZM28.849,1.362,31.99-2.11c2.728-3,3.94-5.621,3.94-8.46,0-4.326-2.811-7.082-7.3-7.082-4.271,0-7.275,2.728-7.275,6.641a6.119,6.119,0,0,0,5.869,6.365,5.458,5.458,0,0,0,3-.964l.055.055L23.806,1.362Zm-.193-9.4A2.808,2.808,0,0,1,25.68-10.9a2.846,2.846,0,0,1,2.976-2.893,2.853,2.853,0,0,1,3,2.893A2.816,2.816,0,0,1,28.656-8.035Zm7.853-9.2v3.885h8.019l-7.3,14.715h4.409l7.247-14.88v-3.72ZM59.986-8.889l7.964-9.038H62.136L55.274-9.412v-8.515H51V1.362h4.271V-7.869l7.964,9.231h6.09Z" transform="translate(223.872 250.752)" fill="#353535"/>
      </g>
      <g id="Group_2892" data-name="Group 2892">
        <path id="Path_4090" data-name="Path 4090" d="M8.4-9.8,6.034-3.78H6.006L3.64-9.8H2.45L.07,0H1.624L3.248-7h.028l2.2,5.5H6.566L8.764-7h.028l1.624,7H11.97L9.59-9.8ZM16-6.678A3.4,3.4,0,0,0,12.46-3.234,3.4,3.4,0,0,0,16,.21a3.4,3.4,0,0,0,3.542-3.444A3.4,3.4,0,0,0,16-6.678Zm0,1.344a1.98,1.98,0,0,1,2.086,2.1A1.98,1.98,0,0,1,16-1.134a1.98,1.98,0,0,1-2.086-2.1A1.98,1.98,0,0,1,16-5.334Zm8.316-1.344A2.284,2.284,0,0,0,22.2-5.488h-.028v-.98H20.8V0h1.372V-3.094c0-1.61.714-2.212,1.722-2.212.924,0,1.484.462,1.484,1.568V0h1.372V-3.976C26.754-5.936,25.7-6.678,24.318-6.678Zm6.9.21H29.9v-2.59H28.532v2.59H27.384v1.162h1.148v3.654A1.544,1.544,0,0,0,30.282.014h.63v-1.26h-.336c-.476,0-.672-.21-.672-.672V-5.306H31.22ZM32.41-9.8V0h1.372V-3.094c0-1.61.714-2.212,1.722-2.212.924,0,1.484.462,1.484,1.568V0H38.36V-3.976c0-1.96-1.064-2.7-2.436-2.7a2.284,2.284,0,0,0-2.114,1.19h-.028V-9.8Zm7.63,0V0h1.372V-9.8Zm5.628,7.574L43.89-6.468H42.252l2.716,5.88L43.414,2.8H44.87L48.9-6.468H47.39ZM.14,2.2V3.572H2.9V12H4.354V3.572H7.112V2.2ZM10.514,5.336a2.158,2.158,0,0,0-2.142,1.61H8.344V5.532H6.972V12H8.344V9.13c0-1.54.714-2.184,2.058-2.184h.21V5.336Zm3.458,6.874a2.363,2.363,0,0,0,2.184-1.162h.028V12h1.372V5.532H16.184v.952h-.028a2.363,2.363,0,0,0-2.184-1.162,3.174,3.174,0,0,0-3.15,3.444A3.174,3.174,0,0,0,13.972,12.21Zm.294-1.344a1.942,1.942,0,0,1-1.988-2.1,1.991,1.991,0,1,1,3.976,0A1.942,1.942,0,0,1,14.266,10.866Zm8.19-7.532V2.06H22.19A2.32,2.32,0,0,0,19.7,4.636v.9H18.676V6.694H19.7V12H21.07V6.694h1.274V5.532H21.07V4.594c0-.938.518-1.26,1.176-1.26Zm4.2,0V2.06H26.39A2.32,2.32,0,0,0,23.9,4.636v.9H22.876V6.694H23.9V12H25.27V6.694h1.274V5.532H25.27V4.594c0-.938.518-1.26,1.176-1.26Zm.9-.994V4.02h1.68V2.34ZM29.078,12V5.532H27.706V12Zm4.886.21a3.881,3.881,0,0,0,2.212-.658l-.644-1.162a3.075,3.075,0,0,1-1.61.49,1.992,1.992,0,0,1-2.058-2.114,1.992,1.992,0,0,1,2.058-2.114,3.075,3.075,0,0,1,1.61.49l.644-1.162a3.881,3.881,0,0,0-2.212-.658,3.337,3.337,0,0,0-3.556,3.444A3.337,3.337,0,0,0,33.964,12.21Z" transform="translate(298.231 242.156)" fill="#353535"/>
      </g>
    </g>
  </g>
</svg>
