<svg xmlns="http://www.w3.org/2000/svg" xmlns:xlink="http://www.w3.org/1999/xlink" width="279.801" height="198.4" viewBox="0 0 279.801 198.4">
  <defs>
    <filter id="Path_4081" x="0" y="0" width="279.801" height="198.4" filterUnits="userSpaceOnUse">
      <feOffset dy="3" input="SourceAlpha"/>
      <feGaussianBlur stdDeviation="20" result="blur"/>
      <feFlood flood-opacity="0.078"/>
      <feComposite operator="in" in2="blur"/>
      <feComposite in="SourceGraphic"/>
    </filter>
  </defs>
  <g id="Group_2997" data-name="Group 2997" transform="translate(-123.3 -260.1)">
    <g id="Group_2906" data-name="Group 2906">
      <g id="Group_2905" data-name="Group 2905" opacity="0.54">
        <g id="Group_2904" data-name="Group 2904" opacity="0.51">
          <path id="Path_4080" data-name="Path 4080" d="M324.1,392.5H203a4.225,4.225,0,0,1-4.2-4.2V364.4c0-2.3,1.9-35,4.2-35H324.1c2.3,0,4.2,32.7,4.2,35v23.9A4.225,4.225,0,0,1,324.1,392.5Z" fill="#843ea1"/>
        </g>
      </g>
      <g transform="matrix(1, 0, 0, 1, 123.3, 260.1)" filter="url(#Path_4081)">
        <path id="Path_4081-2" data-name="Path 4081" d="M327.5,395.5H198.9a15.62,15.62,0,0,1-15.6-15.6V332.7a15.62,15.62,0,0,1,15.6-15.6H327.5a15.62,15.62,0,0,1,15.6,15.6v47.2A15.493,15.493,0,0,1,327.5,395.5Z" transform="translate(-123.3 -260.1)" fill="#fff"/>
      </g>
    </g>
    <circle id="Ellipse_88" data-name="Ellipse 88" cx="19.2" cy="19.2" r="19.2" transform="translate(187.642 357.631) rotate(-45)" fill="#ff7757"/>
    <path id="Path_4082" data-name="Path 4082" d="M214.8,352.9a12.6,12.6,0,0,0-9.3,4.1.785.785,0,0,0,0,1.1,12.6,12.6,0,0,0,18.6,0,.785.785,0,0,0,0-1.1A12.438,12.438,0,0,0,214.8,352.9Zm.7,8.2a3.567,3.567,0,0,1-4.2-4.2,3.651,3.651,0,0,1,2.8-2.8,3.567,3.567,0,0,1,4.2,4.2A3.4,3.4,0,0,1,215.5,361.1Z" fill="#fff"/>
    <g id="Group_2907" data-name="Group 2907" transform="translate(2 -12)">
      <path id="Path_4083" data-name="Path 4083" d="M304.6,370.1s3.3-7.9,14.3-8.4a16.509,16.509,0,0,0,14.6-9.3" fill="none" stroke="#ff7757" stroke-linecap="round" stroke-linejoin="round" stroke-miterlimit="10" stroke-width="0.954"/>
      <path id="Path_4084" data-name="Path 4084" d="M330.7,358.6h0a2.433,2.433,0,0,1-2.4-2.4h0a2.433,2.433,0,0,1,2.4-2.4h0a2.433,2.433,0,0,1,2.4,2.4h0A2.432,2.432,0,0,1,330.7,358.6Z" fill="#ff7757"/>
    </g>
    <g id="Group_2908" data-name="Group 2908" transform="translate(0 -1.536)">
      <path id="Path_4087" data-name="Path 4087" d="M12.63,1.5V-1.852L5.894-1.8,9.55-5.282c2.2-2.078,3.03-3.581,3.03-5.509,0-3.1-2.153-4.983-5.759-4.983-3.856,0-6.135,2.1-6.135,5.709H4.517a1.979,1.979,0,0,1,2.2-2.228c1.252,0,1.928.651,1.928,1.778,0,.977-.551,1.878-2.1,3.405L.861-1.476V1.5Zm7.286-17.277c-3.831,0-6.009,1.878-6.034,5.158h3.881c.025-1.052.776-1.678,2-1.678,1.2,0,1.878.6,1.878,1.7,0,1.377-.826,1.978-2.679,1.978h-.576v2.854h.576c2.479,0,3.38.526,3.38,2.028,0,1.4-.776,2.128-2.3,2.128s-2.379-.7-2.479-2.053H13.606c0,3.581,2.279,5.534,6.41,5.534,3.956,0,6.26-1.928,6.26-5.208a3.837,3.837,0,0,0-3.531-4.157v-.05a3.644,3.644,0,0,0,3-3.781C25.75-14.171,23.672-15.773,19.916-15.773ZM34.264,1.879c4.056,0,6.46-1.853,6.46-4.983a4.135,4.135,0,0,0-3.23-4.307v-.075a3.706,3.706,0,0,0,2.754-3.731c0-2.829-2.3-4.557-5.984-4.557S28.3-14.046,28.3-11.216a3.685,3.685,0,0,0,2.729,3.731v.075A4.159,4.159,0,0,0,27.8-3.1C27.8.026,30.207,1.879,34.264,1.879Zm0-10.842A1.787,1.787,0,0,1,32.31-10.74a1.778,1.778,0,0,1,1.953-1.8,1.778,1.778,0,0,1,1.953,1.8A1.787,1.787,0,0,1,34.264-8.963Zm0,7.462a2.249,2.249,0,0,1-2.4-2.3,2.269,2.269,0,0,1,2.4-2.329,2.269,2.269,0,0,1,2.4,2.329A2.236,2.236,0,0,1,34.264-1.5ZM46.38-6.13a4.067,4.067,0,0,1-3.068-1.237,4.668,4.668,0,0,1-1.189-3.377,5.216,5.216,0,0,1,.547-2.449A3.89,3.89,0,0,1,44.18-14.8a4.3,4.3,0,0,1,2.2-.559,4.076,4.076,0,0,1,3.091,1.248,4.677,4.677,0,0,1,1.189,3.365,4.668,4.668,0,0,1-1.189,3.377A4.1,4.1,0,0,1,46.38-6.13Zm9.845-9.013h3.424L48.282,1.5H44.858ZM46.38-8.389A1.173,1.173,0,0,0,47.4-8.959a3.278,3.278,0,0,0,.38-1.783,3.278,3.278,0,0,0-.38-1.783A1.173,1.173,0,0,0,46.38-13.1a1.177,1.177,0,0,0-1.011.583,3.206,3.206,0,0,0-.392,1.772,3.206,3.206,0,0,0,.392,1.772A1.177,1.177,0,0,0,46.38-8.389ZM58.127,1.718A4.057,4.057,0,0,1,55.047.481,4.7,4.7,0,0,1,53.87-2.9,4.677,4.677,0,0,1,55.059-6.26a4.047,4.047,0,0,1,3.068-1.248A4.076,4.076,0,0,1,61.218-6.26,4.677,4.677,0,0,1,62.407-2.9,4.668,4.668,0,0,1,61.218.481,4.1,4.1,0,0,1,58.127,1.718Zm0-2.259a1.173,1.173,0,0,0,1.023-.571A3.278,3.278,0,0,0,59.53-2.9a3.278,3.278,0,0,0-.38-1.783,1.173,1.173,0,0,0-1.023-.571,1.173,1.173,0,0,0-1.023.571,3.278,3.278,0,0,0-.38,1.783,3.278,3.278,0,0,0,.38,1.783A1.173,1.173,0,0,0,58.127-.541Z" transform="translate(241.193 360.059)" fill="#353535"/>
    </g>
    <g id="Group_2909" data-name="Group 2909">
      <path id="Path_4088" data-name="Path 4088" d="M4.8-8.58A4.236,4.236,0,0,0,.42-4.2,4.236,4.236,0,0,0,4.8.18,4.236,4.236,0,0,0,9.18-4.2,4.236,4.236,0,0,0,4.8-8.58Zm0,1.272A2.944,2.944,0,0,1,7.812-4.2,2.944,2.944,0,0,1,4.8-1.092,2.944,2.944,0,0,1,1.788-4.2,2.944,2.944,0,0,1,4.8-7.308Zm8.556,1.6a1.85,1.85,0,0,0-1.836,1.38H11.5V-5.544H10.32V0H11.5V-2.46c0-1.32.612-1.872,1.764-1.872h.18v-1.38Zm3.42,8.292c1.428,0,2.556-.408,2.616-2.58V-5.544H18.216v.816h-.024a2.026,2.026,0,0,0-1.872-1,2.721,2.721,0,0,0-2.7,2.952A2.721,2.721,0,0,0,16.32.18a2.026,2.026,0,0,0,1.872-1h.024v.66c0,1.224-.384,1.6-1.44,1.6a9.387,9.387,0,0,1-1.908-.252l-.228,1.14A12.042,12.042,0,0,0,16.776,2.58Zm-.2-3.552a1.664,1.664,0,0,1-1.7-1.8,1.664,1.664,0,0,1,1.7-1.8,1.664,1.664,0,0,1,1.7,1.8A1.664,1.664,0,0,1,16.572-.972ZM23.172.18a2.026,2.026,0,0,0,1.872-1h.024V0h1.176V-5.544H25.068v.816h-.024a2.026,2.026,0,0,0-1.872-1,2.721,2.721,0,0,0-2.7,2.952A2.721,2.721,0,0,0,23.172.18Zm.252-1.152a1.664,1.664,0,0,1-1.7-1.8,1.664,1.664,0,0,1,1.7-1.8,1.664,1.664,0,0,1,1.7,1.8A1.664,1.664,0,0,1,23.424-.972ZM30.7-5.724A1.958,1.958,0,0,0,28.884-4.7H28.86v-.84H27.684V0H28.86V-2.652c0-1.38.612-1.9,1.476-1.9.792,0,1.272.4,1.272,1.344V0h1.176V-3.408C32.784-5.088,31.884-5.724,30.7-5.724Zm3.4-2.556v1.44h1.44V-8.28ZM35.4,0V-5.544H34.224V0Zm4.188.18a3.327,3.327,0,0,0,1.9-.564l-.552-1a2.636,2.636,0,0,1-1.38.42,1.707,1.707,0,0,1-1.764-1.812,1.707,1.707,0,0,1,1.764-1.812,2.636,2.636,0,0,1,1.38.42l.552-1a3.327,3.327,0,0,0-1.9-.564A2.861,2.861,0,0,0,36.54-2.772,2.861,2.861,0,0,0,39.588.18ZM44.964-8.4v1.176h2.364V0h1.248V-7.224H50.94V-8.4Zm8.892,2.688a1.85,1.85,0,0,0-1.836,1.38H52V-5.544H50.82V0H52V-2.46c0-1.32.612-1.872,1.764-1.872h.18v-1.38ZM56.82.18a2.026,2.026,0,0,0,1.872-1h.024V0h1.176V-5.544H58.716v.816h-.024a2.026,2.026,0,0,0-1.872-1,2.721,2.721,0,0,0-2.7,2.952A2.721,2.721,0,0,0,56.82.18Zm.252-1.152a1.664,1.664,0,0,1-1.7-1.8,1.664,1.664,0,0,1,1.7-1.8,1.664,1.664,0,0,1,1.7,1.8A1.664,1.664,0,0,1,57.072-.972Zm7.02-6.456V-8.52h-.228a1.989,1.989,0,0,0-2.136,2.208v.768h-.876v1h.876V0H62.9V-4.548H64v-1H62.9v-.8c0-.8.444-1.08,1.008-1.08Zm3.6,0V-8.52h-.228a1.989,1.989,0,0,0-2.136,2.208v.768h-.876v1h.876V0H66.5V-4.548H67.6v-1H66.5v-.8c0-.8.444-1.08,1.008-1.08Zm.768-.852v1.44H69.9V-8.28ZM69.768,0V-5.544H68.592V0Zm4.188.18a3.327,3.327,0,0,0,1.9-.564l-.552-1a2.636,2.636,0,0,1-1.38.42,1.707,1.707,0,0,1-1.764-1.812A1.707,1.707,0,0,1,73.92-4.584a2.636,2.636,0,0,1,1.38.42l.552-1a3.327,3.327,0,0,0-1.9-.564,2.861,2.861,0,0,0-3.048,2.952A2.861,2.861,0,0,0,73.956.18Z" transform="translate(239.403 371.317)" fill="#353535"/>
    </g>
  </g>
</svg>
