<?xml version="1.0" encoding="utf-8"?>
<!-- Generator: Adobe Illustrator 27.7.0, SVG Export Plug-In . SVG Version: 6.00 Build 0)  -->
<svg version="1.1" id="Layer_1" xmlns="http://www.w3.org/2000/svg" xmlns:xlink="http://www.w3.org/1999/xlink" x="0px" y="0px"
	 viewBox="0 0 280 235" style="enable-background:new 0 0 280 235;" xml:space="preserve">
<style type="text/css">
	.st0{fill:#FFFFFF;}
	.st1{fill:#FF7757;}
	.st2{fill:none;stroke:#FF7757;stroke-width:0.9543;stroke-linecap:round;stroke-linejoin:round;stroke-miterlimit:10;}
	.st3{fill:#353535;}
	.st4{opacity:0.2;}
	.st5{opacity:0.25;fill:#757575;}
	.st6{fill:#FF7241;}
	.st7{clip-path:url(#SVGID_00000171686002389294272080000017382930541789827007_);}
	.st8{fill:#0494FF;}
	.st9{fill:#F9B500;}
	.st10{fill:#FFDE56;}
</style>
<g>
	<g>
		<g>
			
				<image style="overflow:visible;opacity:0.27;" width="1198" height="576" xlink:href="80B2ABD3.png"  transform="matrix(0.24 0 0 0.24 -4.000000e-02 45.38)">
			</image>
			<g>
				<path class="st0" d="M243.6,159.5H38c-11,0-19.9-8.9-19.9-19.9V83.2c0-11,8.9-19.9,19.9-19.9h205.6c11,0,19.9,8.9,19.9,19.9
					v56.4C263.5,150.6,254.6,159.5,243.6,159.5z"/>
			</g>
		</g>
	</g>
	<ellipse transform="matrix(0.7071 -0.7071 0.7071 0.7071 -60.8037 77.54)" class="st1" cx="63.2" cy="112.2" rx="30.8" ry="30.8"/>
	<path class="st0" d="M63.2,104.6c-5.9,0-11.3,2.6-15,6.6c-0.5,0.5-0.5,1.3,0,1.8c3.7,4.1,9,6.6,15,6.6c5.9,0,11.3-2.6,15-6.6
		c0.5-0.5,0.5-1.3,0-1.8C74.5,107.2,69.1,104.6,63.2,104.6z M64.3,117.8c-4,0.8-7.5-2.7-6.8-6.8c0.4-2.2,2.3-4.1,4.5-4.5
		c4-0.8,7.5,2.7,6.8,6.8C68.4,115.5,66.6,117.4,64.3,117.8z"/>
	<g>
		<path class="st2" d="M207.2,132.2c0,0,5.3-12.7,22.9-13.5s23.5-14.8,23.5-14.8"/>
		<path class="st1" d="M249,113.8L249,113.8c-2.1,0-3.8-1.7-3.8-3.8l0,0c0-2.1,1.7-3.8,3.8-3.8l0,0c2.1,0,3.8,1.7,3.8,3.8l0,0
			C252.8,112.1,251.1,113.8,249,113.8z"/>
	</g>
	<g>
		<g>
			<path class="st3" d="M123.8,97.3c0,2.9-1.6,4.9-4.4,5.5v0.1c3.3,0.5,5.2,2.6,5.2,6.1c0,4.8-3.4,7.6-9.2,7.6
				c-6.1,0-9.4-2.9-9.4-8.1h5.8c0.1,2,1.4,3,3.6,3c2.2,0,3.4-1.1,3.4-3.1c0-2.2-1.3-3-5-3h-0.8v-4.2h0.8c2.7,0,3.9-0.9,3.9-2.9
				c0-1.6-1-2.5-2.8-2.5c-1.8,0-2.9,0.9-2.9,2.5h-5.7c0-4.8,3.2-7.6,8.8-7.6C120.8,90.8,123.8,93.1,123.8,97.3z"/>
			<path class="st3" d="M126.9,116.1v-4.4l8.3-8.3c2.3-2.2,3.1-3.6,3.1-5c0-1.7-1-2.6-2.8-2.6c-2.1,0-3.2,1.1-3.2,3.3h-5.6
				c0-5.3,3.3-8.4,9-8.4c5.3,0,8.4,2.8,8.4,7.3c0,2.8-1.2,5-4.4,8.1l-5.4,5.1l9.9-0.1v4.9H126.9z"/>
			<path class="st3" d="M164.6,107.1v4.8h-2.2v4.1h-5.2v-4.1h-12.2v-4.2l11.7-16.4h5.8v15.8H164.6z M150.5,107.1h6.6v-9.1H157
				L150.5,107.1z"/>
			<path class="st3" d="M172.7,104.9c-1.2,0-2.3-0.3-3.3-0.8c-1-0.5-1.7-1.3-2.3-2.3c-0.6-1-0.9-2.3-0.9-3.7c0-1.4,0.3-2.7,0.9-3.7
				c0.6-1,1.3-1.8,2.3-2.3c1-0.5,2.1-0.8,3.3-0.8c1.2,0,2.3,0.3,3.3,0.8c1,0.5,1.7,1.3,2.3,2.3c0.6,1,0.9,2.2,0.9,3.7
				c0,1.4-0.3,2.7-0.9,3.7c-0.6,1-1.3,1.8-2.3,2.3C175,104.7,173.9,104.9,172.7,104.9z M170.4,116.1L187,91.7h5.9l-16.7,24.4H170.4z
				 M172.7,101.2c0.4,0,0.7-0.2,1.1-0.6c0.3-0.4,0.5-1.2,0.5-2.4c0-1.2-0.2-2-0.5-2.4c-0.3-0.4-0.7-0.6-1.1-0.6
				c-0.4,0-0.7,0.2-1,0.6c-0.3,0.4-0.5,1.2-0.5,2.4c0,1.2,0.2,2,0.5,2.4C172,101,172.3,101.2,172.7,101.2z M190.6,116.4
				c-1.2,0-2.3-0.3-3.3-0.8c-1-0.5-1.7-1.3-2.3-2.3c-0.6-1-0.9-2.3-0.9-3.7c0-1.4,0.3-2.7,0.9-3.7c0.6-1,1.3-1.8,2.3-2.3
				c1-0.5,2.1-0.8,3.3-0.8c1.2,0,2.3,0.3,3.3,0.8c1,0.5,1.7,1.3,2.3,2.3c0.6,1,0.9,2.2,0.9,3.7c0,1.4-0.3,2.7-0.9,3.7
				c-0.6,1-1.3,1.8-2.3,2.3C192.9,116.2,191.8,116.4,190.6,116.4z M190.6,112.7c0.4,0,0.7-0.2,1.1-0.6c0.3-0.4,0.5-1.2,0.5-2.4
				c0-1.2-0.2-2-0.5-2.4c-0.3-0.4-0.7-0.6-1.1-0.6c-0.4,0-0.7,0.2-1,0.6c-0.3,0.4-0.5,1.2-0.5,2.4c0,1.2,0.2,2,0.5,2.4
				C189.8,112.5,190.2,112.7,190.6,112.7z"/>
		</g>
	</g>
	<g>
		<g>
			<path class="st3" d="M115,129c0,3.2-2.3,5.4-5.4,5.4c-3.1,0-5.4-2.2-5.4-5.4c0-3.2,2.3-5.4,5.4-5.4
				C112.7,123.6,115,125.8,115,129z M106,129c0,2.2,1.5,3.8,3.7,3.8s3.7-1.6,3.7-3.8c0-2.2-1.5-3.8-3.7-3.8S106,126.8,106,129z"/>
			<path class="st3" d="M120.2,127.1v1.7H120c-1.4,0-2.2,0.7-2.2,2.3v3h-1.4v-6.8h1.4v1.5h0c0.3-1,1.1-1.7,2.2-1.7H120.2z"/>
			<path class="st3" d="M121.7,137l0.3-1.4c0.9,0.2,1.7,0.3,2.3,0.3c1.3,0,1.8-0.5,1.8-2v-0.8h0c-0.4,0.7-1.2,1.2-2.3,1.2
				c-1.8,0-3.3-1.4-3.3-3.6c0-2.3,1.5-3.6,3.3-3.6c1.1,0,1.9,0.5,2.3,1.2h0v-1h1.4v6.8c-0.1,2.7-1.5,3.2-3.2,3.2
				C123.5,137.3,122.5,137.2,121.7,137z M126.2,130.7c0-1.3-0.8-2.2-2.1-2.2c-1.3,0-2.1,0.9-2.1,2.2c0,1.3,0.8,2.2,2.1,2.2
				C125.3,132.9,126.2,132,126.2,130.7z"/>
			<path class="st3" d="M128.8,130.7c0-2.3,1.5-3.6,3.3-3.6c1.1,0,1.9,0.5,2.3,1.2h0v-1h1.4v6.8h-1.4v-1h0c-0.4,0.7-1.2,1.2-2.3,1.2
				C130.4,134.4,128.8,133,128.8,130.7z M134.6,130.7c0-1.3-0.8-2.2-2.1-2.2c-1.3,0-2.1,0.9-2.1,2.2c0,1.3,0.8,2.2,2.1,2.2
				C133.7,132.9,134.6,132,134.6,130.7z"/>
			<path class="st3" d="M143.9,130v4.2h-1.4v-3.9c0-1.2-0.6-1.6-1.6-1.6c-1.1,0-1.8,0.6-1.8,2.3v3.2h-1.4v-6.8h1.4v1h0
				c0.4-0.8,1.2-1.2,2.2-1.2C142.8,127.1,143.9,127.9,143.9,130z"/>
			<path class="st3" d="M147.3,124v1.8h-1.8V124H147.3z M145.7,134.1v-6.8h1.4v6.8H145.7z"/>
			<path class="st3" d="M148.5,130.7c0-2.2,1.5-3.6,3.7-3.6c0.9,0,1.6,0.2,2.3,0.7l-0.7,1.2c-0.5-0.3-1.1-0.5-1.7-0.5
				c-1.3,0-2.2,0.9-2.2,2.2c0,1.3,0.9,2.2,2.2,2.2c0.6,0,1.2-0.2,1.7-0.5l0.7,1.2c-0.7,0.5-1.4,0.7-2.3,0.7
				C150.1,134.4,148.5,132.9,148.5,130.7z"/>
			<path class="st3" d="M166.2,123.9v1.4h-2.9v8.8h-1.5v-8.8h-2.9v-1.4H166.2z"/>
			<path class="st3" d="M169.8,127.1v1.7h-0.2c-1.4,0-2.2,0.7-2.2,2.3v3H166v-6.8h1.4v1.5h0c0.3-1,1.1-1.7,2.2-1.7H169.8z"/>
			<path class="st3" d="M170.1,130.7c0-2.3,1.5-3.6,3.3-3.6c1.1,0,1.9,0.5,2.3,1.2h0v-1h1.4v6.8h-1.4v-1h0c-0.4,0.7-1.2,1.2-2.3,1.2
				C171.6,134.4,170.1,133,170.1,130.7z M175.8,130.7c0-1.3-0.8-2.2-2.1-2.2c-1.3,0-2.1,0.9-2.1,2.2c0,1.3,0.8,2.2,2.1,2.2
				C174.9,132.9,175.8,132,175.8,130.7z"/>
			<path class="st3" d="M182.1,125c-0.7,0-1.2,0.3-1.2,1.3v1h1.3v1.2h-1.3v5.6h-1.4v-5.6h-1.1v-1.2h1.1v-0.9c0-1.7,0.9-2.7,2.6-2.7
				h0.3v1.3H182.1z"/>
			<path class="st3" d="M186.5,125c-0.7,0-1.2,0.3-1.2,1.3v1h1.3v1.2h-1.3v5.6h-1.4v-5.6h-1.1v-1.2h1.1v-0.9c0-1.7,0.9-2.7,2.6-2.7
				h0.3v1.3H186.5z"/>
			<path class="st3" d="M189.4,124v1.8h-1.8V124H189.4z M187.8,134.1v-6.8h1.4v6.8H187.8z"/>
			<path class="st3" d="M190.6,130.7c0-2.2,1.5-3.6,3.7-3.6c0.9,0,1.6,0.2,2.3,0.7L196,129c-0.5-0.3-1.1-0.5-1.7-0.5
				c-1.3,0-2.2,0.9-2.2,2.2c0,1.3,0.9,2.2,2.2,2.2c0.6,0,1.2-0.2,1.7-0.5l0.7,1.2c-0.7,0.5-1.4,0.7-2.3,0.7
				C192.2,134.4,190.6,132.9,190.6,130.7z"/>
		</g>
	</g>
</g>
</svg>
