<svg xmlns="http://www.w3.org/2000/svg" width="200.703" height="45.095" viewBox="0 0 200.703 45.095">
    <g data-name="Group 2556">
        <path data-name="Path 3307" d="M127.373 133.593h-9.211c-.348 0-.4-.05-.448-.4v-6.073c0-.547 0-.5-.5-.5-2.141-.05-4.332 0-6.473 0a6.347 6.347 0 0 1-1-.05c-.4 0-.448-.1-.448-.448a2.757 2.757 0 0 1 .1-.9 1.273 1.273 0 0 0 0-.747 5.624 5.624 0 0 1 0-1.294c0-.1.05-.2 0-.249a1.721 1.721 0 0 1-.1-1 1.171 1.171 0 0 1 .6-1.046c.1-.05.149-.149.2-.2.1-.1.149-.2.3-.249a2.9 2.9 0 0 0 .747-.547c.448-.448 1-.8 1.444-1.2.348-.3.647-.647 1-.946s.647-.647 1-.9a8.269 8.269 0 0 0 .7-.647c.6-.547 1.245-1.046 1.843-1.544.4-.348.747-.7 1.149-1.046.348-.3.7-.647 1-.946a3.418 3.418 0 0 0 .846-.846l.149-.149c.4-.249.7-.547 1.046-.8a1.583 1.583 0 0 0 .547-.6c.249-.348.4-.4.747-.149.2.149.4.348.6.5a2.681 2.681 0 0 0 .6.448c.049 0 .049.05.1.05.149.348.5.448.747.747a1.2 1.2 0 0 0 .4.3q.523.3 0 .6a2.74 2.74 0 0 0-.448.348c-.049.049-.1.1-.149.1-.2.1-.4.2-.448.4a.107.107 0 0 1-.1.1c-.249.1-.4.348-.6.5l-.747.6a3.428 3.428 0 0 0-.647.547c-.3.3-.647.547-.946.846a8.948 8.948 0 0 0-1 .946c-.249.249-.5.448-.747.7-.149.149-.4.249-.547.5a.687.687 0 0 1-.2.149c-.149.1-.3.149-.348.348q-.074.149-.149.149a2.6 2.6 0 0 0-.547.4c-.3.2-.547.5-.846.7a9.275 9.275 0 0 0-1.294 1.149l-.149.149a1.061 1.061 0 0 0-.547.5c-.05.1-.149.1-.249.149a.34.34 0 0 0-.249.448c.05.2.2.2.4.2 1.591 0 3.183.05 4.78.05.547 0 1.046 0 1.591-.05.4 0 .5.1.6.448a1.379 1.379 0 0 1 .05.448c.05.547-.05 1.149-.05 1.693v2.988a4.831 4.831 0 0 1-.05.846c-.049.348.1.5.448.547.149 0 .348.05.5.05h8.464c.747 0 1.493 0 2.24-.05.448 0 .5-.05.5-.5v-6.125c0-.4 0-.4.4-.4h6.423c.348-.05.448-.3.2-.6a2.027 2.027 0 0 0-.7-.6 1.556 1.556 0 0 1-.547-.448.5.5 0 0 0-.249-.2.486.486 0 0 1-.348-.4c0-.1-.1-.149-.2-.149a1.088 1.088 0 0 1-.249-.149 19.08 19.08 0 0 0-1.444-1.394 7.452 7.452 0 0 0-.647-.547 5.73 5.73 0 0 1-.846-.7c-.348-.3-.647-.6-1-.846a2.439 2.439 0 0 1-.9-.846.177.177 0 0 0-.049-.1c-.4-.1-.5-.5-.846-.7a3.394 3.394 0 0 1-.6-.6c-.7-.647-1.493-1.294-2.24-1.892-.05-.05-.1-.05-.1-.1a1.343 1.343 0 0 0-.4-.348 1.342 1.342 0 0 1-.4-.348c-.05-.1-.1-.1-.149-.149a.777.777 0 0 1-.4-.4c-.05-.05-.05-.149-.1-.149a12.468 12.468 0 0 1-1.693-1.544c-.4-.348-.8-.647-1.2-1a15 15 0 0 0-1.394-1.1l-.149-.149c-.1-.2-.348-.3-.5-.5a8.663 8.663 0 0 0-.7-.6c-.2-.149-.3-.348-.547-.448-.149-.049-.2-.249-.2-.4v-.747c.05-2.141 0-4.332 0-6.473v-1.3a1.866 1.866 0 0 0-.05-.547.305.305 0 0 0-.5-.2c-.05.05-.1.05-.1.149 0 .2-.1.2-.249.249a1.2 1.2 0 0 0-.6.348 1.658 1.658 0 0 1-.5.3.994.994 0 0 0-.5.4.3.3 0 0 1-.3.149 1.768 1.768 0 0 0-.448.2 6.483 6.483 0 0 1-.747.5c-.05.05-.149.1-.149.149a.72.72 0 0 1-.5.348c-.1.05-.2.05-.249.149-.2.249-.5.3-.7.5a8.188 8.188 0 0 1-1.1.7c-.2.1-.4.3-.6.4a.5.5 0 0 0-.249.2.816.816 0 0 1-.547.348.259.259 0 0 0-.2.1.973.973 0 0 1-.448.448c-.1.05-.1.149-.1.249v12.248a.453.453 0 0 1-.2.4.449.449 0 0 0-.3.3v.05c-.4.249-.6.647-1 .846a.049.049 0 0 0-.05.05c-.149.348-.6.448-.8.8-.05.05-.05.1-.1.149a1.061 1.061 0 0 0-.5.547c-.05.149-.547.249-.747.149-.1-.05-.1-.149-.1-.249.05-.2.05-.348.1-.547a8.577 8.577 0 0 0 .2-1.945c-.1-1.344 0-2.639-.05-3.983a3.77 3.77 0 0 1 .05-.747c.05-.348-.05-.647 0-1V108c.05-.8-.05-1.591 0-2.439 0-.547.05-1.1.05-1.591 0-.547.05-1.1 0-1.643a6.639 6.639 0 0 1 0-1 9.57 9.57 0 0 0 0-1.2 1.034 1.034 0 0 1 .448-.946 17.214 17.214 0 0 1 1.544-1.1 6.514 6.514 0 0 0 1.2-.846.177.177 0 0 1 .1-.05 5.81 5.81 0 0 0 1.294-.846c.448-.348 1-.6 1.444-.946a6.864 6.864 0 0 1 1.245-.846 2.625 2.625 0 0 0 .747-.547c.6-.448 1.2-.8 1.792-1.245.547-.4 1.149-.747 1.643-1.149.4-.3.8-.547 1.2-.846s.846-.547 1.245-.846a14.815 14.815 0 0 0 1.444-1c.05-.049.1-.1.149-.1.3-.149.5-.05.448.3-.249 4.581-.05 9.162-.1 13.692a1.453 1.453 0 0 0 .8 1.245.688.688 0 0 1 .2.149c.348.3.7.6 1.046.846.05.05.2.05.2.149a1.061 1.061 0 0 0 .5.547l.149.149a.691.691 0 0 0 .4.348.107.107 0 0 1 .1.1 5.3 5.3 0 0 0 .747.747c.249.3.547.5.8.747.2.149.4.348.6.5a1.084 1.084 0 0 0 .4.249c.149 0 .2.149.3.249.149.149.249.348.5.4.1 0 .149.1.2.2 0 .05 0 .1.05.1.4.2.6.6.946.846.049.05.149.05.149.1a3.393 3.393 0 0 0 .6.6 8.6 8.6 0 0 0 1.394 1.294 7.18 7.18 0 0 0 1.344 1.1 3.338 3.338 0 0 0 .7.448c.05 0 .05.05.1.05.1.4.5.547.747.8.3.3.6.547.946.846.05.05.1.05.1.1a3.392 3.392 0 0 0 .6.6c.348.4.8.7 1.149 1.046.2.2.547.348.7.647l.049.05c.3-.1.348.2.5.348.05.1.2.149.3.2a.5.5 0 0 1 .249.2 1.09 1.09 0 0 0 .5.448.225.225 0 0 1 .149.149c.05.249.249.348.448.448a.389.389 0 0 1 .2.2.691.691 0 0 0 .4.348h.05c.2.348.547.5.8.8.1.1.149.249.348.3s.249.2.249.4v.747q-.074 1.643 0 3.286v.6a.235.235 0 0 1-.249.249h-7.12a3.061 3.061 0 0 0-.7.049c-.3.05-.348.149-.348.448a4.83 4.83 0 0 1 .049.846c-.1 1.245-.049 2.539-.049 3.784a2.838 2.838 0 0 0 .049.647 1.275 1.275 0 0 1-.2.946.625.625 0 0 1-.547.3h-.6c-3.236-.2-6.125-.2-8.962-.2z" transform="translate(-109.202 -88.694)" style="fill:#fff"/>
        <path data-name="Path 3308" d="M166.231 108.28v6.572c0 .6.05 1.2.05 1.843v.249c0 .1.05.249-.1.348-.149.05-.249-.05-.348-.1-.249-.249-.547-.5-.8-.747a11.218 11.218 0 0 0-1.2-1.046c-.448-.348-.9-.747-1.344-1.1a.619.619 0 0 1-.2-.4v-.448c0-.7.05-1.394 0-2.042v-6.672a11.248 11.248 0 0 1 .049-1.294c0-.6-.049-1.149-.049-1.743a.752.752 0 0 0-.547-.8 6.677 6.677 0 0 1-1.394-.9 1.513 1.513 0 0 0-.348-.249c-.846-.448-1.544-1.1-2.34-1.591a9.916 9.916 0 0 1-.946-.6c-.2-.149-.348-.249-.547-.4a1.084 1.084 0 0 0-.4-.249 1.516 1.516 0 0 1-.647-.448c-.1-.149-.3-.149-.448-.249-.1-.05-.249-.1-.2-.3 0-.149-.149-.2-.3-.1a.452.452 0 0 0-.149.348 1.379 1.379 0 0 0-.05.448c-.049 2.689-.049 5.377-.049 8.016 0 .4.049.8.049 1.2v.249c-.049.2-.1.249-.3.149a1.456 1.456 0 0 1-.6-.348l-.448-.448c-.05-.05-.149-.1-.149-.149a.633.633 0 0 0-.448-.348.449.449 0 0 1-.3-.3c-.05-.149-.1-.249-.249-.249-.05 0-.1-.05-.149-.1-.2-.348-.647-.5-.846-.846a.5.5 0 0 0-.249-.2.453.453 0 0 1-.2-.4v-.136c.049-.946 0-1.892 0-2.838V91.1c0-.6 0-1.245-.05-1.843v-.249c0-.348.1-.448.448-.348a1.034 1.034 0 0 1 .5.3 1.125 1.125 0 0 0 .547.4c.05.049.149.049.149.1a2.244 2.244 0 0 0 .7.5c.1.05.249.1.3.249a.049.049 0 0 0 .05.049 5.044 5.044 0 0 1 1 .7 6.349 6.349 0 0 0 1.245.747c.049 0 .049.05.1.05a6.807 6.807 0 0 0 1.2.9 1.088 1.088 0 0 0 .249.149c.249.05.4.249.6.4a4.037 4.037 0 0 0 1.394.846.107.107 0 0 1 .1.1c0 .1.1.149.149.2a14.062 14.062 0 0 0 1.444.9.687.687 0 0 1 .2.149c.05.05.1.149.149.149.4.2.7.6 1.1.747a2.741 2.741 0 0 1 .7.448 4.156 4.156 0 0 1 .8.6c.05.05.1.05.2.1a1.185 1.185 0 0 1 .647.448c0 .05.05.05.1.05a14.818 14.818 0 0 1 1.444 1 1.476 1.476 0 0 0 .747.348c.149 0 .2.149.2.249v.747c-.05 1.444 0 2.888-.05 4.332a29.993 29.993 0 0 0-.149 3.684z" transform="translate(-129.687 -88.625)" style="fill:#fff"/>
    </g>
    <g data-name="Group 2557">
        <path data-name="Path 3309" d="M254.507 109.2a3.392 3.392 0 0 1 2.387.9 2.978 2.978 0 0 1 1.046 2.24v16.976a2.829 2.829 0 0 1-1.046 2.24 3.433 3.433 0 0 1-2.387.946h-6.821a3.227 3.227 0 0 1-2.387-.946 2.785 2.785 0 0 1-1-2.24v-16.979a2.945 2.945 0 0 1 1-2.24 3.568 3.568 0 0 1 2.387-.9zm-5.576 4.332v14.688h4.382v-14.688z" transform="translate(-177.035 -98.955)" style="fill:#fff"/>
        <path data-name="Path 3310" d="M285.031 128.22h4.382V109.2h4.63v20.115a2.829 2.829 0 0 1-1.046 2.24 3.433 3.433 0 0 1-2.387.946h-6.821a3.227 3.227 0 0 1-2.387-.946 2.785 2.785 0 0 1-1-2.24V109.2h4.63z" transform="translate(-195.161 -98.955)" style="fill:#fff"/>
        <path data-name="Path 3311" d="M316.9 109.2h12.348v4.332h-7.718v5.179h6.422v4.332h-6.423v9.46H316.9z" transform="translate(-213.487 -98.955)" style="fill:#fff"/>
        <path data-name="Path 3312" d="M347 109.2h12.348v4.332h-7.718v5.179h6.422v4.332h-6.423v9.46H347z" transform="translate(-228.6 -98.955)" style="fill:#fff"/>
        <path data-name="Path 3313" d="M381.73 124.237v8.263h-4.63v-23.3h10.207a3.393 3.393 0 0 1 2.387.9 2.978 2.978 0 0 1 1.046 2.24v6.025a4.285 4.285 0 0 1-1.792 3.635 4.376 4.376 0 0 1 1.792 3.684v6.816h-4.63v-6.768a1.344 1.344 0 0 0-.5-1.1 1.661 1.661 0 0 0-1.149-.448h-2.741zm2.741-4.332a1.577 1.577 0 0 0 1.149-.448 1.316 1.316 0 0 0 .5-1.046v-4.878h-4.382v6.373z" transform="translate(-243.713 -98.955)" style="fill:#fff"/>
        <path data-name="Path 3314" d="M423.206 109.2a3.392 3.392 0 0 1 2.387.9 2.978 2.978 0 0 1 1.046 2.24v16.976a2.829 2.829 0 0 1-1.046 2.24 3.433 3.433 0 0 1-2.387.946h-6.821a3.227 3.227 0 0 1-2.387-.946 2.785 2.785 0 0 1-1-2.238v-16.979a2.945 2.945 0 0 1 1-2.24 3.569 3.569 0 0 1 2.387-.9zm-5.626 4.332v14.688h4.382v-14.688z" transform="translate(-261.739 -98.955)" style="fill:#fff"/>
        <path data-name="Path 3315" d="M453.93 117.511V132.5h-4.63v-23.3h6.423l3.784 15.086V109.2h4.63v23.3h-6.423z" transform="translate(-279.965 -98.955)" style="fill:#fff"/>
        <path data-name="Path 3316" d="M489.431 113.532H484.9V109.2h13.643v4.332h-4.531V132.5h-4.582z" transform="translate(-297.839 -98.955)" style="fill:#fff"/>
    </g>
    <g data-name="Group 2558">
        <path data-name="Path 3317" d="M205.232 165.5a2.523 2.523 0 0 1 .647.1 1.841 1.841 0 0 1 .547.249 2.3 2.3 0 0 1 .348.348.8.8 0 0 1 .149.448v.7h-1v-.7c0-.05-.05-.05-.149-.149a1.071 1.071 0 0 0-.5-.1h-2.639a.6.6 0 0 0-.647.547v1.993a.453.453 0 0 0 .2.4.742.742 0 0 0 .448.2h2.639a1.25 1.25 0 0 0 .5-.1q.149-.074.149-.149v-.7h1v.7a.8.8 0 0 1-.149.448 2.5 2.5 0 0 1-.348.4 1.105 1.105 0 0 1-.547.249 2.523 2.523 0 0 1-.647.1h-2.639a2.524 2.524 0 0 1-.647-.1 2.057 2.057 0 0 1-.547-.348 1.789 1.789 0 0 1-.348-.5 1.326 1.326 0 0 1-.149-.6v-1.992a1.326 1.326 0 0 1 .149-.6 1.789 1.789 0 0 1 .348-.5 2.055 2.055 0 0 1 .547-.348 1.367 1.367 0 0 1 .647-.1h2.639z" transform="translate(-155.244 -127.172)" style="fill:#fff"/>
        <path data-name="Path 3318" d="M216.393 170.578a2.523 2.523 0 0 1-.647-.1 5.423 5.423 0 0 1-.547-.3 2.741 2.741 0 0 1-.348-.448 1.326 1.326 0 0 1-.149-.6v-1.992a1.326 1.326 0 0 1 .149-.6 1.788 1.788 0 0 1 .348-.5 2.055 2.055 0 0 1 .547-.348 1.367 1.367 0 0 1 .647-.1h2.639a2.523 2.523 0 0 1 .647.1 2.056 2.056 0 0 1 .547.348 1.788 1.788 0 0 1 .348.5 1.326 1.326 0 0 1 .149.6v1.995a1.326 1.326 0 0 1-.149.6 1.084 1.084 0 0 1-.348.448 1.186 1.186 0 0 1-.547.3 1.367 1.367 0 0 1-.647.1zm-.647-1.493a.453.453 0 0 0 .2.4.608.608 0 0 0 .448.149h2.639a.8.8 0 0 0 .448-.149.453.453 0 0 0 .2-.4v-1.992a.453.453 0 0 0-.2-.4.9.9 0 0 0-.448-.2h-2.639a.485.485 0 0 0-.448.2.619.619 0 0 0-.2.4z" transform="translate(-162.173 -127.272)" style="fill:#fff"/>
        <path data-name="Path 3319" d="M233.629 165.729a2.056 2.056 0 0 1 .547.348 1.788 1.788 0 0 1 .348.5 1.326 1.326 0 0 1 .149.6v3.485h-1v-3.485a.453.453 0 0 0-.2-.4.9.9 0 0 0-.448-.2h-3.286v4.083H228.7v-4.98h4.332a1.226 1.226 0 0 1 .6.05z" transform="translate(-169.202 -127.304)" style="fill:#fff"/>
        <path data-name="Path 3320" d="M248.474 167.094h-1.046v-.4c-.05 0-.1-.05-.249-.1a.972.972 0 0 0-.4-.05h-2.639a.485.485 0 0 0-.448.2c-.1.149-.2.249-.2.4a.515.515 0 0 0 .2.4.608.608 0 0 0 .448.149h2.639a2.522 2.522 0 0 1 .647.1 5.425 5.425 0 0 1 .547.3 2.742 2.742 0 0 1 .348.448 1.135 1.135 0 0 1 .149.547 1.326 1.326 0 0 1-.149.6 1.084 1.084 0 0 1-.348.448 1.933 1.933 0 0 1-.547.3 1.367 1.367 0 0 1-.647.1h-2.639a2.63 2.63 0 0 1-.647-.05 1.785 1.785 0 0 1-.547-.2 2.166 2.166 0 0 1-.348-.3.565.565 0 0 1-.149-.4v-.448h1.046v.4c.05.05.1.05.2.1a.972.972 0 0 0 .4.049h2.64a.8.8 0 0 0 .448-.149.5.5 0 0 0 0-.8.8.8 0 0 0-.448-.149h-2.639a2.523 2.523 0 0 1-.647-.1 5.424 5.424 0 0 1-.547-.3 1.55 1.55 0 0 1-.348-.448 1 1 0 0 1-.149-.547 1.326 1.326 0 0 1 .149-.6 1.788 1.788 0 0 1 .348-.5 1.187 1.187 0 0 1 .547-.3 1.367 1.367 0 0 1 .647-.1h2.639a3.006 3.006 0 0 1 1.2.249.8.8 0 0 1 .5.7v.448z" transform="translate(-176.081 -127.323)" style="fill:#fff"/>
        <path data-name="Path 3321" d="M255.8 165.6h5.924v.9h-2.439v4.083h-1V166.5h-2.435v-.9z" transform="translate(-182.809 -127.273)" style="fill:#fff"/>
        <path data-name="Path 3322" d="M273.232 165.6a2.525 2.525 0 0 1 .647.1 2.057 2.057 0 0 1 .547.348 1.788 1.788 0 0 1 .348.5 1.326 1.326 0 0 1 .149.6v.5a1 1 0 0 1-.149.547 1.084 1.084 0 0 1-.348.448 4.308 4.308 0 0 1-.5.348 1.378 1.378 0 0 1-.647.149l1.643 1.394-.747.647-2.34-2.042h-1.945v1.444h-.99V165.6zm.647 1.544a.453.453 0 0 0-.2-.4.8.8 0 0 0-.448-.149H269.9v1.643h3.336a.8.8 0 0 0 .448-.149.453.453 0 0 0 .2-.4z" transform="translate(-189.387 -127.273)" style="fill:#fff"/>
        <path data-name="Path 3323" d="M287.679 165.6h1.046v3.485a1.326 1.326 0 0 1-.149.6 1.788 1.788 0 0 1-.348.5 2.057 2.057 0 0 1-.547.348 1.367 1.367 0 0 1-.647.1h-2.639a2.522 2.522 0 0 1-.647-.1 2.058 2.058 0 0 1-.547-.348 1.789 1.789 0 0 1-.348-.5 1.326 1.326 0 0 1-.149-.6V165.6h1.046v3.485a.453.453 0 0 0 .2.4.608.608 0 0 0 .448.149h2.638a.8.8 0 0 0 .448-.149.453.453 0 0 0 .2-.4z" transform="translate(-196.315 -127.273)" style="fill:#fff"/>
        <path data-name="Path 3324" d="M300.832 165.5a2.523 2.523 0 0 1 .647.1 1.841 1.841 0 0 1 .547.249 2.3 2.3 0 0 1 .348.348.8.8 0 0 1 .149.448v.7h-1v-.7c0-.05-.05-.05-.149-.149a1.071 1.071 0 0 0-.5-.1h-2.639a.6.6 0 0 0-.647.547v1.993a.453.453 0 0 0 .2.4.742.742 0 0 0 .448.2h2.639a1.25 1.25 0 0 0 .5-.1q.149-.074.149-.149v-.7h1v.7a.8.8 0 0 1-.149.448 2.494 2.494 0 0 1-.348.4 1.105 1.105 0 0 1-.547.249 2.523 2.523 0 0 1-.647.1h-2.639a2.524 2.524 0 0 1-.647-.1 2.058 2.058 0 0 1-.547-.348 1.791 1.791 0 0 1-.348-.5 1.326 1.326 0 0 1-.149-.6v-1.992a1.326 1.326 0 0 1 .149-.6 1.789 1.789 0 0 1 .348-.5 2.056 2.056 0 0 1 .547-.348 1.367 1.367 0 0 1 .647-.1h2.639z" transform="translate(-203.245 -127.172)" style="fill:#fff"/>
        <path data-name="Path 3325" d="M309.8 165.6h5.924v.9h-2.439v4.083h-1V166.5h-2.439v-.9z" transform="translate(-209.922 -127.273)" style="fill:#fff"/>
        <path data-name="Path 3326" d="M323.1 170.579V165.6h1.046v4.979z" transform="translate(-216.601 -127.273)" style="fill:#fff"/>
        <path data-name="Path 3327" d="M328.693 170.578a2.522 2.522 0 0 1-.647-.1 5.422 5.422 0 0 1-.547-.3 2.743 2.743 0 0 1-.348-.448 1.327 1.327 0 0 1-.15-.6v-1.992a1.326 1.326 0 0 1 .149-.6 1.787 1.787 0 0 1 .348-.5 2.055 2.055 0 0 1 .547-.348 1.367 1.367 0 0 1 .647-.1h2.64a2.523 2.523 0 0 1 .647.1 2.056 2.056 0 0 1 .547.348 1.789 1.789 0 0 1 .348.5 1.326 1.326 0 0 1 .149.6v1.992a1.326 1.326 0 0 1-.149.6 1.084 1.084 0 0 1-.348.448 1.187 1.187 0 0 1-.547.3 1.367 1.367 0 0 1-.647.1zm-.647-1.493a.453.453 0 0 0 .2.4.608.608 0 0 0 .448.149h2.639a.8.8 0 0 0 .448-.149.453.453 0 0 0 .2-.4v-1.992a.453.453 0 0 0-.2-.4.9.9 0 0 0-.448-.2h-2.639a.485.485 0 0 0-.448.2.619.619 0 0 0-.2.4z" transform="translate(-218.559 -127.273)" style="fill:#fff"/>
        <path data-name="Path 3328" d="M345.979 165.729a2.057 2.057 0 0 1 .547.348 1.789 1.789 0 0 1 .348.5 1.327 1.327 0 0 1 .149.6v3.485h-1v-3.485a.453.453 0 0 0-.2-.4.9.9 0 0 0-.448-.2H342v4.083h-1v-4.98h4.332a1.433 1.433 0 0 1 .647.049z" transform="translate(-225.588 -127.303)" style="fill:#fff"/>
        <path data-name="Path 3329" d="M364.146 169.593h-.846v-.9h.846v-.8h1.046v.8h.9v.9h-.946v.8h-1z" transform="translate(-236.785 -128.428)" style="fill:#fff"/>
        <path data-name="Path 3330" d="M380.046 166.5v.7h4.979v.946h-4.979v1.544h4.979v.9H379v-4.99h6.025v.9z" transform="translate(-244.667 -127.273)" style="fill:#fff"/>
        <path data-name="Path 3331" d="M398.129 165.729a2.058 2.058 0 0 1 .547.348 1.789 1.789 0 0 1 .348.5 1.327 1.327 0 0 1 .149.6v3.485h-1v-3.485a.453.453 0 0 0-.2-.4.9.9 0 0 0-.448-.2h-3.286v4.083H393.2v-4.98h4.332a1.226 1.226 0 0 1 .6.05z" transform="translate(-251.798 -127.304)" style="fill:#fff"/>
        <path data-name="Path 3332" d="M411.382 165.6a2.524 2.524 0 0 1 .647.1 1.841 1.841 0 0 1 .547.249 1.342 1.342 0 0 1 .348.4.8.8 0 0 1 .149.448v.7h-1.046v-.7q0-.074-.149-.149a1.072 1.072 0 0 0-.5-.1h-2.639a.485.485 0 0 0-.448.2c-.1.149-.2.249-.2.4v1.993a.453.453 0 0 0 .2.4.8.8 0 0 0 .448.149h2.639a.8.8 0 0 0 .448-.149.36.36 0 0 0 .2-.3v-.454h-3.037v-.946h4.083v1.394a1 1 0 0 1-.149.547 2.739 2.739 0 0 1-.348.448 5.43 5.43 0 0 1-.547.3 2.523 2.523 0 0 1-.647.1h-2.639a3.36 3.36 0 0 1-.7-.1 5.434 5.434 0 0 1-.547-.3 1.373 1.373 0 0 1-.348-.448 1.326 1.326 0 0 1-.149-.6v-1.989a1.326 1.326 0 0 1 .149-.6 1.788 1.788 0 0 1 .348-.5 2.056 2.056 0 0 1 .547-.348 1.47 1.47 0 0 1 .647-.1h2.689z" transform="translate(-258.727 -127.273)" style="fill:#fff"/>
        <path data-name="Path 3333" d="M421.1 170.579V165.6h1.046v4.979z" transform="translate(-265.806 -127.273)" style="fill:#fff"/>
        <path data-name="Path 3334" d="M430.229 165.729a2.057 2.057 0 0 1 .547.348 1.788 1.788 0 0 1 .348.5 1.326 1.326 0 0 1 .149.6v3.485h-1v-3.485a.453.453 0 0 0-.2-.4.9.9 0 0 0-.448-.2h-3.286v4.083H425.3v-4.98h4.332a1.226 1.226 0 0 1 .597.049z" transform="translate(-267.915 -127.303)" style="fill:#fff"/>
        <path data-name="Path 3335" d="M440.346 166.5v.7h4.979v.946h-4.979v1.544h4.979v.9H439.3v-4.99h6.025v.9z" transform="translate(-274.944 -127.273)" style="fill:#fff"/>
        <path data-name="Path 3336" d="M454.446 166.5v.7h4.979v.946h-4.979v1.544h4.979v.9H453.4v-4.99h6.025v.9z" transform="translate(-282.024 -127.273)" style="fill:#fff"/>
        <path data-name="Path 3337" d="M471.632 165.6a2.523 2.523 0 0 1 .647.1 2.057 2.057 0 0 1 .547.348 1.788 1.788 0 0 1 .348.5 1.326 1.326 0 0 1 .149.6v.5a1 1 0 0 1-.149.547 1.084 1.084 0 0 1-.348.448 4.308 4.308 0 0 1-.5.348 1.378 1.378 0 0 1-.647.149l1.643 1.394-.747.647-2.34-2.042h-1.945v1.444h-.99V165.6h4.332zm.647 1.544a.453.453 0 0 0-.2-.4.8.8 0 0 0-.448-.149H468.3v1.643h3.336a.8.8 0 0 0 .448-.149.453.453 0 0 0 .2-.4z" transform="translate(-289.004 -127.273)" style="fill:#fff"/>
        <path data-name="Path 3338" d="M481.2 170.579V165.6h1.046v4.979z" transform="translate(-295.982 -127.273)" style="fill:#fff"/>
        <path data-name="Path 3339" d="M490.329 165.729a2.055 2.055 0 0 1 .547.348 1.789 1.789 0 0 1 .348.5 1.326 1.326 0 0 1 .149.6v3.485h-1v-3.485a.453.453 0 0 0-.2-.4.9.9 0 0 0-.448-.2h-3.286v4.083H485.4v-4.98h4.332a1.226 1.226 0 0 1 .597.049z" transform="translate(-298.091 -127.303)" style="fill:#fff"/>
        <path data-name="Path 3340" d="M503.582 165.6a2.523 2.523 0 0 1 .647.1 1.84 1.84 0 0 1 .547.249 1.343 1.343 0 0 1 .348.4.8.8 0 0 1 .149.448v.7h-1.046v-.7q0-.074-.149-.149a1.072 1.072 0 0 0-.5-.1h-2.639a.485.485 0 0 0-.448.2c-.1.149-.2.249-.2.4v1.993a.453.453 0 0 0 .2.4.8.8 0 0 0 .448.149h2.639a.8.8 0 0 0 .448-.149.36.36 0 0 0 .2-.3v-.454h-3.037v-.946h4.083v1.394a1 1 0 0 1-.149.547 2.74 2.74 0 0 1-.348.448 5.425 5.425 0 0 1-.547.3 2.523 2.523 0 0 1-.647.1h-2.639a3.36 3.36 0 0 1-.7-.1 5.434 5.434 0 0 1-.547-.3 1.373 1.373 0 0 1-.348-.448 1.326 1.326 0 0 1-.149-.6v-1.989a1.326 1.326 0 0 1 .149-.6 1.789 1.789 0 0 1 .348-.5 2.056 2.056 0 0 1 .547-.348 1.47 1.47 0 0 1 .647-.1h2.689z" transform="translate(-305.02 -127.273)" style="fill:#fff"/>
    </g>
    <g data-name="Group 2559">
        <path data-name="Path 3341" d="M212.9 104.277h-5.327v4.481c0 1.2.9 1.843 2.689 1.843a8.969 8.969 0 0 1 5.826 1.843 6.33 6.33 0 0 1 2.49 5.228v5.828a3.469 3.469 0 0 1-1.245 2.741 4.183 4.183 0 0 1-2.937 1.149h-8.265a4.27 4.27 0 0 1-2.937-1.149 3.537 3.537 0 0 1-1.245-2.741v-5.727h5.626v4.327h5.325v-4.481c0-1.2-.9-1.843-2.689-1.843a8.969 8.969 0 0 1-5.826-1.843 6.33 6.33 0 0 1-2.49-5.228v-5.826a3.469 3.469 0 0 1 1.245-2.741A4.183 4.183 0 0 1 206.082 99h8.311a4.27 4.27 0 0 1 2.937 1.149 3.537 3.537 0 0 1 1.245 2.741v5.676H212.9z" transform="translate(-155.746 -93.833)" style="fill:#fff"/>
    </g>
</svg>
