<svg xmlns="http://www.w3.org/2000/svg" viewBox="0 0 99.466 108.242">
    <g data-name="Group 2996">
        <g data-name="Group 2924">
            <path data-name="Path 3305" d="M237.948 1728.51v-1.548a3 3 0 0 0 .637.422 5.145 5.145 0 0 0 .781.317 6.213 6.213 0 0 0 .825.2 4.613 4.613 0 0 0 .767.07 3 3 0 0 0 1.811-.446 1.687 1.687 0 0 0 .4-2.084 2.238 2.238 0 0 0-.551-.613 5.461 5.461 0 0 0-.833-.532q-.481-.255-1.036-.535-.586-.3-1.1-.6a4.741 4.741 0 0 1-.882-.677 2.816 2.816 0 0 1-.59-.833 2.838 2.838 0 0 1 .122-2.424 2.886 2.886 0 0 1 .884-.934 4.008 4.008 0 0 1 1.247-.547 5.728 5.728 0 0 1 1.427-.179 5.467 5.467 0 0 1 2.417.4v1.478a4.381 4.381 0 0 0-2.549-.689 4.224 4.224 0 0 0-.86.09 2.426 2.426 0 0 0-.767.293 1.7 1.7 0 0 0-.549.524 1.39 1.39 0 0 0-.211.781 1.611 1.611 0 0 0 .16.743 1.824 1.824 0 0 0 .473.571 4.721 4.721 0 0 0 .763.5q.449.243 1.036.532.6.3 1.142.625a5.214 5.214 0 0 1 .946.731 3.228 3.228 0 0 1 .645.884 2.483 2.483 0 0 1 .239 1.111 2.817 2.817 0 0 1-.325 1.4 2.665 2.665 0 0 1-.876.934 3.825 3.825 0 0 1-1.271.521 6.977 6.977 0 0 1-1.516.158 6.125 6.125 0 0 1-.657-.043q-.391-.043-.8-.125a6.507 6.507 0 0 1-.771-.2 2.4 2.4 0 0 1-.578-.276zm12.057.376a2.469 2.469 0 0 1-1.2.251q-2.1 0-2.1-2.346v-4.739h-1.378v-1.095h1.378V1719l1.282-.414v2.369h2.017v1.095h-2.014v4.511a1.87 1.87 0 0 0 .274 1.15 1.093 1.093 0 0 0 .907.345 1.345 1.345 0 0 0 .836-.267zm8.147-3.6H252.5a2.989 2.989 0 0 0 .72 2.065 2.477 2.477 0 0 0 1.892.728 3.934 3.934 0 0 0 2.487-.891v1.2a4.648 4.648 0 0 1-2.791.766 3.383 3.383 0 0 1-2.668-1.091 4.464 4.464 0 0 1-.969-3.069 4.378 4.378 0 0 1 1.059-3.046 3.4 3.4 0 0 1 2.632-1.177 3.01 3.01 0 0 1 2.432 1.016 4.238 4.238 0 0 1 .861 2.823zm-1.313-1.086a2.609 2.609 0 0 0-.536-1.728 1.822 1.822 0 0 0-1.466-.618 2.071 2.071 0 0 0-1.541.651 2.948 2.948 0 0 0-.781 1.7zm8.985 4.769h-1.282v-1.251h-.031a2.685 2.685 0 0 1-2.463 1.439 2.633 2.633 0 0 1-1.871-.633 2.194 2.194 0 0 1-.677-1.681q0-2.244 2.643-2.612l2.4-.336q0-2.041-1.65-2.041a3.941 3.941 0 0 0-2.611.985v-1.314a4.966 4.966 0 0 1 2.721-.751q2.823 0 2.823 2.987zm-1.282-4.05-1.931.269a3.127 3.127 0 0 0-1.345.442 1.274 1.274 0 0 0-.455 1.122 1.222 1.222 0 0 0 .418.958 1.617 1.617 0 0 0 1.115.371 2.059 2.059 0 0 0 1.576-.669 2.39 2.39 0 0 0 .621-1.692zm15.068 4.05h-1.281v-4.6a3.467 3.467 0 0 0-.41-1.923 1.557 1.557 0 0 0-1.38-.594 1.709 1.709 0 0 0-1.4.75 2.871 2.871 0 0 0-.575 1.8v4.566h-1.283v-4.754q0-2.361-1.822-2.361a1.687 1.687 0 0 0-1.392.708 2.929 2.929 0 0 0-.547 1.841v4.566h-1.28v-8.007h1.282v1.267h.031a2.722 2.722 0 0 1 2.487-1.454 2.309 2.309 0 0 1 2.268 1.656 2.857 2.857 0 0 1 2.658-1.658q2.643 0 2.643 3.26zm6.459-.455v-1.548a3.028 3.028 0 0 0 .637.422 5.205 5.205 0 0 0 .78.317 6.179 6.179 0 0 0 .825.2 4.556 4.556 0 0 0 .766.07 3 3 0 0 0 1.809-.444 1.687 1.687 0 0 0 .4-2.084 2.251 2.251 0 0 0-.551-.613 5.465 5.465 0 0 0-.833-.532q-.481-.255-1.036-.535-.585-.3-1.095-.6a4.724 4.724 0 0 1-.884-.673 2.806 2.806 0 0 1-.59-.833 2.84 2.84 0 0 1 .122-2.424 2.89 2.89 0 0 1 .883-.934 4.016 4.016 0 0 1 1.247-.547 5.712 5.712 0 0 1 1.426-.184 5.472 5.472 0 0 1 2.417.4v1.478a4.379 4.379 0 0 0-2.547-.688 4.224 4.224 0 0 0-.86.09 2.426 2.426 0 0 0-.767.293 1.7 1.7 0 0 0-.547.524 1.392 1.392 0 0 0-.211.781 1.61 1.61 0 0 0 .16.743 1.819 1.819 0 0 0 .473.571 4.7 4.7 0 0 0 .762.5q.45.243 1.036.532.6.3 1.142.625a5.227 5.227 0 0 1 .945.731 3.23 3.23 0 0 1 .645.884 2.483 2.483 0 0 1 .239 1.111 2.817 2.817 0 0 1-.325 1.4 2.665 2.665 0 0 1-.876.934 3.825 3.825 0 0 1-1.271.521 6.977 6.977 0 0 1-1.516.158 6.22 6.22 0 0 1-.657-.042q-.39-.043-.8-.125a6.626 6.626 0 0 1-.77-.2 2.4 2.4 0 0 1-.583-.27zm14.591.455h-1.282v-1.251h-.032a2.685 2.685 0 0 1-2.462 1.439 2.633 2.633 0 0 1-1.873-.633 2.194 2.194 0 0 1-.675-1.681q0-2.244 2.643-2.612l2.4-.336q0-2.041-1.65-2.041a3.942 3.942 0 0 0-2.613.986v-1.314a4.964 4.964 0 0 1 2.721-.751q2.823 0 2.823 2.987zm-1.282-4.05-1.931.269a3.125 3.125 0 0 0-1.345.442 1.273 1.273 0 0 0-.456 1.122 1.223 1.223 0 0 0 .419.958 1.616 1.616 0 0 0 1.114.371 2.058 2.058 0 0 0 1.576-.669 2.389 2.389 0 0 0 .621-1.692zm10.173 4.05h-1.282v-1.269h-.031a2.633 2.633 0 0 1-2.472 1.454q-2.863 0-2.863-3.409v-4.785h1.275v4.581q0 2.534 1.939 2.534a1.96 1.96 0 0 0 1.545-.692 2.647 2.647 0 0 0 .606-1.81v-4.614h1.282zm9.235 0H317.5v-4.569q0-2.549-1.861-2.549a2.018 2.018 0 0 0-1.591.723 2.683 2.683 0 0 0-.629 1.826v4.566h-1.282v-8.007h1.282v1.329h.031a2.891 2.891 0 0 1 2.628-1.517 2.451 2.451 0 0 1 2.01.846 3.778 3.778 0 0 1 .7 2.452zm8.148 0h-1.282v-1.251h-.031a2.686 2.686 0 0 1-2.46 1.439 2.632 2.632 0 0 1-1.872-.633 2.194 2.194 0 0 1-.677-1.681q0-2.244 2.643-2.612l2.4-.336q0-2.041-1.65-2.041a3.941 3.941 0 0 0-2.611.985v-1.314a4.966 4.966 0 0 1 2.721-.751q2.823 0 2.823 2.987zm-1.282-4.05-1.931.266a3.133 3.133 0 0 0-1.345.442 1.274 1.274 0 0 0-.456 1.123 1.223 1.223 0 0 0 .419.958 1.617 1.617 0 0 0 1.114.371 2.057 2.057 0 0 0 1.576-.669 2.388 2.388 0 0 0 .621-1.691z" transform="translate(-237.85 -1632.69)" style="fill:#fff"/>
            <path data-name="Path 3306" d="M241.149 1758.317h-3.428v-6.467H241v.685h-2.526v2.152h2.337v.681h-2.337v2.265h2.668zm4.52-4.62-1.551 2.337 1.525 2.283h-.862l-.907-1.5q-.085-.14-.2-.352h-.019l-.212.352-.924 1.5h-.852l1.574-2.265-1.507-2.355h.861l.893 1.579q.1.175.2.361h.018l1.153-1.94zm1.626 3.952h-.018v2.791h-.742v-6.74h.74v.812h.018a1.75 1.75 0 0 1 1.6-.92 1.691 1.691 0 0 1 1.394.62 2.57 2.57 0 0 1 .5 1.662 2.86 2.86 0 0 1-.564 1.856 1.878 1.878 0 0 1-1.543.7 1.545 1.545 0 0 1-1.385-.776zm-.02-1.864v.645a1.375 1.375 0 0 0 .372.972 1.328 1.328 0 0 0 2-.115 2.361 2.361 0 0 0 .381-1.431 1.862 1.862 0 0 0-.357-1.21 1.18 1.18 0 0 0-.965-.436 1.311 1.311 0 0 0-1.038.449 1.649 1.649 0 0 0-.392 1.127zm8.4.406h-3.262a1.728 1.728 0 0 0 .412 1.188 1.431 1.431 0 0 0 1.092.42 2.271 2.271 0 0 0 1.432-.514v.695a2.68 2.68 0 0 1-1.61.442 1.951 1.951 0 0 1-1.538-.629 2.576 2.576 0 0 1-.559-1.771 2.525 2.525 0 0 1 .611-1.757 1.959 1.959 0 0 1 1.524-.677 1.737 1.737 0 0 1 1.4.586 2.445 2.445 0 0 1 .5 1.627zm-.758-.627a1.506 1.506 0 0 0-.309-1 1.051 1.051 0 0 0-.846-.356 1.193 1.193 0 0 0-.889.374 1.7 1.7 0 0 0-.451.976zm4.285-1.119a.9.9 0 0 0-.56-.149.944.944 0 0 0-.792.446 2.064 2.064 0 0 0-.318 1.218v2.356h-.732v-4.62h.74v.95h.018a1.612 1.612 0 0 1 .483-.76 1.1 1.1 0 0 1 .726-.273 1.2 1.2 0 0 1 .441.065zm2.946 3.825a1.427 1.427 0 0 1-.69.144q-1.215 0-1.215-1.353v-2.733h-.794v-.632h.794v-1.128l.74-.239v1.366h1.164v.632h-1.157v2.6a1.076 1.076 0 0 0 .158.663.631.631 0 0 0 .52.2.782.782 0 0 0 .483-.154zm.708-.122v-.794a2.19 2.19 0 0 0 1.331.446q.976 0 .976-.651a.566.566 0 0 0-.083-.314.835.835 0 0 0-.226-.228 1.745 1.745 0 0 0-.334-.178 24.045 24.045 0 0 0-.413-.164 5.306 5.306 0 0 1-.539-.246 1.62 1.62 0 0 1-.391-.28 1.044 1.044 0 0 1-.235-.354 1.256 1.256 0 0 1-.078-.465 1.108 1.108 0 0 1 .149-.575 1.327 1.327 0 0 1 .4-.419 1.835 1.835 0 0 1 .566-.255 2.5 2.5 0 0 1 .656-.086 2.647 2.647 0 0 1 1.074.208v.749a2.094 2.094 0 0 0-1.171-.334 1.375 1.375 0 0 0-.374.048.914.914 0 0 0-.286.13.615.615 0 0 0-.185.205.537.537 0 0 0-.065.264.629.629 0 0 0 .065.3.653.653 0 0 0 .192.216 1.45 1.45 0 0 0 .307.171c.12.051.257.107.41.167a5.666 5.666 0 0 1 .55.242 1.88 1.88 0 0 1 .415.28 1.093 1.093 0 0 1 .264.358 1.161 1.161 0 0 1 .092.483 1.138 1.138 0 0 1-.151.6 1.3 1.3 0 0 1-.4.42 1.862 1.862 0 0 1-.582.248 2.884 2.884 0 0 1-.69.081 2.624 2.624 0 0 1-1.238-.271z" transform="translate(-237.721 -1652.199)" style="fill:#fff"/>
            <path data-name="Rectangle 1811" transform="translate(38.41 103.423)" style="fill:#fff" d="M0 0h61.056v1.014H0z"/>
        </g>
        <g data-name="Group 2925">
            <g data-name="Group 2555">
                <path data-name="Path 3301" d="M308.628 1597.3a35.339 35.339 0 0 1-5.406-.345 27.05 27.05 0 0 1-6.163-1.808c-.509-.23-1.052-.395-1.578-.591a26.449 26.449 0 0 1-5.373-2.892 31.459 31.459 0 0 1-4.667-3.683 32.809 32.809 0 0 1-2.909-3.319c-.362-.477-.706-.937-1.1-1.381a24.034 24.034 0 0 1-3.731-6.36 27.6 27.6 0 0 1-2.055-7 22.955 22.955 0 0 1-.345-6.1c.164-1.528.2-3.052.509-4.552a31.087 31.087 0 0 1 2.284-7.428 30.342 30.342 0 0 1 3.073-5.356 53.639 53.639 0 0 1 6.8-7.261c1.824-1.627 3.763-3.106 5.587-4.716 1.15-1 2.449-1.823 3.631-2.794a62.257 62.257 0 0 0 4.831-4.24 32.485 32.485 0 0 0 4.62-6.066 1.578 1.578 0 0 1 .165-.279c.231-.3.444-.3.592.065a6.222 6.222 0 0 1 .592 2.42c.049 1.709.164 3.435.066 5.143a18.886 18.886 0 0 1-2.547 8.4 25.336 25.336 0 0 1-4.881 6.245c-2.105 1.923-4.026 4.01-5.932 6.129a24.193 24.193 0 0 0-4.305 6.474c-.542 1.249-.953 2.563-1.381 3.862a8.343 8.343 0 0 0-.395 2.3 25.084 25.084 0 0 0 .263 5.768c.05.3.21.755-.132.871-.41.148-.542-.345-.723-.608a5.936 5.936 0 0 1-.69-1.545c-.395-1.4-.788-2.777-1.133-4.19a14.681 14.681 0 0 1-.21-4.24 20.351 20.351 0 0 1 1.347-6.014 5.333 5.333 0 0 0 .21-1.824c0-.279-.181-.427-.41-.21a5.275 5.275 0 0 0-1.758 2.037 2.154 2.154 0 0 1-.2.444 17.619 17.619 0 0 0-2 4.551 20.438 20.438 0 0 0-.723 3.7c-.181 1.263-.23 2.563-.316 3.845a22.087 22.087 0 0 0 .378 4.881 12.06 12.06 0 0 0 .737 2.3 29.33 29.33 0 0 0 4.765 8.693 30.465 30.465 0 0 0 4.3 4.305 27.755 27.755 0 0 0 5.308 3.336 19.9 19.9 0 0 0 3.122 1.052 35.775 35.775 0 0 0 7.46 1.15 21.78 21.78 0 0 0 4.009-.2 23.68 23.68 0 0 0 5.11-1.018 28.712 28.712 0 0 0 4.5-1.956 24.2 24.2 0 0 0 9.415-8.906 23.607 23.607 0 0 0 2.432-4.535 24.753 24.753 0 0 0 1.632-5.051 21.139 21.139 0 0 0-.624-10.172 51.307 51.307 0 0 0-1.726-4.847 36.187 36.187 0 0 0-4.338-6.951 76.92 76.92 0 0 0-8.3-8.864c-1.463-1.381-2.974-2.711-4.305-4.223a22.178 22.178 0 0 1-3.5-4.683 16.486 16.486 0 0 1-1.894-6.84 7.3 7.3 0 0 1 .065-1.036c.017-.181.05-.395.279-.444a.48.48 0 0 1 .492.21 13.581 13.581 0 0 0 1.172 1.23c2 2.1 4.141 4.042 6.228 6.064 1.347 1.314 2.663 2.646 4.01 3.944 1.118 1.085 2.284 2.119 3.4 3.188 2.449 2.367 4.913 4.736 7.214 7.231a28.764 28.764 0 0 1 3.008 3.763 36.482 36.482 0 0 1 3.434 6.36 37.294 37.294 0 0 1 1.759 5.423 23.44 23.44 0 0 1 .411 2.383 35.27 35.27 0 0 1-.279 10.27 26.686 26.686 0 0 1-1.758 5.669 33.545 33.545 0 0 1-7.379 10.829 35.333 35.333 0 0 1-8.5 6.2 37.028 37.028 0 0 1-7.706 2.974 31.483 31.483 0 0 1-7.838.819z" transform="translate(-259.058 -1520.742)" style="fill:#fff"/>
                <path data-name="Path 3302" d="M348.09 1599.275a13.677 13.677 0 0 1-2.42 8.43c-.329.46-.559.986-.855 1.463a14.538 14.538 0 0 1-3.386 3.418 31.251 31.251 0 0 1-2.613 1.741 16.488 16.488 0 0 1-6.425 2.186c-.476.082-.953.115-1.429.21a6.308 6.308 0 0 1-2 .082c-1.3-.164-2.613-.316-3.894-.576a9.569 9.569 0 0 1-2.563-.92 25.881 25.881 0 0 1-6.59-4.536 13.315 13.315 0 0 1-3.533-6.1c-.329-1.282-.575-2.564-.842-3.845a8.676 8.676 0 0 1-.017-3.123 27.509 27.509 0 0 1 1.15-4.436 20.692 20.692 0 0 1 1.709-3.27 15.846 15.846 0 0 1 2.86-3.237 20.574 20.574 0 0 1 8.524-5 3.145 3.145 0 0 1 .871-.181c.361-.033.842-.115 1.019.279.164.378-.164.706-.427.969a7.941 7.941 0 0 1-.8.674 1.571 1.571 0 0 1-.279.164c-2.5 1.215-4.4 3.2-6.409 5.061a13.008 13.008 0 0 0-3.221 5.915 12.4 12.4 0 0 0-.542 3.96 18.9 18.9 0 0 0 .92 4.963 4.067 4.067 0 0 0 .756 1.413 6.011 6.011 0 0 1 .707.986 6.8 6.8 0 0 0 2.186 2.3c.755.509 1.429 1.183 2.2 1.709a7.08 7.08 0 0 0 2.876 1.151 25.192 25.192 0 0 0 4.716.46 13.135 13.135 0 0 0 9.2-3.812 19.415 19.415 0 0 0 1.594-1.693 8.173 8.173 0 0 0 1.528-2.891 1.466 1.466 0 0 1 .132-.378c1.036-1.939.887-3.992.624-6.063a13.153 13.153 0 0 0-2.119-5.669 21.167 21.167 0 0 0-4.486-4.881 13.1 13.1 0 0 0-2.6-1.594 3.352 3.352 0 0 1-1.3-1.052 4.381 4.381 0 0 0-.641-.706 2.106 2.106 0 0 1-.46-.641c-.2-.427-.082-.657.395-.723a1.941 1.941 0 0 1 .871.065 14.21 14.21 0 0 1 4.717 1.988c.673.493 1.4.9 2.087 1.347a20.024 20.024 0 0 1 6.355 6.729 16.3 16.3 0 0 1 1.463 4.076 12.17 12.17 0 0 1 .391 3.588z" transform="translate(-279.623 -1555.283)" style="fill:#fff"/>
                <path data-name="Path 3303" d="M339.475 1626.729a10.607 10.607 0 0 1-5.078-1 8.161 8.161 0 0 1-1.627-1.167 12.148 12.148 0 0 1-4.009-5.883 6.95 6.95 0 0 1-.3-2.465 1.579 1.579 0 0 1 .805-1.4 7.629 7.629 0 0 1 5.537-1.068 16.032 16.032 0 0 1 5.029 2.07 15.867 15.867 0 0 0 4.338 1.856 5 5 0 0 0 3.385-.2c.69-.3 1.4-.526 2.07-.871.592-.316 1.019-.017.937.657a6.211 6.211 0 0 1-.493 1.774c-.231.509-.477 1.019-.706 1.528a10.614 10.614 0 0 1-7.346 5.965 10.95 10.95 0 0 1-2.542.204z" transform="translate(-289.331 -1573.568)" style="fill:#fff"/>
            </g>
            <path data-name="Path 3304" d="M348.585 1583.095s-2.087 3.468-3.944 4.305h7.214a10.005 10.005 0 0 1-3.27-4.305z" transform="translate(-298.539 -1556.209)" style="fill:#fff"/>
        </g>
    </g>
</svg>
