<svg xmlns="http://www.w3.org/2000/svg" width="84" height="52" viewBox="0 0 84 52">
    <g data-name="Group 2515">
        <path data-name="Rectangle 8" style="fill:#003adc" d="M0 0h84v52H0z"/>
        <path data-name="Path 3173" d="M9.768-25.53c-5.661 0-8.88 2.775-8.917 7.622h5.735c.037-1.554 1.147-2.479 2.96-2.479 1.776 0 2.775.888 2.775 2.516 0 2.035-1.221 2.923-3.959 2.923h-.851v4.218h.851c3.663 0 5 .777 5 3 0 2.072-1.147 3.145-3.4 3.145S6.438-5.624 6.29-7.622H.444C.444-2.331 3.811.555 9.916.555c5.846 0 9.25-2.849 9.25-7.7 0-3.478-1.85-5.624-5.217-6.142v-.074a5.384 5.384 0 0 0 4.44-5.587c0-4.214-3.071-6.582-8.621-6.582zm27.38 11.877L45.917-25.9h-7.289l-5.143 7.659-5.143-7.659h-7.289l8.769 12.247L20.165 0h7.326l5.994-9.028L39.479 0h7.326z" transform="translate(18.375 38.672)" style="fill:#fff"/>
    </g>
</svg>
