<svg xmlns="http://www.w3.org/2000/svg" width="124.189" height="16.896" viewBox="0 0 124.189 16.896">
    <path data-name="Path 36" d="M67.7 16.843h11.923V13.7H71.3V9.842h6.9V6.7h-6.9V3.144h8.37V0H67.7z" transform="translate(-49.841)" style="fill:#373737"/>
    <path data-name="Path 37" d="M130.51 10.6 122.7 0h-5.38L119 2.131V16.9h3.6V5.835l8.067 11.008h3.45V0h-3.6z" transform="translate(-86.372)" style="fill:#373737"/>
    <path data-name="Path 38" d="M12.43 8.178a3.75 3.75 0 0 0 2.9-3.854C15.321 2.079 13.7 0 10.451 0H0l1.622 2.079v14.772h9.193c3.25 0 4.922-2.029 4.922-4.566a4.143 4.143 0 0 0-3.307-4.107zm-7.2-5.012h4.512a1.786 1.786 0 1 1 0 3.551H5.226zm4.662 10.551H5.226V9.842h4.666a1.924 1.924 0 0 1 2.131 1.928 1.875 1.875 0 0 1-2.131 1.93z" style="fill:#373737"/>
    <path data-name="Path 39" d="M351.929 10.6h1.878v1.981a5.513 5.513 0 0 1-3.45 1.266 5.079 5.079 0 0 1-5.123-5.376 5.081 5.081 0 0 1 5.123-5.379 4.624 4.624 0 0 1 3.857 2.131l2.841-1.583A7.646 7.646 0 0 0 350.306 0c-4.769 0-8.726 3.3-8.726 8.423s3.907 8.42 8.726 8.42a9 9 0 0 0 6.9-3.044V7.56h-7.711z" transform="translate(-251.473)" style="fill:#373737"/>
    <path data-name="Path 40" d="M282.452 10.6 274.639 0h-5.379l1.675 2.131V16.9h3.6V5.835l8.067 11.008h3.448V0h-3.6z" transform="translate(-198.231)" style="fill:#373737"/>
    <path data-name="Path 41" d="M415.418 0h-6.948l1.672 2.131-.3.81L404.46 16.9h4.06l1.055-2.844h7.268L417.9 16.9h4.057zM410.5 10.858l2.639-7.258 2.638 7.257z" transform="translate(-297.766)" style="fill:#373737"/>
    <path data-name="Rectangle 3" transform="translate(65.347)" style="fill:#373737" d="M0 0h3.603v16.896H0z"/>
    <path data-name="Path 42" d="M201.356 2.891V0H188.67v3.144h7.967l-7.967 10.808v2.891h12.839V13.7h-8.17z" transform="translate(-138.9)" style="fill:#373737"/>
</svg>
