<svg xmlns="http://www.w3.org/2000/svg" width="85.096" height="26.689" viewBox="0 0 85.096 26.689">
    <g data-name="Group 77">
        <path data-name="Path 58" d="M76.211 12.754h3.075a1.227 1.227 0 0 0 1.284.778c1.03 0 1.385-.642 1.385-1.589v-.675h-.068a2.734 2.734 0 0 1-2.179 1.032c-1.96 0-3.666-1.453-3.666-4.291 0-2.6 1.4-4.629 3.514-4.629a2.655 2.655 0 0 1 2.45 1.267h.05v-1H85.1v7.872a4.271 4.271 0 0 1-1.267 3.261 4.717 4.717 0 0 1-3.21 1c-2.416 0-4.105-1-4.409-3.024m5.879-4.9c0-1.132-.54-2.044-1.469-2.044-.9 0-1.47.811-1.47 2.044 0 1.216.574 2.095 1.47 2.095.929 0 1.469-.9 1.469-2.095M72.646 5.2h.054a2.767 2.767 0 0 1 2.618-1.74 1.228 1.228 0 0 1 .524.084v2.791h-.067C73.9 6 72.8 6.892 72.8 8.936v3.8h-3.194V3.649h3.041V5.2zM0 0h6.251a4.231 4.231 0 0 1 2.736.811A3.134 3.134 0 0 1 10.1 3.328a2.431 2.431 0 0 1-1.5 2.449v.051a3.068 3.068 0 0 1 2.078 3.057 3.686 3.686 0 0 1-1.387 3.075 4.837 4.837 0 0 1-2.922.777H0zm5.947 9.916a1.219 1.219 0 0 0 1.317-1.3 1.231 1.231 0 0 0-1.334-1.3H3.463v2.6zm-.321-4.933a1.052 1.052 0 0 0 1.165-1.115 1.048 1.048 0 0 0-1.182-1.081H3.463v2.2h2.163z" style="fill:#373737"/>
    </g>
    <path data-name="Path 59" d="M66.112 0h3.277v12.737h-3.277zm3.9 8.21a4.714 4.714 0 1 1 9.426 0 4.714 4.714 0 1 1-9.426 0m6.183 0c0-1.588-.507-2.584-1.487-2.584s-1.452 1-1.452 2.584c0 1.6.473 2.6 1.452 2.6s1.487-1 1.487-2.6m3.616 0a4.714 4.714 0 1 1 9.426 0 4.714 4.714 0 1 1-9.426 0m6.189 0c0-1.588-.507-2.584-1.487-2.584s-1.452 1-1.452 2.584c0 1.6.473 2.6 1.452 2.6S86 9.815 86 8.21m3.869-4.561h3.041v1.368h.051a2.91 2.91 0 0 1 2.737-1.638 2.539 2.539 0 0 1 2.45 1.571h.05a3.05 3.05 0 0 1 2.821-1.571c2.112 0 3.024 1.554 3.024 3.649v5.71h-3.193V7.6c0-.929-.287-1.537-1.1-1.537-.794 0-1.2.743-1.2 1.723v4.949h-3.194V7.6c0-.929-.287-1.537-1.1-1.537-.795 0-1.2.743-1.2 1.723v4.949h-3.191zm18.078 7.906h-.034v1.183h-3.041V0h3.193v4.595h.051a3.02 3.02 0 0 1 2.584-1.216c2.281 0 3.6 2.061 3.6 4.8 0 3.091-1.436 4.865-3.8 4.865a2.871 2.871 0 0 1-2.551-1.486m3.108-3.412c0-1.47-.54-2.416-1.5-2.416-.979 0-1.6.946-1.6 2.416 0 1.452.625 2.416 1.6 2.416s1.5-.946 1.5-2.416m3.65.034a4.5 4.5 0 0 1 4.6-4.814 4.419 4.419 0 0 1 3.193 1.182 5.925 5.925 0 0 1 1.486 4.477h-6.1c.135 1.132.675 1.706 1.638 1.706a1.226 1.226 0 0 0 1.251-.861h3.074c-.54 2.077-2.145 3.125-4.425 3.125a4.5 4.5 0 0 1-4.724-4.819m3.176-.946h2.906c-.051-1.1-.659-1.672-1.42-1.672-.878 0-1.368.625-1.486 1.672" transform="translate(-54.86)" style="fill:#373737"/>
    <path data-name="Path 60" d="M0 80.19h6.251a4.228 4.228 0 0 1 2.736.81 3.132 3.132 0 0 1 1.113 2.518 2.432 2.432 0 0 1-1.5 2.45v.05a3.069 3.069 0 0 1 2.078 3.058 3.685 3.685 0 0 1-1.387 3.074 4.839 4.839 0 0 1-2.922.777H0zm5.947 9.916a1.3 1.3 0 1 0-.017-2.6H3.463v2.6zm-.321-4.933a1.1 1.1 0 1 0-.017-2.2H3.463v2.2h2.163zM17 92.927v-1.182h-.051a3.094 3.094 0 0 1-2.686 1.47c-2.061 0-3.075-1.419-3.075-3.514v-5.862h3.193v5.152c0 1.031.389 1.436 1.149 1.436.827 0 1.317-.558 1.317-1.605v-4.983h3.193v9.088zm3.548-2.872H23.5a1.169 1.169 0 0 0 1.3 1.183c.625 0 1.1-.186 1.1-.811 0-.743-1-.794-2.112-.98-1.452-.219-3.125-.692-3.125-2.973 0-1.858 1.808-2.906 3.919-2.906 2.618 0 3.986 1.031 4.1 2.8h-3.003a.944.944 0 0 0-1.081-.861c-.473 0-.912.186-.912.709 0 .507.794.642 1.773.777 1.571.237 3.564.608 3.564 3.126 0 2.179-1.875 3.108-4.24 3.108-2.551 0-4.223-1.1-4.24-3.176m9-6.216h3.193v9.088h-3.188zm0-3.277h3.193v2.551h-3.188z" transform="translate(0 -66.542)" style="fill:#373737"/>
    <g data-name="Group 78">
        <path data-name="Path 61" d="M200.683 101.48h.05a3.19 3.19 0 0 1 2.767-1.52c1.993 0 3.024 1.4 3.024 3.48v5.879h-3.193v-5.135c0-1.014-.371-1.572-1.2-1.572-.811 0-1.3.676-1.3 1.724v4.983h-3.193v-9.089h3.041zm6.4 3.277a4.5 4.5 0 0 1 4.595-4.814 4.419 4.419 0 0 1 3.192 1.183 5.928 5.928 0 0 1 1.487 4.477h-6.1c.135 1.132.676 1.706 1.639 1.706a1.225 1.225 0 0 0 1.25-.862h3.075c-.541 2.078-2.145 3.126-4.426 3.126a4.5 4.5 0 0 1-4.713-4.815m3.175-.946h2.906c-.051-1.1-.659-1.672-1.419-1.672-.879 0-1.368.625-1.487 1.672m6.418 2.635h2.956a1.17 1.17 0 0 0 1.3 1.183c.625 0 1.1-.186 1.1-.811 0-.743-1-.794-2.112-.98-1.452-.219-3.125-.692-3.125-2.973 0-1.858 1.808-2.906 3.919-2.906 2.618 0 3.987 1.031 4.105 2.8h-3.007a.943.943 0 0 0-1.081-.861c-.473 0-.912.186-.912.709 0 .507.794.642 1.773.777 1.571.237 3.564.608 3.564 3.126 0 2.179-1.875 3.108-4.24 3.108-2.551 0-4.224-1.1-4.24-3.176m8.82 0h2.956a1.17 1.17 0 0 0 1.3 1.183c.625 0 1.1-.186 1.1-.811 0-.743-1-.794-2.112-.98-1.452-.219-3.125-.692-3.125-2.973 0-1.858 1.808-2.906 3.919-2.906 2.618 0 3.987 1.031 4.105 2.8h-3.007a.943.943 0 0 0-1.081-.861c-.473 0-.912.186-.912.709 0 .507.794.642 1.773.777 1.571.237 3.564.608 3.564 3.126 0 2.179-1.875 3.108-4.24 3.108-2.551 0-4.224-1.1-4.24-3.176" transform="translate(-164.005 -82.933)" style="fill:#373737"/>
    </g>
</svg>
