<svg xmlns="http://www.w3.org/2000/svg" width="84.842" height="27.293" viewBox="0 0 84.842 27.293">
    <path data-name="Path 43" d="M75.2 60.426c0 1.751 1.077 2.469 2.469 3.008l1.526.539c.943.359 1.481.718 1.481 1.526 0 .943-.853 1.392-2.02 1.392a5.3 5.3 0 0 1-3.322-1.212v1.885a5.837 5.837 0 0 0 3.322.943c2.155 0 3.771-1.077 3.771-3.008 0-1.526-.763-2.424-2.424-3.1l-1.703-.626c-.9-.314-1.392-.628-1.392-1.392 0-.853.763-1.257 1.84-1.257a5.067 5.067 0 0 1 3.1 1.167v-1.84a5.813 5.813 0 0 0-3.1-.853c-1.932-.045-3.548.988-3.548 2.828z" transform="translate(-51.229 -57.553)" style="fill:#373737"/>
    <path data-name="Path 44" d="M194.7 60.328c0 1.751 1.077 2.469 2.469 3.008l1.526.539c.943.359 1.481.718 1.481 1.526 0 .943-.853 1.392-2.02 1.392a5.3 5.3 0 0 1-3.322-1.212v1.885a5.837 5.837 0 0 0 3.322.943c2.155 0 3.771-1.077 3.771-3.008 0-1.526-.763-2.424-2.424-3.1l-1.706-.628c-.9-.314-1.392-.628-1.392-1.392 0-.853.763-1.257 1.84-1.257a5.067 5.067 0 0 1 3.1 1.167v-1.84a5.813 5.813 0 0 0-3.1-.853c-1.929.002-3.545.99-3.545 2.83z" transform="translate(-117.085 -57.5)" style="fill:#373737"/>
    <path data-name="Path 45" d="M170.7 60.381c0 1.751 1.077 2.469 2.469 3.008l1.526.539c.943.359 1.481.718 1.481 1.526 0 .943-.853 1.392-2.02 1.392a5.3 5.3 0 0 1-3.322-1.212v1.885a5.837 5.837 0 0 0 3.322.943c2.155 0 3.771-1.077 3.771-3.008 0-1.526-.763-2.424-2.424-3.1l-1.706-.628c-.9-.314-1.392-.628-1.392-1.392 0-.853.763-1.257 1.84-1.257a5.067 5.067 0 0 1 3.1 1.167v-1.84a5.792 5.792 0 0 0-3.1-.808c-1.929-.043-3.545.945-3.545 2.785z" transform="translate(-103.859 -57.553)" style="fill:#373737"/>
    <path data-name="Path 46" d="M147.4 57.845v10.549h6.374v-1.616h-4.624V63.5h4.13v-1.57h-4.13v-2.559h4.624V57.8H147.4z" transform="translate(-91.018 -57.665)" style="fill:#373737"/>
    <path data-name="Path 47" d="M23.506 63.725h2.244c1.167 0 1.84.584 1.84 1.571 0 .943-.673 1.571-1.84 1.571h-2.244zm0-4.309h1.93c1.212 0 1.84.449 1.84 1.392 0 .988-.673 1.436-1.84 1.436h-1.93zM21.8 57.845v10.549h4.04c2.2 0 3.546-1.032 3.546-3.053a2.539 2.539 0 0 0-1.706-2.424 2.308 2.308 0 0 0 1.392-2.244c0-1.885-1.392-2.873-3.546-2.873l-3.726.045z" transform="translate(-21.8 -57.665)" style="fill:#373737"/>
    <path data-name="Path 48" d="M103.3 57.9h-1.8v10.549h1.8z" transform="translate(-65.723 -57.72)" style="fill:#373737"/>
    <path data-name="Path 49" d="M53.944 57.9v6.15c0 2.02-.853 2.963-2.424 2.963s-2.42-.943-2.42-2.963V57.9h-1.8v6.329c0 2.873 1.706 4.354 4.22 4.354s4.22-1.481 4.22-4.354V57.9z" transform="translate(-35.853 -57.72)" style="fill:#373737"/>
    <path data-name="Path 50" d="M124.072 57.68v6.733L116.8 57.5v10.729h1.751v-6.868l7.227 7.048V57.68z" transform="translate(-74.155 -57.5)" style="fill:#373737"/>
    <path data-name="Path 51" d="M81 97.178c0 1.706 1.077 2.424 2.424 2.963l1.526.539c.943.359 1.481.673 1.481 1.481 0 .943-.853 1.392-2.02 1.392a5.532 5.532 0 0 1-3.322-1.167v1.84a5.837 5.837 0 0 0 3.322.943c2.11 0 3.726-1.032 3.726-2.918 0-1.526-.763-2.424-2.379-3.008L84.1 98.66c-.853-.314-1.392-.584-1.392-1.392 0-.853.763-1.257 1.84-1.257a4.8 4.8 0 0 1 3.052 1.123v-1.8a5.813 5.813 0 0 0-3.1-.853c-1.884-.131-3.5.857-3.5 2.697z" transform="translate(-54.425 -77.876)" style="fill:#373737"/>
    <path data-name="Path 52" d="M109 94.6h-1.8v10.37h1.8z" transform="translate(-68.864 -77.946)" style="fill:#373737"/>
    <path data-name="Path 53" d="M37.7 94.6h-1.8v10.37h1.8z" transform="translate(-29.571 -77.946)" style="fill:#373737"/>
    <path data-name="Path 54" d="M124.5 96.116h2.2c2.2 0 3.367 1.392 3.367 3.636s-1.167 3.636-3.367 3.636h-2.2v-7.272zm-1.8-1.571v10.37h4c3.1 0 5.073-2.02 5.073-5.207A4.843 4.843 0 0 0 126.7 94.5h-4z" transform="translate(-77.406 -77.891)" style="fill:#373737"/>
    <path data-name="Path 55" d="M151.3 94.6v10.37h6.329v-1.616h-4.579v-3.187h4.13V98.64h-4.13v-2.469h4.579V94.6z" transform="translate(-93.168 -77.946)" style="fill:#373737"/>
    <path data-name="Path 56" d="M179 96.071h2.02c1.167 0 1.84.628 1.84 1.616a1.624 1.624 0 0 1-1.84 1.616H179zm-1.8-1.526v10.37h1.8v-4.22h1.257l3.636 4.22h2.02l-3.726-4.309a2.654 2.654 0 0 0 2.424-3.008c0-2.02-1.392-3.1-3.546-3.1l-3.861.045z" transform="translate(-107.441 -77.891)" style="fill:#373737"/>
    <path data-name="Path 57" d="M51.2 104.749h1.706v-6.733l7.182 6.913V94.38h-1.706v6.644L51.2 94.2z" transform="translate(-38.002 -77.725)" style="fill:#373737"/>
</svg>
