<svg xmlns="http://www.w3.org/2000/svg" width="120.762" height="120.762" viewBox="0 0 120.762 120.762">
    <g data-name="Group 2362">
        <g data-name="Group 2361">
            <path data-name="Rectangle 1697" transform="rotate(-8.054 106.32 7.485)" style="fill:#ff7757" d="M0 0h106.85v106.85H0z"/>
            <path data-name="Rectangle 1698" transform="translate(9.418 9.437)" style="fill:#fff" d="M0 0h101.933v101.933H0z"/>
        </g>
        <path d="M394.724 492.311a43.872 43.872 0 0 0-9.181-6.145c-2.752-1.323-3.76-1.293-5.706.107-1.619 1.174-2.669 2.26-4.537 1.851s-5.546-3.185-9.11-6.744-6.346-7.248-6.744-9.11.694-2.912 1.851-4.537c1.406-1.951 1.441-2.954.107-5.706a42.969 42.969 0 0 0-6.145-9.181c-2-2-2.45-1.566-3.553-1.174a19.858 19.858 0 0 0-3.25 1.732 9.827 9.827 0 0 0-3.909 4.128c-.777 1.673-1.673 4.792 2.9 12.942A72.105 72.105 0 0 0 360.14 487.4l.012.012.012.012a72.557 72.557 0 0 0 16.928 12.693c8.144 4.579 11.263 3.677 12.942 2.9a9.689 9.689 0 0 0 4.128-3.909 20.319 20.319 0 0 0 1.732-3.25c.396-1.097.847-1.548-1.17-3.547z" transform="translate(-309.695 -417.104)" style="fill:#003adc"/>
    </g>
</svg>
