<svg xmlns="http://www.w3.org/2000/svg" width="112.416" height="33.848" viewBox="0 0 112.416 33.848">
    <g data-name="Group 2348">
        <g data-name="Group 142">
            <path data-name="Icon metro-star-full" d="m16.2 7.634-4.709-.684-2.105-4.267L7.28 6.95l-4.709.684 3.407 3.321-.8 4.69 4.212-2.214 4.21 2.215-.8-4.69 3.4-3.322z" transform="translate(39.845 1.203)" style="fill:#ff7757"/>
            <path data-name="Icon metro-star-full" d="m16.2 7.634-4.709-.684-2.105-4.267L7.28 6.95l-4.709.684 3.407 3.321-.8 4.69 4.212-2.214 4.21 2.215-.8-4.69 3.4-3.322z" transform="translate(53.938 1.203)" style="fill:#ff7757"/>
            <path data-name="Icon metro-star-full" d="m16.2 7.634-4.709-.684-2.105-4.267L7.28 6.95l-4.709.684 3.407 3.321-.8 4.69 4.212-2.214 4.21 2.215-.8-4.69 3.4-3.322z" transform="translate(68.03 1.203)" style="fill:#ff7757"/>
            <path data-name="Icon metro-star-full" d="m16.2 7.634-4.709-.684-2.105-4.267L7.28 6.95l-4.709.684 3.407 3.321-.8 4.69 4.212-2.214 4.21 2.215-.8-4.69 3.4-3.322z" transform="translate(82.123 1.203)" style="fill:#ff7757"/>
            <path data-name="Icon metro-star-full" d="m16.2 7.634-4.709-.684-2.105-4.267L7.28 6.95l-4.709.684 3.407 3.321-.8 4.69 4.212-2.214 4.21 2.215-.8-4.69 3.4-3.322z" transform="translate(96.216 1.203)" style="fill:#ff7757"/>
        </g>
        <g data-name="64ae73edbb9573a8ea091c6d_clutch logo">
            <path data-name="Path 63" d="M29.8 27.909a16.924 16.924 0 1 1-.04-22.015l-5.44 4.675a9.751 9.751 0 1 0 .022 12.685z" style="fill:#000f24"/>
            <circle data-name="Ellipse 4" cx="5.818" cy="5.818" transform="translate(11.106 11.106)" style="fill:#003adc" r="5.818"/>
        </g>
        <text data-name="25 Reviews" transform="translate(42.416 30.848)" style="fill:#0d0d0d;font-size:14px;font-family:Matter-Regular,Matter"><tspan x="0" y="0">25 Reviews</tspan></text>
    </g>
</svg>
