<svg xmlns="http://www.w3.org/2000/svg" width="129" height="127" viewBox="0 0 129 127">
    <g data-name="Group 2418" transform="translate(-468 -11064.318)">
        <ellipse data-name="Ellipse 45" cx="64.5" cy="63.5" rx="64.5" ry="63.5" transform="translate(468 11064.318)" style="fill:#ff7757"/>
        <g data-name="trophy (1)">
            <path data-name="Path 3162" d="M157.272 452h-39.278a2.35 2.35 0 0 0-2.35 2.35v4.7a2.35 2.35 0 0 0 2.35 2.35h39.278a2.35 2.35 0 0 0 2.35-2.35v-4.7a2.35 2.35 0 0 0-2.35-2.35z" transform="translate(395.021 10710.381)" style="fill:#fff"/>
            <path data-name="Path 3163" d="M186.135 343.24h-1.659a21.069 21.069 0 0 1-.923-6.669 27.25 27.25 0 0 1-13.221.01 28.376 28.376 0 0 1-.32 4.338 12.268 12.268 0 0 1-.6 2.321h-1.694a5.489 5.489 0 0 0-5.483 5.483v1.232h29.378v-1.232a5.489 5.489 0 0 0-5.478-5.483z" transform="translate(355.725 10807.729)" style="fill:#fff"/>
            <path data-name="Path 3164" d="M411.8 60.267h-8.355c-.1 1.126-.19 2.281-.254 3.124-.039.511-.079 1.038-.122 1.576h6.294a24.5 24.5 0 0 1-8.7 16.7 47.654 47.654 0 0 1-1.877 5.891q-.443 1.118-.939 2.162l2.819-2.041c8.947-6.477 13.483-14.845 13.483-24.871v-.195a2.35 2.35 0 0 0-2.349-2.346z" transform="translate(157.028 11040.747)" style="fill:#fff"/>
            <path data-name="Path 3165" d="M23.408 81.531a24.453 24.453 0 0 1-8.527-16.565H21q-.08-1.022-.151-1.984c-.058-.773-.132-1.749-.214-2.716h-8.189a2.35 2.35 0 0 0-2.35 2.35v.212c0 10.014 4.528 18.376 13.459 24.854l2.7 1.957q-.521-1.1-1-2.31a48.314 48.314 0 0 1-1.846-5.8z" transform="translate(484.034 11040.748)" style="fill:#fff"/>
            <path data-name="Path 3166" d="M77.077 4.7h2.2a63.047 63.047 0 0 1 .765 7.105c.493 6.561 1.168 15.546 4.1 22.975 3.678 9.334 10.062 14.067 18.975 14.067 8.837 0 15.165-4.658 18.81-13.845 2.906-7.324 3.589-16.266 4.087-22.795a59.14 59.14 0 0 1 .836-7.507h2.325a2.35 2.35 0 1 0 0-4.7h-52.1a2.35 2.35 0 0 0 0 4.7zm22.252 12.005 3.309-2.005a1.36 1.36 0 0 1 .727-.175c.8 0 1.73.476 1.73 1.228v15.942c0 .8-.978 1.2-1.955 1.2s-1.955-.4-1.955-1.2V18.936l-.727.451a1.139 1.139 0 0 1-.627.2c-.727 0-1.228-.777-1.228-1.554a1.5 1.5 0 0 1 .727-1.329z" transform="translate(429.528 11091.574)" style="fill:#fff"/>
        </g>
    </g>
</svg>
