<svg xmlns="http://www.w3.org/2000/svg" width="120.73" height="120.73" viewBox="0 0 120.73 120.73">
  <defs>
    <style>
      .cls-1 {
        fill: #ff7757;
      }

      .cls-2 {
        fill: #fff;
      }

      .cls-3 {
        fill: #003adc;
      }
    </style>
  </defs>
  <g id="Group_2430" data-name="Group 2430" transform="translate(-524 -4674.18)">
    <g id="Group_2427" data-name="Group 2427" transform="translate(524 4674.18)">
      <g id="Group_2426" data-name="Group 2426" transform="translate(0 0)">
        <rect id="Rectangle_1740" data-name="Rectangle 1740" class="cls-1" width="106.822" height="106.822" transform="translate(0 14.966) rotate(-8.054)"/>
        <rect id="Rectangle_1741" data-name="Rectangle 1741" class="cls-2" width="101.958" height="101.958" transform="translate(9.462 9.457)"/>
      </g>
    </g>
    <g id="Group_2428" data-name="Group 2428" transform="translate(556.317 4706.434)">
      <path id="Path_3169" data-name="Path 3169" class="cls-3" d="M471.106,824.965a28.079,28.079,0,0,1-3.262-55.991,27.65,27.65,0,0,1,10.558.83c1.364.356,2.017,1.246,1.72,2.313-.3,1.008-1.246,1.423-2.61,1.068-13.464-3.44-26.75,4.152-30.309,17.319a24.569,24.569,0,1,0,47.45-.178,2.473,2.473,0,0,1-.059-1.6,1.534,1.534,0,0,1,1.6-1.068,1.672,1.672,0,0,1,1.72,1.424,27.647,27.647,0,0,1,1.068,9.846,27.992,27.992,0,0,1-22.42,25.445A21.96,21.96,0,0,1,471.106,824.965Z" transform="translate(-442.835 -768.698)"/>
      <path id="Path_3170" data-name="Path 3170" class="cls-3" d="M496.255,802.522c-.059,10.558-8.126,19.158-18.15,19.632a19.367,19.367,0,1,1,3.2-38.2c1.542.356,2.195,1.127,1.957,2.254s-1.186,1.542-2.728,1.186A15.836,15.836,0,1,0,492.4,799.378c-.415-1.78-.059-2.669,1.127-2.966,1.186-.237,1.9.474,2.313,2.135A17.053,17.053,0,0,1,496.255,802.522Z" transform="translate(-448.825 -774.665)"/>
      <path id="Path_3171" data-name="Path 3171" class="cls-3" d="M517.058,778.934a1.577,1.577,0,0,1-.593,1.246c-2.017,2.076-4.093,4.093-6.109,6.109a2.276,2.276,0,0,1-1.483.652c-2.491.237-5.042.534-7.533.771a2.779,2.779,0,0,0-1.72.83l-9.075,9.075a2.227,2.227,0,0,1-1.246.83,1.635,1.635,0,0,1-1.839-.712,1.533,1.533,0,0,1,.059-2.017,19.676,19.676,0,0,1,1.542-1.6c2.728-2.728,5.457-5.516,8.244-8.244a1.9,1.9,0,0,0,.652-1.424c.237-2.491.534-5.042.771-7.533a2.85,2.85,0,0,1,.89-1.839c1.9-1.9,3.8-3.737,5.694-5.635a1.977,1.977,0,0,1,2.135-.712,1.926,1.926,0,0,1,1.186,1.9c.119,1.661.3,3.262.356,4.923.059.771.3,1.068,1.068,1.127,1.779.059,3.5.237,5.219.415A1.868,1.868,0,0,1,517.058,778.934Z" transform="translate(-460.85 -768.634)"/>
      <path id="Path_3172" data-name="Path 3172" class="cls-3" d="M483.707,819.443c-6.7,0-11.388-4.923-11.21-10.914a10.561,10.561,0,0,1,11.151-10.143c1.364.059,2.135.771,2.076,1.9s-.83,1.661-2.254,1.661a6.99,6.99,0,0,0-7.414,6.287,7.024,7.024,0,1,0,14,1.127,3.216,3.216,0,0,1,.356-1.483,1.725,1.725,0,0,1,1.839-.652,1.67,1.67,0,0,1,1.3,1.72,10.166,10.166,0,0,1-1.127,4.745A10.442,10.442,0,0,1,483.707,819.443Z" transform="translate(-454.901 -780.732)"/>
    </g>
  </g>
</svg>
