<svg xmlns="http://www.w3.org/2000/svg" width="121.468" height="121.468" viewBox="0 0 121.468 121.468">
  <defs>
    <style>
      .cls-1 {
        fill: #ff7757;
      }

      .cls-2 {
        fill: #fff;
      }

      .cls-3 {
        fill: #003adc;
      }
    </style>
  </defs>
  <g id="Group_2429" data-name="Group 2429" transform="translate(-524.005 -4413.789)">
    <g id="Group_2424" data-name="Group 2424" transform="translate(524.005 4413.789)">
      <g id="Group_2423" data-name="Group 2423" transform="translate(0 0)">
        <rect id="Rectangle_1738" data-name="Rectangle 1738" class="cls-1" width="107.475" height="107.475" transform="translate(0 15.057) rotate(-8.054)"/>
        <rect id="Rectangle_1739" data-name="Rectangle 1739" class="cls-2" width="102.581" height="102.581" transform="translate(9.517 9.509)"/>
      </g>
    </g>
    <g id="Group_2425" data-name="Group 2425" transform="translate(558.184 4446.452)">
      <path id="Path_3167" data-name="Path 3167" class="cls-3" d="M482.192,530.381c-.06.836-.119,1.671-.239,2.447a18.353,18.353,0,0,1-13.308,14.8,18.793,18.793,0,0,1-6.8.537,18.382,18.382,0,0,1-15.1-11.875,18.171,18.171,0,0,1,9.19-22.617,16.888,16.888,0,0,1,5.908-1.731,17.7,17.7,0,0,1,11.517,2.506c.477.3.477.3.06.716l-1.79,1.79a.354.354,0,0,1-.418.06,14.569,14.569,0,0,0-8-1.91,15.1,15.1,0,0,0-9.667,4.237,14.349,14.349,0,0,0-4.3,7.817,13.35,13.35,0,0,0-.239,3.461.219.219,0,0,0,.06.179c.06,0,.119-.06.179-.119l6.266-6.266,7.1-7.1a1.705,1.705,0,0,1,2.566,0l5.013,5.013c.418.418.418.418.9,0l8.653-8.653a.224.224,0,0,0,0-.358c-.656-.656-1.313-1.253-1.91-1.91a1.63,1.63,0,0,1,.358-2.626,1.614,1.614,0,0,1,.9-.179h11.4a1.732,1.732,0,0,1,1.79,1.671v11.279a1.644,1.644,0,0,1-1.373,1.85,1.443,1.443,0,0,1-1.372-.418c-.477-.418-.9-.9-1.373-1.372l-.656-.656c-.119-.119-.179-.179-.358,0l-3.461,3.461L472.047,536.05a1.689,1.689,0,0,1-2.626,0l-5.132-5.132c-.119-.119-.239-.179-.358,0L456.95,537.9l-2.984,2.984c-.119.119-.119.179,0,.358a14.275,14.275,0,0,0,7.34,3.64,14.722,14.722,0,0,0,13.367-4.237,14.341,14.341,0,0,0,3.58-5.908.869.869,0,0,1,.358-.537l3.521-3.521C482.073,530.5,482.073,530.5,482.192,530.381Z" transform="translate(-445.628 -508.6)"/>
      <path id="Path_3168" data-name="Path 3168" class="cls-3" d="M518.886,580.774a1.808,1.808,0,0,1-.6,1.313l-3.7,3.7-.716.716a1.689,1.689,0,0,1-2.626,0l-4.177-4.177-11.517-11.517c-.3-.3-.3-.3.06-.477a22.409,22.409,0,0,0,6.564-6.624c.119-.239.239-.119.358,0l15.635,15.635c.119.119.239.179.3.3A1.674,1.674,0,0,1,518.886,580.774Z" transform="translate(-465.673 -530.766)"/>
    </g>
  </g>
</svg>
