<svg data-name="Yahoo News" xmlns="http://www.w3.org/2000/svg" width="109.434" height="40.053" viewBox="0 0 109.434 40.053">
    <path data-name="Path 31" d="m181.386 198.5-6.3 15.146h7l6.347-15.146zm-8.4 20.574a3.793 3.793 0 0 0 3.735 3.837h.1a4 4 0 0 0 4-4 3.768 3.768 0 0 0-3.721-3.823h-.117a4 4 0 0 0-4 4.013zm-6.347-4.8a3.341 3.341 0 1 0-3.341 3.341 3.332 3.332 0 0 0 3.341-3.341zm-18.881 0a3.341 3.341 0 1 0-3.341 3.341 3.332 3.332 0 0 0 3.341-3.341zm-40.505 3.444a3.444 3.444 0 1 1 3.444-3.444 3.394 3.394 0 0 1-3.356 3.444zM79 205.912l7.135 16.853-2.583 6.07h6.274l9.513-22.908H93.1l-3.867 9.805-3.823-9.805H79zm74.357 8.375a8.944 8.944 0 1 1-8.944-8.944 8.936 8.936 0 0 1 8.944 8.944zm18.881 0a8.944 8.944 0 1 1-8.944-8.944 8.936 8.936 0 0 1 8.944 8.944zm-54-15.788v24.119h5.895v-8.9c0-1.736.846-2.772 2.174-2.772s2.072.9 2.072 2.568v9.1h5.895v-10.5c0-4-2.189-6.61-5.72-6.61a5.338 5.338 0 0 0-4.407 2.028V198.5zm-7.675 7.412v1.561a5.727 5.727 0 0 0-4.509-1.955c-4.567 0-8.011 4-8.011 8.769s3.356 8.784 8.011 8.784a5.57 5.57 0 0 0 4.509-2v1.561h5.705v-16.719z" transform="translate(-79 -198.5)" style="fill:#373737"/>
    <path data-name="Path 32" d="M466.647 408.87a2.932 2.932 0 0 1 2.32 1.007 4.522 4.522 0 0 1 .832 3.006v5.092h-3.254v-4.742c0-.788-.379-1.182-1.094-1.182a1.094 1.094 0 0 0-.89.379 1.6 1.6 0 0 0-.306 1.021v4.538H461v-8.828h3.254v.846a2.767 2.767 0 0 1 2.393-1.137z" transform="translate(-405.262 -378.17)" style="fill:#373737"/>
    <path data-name="Path 33" d="M530.786 414.681a1.794 1.794 0 0 0 1.795.876A2.317 2.317 0 0 0 534.1 415l2.13 1.795a4.9 4.9 0 0 1-3.765 1.43 5.06 5.06 0 0 1-3.633-1.328 4.468 4.468 0 0 1-1.342-3.312 4.564 4.564 0 0 1 4.421-4.7h.233a4.489 4.489 0 0 1 4.611 4.334v.306a5.171 5.171 0 0 1-.131 1.153zm0-2.1h2.962a1.344 1.344 0 0 0-1.474-1.021 1.484 1.484 0 0 0-1.532 1.021z" transform="translate(-462.047 -378.189)" style="fill:#373737"/>
    <path data-name="Path 34" d="M603.491 410.8h3.444l-2.554 8.828h-3.312l-1.094-4.158-1.094 4.158h-3.312L593 410.8h3.444l1.021 4.888 1.342-4.888h2.466l1.342 4.888z" transform="translate(-518.001 -379.823)" style="fill:#373737"/>
    <path data-name="Path 35" d="M692.448 411.734c0 .146.1.248.336.336a3.913 3.913 0 0 0 .817.19 6.111 6.111 0 0 1 1.051.233 6.814 6.814 0 0 1 1.065.438 1.99 1.99 0 0 1 .817.846 3.011 3.011 0 0 1 0 2.86 2.463 2.463 0 0 1-1.007.963 5.405 5.405 0 0 1-1.255.467 5.913 5.913 0 0 1-1.342.146c-2.116 0-3.5-.7-4.129-2.1l2.845-1.269a1.214 1.214 0 0 0 1.255.89c.394 0 .584-.131.584-.394s-.146-.277-.438-.379l-1.153-.292a7.265 7.265 0 0 1-1.24-.409 2.53 2.53 0 0 1-1.065-.846 2.96 2.96 0 0 1 .744-3.735 4.216 4.216 0 0 1 2.553-.8 3.679 3.679 0 0 1 3.808 2.247l-2.67.978a1.033 1.033 0 0 0-.992-.744c-.409-.006-.584.169-.584.374z" transform="translate(-599.823 -378.159)" style="fill:#373737"/>
</svg>
