<svg xmlns="http://www.w3.org/2000/svg" width="29.105" height="24.951" viewBox="0 0 29.105 24.951">
    <path data-name="Path 3812" d="M24.983 18.439a.551.551 0 0 0 .583-.583v-3.673a.583.583 0 1 0-1.166 0v3.673a.584.584 0 0 0 .583.583z" transform="translate(-16.005 -13.6)" style="fill:#ff7757"/>
    <path data-name="Path 3813" d="M16.125 20.382a.612.612 0 0 0 .525.291.526.526 0 0 0 .291-.058.645.645 0 0 0 .233-.816l-1.866-3.206a.6.6 0 0 0-1.049.583z" transform="translate(-11.753 -14.727)" style="fill:#ff7757"/>
    <path data-name="Path 3814" d="M16.923 46.241a.59.59 0 0 0-.816.233l-1.866 3.206a.59.59 0 0 0 .233.816.526.526 0 0 0 .291.058.7.7 0 0 0 .525-.291l1.866-3.206a.645.645 0 0 0-.233-.816z" transform="translate(-11.734 -27.178)" style="fill:#ff7757"/>
    <path data-name="Path 3815" d="M24.983 48.1a.551.551 0 0 0-.583.583v3.673a.583.583 0 0 0 1.166 0v-3.673a.551.551 0 0 0-.583-.583z" transform="translate(-16.005 -27.987)" style="fill:#ff7757"/>
    <path data-name="Path 3816" d="M32.509 46.493a.6.6 0 0 0-1.049.583l1.866 3.206a.612.612 0 0 0 .525.291.526.526 0 0 0 .291-.058.645.645 0 0 0 .233-.816z" transform="translate(-18.926 -27.196)" style="fill:#ff7757"/>
    <path data-name="Path 3817" d="M31.7 20.6a.526.526 0 0 0 .291.058.7.7 0 0 0 .525-.291l1.866-3.206a.6.6 0 0 0-1.049-.583l-1.866 3.206a.721.721 0 0 0 .233.816z" transform="translate(-18.933 -14.709)" style="fill:#ff7757"/>
    <path data-name="Path 3818" d="M24.05 27.907a1.678 1.678 0 0 1 1.224-.525 2.479 2.479 0 0 1 .641.117l2.04.758a2.874 2.874 0 0 0-2.914-2.857H12.915A2.923 2.923 0 0 0 10 28.315v5.305a2.923 2.923 0 0 0 2.915 2.915H25.1a2.366 2.366 0 0 0 1.108-.233l-2.508-6.53a1.71 1.71 0 0 1 .35-1.866z" transform="translate(-10 -18.521)" style="fill:#ff7757"/>
    <path data-name="Path 3819" d="m49.348 35.947-13.234-5.072a.635.635 0 0 0-.641.117.532.532 0 0 0-.117.641l5.014 13.292a.51.51 0 0 0 .525.35.56.56 0 0 0 .525-.408l1.108-3.148 2.272 2.448a.564.564 0 0 0 .816 0l2.915-2.915a.63.63 0 0 0 .175-.408.529.529 0 0 0-.175-.408l-2.448-2.215 3.148-1.108a.56.56 0 0 0 .408-.525c.058-.35-.058-.583-.291-.641z" transform="translate(-20.549 -20.79)" style="fill:#ff7757"/>
</svg>
