<svg xmlns="http://www.w3.org/2000/svg" width="22.414" height="25.93" viewBox="0 0 22.414 25.93">
    <path d="M32.125 9.25H16.3a1.54 1.54 0 0 0-1.538 1.538v17.8h-2.853a.659.659 0 0 0-.659.659v3.516a2.42 2.42 0 0 0 2.417 2.417h16.7a3.3 3.3 0 0 0 3.3-3.3v-21.1a1.54 1.54 0 0 0-1.542-1.53zM20.7 11.887a3.271 3.271 0 0 1 2.2.847.659.659 0 0 1-.884.978 1.958 1.958 0 0 0-1.316-.506 1.978 1.978 0 0 0 0 3.955 1.958 1.958 0 0 0 1.316-.506.659.659 0 0 1 .884.978 3.294 3.294 0 1 1-2.2-5.745zM18.062 25.95h1.758a.659.659 0 0 1 0 1.318h-1.758a.659.659 0 1 1 0-1.318zm-.662-1.977a.659.659 0 0 1 .659-.659h1.761a.659.659 0 1 1 0 1.318h-1.758a.659.659 0 0 1-.662-.659zm-4.834 8.79v-2.857h14.5c0 1.36-.2 2.8.676 3.955H13.667a1.1 1.1 0 0 1-1.1-1.1zm17.8-5.494h-7.909a.659.659 0 0 1 0-1.318h7.911a.659.659 0 1 1 0 1.318zm0-2.637h-7.909a.659.659 0 1 1 0-1.318h7.911a.659.659 0 1 1 0 1.318zm0-2.637H18.062a.659.659 0 1 1 0-1.318h12.305a.659.659 0 1 1 0 1.318zm0-3.516h-5.272a.659.659 0 1 1 0-1.318h5.274a.659.659 0 1 1 0 1.318zm0-2.637h-5.272a.659.659 0 1 1 0-1.318h5.274a.659.659 0 1 1 0 1.318zm0-2.637h-5.272a.659.659 0 1 1 0-1.318h5.274a.659.659 0 1 1 0 1.318z" transform="translate(-11.25 -9.25)" style="fill:#ff7757"/>
</svg>
