<svg xmlns="http://www.w3.org/2000/svg" width="25.174" height="23.601" viewBox="0 0 25.174 23.601">
    <g data-name="chat (1)">
        <g data-name="Group 2778">
            <path data-name="Path 3828" d="M12.538 16C5.624 16 0 20.962 0 27.063a10.309 10.309 0 0 0 2.876 7.053 4.485 4.485 0 0 1-1.185 4.226.738.738 0 0 0 .522 1.258 8.132 8.132 0 0 0 5.633-2.275 13.908 13.908 0 0 0 4.692.8c6.913 0 12.636-4.962 12.636-11.063S19.451 16 12.538 16zm-5.8 13.275a2.213 2.213 0 1 1 2.213-2.213 2.215 2.215 0 0 1-2.215 2.213zm5.9 0a2.213 2.213 0 1 1 2.213-2.213 2.215 2.215 0 0 1-2.215 2.213zm5.9 0a2.213 2.213 0 1 1 2.213-2.213 2.215 2.215 0 0 1-2.215 2.213z" transform="translate(0 -16)" style="fill:#ff7757"/>
        </g>
    </g>
</svg>
