<svg xmlns="http://www.w3.org/2000/svg" width="25.65" height="25.936" viewBox="0 0 25.65 25.936">
    <g data-name="Group 2773">
        <path data-name="Path 3804" d="M25.876 1.65H3.77A1.77 1.77 0 0 0 2 3.42v2.6h25.646v-2.6a1.77 1.77 0 0 0-1.77-1.77zM4.482 4.661a.827.827 0 1 1 .827-.827.83.83 0 0 1-.827.827zm3.255 0a.827.827 0 1 1 .827-.827.83.83 0 0 1-.827.827zm3.255 0a.827.827 0 1 1 .827-.827.83.83 0 0 1-.826.827z" transform="translate(-2 -1.65)" style="fill:#ff7757"/>
        <path data-name="Path 3805" d="M7.77 29.829h6.33l-3.161-5.249z" transform="translate(-5.383 -15.095)" style="fill:#ff7757"/>
        <path data-name="Path 3806" d="m22.52 30.781 1.2 1.985h1.435L23.24 29.59z" transform="translate(-14.032 -18.033)" style="fill:#ff7757"/>
        <circle data-name="Ellipse 75" cx="1.034" cy="1.034" r="1.034" transform="translate(9.762 7.851)" style="fill:#ff7757"/>
        <path data-name="Path 3807" d="m46.284 47.832 2.432-1.77a.457.457 0 0 0 0-.736l-2.432-1.77a.456.456 0 0 0-.724.368v3.545a.455.455 0 0 0 .724.363z" transform="translate(-27.542 -26.17)" style="fill:#ff7757"/>
        <path data-name="Path 3808" d="M2 33.174a1.77 1.77 0 0 0 1.77 1.77h22.11a1.77 1.77 0 0 0 1.77-1.77V14.2H2zm15.239-16.906h8.753a.414.414 0 0 1 0 .827h-8.753a.414.414 0 1 1 0-.827zm0 1.787h8.753a.414.414 0 0 1 0 .827h-8.753a.414.414 0 0 1 0-.827zm0 1.783h8.753a.414.414 0 0 1 0 .827h-8.753a.414.414 0 0 1 0-.827zm4 3.938a4.757 4.757 0 1 1-4.757 4.757 4.758 4.758 0 0 1 4.752-4.757zM3.655 15.855h11.21v8.3H3.655zm0 10.039h11.168a.414.414 0 1 1 0 .827H3.655a.414.414 0 1 1 0-.827zm0 1.775h11.168a.414.414 0 0 1 0 .827H3.655a.414.414 0 0 1 0-.827zm0 1.77h11.168a.414.414 0 1 1 0 .827H3.655a.414.414 0 1 1 0-.827zm0 1.77h8.687a.414.414 0 1 1 0 .827H3.655a.414.414 0 1 1 0-.827z" transform="translate(-2 -9.009)" style="fill:#ff7757"/>
    </g>
</svg>
