<svg xmlns="http://www.w3.org/2000/svg" width="28.961" height="18.907" viewBox="0 0 28.961 18.907">
    <path d="M40.359 110.445a9.814 9.814 0 0 0-9.8 9.8 1.058 1.058 0 1 1-2.116 0 11.925 11.925 0 0 1 16.03-11.19 1.058 1.058 0 1 1-.73 1.986 9.776 9.776 0 0 0-3.384-.596zm0-4.678a14.491 14.491 0 0 0-14.076 17.891 1.308 1.308 0 0 0 1.291 1.017h25.57a1.308 1.308 0 0 0 1.291-1.017 14.492 14.492 0 0 0-14.077-17.891zm-2.984 14.481a2.984 2.984 0 1 0 5.7-1.224l5.708-5.708a1.058 1.058 0 1 0-1.5-1.5l-5.707 5.707a2.986 2.986 0 0 0-4.201 2.725z" transform="translate(-25.878 -105.767)" style="fill:#ff7757;fill-rule:evenodd"/>
</svg>
