<svg xmlns="http://www.w3.org/2000/svg" width="24.374" height="25.402" viewBox="0 0 24.374 25.402">
    <g data-name="Group 2780">
        <g data-name="Group 2779">
            <path data-name="Path 3829" d="M33.558 13.028a.744.744 0 0 1 0-.658l.947-1.938a2.205 2.205 0 0 0-.951-2.932l-1.906-1.007a.744.744 0 0 1-.387-.532l-.373-2.125a2.205 2.205 0 0 0-2.488-1.81l-2.136.3a.744.744 0 0 1-.626-.2l-1.55-1.5a2.205 2.205 0 0 0-3.079 0l-1.551 1.5a.745.745 0 0 1-.626.2l-2.136-.3a2.2 2.2 0 0 0-2.496 1.81l-.369 2.124a.745.745 0 0 1-.387.532L11.538 7.5a2.205 2.205 0 0 0-.951 2.928l.947 1.938a.744.744 0 0 1 0 .658l-.947 1.938a2.205 2.205 0 0 0 .951 2.928l1.906 1.011a.744.744 0 0 1 .387.532l.373 2.125a2.2 2.2 0 0 0 2.173 1.842 2.265 2.265 0 0 0 .317-.022l2.136-.3a.744.744 0 0 1 .626.2l1.55 1.5a2.205 2.205 0 0 0 3.079 0l1.551-1.5a.745.745 0 0 1 .626-.2l2.136.3a2.2 2.2 0 0 0 2.491-1.81l.373-2.125a.745.745 0 0 1 .387-.532l1.906-1.011a2.205 2.205 0 0 0 .951-2.928zM19.616 6.106a2.686 2.686 0 1 1-2.686 2.686 2.689 2.689 0 0 1 2.686-2.686zM18.23 18.052a.733.733 0 1 1-1.036-1.036l9.669-9.669A.733.733 0 0 1 27.9 8.383zm7.247 1.24a2.686 2.686 0 1 1 2.686-2.686 2.689 2.689 0 0 1-2.687 2.686z" transform="translate(-10.359 .002)" style="fill:#ff7757"/>
        </g>
    </g>
    <g data-name="Group 2782">
        <g data-name="Group 2781">
            <path data-name="Path 3830" d="M291.673 310.141a1.221 1.221 0 1 0 1.221 1.221 1.222 1.222 0 0 0-1.221-1.221z" transform="translate(-276.556 -294.754)" style="fill:#ff7757"/>
        </g>
    </g>
    <g data-name="Group 2784">
        <g data-name="Group 2783">
            <path data-name="Path 3831" d="M173.554 152.646a1.221 1.221 0 1 0 1.221 1.221 1.222 1.222 0 0 0-1.221-1.221z" transform="translate(-164.297 -145.072)" style="fill:#ff7757"/>
        </g>
    </g>
</svg>
