<svg xmlns="http://www.w3.org/2000/svg" width="73.806" height="74" viewBox="0 0 73.806 74">
    <g data-name="Group 2772">
        <g transform="translate(-2.187)">
            <path data-name="Path 3784" d="M72.88 126.395H7.3a3.114 3.114 0 0 1-3.114-3.114V80.072A3.114 3.114 0 0 1 7.3 76.958h65.58a3.114 3.114 0 0 1 3.114 3.114v43.208a3.114 3.114 0 0 1-3.114 3.115z" transform="translate(-.001 -65.985)" style="fill:#fff"/>
            <path data-name="Rectangle 1856" transform="translate(32.04 60.047)" style="fill:#fff" d="M0 0h16.098v8.887H0z"/>
            <path data-name="Path 3785" d="M199.545 421.149v2.684h7.622a6.2 6.2 0 0 1 6.2 6.2h2.274v-8.887z" transform="translate(-167.504 -361.102)" style="fill:#fff"/>
            <path data-name="Path 3786" d="M4.187 329.556v10.307a3.114 3.114 0 0 0 3.113 3.115h65.579a3.114 3.114 0 0 0 3.114-3.114v-10.308z" transform="translate(0 -282.569)" style="fill:#fff"/>
            <circle data-name="Ellipse 73" cx="2.262" cy="2.262" r="2.262" transform="translate(38.429 51.436)" style="fill:#fff"/>
            <path data-name="Path 3787" d="M221.235 36.548h-19.191a1.119 1.119 0 1 1 0-2.237h19.192a1.119 1.119 0 0 1 0 2.237z" transform="translate(-168.687 -29.419)" style="fill:#fff"/>
            <path data-name="Path 3788" d="M210.59 69.981h-8.547a1.119 1.119 0 1 1 0-2.237h8.547a1.119 1.119 0 1 1 0 2.237z" transform="translate(-168.687 -58.085)" style="fill:#fff"/>
            <path data-name="Path 3789" d="m47.484 76.957 3.929 35.313h51.3l4.759-35.313z" transform="translate(-37.124 -65.985)" style="fill:#fff"/>
            <path data-name="Path 3790" d="M126.345 46.987h-51.3V2.242A2.242 2.242 0 0 1 77.284 0H124.1a2.242 2.242 0 0 1 2.242 2.242v44.745z" transform="translate(-60.753)" style="fill:#fff"/>
            <path data-name="Path 3791" d="M124.1 0H77.284a2.242 2.242 0 0 0-2.242 2.242v14.1h51.3v-14.1A2.242 2.242 0 0 0 124.1 0z" transform="translate(-60.753)" style="fill:#fff"/>
            <path data-name="Path 3792" d="m114.016 32.5-3.682 6.377h7.366z" transform="translate(-91.013 -27.863)" style="fill:#fff"/>
            <path data-name="Path 3793" d="M209.658 30.955h-19.191a1.119 1.119 0 0 1 0-2.237h19.192a1.119 1.119 0 1 1 0 2.237z" transform="translate(-158.761 -24.623)" style="fill:#fff"/>
            <g data-name="Group 2771">
                <path data-name="Path 3794" d="M299.76 153.624h-16.2a1.119 1.119 0 0 1 0-2.237h16.2a1.119 1.119 0 0 1 0 2.237z" transform="translate(-238.582 -129.803)" style="fill:#fff"/>
                <path data-name="Path 3795" d="M299.76 188.127h-16.2a1.119 1.119 0 1 1 0-2.237h16.2a1.119 1.119 0 0 1 0 2.237z" transform="translate(-238.582 -159.387)" style="fill:#fff"/>
                <path data-name="Path 3796" d="M299.76 222.63h-16.2a1.119 1.119 0 1 1 0-2.237h16.2a1.119 1.119 0 0 1 0 2.237z" transform="translate(-238.582 -188.97)" style="fill:#fff"/>
                <path data-name="Path 3797" d="M299.76 257.133h-16.2a1.119 1.119 0 0 1 0-2.237h16.2a1.119 1.119 0 0 1 0 2.237z" transform="translate(-238.582 -218.554)" style="fill:#fff"/>
                <path data-name="Path 3798" d="M291.13 291.636h-7.569a1.119 1.119 0 1 1 0-2.237h7.569a1.119 1.119 0 1 1 0 2.237z" transform="translate(-238.582 -248.137)" style="fill:#fff"/>
            </g>
            <path data-name="Path 3799" d="M199.013 64.39h-8.546a1.119 1.119 0 0 1 0-2.237h8.546a1.119 1.119 0 1 1 0 2.237z" transform="translate(-158.761 -53.291)" style="fill:#fff"/>
            <path data-name="Path 3800" d="M129.856 173.243h-18.424a1.1 1.1 0 0 1-1.1-1.1v-18.422a1.1 1.1 0 0 1 1.1-1.1h18.424a1.1 1.1 0 0 1 1.1 1.1v18.424a1.1 1.1 0 0 1-1.1 1.098z" transform="translate(-91.013 -130.862)" style="fill:#fff"/>
            <path data-name="Path 3801" d="M130.953 243.512v-5.222a5.873 5.873 0 0 0-1.618-.429c-2.847-.319-3.229 1.923-6 2.147-4.089.332-5.278-4.4-9.539-4.141a6.687 6.687 0 0 0-3.467 1.311v6.333a1.1 1.1 0 0 0 1.1 1.1h18.424a1.1 1.1 0 0 0 1.1-1.099z" transform="translate(-91.012 -202.229)" style="fill:#fff"/>
            <circle data-name="Ellipse 74" cx="2.304" cy="2.304" r="2.304" transform="translate(30.278 26.497)" style="fill:#fff"/>
            <path data-name="Path 3802" d="M183.079 481h-18.437a4.451 4.451 0 0 0-4.437 3.888.477.477 0 0 0 .475.532h26.36a.477.477 0 0 0 .475-.532 4.451 4.451 0 0 0-4.436-3.888z" transform="translate(-133.77 -412.42)" style="fill:#fff"/>
            <path data-name="Path 3803" d="M298.167 481h-3.74a4.473 4.473 0 0 1 4.5 4.42h3.232a.477.477 0 0 0 .475-.533 4.487 4.487 0 0 0-4.467-3.887z" transform="translate(-248.858 -412.42)" style="fill:#fff"/>
        </g>
        <g data-name="web-design" transform="translate(-4.187 1)">
            <path data-name="Path 3784" d="M72.88 126.395H7.3a3.114 3.114 0 0 1-3.114-3.114V80.072A3.114 3.114 0 0 1 7.3 76.958h65.58a3.114 3.114 0 0 1 3.114 3.114v43.208a3.114 3.114 0 0 1-3.114 3.115z" transform="translate(-.001 -65.985)" style="fill:#ebedf2"/>
            <path data-name="Rectangle 1856" transform="translate(32.04 60.047)" style="fill:#2aa1f2" d="M0 0h16.098v8.887H0z"/>
            <path data-name="Path 3785" d="M199.545 421.149v2.684h7.622a6.2 6.2 0 0 1 6.2 6.2h2.274v-8.887z" transform="translate(-167.504 -361.102)" style="fill:#64b5f6"/>
            <path data-name="Path 3786" d="M4.187 329.556v10.307a3.114 3.114 0 0 0 3.113 3.115h65.579a3.114 3.114 0 0 0 3.114-3.114v-10.308z" transform="translate(0 -282.569)" style="fill:#64b5f6"/>
            <circle data-name="Ellipse 73" cx="2.262" cy="2.262" r="2.262" transform="translate(38.429 51.436)" style="fill:#2aa1f2"/>
            <path data-name="Path 3787" d="M52.548 7.129H33.357a1.119 1.119 0 1 1 0-2.237h19.192a1.119 1.119 0 0 1 0 2.237z"/>
            <path data-name="Path 3788" d="M41.903 11.896h-8.547a1.119 1.119 0 1 1 0-2.237h8.547a1.119 1.119 0 1 1 0 2.237z"/>
            <path data-name="Path 3789" d="m47.484 76.957 3.929 35.313h51.3l4.759-35.313z" transform="translate(-37.124 -65.985)" style="fill:#d3d9ef"/>
            <path data-name="Path 3790" d="M126.345 46.987h-51.3V2.242A2.242 2.242 0 0 1 77.284 0H124.1a2.242 2.242 0 0 1 2.242 2.242v44.745z" transform="translate(-60.753)" style="fill:#ebedf2"/>
            <path data-name="Path 3791" d="M124.1 0H77.284a2.242 2.242 0 0 0-2.242 2.242v14.1h51.3v-14.1A2.242 2.242 0 0 0 124.1 0z" transform="translate(-60.753)" style="fill:#ff7757"/>
            <path data-name="Path 3792" d="m114.016 32.5-3.682 6.377h7.366z" transform="translate(-91.013 -27.863)" style="fill:#003adc"/>
            <path data-name="Path 3793" d="M209.658 30.955h-19.191a1.119 1.119 0 0 1 0-2.237h19.192a1.119 1.119 0 1 1 0 2.237z" transform="translate(-158.761 -24.623)" style="fill:#fff"/>
            <g data-name="Group 2771">
                <path data-name="Path 3794" d="M299.76 153.624h-16.2a1.119 1.119 0 0 1 0-2.237h16.2a1.119 1.119 0 0 1 0 2.237z" transform="translate(-238.582 -129.803)" style="fill:#9694af"/>
                <path data-name="Path 3795" d="M299.76 188.127h-16.2a1.119 1.119 0 1 1 0-2.237h16.2a1.119 1.119 0 0 1 0 2.237z" transform="translate(-238.582 -159.387)" style="fill:#9694af"/>
                <path data-name="Path 3796" d="M299.76 222.63h-16.2a1.119 1.119 0 1 1 0-2.237h16.2a1.119 1.119 0 0 1 0 2.237z" transform="translate(-238.582 -188.97)" style="fill:#9694af"/>
                <path data-name="Path 3797" d="M299.76 257.133h-16.2a1.119 1.119 0 0 1 0-2.237h16.2a1.119 1.119 0 0 1 0 2.237z" transform="translate(-238.582 -218.554)" style="fill:#9694af"/>
                <path data-name="Path 3798" d="M291.13 291.636h-7.569a1.119 1.119 0 1 1 0-2.237h7.569a1.119 1.119 0 1 1 0 2.237z" transform="translate(-238.582 -248.137)" style="fill:#9694af"/>
            </g>
            <path data-name="Path 3799" d="M199.013 64.39h-8.546a1.119 1.119 0 0 1 0-2.237h8.546a1.119 1.119 0 1 1 0 2.237z" transform="translate(-158.761 -53.291)" style="fill:#fff"/>
            <path data-name="Path 3800" d="M129.856 173.243h-18.424a1.1 1.1 0 0 1-1.1-1.1v-18.422a1.1 1.1 0 0 1 1.1-1.1h18.424a1.1 1.1 0 0 1 1.1 1.1v18.424a1.1 1.1 0 0 1-1.1 1.098z" transform="translate(-91.013 -130.862)" style="fill:#2aa1f2"/>
            <path data-name="Path 3801" d="M130.953 243.512v-5.222a5.873 5.873 0 0 0-1.618-.429c-2.847-.319-3.229 1.923-6 2.147-4.089.332-5.278-4.4-9.539-4.141a6.687 6.687 0 0 0-3.467 1.311v6.333a1.1 1.1 0 0 0 1.1 1.1h18.424a1.1 1.1 0 0 0 1.1-1.099z" transform="translate(-91.012 -202.229)" style="fill:#ff7757"/>
            <circle data-name="Ellipse 74" cx="2.304" cy="2.304" r="2.304" transform="translate(30.278 26.497)" style="fill:#fbc640"/>
            <path data-name="Path 3802" d="M183.079 481h-18.437a4.451 4.451 0 0 0-4.437 3.888.477.477 0 0 0 .475.532h26.36a.477.477 0 0 0 .475-.532 4.451 4.451 0 0 0-4.436-3.888z" transform="translate(-133.77 -412.42)" style="fill:#64b5f6"/>
            <path data-name="Path 3803" d="M298.167 481h-3.74a4.473 4.473 0 0 1 4.5 4.42h3.232a.477.477 0 0 0 .475-.533 4.487 4.487 0 0 0-4.467-3.887z" transform="translate(-248.858 -412.42)" style="fill:#2aa1f2"/>
        </g>
    </g>
</svg>
