<svg xmlns="http://www.w3.org/2000/svg" width="75.737" height="75.513" viewBox="0 0 75.737 75.513">
    <g data-name="Group 2770">
        <path data-name="Path 3773" d="M71.737 48.239a35.868 35.868 0 1 1-35.868-35.868 35.868 35.868 0 0 1 35.868 35.868zm0 0" transform="translate(4 -10.594)" style="fill:#fff"/>
        <path data-name="Path 3774" d="M55.562 192.766H37.479a14.943 14.943 0 0 0-6.38 28.455 5.809 5.809 0 0 1 3.335 5.247v3.205a1.238 1.238 0 0 0 2.261.7l3.54-5.191a5.8 5.8 0 0 1 4.79-2.532h10.536a14.941 14.941 0 1 0 0-29.883zm0 0" transform="translate(-15.302 -165.088)" style="fill:#fff"/>
        <path data-name="Path 3775" d="M36.81 221.22a14.943 14.943 0 0 1 6.38-28.455h-5.71a14.944 14.944 0 0 0-6.38 28.455 5.808 5.808 0 0 1 3.335 5.247v3.205a1.238 1.238 0 0 0 2.261.7l3.355-4.92a5.815 5.815 0 0 0-3.241-4.23zm0 0" transform="translate(-15.303 -165.087)" style="fill:#fff"/>
        <path data-name="Path 3776" d="M105.438 282.363a2.758 2.758 0 1 1-2.758-2.758 2.758 2.758 0 0 1 2.758 2.758zm0 0" transform="translate(-81.575 -239.459)" style="fill:#fff"/>
        <path data-name="Path 3777" d="M175.876 282.363a2.758 2.758 0 1 1-2.758-2.758 2.758 2.758 0 0 1 2.758 2.758zm0 0" transform="translate(-141.899 -239.459)" style="fill:#fff"/>
        <path data-name="Path 3778" d="M246.314 282.363a2.758 2.758 0 1 1-2.758-2.758 2.758 2.758 0 0 1 2.758 2.758zm0 0" transform="translate(-202.223 -239.459)" style="fill:#fff"/>
        <path data-name="Path 3779" d="M157.168 0h18.082a14.944 14.944 0 0 1 6.381 28.455A5.808 5.808 0 0 0 178.3 33.7v3.205a1.238 1.238 0 0 1-2.261.7l-3.54-5.192a5.8 5.8 0 0 0-4.79-2.531h-10.541a14.941 14.941 0 1 1 0-29.883zm0 0" transform="translate(-117.806 .001)" style="fill:#fff"/>
        <path data-name="Path 3780" d="M173.852 29.321h-10.536a14.943 14.943 0 0 1-7.688-27.755 14.942 14.942 0 0 0 1.54 29.8H167.7a5.8 5.8 0 0 1 4.79 2.532l3.54 5.191a1.238 1.238 0 0 0 2.261-.7V35.19a5.769 5.769 0 0 1 .721-2.792l-.373-.546a5.8 5.8 0 0 0-4.79-2.532zm0 0" transform="translate(-117.805 -1.34)" style="fill:#fff"/>
        <g data-name="Group 2769">
            <path data-name="Path 3781" d="M366 89.6a2.758 2.758 0 1 1-2.758-2.758A2.758 2.758 0 0 1 366 89.6zm0 0" transform="translate(-304.726 -74.371)" style="fill:#fff"/>
            <path data-name="Path 3782" d="M295.563 89.6a2.758 2.758 0 1 1-2.758-2.758 2.758 2.758 0 0 1 2.758 2.758zm0 0" transform="translate(-244.402 -74.371)" style="fill:#fff"/>
            <path data-name="Path 3783" d="M225.122 89.6a2.758 2.758 0 1 1-2.758-2.758 2.758 2.758 0 0 1 2.758 2.758zm0 0" transform="translate(-184.074 -74.371)" style="fill:#fff"/>
        </g>
        <g data-name="speak">
            <path data-name="Path 3773" d="M71.737 48.239a35.868 35.868 0 1 1-35.868-35.868 35.868 35.868 0 0 1 35.868 35.868zm0 0" transform="translate(0 -8.594)" style="fill:#ff7757"/>
            <path data-name="Path 3774" d="M55.562 192.766H37.479a14.943 14.943 0 0 0-6.38 28.455 5.809 5.809 0 0 1 3.335 5.247v3.205a1.238 1.238 0 0 0 2.261.7l3.54-5.191a5.8 5.8 0 0 1 4.79-2.532h10.536a14.941 14.941 0 1 0 0-29.883zm0 0" transform="translate(-19.302 -163.088)" style="fill:#f8fafd"/>
            <path data-name="Path 3775" d="M36.81 221.22a14.943 14.943 0 0 1 6.38-28.455h-5.71a14.944 14.944 0 0 0-6.38 28.455 5.808 5.808 0 0 1 3.335 5.247v3.205a1.238 1.238 0 0 0 2.261.7l3.355-4.92a5.815 5.815 0 0 0-3.241-4.23zm0 0" transform="translate(-19.303 -163.087)" style="fill:#ddd"/>
            <path data-name="Path 3776" d="M105.438 282.363a2.758 2.758 0 1 1-2.758-2.758 2.758 2.758 0 0 1 2.758 2.758zm0 0" transform="translate(-85.575 -237.459)" style="fill:#ff7757"/>
            <path data-name="Path 3777" d="M175.876 282.363a2.758 2.758 0 1 1-2.758-2.758 2.758 2.758 0 0 1 2.758 2.758zm0 0" transform="translate(-145.899 -237.459)" style="fill:#ff7757"/>
            <path data-name="Path 3778" d="M246.314 282.363a2.758 2.758 0 1 1-2.758-2.758 2.758 2.758 0 0 1 2.758 2.758zm0 0" transform="translate(-206.223 -237.459)" style="fill:#ff7757"/>
            <path data-name="Path 3779" d="M157.168 0h18.082a14.944 14.944 0 0 1 6.381 28.455A5.808 5.808 0 0 0 178.3 33.7v3.205a1.238 1.238 0 0 1-2.261.7l-3.54-5.192a5.8 5.8 0 0 0-4.79-2.531h-10.541a14.941 14.941 0 1 1 0-29.883zm0 0" transform="translate(-121.806 2.001)" style="fill:#64b5f6"/>
            <path data-name="Path 3780" d="M173.852 29.321h-10.536a14.943 14.943 0 0 1-7.688-27.755 14.942 14.942 0 0 0 1.54 29.8H167.7a5.8 5.8 0 0 1 4.79 2.532l3.54 5.191a1.238 1.238 0 0 0 2.261-.7V35.19a5.769 5.769 0 0 1 .721-2.792l-.373-.546a5.8 5.8 0 0 0-4.79-2.532zm0 0" transform="translate(-121.805 .66)" style="fill:#2980ba"/>
            <g data-name="Group 2769">
                <path data-name="Path 3781" d="M366 89.6a2.758 2.758 0 1 1-2.758-2.758A2.758 2.758 0 0 1 366 89.6zm0 0" transform="translate(-308.726 -72.371)" style="fill:#f8fafd"/>
                <path data-name="Path 3782" d="M295.563 89.6a2.758 2.758 0 1 1-2.758-2.758 2.758 2.758 0 0 1 2.758 2.758zm0 0" transform="translate(-248.402 -72.371)" style="fill:#f8fafd"/>
                <path data-name="Path 3783" d="M225.122 89.6a2.758 2.758 0 1 1-2.758-2.758 2.758 2.758 0 0 1 2.758 2.758zm0 0" transform="translate(-188.074 -72.371)" style="fill:#f8fafd"/>
            </g>
        </g>
    </g>
</svg>
