<svg xmlns="http://www.w3.org/2000/svg" width="75.978" height="74.954" viewBox="0 0 75.978 74.954">
    <g data-name="Group 2754">
        <g data-name="Group 2747">
            <g data-name="Group 2746">
                <path data-name="Path 3702" d="M72.757 0h-8.93a2.195 2.195 0 0 0-2.2 2.2v2.2H43.66a6.549 6.549 0 0 0-12.366 0H13.322V2.2a2.195 2.195 0 0 0-2.2-2.2H2.2A2.195 2.195 0 0 0 0 2.2v8.784a2.195 2.195 0 0 0 2.2 2.2h8.93a2.195 2.195 0 0 0 2.2-2.2v-2.23h9.01A28.646 28.646 0 0 0 9.094 31.242a6.568 6.568 0 1 0 4.383.1A24.1 24.1 0 0 1 31.646 9.589a6.532 6.532 0 0 0 11.661 0 24.1 24.1 0 0 1 18.169 21.753 6.606 6.606 0 1 0 4.383-.1A28.593 28.593 0 0 0 52.613 8.784h9.018v2.2a2.195 2.195 0 0 0 2.2 2.2h8.93a2.195 2.195 0 0 0 2.2-2.2V2.2A2.195 2.195 0 0 0 72.757 0z" style="fill:#fff" transform="translate(1.025)"/>
            </g>
        </g>
        <g data-name="Group 2749">
            <g data-name="Group 2748">
                <path data-name="Path 3703" d="M183.269 457.206a8.93 8.93 0 0 0-8.352-6.206h-13.175a8.93 8.93 0 0 0-8.352 6.206 2.163 2.163 0 0 0 2.136 2.724h25.607a2.163 2.163 0 0 0 2.136-2.724z" transform="translate(-129.828 -384.977)" style="fill:#fff"/>
            </g>
        </g>
        <g data-name="Group 2751">
            <g data-name="Group 2750">
                <path data-name="Path 3704" d="m160.157 157.257-17.2-25.8v20.832a6.588 6.588 0 1 1-4.392 0v-20.83l-17.2 25.8a2.2 2.2 0 0 0 .274 2.771 27.728 27.728 0 0 1 7.6 14.8 13.077 13.077 0 0 1 4.929-.977h13.175a13.079 13.079 0 0 1 4.93.976 27.726 27.726 0 0 1 7.6-14.795 2.2 2.2 0 0 0 .284-2.777z" transform="translate(-102.261 -112.214)" style="fill:#fff"/>
            </g>
        </g>
        <g data-name="Group 2753">
            <g data-name="Group 2752">
                <path data-name="Path 3705" d="M243.2 301a2.2 2.2 0 1 0 2.2 2.2 2.2 2.2 0 0 0-2.2-2.2z" transform="translate(-204.694 -256.936)" style="fill:#fff"/>
            </g>
        </g>
        <g data-name="vector">
            <g data-name="Group 2747">
                <g data-name="Group 2746">
                    <path data-name="Path 3702" d="M72.757 0h-8.93a2.195 2.195 0 0 0-2.2 2.2v2.2H43.66a6.549 6.549 0 0 0-12.366 0H13.322V2.2a2.195 2.195 0 0 0-2.2-2.2H2.2A2.195 2.195 0 0 0 0 2.2v8.784a2.195 2.195 0 0 0 2.2 2.2h8.93a2.195 2.195 0 0 0 2.2-2.2v-2.23h9.01A28.646 28.646 0 0 0 9.094 31.242a6.568 6.568 0 1 0 4.383.1A24.1 24.1 0 0 1 31.646 9.589a6.532 6.532 0 0 0 11.661 0 24.1 24.1 0 0 1 18.169 21.753 6.606 6.606 0 1 0 4.383-.1A28.593 28.593 0 0 0 52.613 8.784h9.018v2.2a2.195 2.195 0 0 0 2.2 2.2h8.93a2.195 2.195 0 0 0 2.2-2.2V2.2A2.195 2.195 0 0 0 72.757 0z" style="fill:#64b5f6"/>
                </g>
            </g>
            <g data-name="Group 2749">
                <g data-name="Group 2748">
                    <path data-name="Path 3703" d="M183.269 457.206a8.93 8.93 0 0 0-8.352-6.206h-13.175a8.93 8.93 0 0 0-8.352 6.206 2.163 2.163 0 0 0 2.136 2.724h25.607a2.163 2.163 0 0 0 2.136-2.724z" transform="translate(-130.853 -384.977)" style="fill:#ff7757"/>
                </g>
            </g>
            <g data-name="Group 2751">
                <g data-name="Group 2750">
                    <path data-name="Path 3704" d="m160.157 157.257-17.2-25.8v20.832a6.588 6.588 0 1 1-4.392 0v-20.83l-17.2 25.8a2.2 2.2 0 0 0 .274 2.771 27.728 27.728 0 0 1 7.6 14.8 13.077 13.077 0 0 1 4.929-.977h13.175a13.079 13.079 0 0 1 4.93.976 27.726 27.726 0 0 1 7.6-14.795 2.2 2.2 0 0 0 .284-2.777z" transform="translate(-103.286 -112.214)" style="fill:#ff7757"/>
                </g>
            </g>
            <g data-name="Group 2753">
                <g data-name="Group 2752">
                    <path data-name="Path 3705" d="M243.2 301a2.2 2.2 0 1 0 2.2 2.2 2.2 2.2 0 0 0-2.2-2.2z" transform="translate(-205.719 -256.936)" style="fill:#ff7757"/>
                </g>
            </g>
        </g>
    </g>
</svg>
