<svg xmlns="http://www.w3.org/2000/svg" width="77.657" height="75.99" viewBox="0 0 77.657 75.99">
    <g data-name="Group 2758">
        <g transform="translate(1 -2.649)">
            <rect data-name="Rectangle 1853" width="74" height="55" rx="5" transform="translate(2 9.65)" style="fill:#fff"/>
            <g data-name="Group 2757">
                <path data-name="Path 3726" d="M53.406 34.2A6.2 6.2 0 0 0 49.71 23h-7.466A1.248 1.248 0 0 0 41 24.244v19.909a1.248 1.248 0 0 0 1.244 1.247h7.466a6.2 6.2 0 0 0 3.7-11.2zm-9.917-8.71h6.221a3.733 3.733 0 1 1 0 7.466h-6.221zm6.221 17.42h-6.221v-7.467h6.221a3.733 3.733 0 1 1 0 7.466z" transform="translate(9.527 5.125)" style="fill:#fff"/>
                <path data-name="Path 3727" d="M28.346 43.717 20.88 23.809a1.25 1.25 0 0 0-2.339 0l-7.466 19.908a1.25 1.25 0 0 0 2.339.883l2.5-6.669a.253.253 0 0 0 .062.012h7.466a.167.167 0 0 0 .062-.012l2.5 6.669a1.247 1.247 0 0 0 1.17.809 1.282 1.282 0 0 0 .436-.075 1.249 1.249 0 0 0 .734-1.605zm-11.5-8.275 2.874-7.652 2.88 7.653h-5.739z" transform="translate(2.198 5.125)" style="fill:#fff"/>
                <path data-name="Path 3728" d="M32.244 51.863A1.248 1.248 0 0 1 31 50.619V23.244a1.244 1.244 0 1 1 2.489 0v27.375a1.248 1.248 0 0 1-1.245 1.244z" transform="translate(7.084 4.881)" style="fill:#fff"/>
                <path data-name="Path 3729" d="m51.213 63.127-6.221-12.443A1.243 1.243 0 0 0 43.884 50h-17.42a1.216 1.216 0 0 0-1.107.684l-6.221 12.443a1.26 1.26 0 0 0 .05 1.207 1.243 1.243 0 0 0 1.058.585h29.862a1.243 1.243 0 0 0 1.058-.585 1.227 1.227 0 0 0 .049-1.207z" transform="translate(4.154 11.721)" style="fill:#fff"/>
            </g>
            <path data-name="Path 3730" d="M76.657 44H2v3.733a6.224 6.224 0 0 0 6.221 6.221h62.215a6.224 6.224 0 0 0 6.221-6.221z" transform="translate(0 10.255)" style="fill:#fff"/>
            <ellipse data-name="Ellipse 72" cx="14" cy="13.5" rx="14" ry="13.5" transform="translate(25 2.65)" style="fill:#fff"/>
            <path data-name="Path 3731" d="M30.978 20.2a1.275 1.275 0 0 1-.883-.361L26.361 16.1a1.241 1.241 0 0 1 1.754-1.754l2.85 2.854 7.827-7.827a1.241 1.241 0 1 1 1.754 1.754l-8.71 8.71a1.222 1.222 0 0 1-.883.361z" transform="translate(5.862 1.707)" style="fill:#fff"/>
        </g>
        <g data-name="ab-testing" transform="translate(-2 -.649)">
            <rect data-name="Rectangle 1853" width="74" height="55" rx="5" transform="translate(2 9.65)" style="fill:#f1f2f2"/>
            <g data-name="Group 2757">
                <path data-name="Path 3726" d="M53.406 34.2A6.2 6.2 0 0 0 49.71 23h-7.466A1.248 1.248 0 0 0 41 24.244v19.909a1.248 1.248 0 0 0 1.244 1.247h7.466a6.2 6.2 0 0 0 3.7-11.2zm-9.917-8.71h6.221a3.733 3.733 0 1 1 0 7.466h-6.221zm6.221 17.42h-6.221v-7.467h6.221a3.733 3.733 0 1 1 0 7.466z" transform="translate(9.527 5.125)" style="fill:#0a0f26"/>
                <path data-name="Path 3727" d="M28.346 43.717 20.88 23.809a1.25 1.25 0 0 0-2.339 0l-7.466 19.908a1.25 1.25 0 0 0 2.339.883l2.5-6.669a.253.253 0 0 0 .062.012h7.466a.167.167 0 0 0 .062-.012l2.5 6.669a1.247 1.247 0 0 0 1.17.809 1.282 1.282 0 0 0 .436-.075 1.249 1.249 0 0 0 .734-1.605zm-11.5-8.275 2.874-7.652 2.88 7.653h-5.739z" transform="translate(2.198 5.125)" style="fill:#0a0f26"/>
                <path data-name="Path 3728" d="M32.244 51.863A1.248 1.248 0 0 1 31 50.619V23.244a1.244 1.244 0 1 1 2.489 0v27.375a1.248 1.248 0 0 1-1.245 1.244z" transform="translate(7.084 4.881)" style="fill:#0a0f26"/>
                <path data-name="Path 3729" d="m51.213 63.127-6.221-12.443A1.243 1.243 0 0 0 43.884 50h-17.42a1.216 1.216 0 0 0-1.107.684l-6.221 12.443a1.26 1.26 0 0 0 .05 1.207 1.243 1.243 0 0 0 1.058.585h29.862a1.243 1.243 0 0 0 1.058-.585 1.227 1.227 0 0 0 .049-1.207z" transform="translate(4.154 11.721)" style="fill:#0a0f26"/>
            </g>
            <path data-name="Path 3730" d="M76.657 44H2v3.733a6.224 6.224 0 0 0 6.221 6.221h62.215a6.224 6.224 0 0 0 6.221-6.221z" transform="translate(0 10.255)" style="fill:#64b5f6"/>
            <ellipse data-name="Ellipse 72" cx="14" cy="13.5" rx="14" ry="13.5" transform="translate(25 2.65)" style="fill:#ff7757"/>
            <path data-name="Path 3731" d="M30.978 20.2a1.275 1.275 0 0 1-.883-.361L26.361 16.1a1.241 1.241 0 0 1 1.754-1.754l2.85 2.854 7.827-7.827a1.241 1.241 0 1 1 1.754 1.754l-8.71 8.71a1.222 1.222 0 0 1-.883.361z" transform="translate(5.862 1.707)" style="fill:#fff"/>
        </g>
    </g>
</svg>
