<svg xmlns="http://www.w3.org/2000/svg" width="85.343" height="78.386" viewBox="0 0 85.343 78.386">
  <defs>
    <style>
      .cls-1 {
        fill: #fff;
      }

      .cls-2 {
        fill: #022a9b;
      }

      .cls-3 {
        fill: #c3ddff;
      }

      .cls-4 {
        fill: #dbeaff;
      }

      .cls-5 {
        fill: #ff7757;
      }

      .cls-6 {
        fill: #e1674a;
      }

      .cls-7 {
        fill: #dad8db;
      }

      .cls-8 {
        fill: #64b5f6;
      }

      .cls-9 {
        fill: #2980ba;
      }

      .cls-10 {
        fill: #404040;
      }

      .cls-11 {
        fill: #c8c5c9;
      }

      .cls-12 {
        fill: #6f6571;
      }

      .cls-13 {
        fill: #a4ccff;
      }
    </style>
  </defs>
  <g id="Group_2768" data-name="Group 2768" transform="translate(-83 -6322.019)">
    <g id="rocket" transform="translate(85 6303.722)">
      <path id="Path_3756" data-name="Path 3756" class="cls-1" d="M41.29,200.633V150.9a4.033,4.033,0,0,1,4.033-4.033h61.835a4.033,4.033,0,0,1,4.033,4.033v49.737" transform="translate(-34.569 -107.639)"/>
      <path id="Path_3757" data-name="Path 3757" class="cls-1" d="M120.986,209.084H118.3l-1.587-1.495H63.861l-2.022,1.495H59.151a1.344,1.344,0,0,1-1.344-1.344V164.724a1.344,1.344,0,0,1,1.344-1.344h61.835a1.344,1.344,0,0,1,1.344,1.344V207.74A1.344,1.344,0,0,1,120.986,209.084Z" transform="translate(-48.397 -121.466)"/>
      <path id="Path_3758" data-name="Path 3758" class="cls-1" d="M130.781,220.223H77.011a2.688,2.688,0,0,1-2.688-2.688v-34.95a2.688,2.688,0,0,1,2.688-2.688h53.77a2.688,2.688,0,0,1,2.688,2.688v34.95A2.689,2.689,0,0,1,130.781,220.223Z" transform="translate(-62.225 -135.294)"/>
      <path id="Path_3759" data-name="Path 3759" class="cls-1" d="M162.053,209.055l-4.178,4.875a4.032,4.032,0,0,0-.971,2.624v1.6a1.344,1.344,0,0,0,2,1.175l5.791-3.217Z" transform="translate(-131.363 -159.706)"/>
      <path id="Path_3760" data-name="Path 3760" class="cls-1" d="M191.176,198.615l4.31-2.394-4.033-8.065-2.916,3.4A34.705,34.705,0,0,0,191.176,198.615Z" transform="translate(-157.847 -142.208)"/>
      <path id="Path_3761" data-name="Path 3761" class="cls-1" d="M284.806,188.154l7.095,8.277a4.032,4.032,0,0,1,.971,2.624v1.6a1.344,1.344,0,0,1-2,1.175l-10.1-5.612Z" transform="translate(-235.069 -142.207)"/>
      <path id="Path_3762" data-name="Path 3762" class="cls-1" d="M8.258,462.014v2.937h79.31l2.688-1.593v-1.344a1.344,1.344,0,0,0-1.344-1.344H9.6a1.344,1.344,0,0,0-1.344,1.344Z" transform="translate(-6.914 -370.364)"/>
      <path id="Path_3763" data-name="Path 3763" class="cls-1" d="M222.818,70.155l-11.736-2.07a32.764,32.764,0,0,0,1.858,31.643l8.651-2.688a32.864,32.864,0,0,0,1.227-26.885Z" transform="translate(-174.036 -41.683)"/>
      <path id="Path_3764" data-name="Path 3764" class="cls-1" d="M206.8,103.432a2.726,2.726,0,0,1-2.484-1.65,32.694,32.694,0,0,1-.445-25.235l-.825-.826-2.553.827a32.666,32.666,0,0,0-2.3,12.1,32.32,32.32,0,0,0,5.067,17.475l4.1,1.654,4.587-1.654c.552-.863,1.07-1.767,1.541-2.688Z" transform="translate(-165.932 -48.076)"/>
      <path id="Path_3765" data-name="Path 3765" class="cls-1" d="M233.549,267.853h-7.5a1.344,1.344,0,0,1-1.32-1.6l.727-3.779h8.686l.727,3.779A1.345,1.345,0,0,1,233.549,267.853Z" transform="translate(-188.128 -204.431)"/>
      <path id="Path_3766" data-name="Path 3766" class="cls-1" d="M238.84,128.357c0,1.636-.522,3.081-1.922,3.713a4.035,4.035,0,0,1-5.338-5.33c.631-1.4,2.041-1.937,3.679-1.937A3.285,3.285,0,0,1,238.84,128.357Z" transform="translate(-193.587 -89.169)"/>
      <path id="Path_3767" data-name="Path 3767" class="cls-1" d="M2.688,460.67H1.344A1.344,1.344,0,0,0,0,462.014v1.344a2.689,2.689,0,0,0,2.688,2.688H80.654a2.689,2.689,0,0,0,2.688-2.688H5.377a2.688,2.688,0,0,1-2.688-2.688Z" transform="translate(0 -370.364)"/>
      <path id="Path_3768" data-name="Path 3768" class="cls-1" d="M111.19,477.186H41.29" transform="translate(-34.569 -384.191)"/>
      <path id="Path_3769" data-name="Path 3769" class="cls-1" d="M129.631,337.952a9.372,9.372,0,0,0-3.076.525,6.65,6.65,0,0,0-10.634-2.961,5.316,5.316,0,0,0,.268-1.6,5.377,5.377,0,0,0-10.754,0,5.316,5.316,0,0,0,.268,1.6,6.65,6.65,0,0,0-10.634,2.961,9.39,9.39,0,0,0-12.486,8.885h56.458A9.41,9.41,0,0,0,129.631,337.952Z" transform="translate(-69.14 -259.743)"/>
      <path id="Path_3770" data-name="Path 3770" class="cls-1" d="M238.5,25.9s-5.16,1.8-5.434,8.936h10.844A31.53,31.53,0,0,0,238.5,25.9Z" transform="translate(-195.129 -6.362)"/>
      <path id="Path_3771" data-name="Path 3771" class="cls-1" d="M221.127,19.534c-.24-.278-.483-.55-.733-.819a1.331,1.331,0,0,0-1.937,0,31.465,31.465,0,0,0-6.142,9.756h3.378A31.955,31.955,0,0,1,221.127,19.534Z" transform="translate(-177.755)"/>
      <path id="Path_3772" data-name="Path 3772" class="cls-1" d="M237.079,122.09a4.04,4.04,0,0,0-3.679,2.379,4.031,4.031,0,0,1,5.338,5.33,4.033,4.033,0,0,0-1.66-7.709Z" transform="translate(-195.407 -86.897)"/>
    </g>
    <g id="rocket-2" data-name="rocket" transform="translate(83 6304.722)">
      <path id="Path_3756-2" data-name="Path 3756" class="cls-2" d="M41.29,200.633V150.9a4.033,4.033,0,0,1,4.033-4.033h61.835a4.033,4.033,0,0,1,4.033,4.033v49.737" transform="translate(-34.569 -107.639)"/>
      <path id="Path_3757-2" data-name="Path 3757" class="cls-3" d="M120.986,209.084H118.3l-1.587-1.495H63.861l-2.022,1.495H59.151a1.344,1.344,0,0,1-1.344-1.344V164.724a1.344,1.344,0,0,1,1.344-1.344h61.835a1.344,1.344,0,0,1,1.344,1.344V207.74A1.344,1.344,0,0,1,120.986,209.084Z" transform="translate(-48.397 -121.466)"/>
      <path id="Path_3758-2" data-name="Path 3758" class="cls-4" d="M130.781,220.223H77.011a2.688,2.688,0,0,1-2.688-2.688v-34.95a2.688,2.688,0,0,1,2.688-2.688h53.77a2.688,2.688,0,0,1,2.688,2.688v34.95A2.689,2.689,0,0,1,130.781,220.223Z" transform="translate(-62.225 -135.294)"/>
      <path id="Path_3759-2" data-name="Path 3759" class="cls-5" d="M162.053,209.055l-4.178,4.875a4.032,4.032,0,0,0-.971,2.624v1.6a1.344,1.344,0,0,0,2,1.175l5.791-3.217Z" transform="translate(-131.363 -159.706)"/>
      <path id="Path_3760-2" data-name="Path 3760" class="cls-6" d="M191.176,198.615l4.31-2.394-4.033-8.065-2.916,3.4A34.705,34.705,0,0,0,191.176,198.615Z" transform="translate(-157.847 -142.208)"/>
      <path id="Path_3761-2" data-name="Path 3761" class="cls-5" d="M284.806,188.154l7.095,8.277a4.032,4.032,0,0,1,.971,2.624v1.6a1.344,1.344,0,0,1-2,1.175l-10.1-5.612Z" transform="translate(-235.069 -142.207)"/>
      <path id="Path_3762-2" data-name="Path 3762" class="cls-7" d="M8.258,462.014v2.937h79.31l2.688-1.593v-1.344a1.344,1.344,0,0,0-1.344-1.344H9.6a1.344,1.344,0,0,0-1.344,1.344Z" transform="translate(-6.914 -370.364)"/>
      <path id="Path_3763-2" data-name="Path 3763" class="cls-8" d="M222.818,70.155l-11.736-2.07a32.764,32.764,0,0,0,1.858,31.643l8.651-2.688a32.864,32.864,0,0,0,1.227-26.885Z" transform="translate(-174.036 -41.683)"/>
      <path id="Path_3764-2" data-name="Path 3764" class="cls-9" d="M206.8,103.432a2.726,2.726,0,0,1-2.484-1.65,32.694,32.694,0,0,1-.445-25.235l-.825-.826-2.553.827a32.666,32.666,0,0,0-2.3,12.1,32.32,32.32,0,0,0,5.067,17.475l4.1,1.654,4.587-1.654c.552-.863,1.07-1.767,1.541-2.688Z" transform="translate(-165.932 -48.076)"/>
      <path id="Path_3765-2" data-name="Path 3765" class="cls-10" d="M233.549,267.853h-7.5a1.344,1.344,0,0,1-1.32-1.6l.727-3.779h8.686l.727,3.779A1.345,1.345,0,0,1,233.549,267.853Z" transform="translate(-188.128 -204.431)"/>
      <path id="Path_3766-2" data-name="Path 3766" class="cls-3" d="M238.84,128.357c0,1.636-.522,3.081-1.922,3.713a4.035,4.035,0,0,1-5.338-5.33c.631-1.4,2.041-1.937,3.679-1.937A3.285,3.285,0,0,1,238.84,128.357Z" transform="translate(-193.587 -89.169)"/>
      <path id="Path_3767-2" data-name="Path 3767" class="cls-11" d="M2.688,460.67H1.344A1.344,1.344,0,0,0,0,462.014v1.344a2.689,2.689,0,0,0,2.688,2.688H80.654a2.689,2.689,0,0,0,2.688-2.688H5.377a2.688,2.688,0,0,1-2.688-2.688Z" transform="translate(0 -370.364)"/>
      <path id="Path_3768-2" data-name="Path 3768" class="cls-12" d="M111.19,477.186H41.29" transform="translate(-34.569 -384.191)"/>
      <path id="Path_3769-2" data-name="Path 3769" class="cls-1" d="M129.631,337.952a9.372,9.372,0,0,0-3.076.525,6.65,6.65,0,0,0-10.634-2.961,5.316,5.316,0,0,0,.268-1.6,5.377,5.377,0,0,0-10.754,0,5.316,5.316,0,0,0,.268,1.6,6.65,6.65,0,0,0-10.634,2.961,9.39,9.39,0,0,0-12.486,8.885h56.458A9.41,9.41,0,0,0,129.631,337.952Z" transform="translate(-69.14 -259.743)"/>
      <path id="Path_3770-2" data-name="Path 3770" class="cls-5" d="M238.5,25.9s-5.16,1.8-5.434,8.936h10.844A31.53,31.53,0,0,0,238.5,25.9Z" transform="translate(-195.129 -6.362)"/>
      <path id="Path_3771-2" data-name="Path 3771" class="cls-6" d="M221.127,19.534c-.24-.278-.483-.55-.733-.819a1.331,1.331,0,0,0-1.937,0,31.465,31.465,0,0,0-6.142,9.756h3.378A31.955,31.955,0,0,1,221.127,19.534Z" transform="translate(-177.755)"/>
      <path id="Path_3772-2" data-name="Path 3772" class="cls-13" d="M237.079,122.09a4.04,4.04,0,0,0-3.679,2.379,4.031,4.031,0,0,1,5.338,5.33,4.033,4.033,0,0,0-1.66-7.709Z" transform="translate(-195.407 -86.897)"/>
    </g>
  </g>
</svg>
