<svg xmlns="http://www.w3.org/2000/svg" width="25.042" height="25.042" viewBox="0 0 25.042 25.042">
    <g data-name="Layer 51">
        <path data-name="Path 3832" d="M8.779 19.66v-8.9h-2.89A2.9 2.9 0 0 0 3 13.649v11.789a2.9 2.9 0 0 0 2.889 2.889h11.789a2.9 2.9 0 0 0 2.889-2.889v-2.889h-8.9a2.9 2.9 0 0 1-2.888-2.889z" transform="translate(-3 -3.286)" style="fill:#ff7757"/>
        <path data-name="Path 3833" d="M25.438 3H13.649a2.9 2.9 0 0 0-2.889 2.889v11.789a2.9 2.9 0 0 0 2.889 2.889h11.789a2.9 2.9 0 0 0 2.889-2.889V5.889A2.9 2.9 0 0 0 25.438 3zm0 8.668a.963.963 0 0 1-1.926 0V7.816H19.66a.963.963 0 1 1 0-1.926h3.853a1.926 1.926 0 0 1 1.926 1.926z" transform="translate(-3.286 -3)" style="fill:#ff7757"/>
    </g>
</svg>
