<svg xmlns="http://www.w3.org/2000/svg" width="27.404" height="27.419" viewBox="0 0 27.404 27.419">
    <g data-name="Layer 2" transform="translate(-2.345 -2.251)">
        <path data-name="Path 3825" d="m29.71 10.8-.31-4.14a1.771 1.771 0 0 0-1.58-1.62 17.674 17.674 0 0 1-4.06-.91 17.8 17.8 0 0 1-3.38-1.62 1.764 1.764 0 0 0-1.84 0 17.515 17.515 0 0 1-3.38 1.62 17.561 17.561 0 0 1-4.06.91 1.762 1.762 0 0 0-1.57 1.62l-.32 4.14a11.759 11.759 0 0 0 .66 4.92l1.87-2.19a2.476 2.476 0 0 1 1.89-.86 2.267 2.267 0 0 1 .63.08 5.248 5.248 0 1 1 5.24 5.5 5.168 5.168 0 0 1-3.76-1.6l-1.1 3.29h1.27a3.174 3.174 0 0 1 3.13 3.75 1.52 1.52 0 0 0 .42.06 1.726 1.726 0 0 0 .66-.13l2.15-.86a11.83 11.83 0 0 0 7.44-11.96z" style="fill:#ff7757"/>
        <path data-name="Path 3826" d="M18.366 15.851a1.007 1.007 0 0 1-.707-.293l-1.386-1.386a1 1 0 0 1 1.414-1.414l.675.674 2.948-2.987a1 1 0 0 1 1.423 1.405l-3.655 3.7a1.026 1.026 0 0 1-.7.3z" style="fill:#ff7757"/>
        <rect data-name="Rectangle 1859" width="3.655" height="9.816" rx=".998" transform="translate(2.345 19.849)" style="fill:#ff7757"/>
        <path data-name="Path 3827" d="m18.03 23.65-1.09 4.36a2.2 2.2 0 0 1-2.12 1.66H10.2a5.489 5.489 0 0 1-2.455-.58L7.553 29A.994.994 0 0 1 7 28.106c0-1.6 0-5.85-.007-7.122a.985.985 0 0 1 .24-.649L12.5 14.18a1.484 1.484 0 0 1 2.53 1.43l-1.78 5.33h2.66a2.184 2.184 0 0 1 2.12 2.71z" style="fill:#ff7757"/>
    </g>
</svg>
