<svg data-name="responsive (2)" xmlns="http://www.w3.org/2000/svg" width="25.657" height="25.657" viewBox="0 0 25.657 25.657">
    <g data-name="Group 2775">
        <g data-name="Group 2774">
            <path data-name="Path 3810" d="M17.1 0H2.138A2.144 2.144 0 0 0 0 2.138v21.381a2.145 2.145 0 0 0 2.138 2.138h10.69V10.69A4.28 4.28 0 0 1 17.1 6.414h2.138V2.138A2.144 2.144 0 0 0 17.1 0zM9.621 23.519H7.483a1.069 1.069 0 1 1 0-2.138h2.138a1.069 1.069 0 1 1 0 2.138z" style="fill:#ff7757"/>
        </g>
    </g>
    <g data-name="Group 2777">
        <g data-name="Group 2776">
            <path data-name="Path 3811" d="M247.487 136.535h-6.414a2.145 2.145 0 0 0-2.138 2.138V151.5a2.145 2.145 0 0 0 2.138 2.138h6.414a2.145 2.145 0 0 0 2.138-2.138v-12.827a2.145 2.145 0 0 0-2.138-2.138zM244.28 151.5a1.069 1.069 0 1 1 1.069-1.069 1.068 1.068 0 0 1-1.069 1.069z" transform="translate(-223.968 -127.983)" style="fill:#ff7757"/>
        </g>
    </g>
</svg>
