<svg xmlns="http://www.w3.org/2000/svg" width="25.867" height="25.867" viewBox="0 0 25.867 25.867">
    <g data-name="search (5)">
        <path data-name="Path 3834" d="M24.324 4H9.543A5.547 5.547 0 0 0 4 9.543v14.781a5.547 5.547 0 0 0 5.543 5.543h14.781a5.547 5.547 0 0 0 5.543-5.543V9.543A5.547 5.547 0 0 0 24.324 4zM24 25.492a.464.464 0 0 1-.365-.176L19.7 20.37a6.576 6.576 0 1 1 .721-.573l3.931 4.947a.464.464 0 0 1-.36.748z" style="fill:#ff7757" transform="translate(-4 -4)"/>
        <path data-name="Path 3835" d="M27.783 17.622a5.653 5.653 0 1 0-.924 7.954 5.671 5.671 0 0 0 .924-7.954z" transform="translate(-11.371 -10.19)" style="fill:#ff7757"/>
    </g>
</svg>
