<svg xmlns="http://www.w3.org/2000/svg" width="27.876" height="24.596" viewBox="0 0 27.876 24.596">
    <g transform="translate(-3.5 -4.5)">
        <path data-name="Path 3809" d="M27.276 4.5H7.6a4.1 4.1 0 0 0-4.1 4.1V25a4.1 4.1 0 0 0 4.1 4.1h19.676a4.1 4.1 0 0 0 4.1-4.1V8.6a4.1 4.1 0 0 0-4.1-4.1zM7.6 6.14h19.676a2.468 2.468 0 0 1 2.312 1.64H5.287A2.468 2.468 0 0 1 7.6 6.14zm0 9.019a.82.82 0 1 1 0-1.64h4.919a.82.82 0 1 1 0 1.64zm4.1 3.279a.812.812 0 0 1-.82.82H7.6a.82.82 0 1 1 0-1.64h3.279a.812.812 0 0 1 .821.82zm.82 4.919H7.6a.82.82 0 1 1 0-1.64h4.919a.82.82 0 1 1 0 1.64zm16.97 3.853a.812.812 0 0 1-1.164 0l-3.034-3.034a7.253 7.253 0 0 1-4.575 1.64 7.379 7.379 0 1 1 7.383-7.378 7.253 7.253 0 0 1-1.64 4.575l3.034 3.034a.812.812 0 0 1 0 1.164z" style="fill:#ff7757"/>
        <ellipse data-name="Ellipse 76" cx="6" cy="5.5" rx="6" ry="5.5" transform="translate(14.5 13.096)" style="fill:#ff7757"/>
    </g>
</svg>
