<svg xmlns="http://www.w3.org/2000/svg" width="25.865" height="22.308" viewBox="0 0 25.865 22.308">
    <g data-name="Group 2722">
        <g data-name="Group 2721">
            <path data-name="Path 3649" d="M122.033 162.724a2.918 2.918 0 1 0 2.918 2.917 2.921 2.921 0 0 0-2.918-2.917z" transform="translate(-113.099 -156.282)" style="fill:#ff7757"/>
        </g>
    </g>
    <g data-name="Group 2724">
        <g data-name="Group 2723">
            <path data-name="Path 3650" d="M24.937 35.2H.928a.928.928 0 0 0-.928.927V51a.928.928 0 0 0 .928.928h.44l4.146-4.146a.284.284 0 0 0 .02-.382A4.425 4.425 0 1 1 7.1 48.6a.283.283 0 0 0-.318.057l-3.271 3.27h21.426a.929.929 0 0 0 .928-.927V36.127a.929.929 0 0 0-.928-.927zm-8.861 13.153a.758.758 0 1 1-1.515 0v-2.924a.758.758 0 0 1 1.515 0zm2.374 0a.758.758 0 1 1-1.515 0v-7.974a.758.758 0 0 1 1.515 0zm2.413 0a.758.758 0 0 1-1.515 0V42.4a.758.758 0 0 1 1.515 0zm2.415 0a.758.758 0 1 1-1.515 0v-3.934a.758.758 0 1 1 1.515 0z" transform="translate(0 -35.199)" style="fill:#ff7757"/>
        </g>
    </g>
    <g data-name="Group 2726">
        <g data-name="Group 2725">
            <path data-name="Path 3651" d="M139.582 395.767h-.005a15.3 15.3 0 0 0-3.648-1.055v-1.438a.283.283 0 0 0-.283-.283h-4.259a.283.283 0 0 0-.283.283v1.44a15.3 15.3 0 0 0-3.628 1.049.771.771 0 0 0-.428.972.758.758 0 0 0 1.008.428 13.774 13.774 0 0 1 5.462-1.125h.016a13.8 13.8 0 0 1 5.447 1.121h.01a.758.758 0 1 0 .593-1.394z" transform="translate(-120.583 -374.914)" style="fill:#ff7757"/>
        </g>
    </g>
    <g data-name="Group 2728">
        <g data-name="Group 2727">
            <path data-name="Path 3652" d="M1.539 366.324.4 367.464a.758.758 0 0 0 1.071 1.071l2.208-2.211z" transform="translate(-.171 -349.596)" style="fill:#ff7757"/>
        </g>
    </g>
</svg>
