<svg xmlns="http://www.w3.org/2000/svg" width="23.806" height="22.043" viewBox="0 0 23.806 22.043">
    <path d="M24.1 3.5H4.7a2.2 2.2 0 0 0-2.2 2.2v3.09h13.226l3-3a2.645 2.645 0 0 1 4.259 3h3.324V5.7A2.2 2.2 0 0 0 24.1 3.5zM7.349 7.027a.882.882 0 1 1 .882-.882.882.882 0 0 1-.882.882zm3.527 0a.882.882 0 1 1 .882-.882.882.882 0 0 1-.882.882zm11.463 2.645-5.379 5.343a1.323 1.323 0 0 1-.935.388h-1.869a1.323 1.323 0 0 1-1.323-1.323v-1.869a1.323 1.323 0 0 1 .388-.935l1.6-1.6H2.5v13.663a2.2 2.2 0 0 0 2.2 2.2h19.4a2.2 2.2 0 0 0 2.2-2.2V9.672zM6.468 14.081h3.527a.441.441 0 0 1 0 .882H6.468a.441.441 0 0 1 0-.882zm0 3.527h12.344a.441.441 0 0 1 0 .882H6.468a.441.441 0 0 1 0-.882zm15.871 4.409H6.468a.441.441 0 0 1 0-.882h15.871a.441.441 0 0 1 0 .882zm-.52-15.6a1.763 1.763 0 0 1 0 2.5l-5.475 5.475a.432.432 0 0 1-.317.132h-1.871a.441.441 0 0 1-.441-.441v-1.872a.414.414 0 0 1 .132-.309l5.484-5.484a1.763 1.763 0 0 1 2.486 0z" transform="translate(-2.5 -3.5)" style="fill:#ff7757"/>
</svg>
