<svg xmlns="http://www.w3.org/2000/svg" width="22.983" height="28.797" viewBox="0 0 22.983 28.797">
    <path data-name="Path 3653" d="m29.369 34.044-3.917-3.332a9.522 9.522 0 0 0-1.621-11.392c-.225-.225-.5-.45-.72-.675a10.408 10.408 0 0 1-1.126 2.612 6.878 6.878 0 1 1-9.816-.045 13.447 13.447 0 0 1-1.126-2.612c-.27.225-.5.45-.765.675A9.583 9.583 0 0 0 21.67 34.45L25 38.367a3.082 3.082 0 1 0 4.368-4.323z" transform="translate(-7.475 -10.675)" style="fill:#ff7757"/>
    <path data-name="Path 3654" d="M22.048 16.039s5.493-4.368 5.493-9.591a5.471 5.471 0 1 0-10.941.045c0 5.088 5.448 9.546 5.448 9.546zm-2.566-9.546a2.567 2.567 0 0 1 5.133 0 2.567 2.567 0 0 1-5.133 0z" transform="translate(-12.491 -1)" style="fill:#ff7757"/>
</svg>
