<svg xmlns="http://www.w3.org/2000/svg" width="74.424" height="77.675" viewBox="0 0 74.424 77.675">
    <g data-name="Group 2680">
        <g data-name="responsive (1)" transform="translate(-8.998)">
            <path data-name="Path 3580" d="M15.792 76.226h62.837a36.212 36.212 0 1 0-62.837 0z" transform="translate(0 -18.746)" style="fill:#fff"/>
            <path data-name="Path 3581" d="M132.325 57.122a4.817 4.817 0 0 1-4.816 4.816h47.285v-4.816z" transform="translate(-99.29 -48.679)" style="fill:#fff"/>
            <path data-name="Path 3582" d="M43.43 57.122v4.816h12.729a4.817 4.817 0 0 0 4.816-4.816z" transform="translate(-27.638 -48.679)" style="fill:#fff"/>
            <path data-name="Path 3583" d="M179.377 114V87.668h-45.6s-2.447 3.157.768 5.58v16.043a3.023 3.023 0 0 0 0 4.958V146.4a36.054 36.054 0 0 0 16.537 3.99c.179 0 .356 0 .535-.007a2.834 2.834 0 0 1-.037-.445V114z" transform="translate(-103.873 -74.71)" style="fill:#fff"/>
            <path data-name="Path 3584" d="M43.43 87.668v44.523a36.376 36.376 0 0 0 15.177 14.356v-32.3a3.023 3.023 0 0 1 0-4.958V93.248c-3.215-2.423-.768-5.58-.768-5.58z" transform="translate(-27.638 -74.71)" style="fill:#fff"/>
            <path data-name="Path 3585" d="M188.766 0H150.7a2.04 2.04 0 0 0 0 2.891l.2 2.809a2.12 2.12 0 0 0 .659 3.022h42.469V5.26A5.276 5.276 0 0 0 188.766 0z" transform="translate(-118.522)" style="fill:#fff"/>
            <path data-name="Path 3586" d="M48.69 0a5.276 5.276 0 0 0-5.26 5.26v3.463h17.545a2.12 2.12 0 0 1-.659-3.023l-.193-2.81a2.04 2.04 0 0 1 0-2.891H48.69z" transform="translate(-27.638)" style="fill:#fff"/>
            <path data-name="Path 3587" d="M79.145 19.734a1.7 1.7 0 1 1-1.7-1.7 1.7 1.7 0 0 1 1.7 1.7z" transform="translate(-55.185 -15.372)" style="fill:#fff"/>
            <path data-name="Path 3588" d="M110.864 19.734a1.7 1.7 0 1 1-1.7-1.7 1.7 1.7 0 0 1 1.7 1.7z" transform="translate(-82.216 -15.372)" style="fill:#fff"/>
            <circle data-name="Ellipse 67" cx="1.696" cy="1.696" r="1.696" transform="rotate(-45 19.888 -33.115)" style="fill:#fff"/>
            <path data-name="Path 3589" d="M202.249 22.988a1.131 1.131 0 0 1 1.131-1.131h-10.091a1.131 1.131 0 0 0 0 2.262h10.091a1.131 1.131 0 0 1-1.131-1.131z" transform="translate(-154.384 -18.626)" style="fill:#fff"/>
            <path data-name="Path 3590" d="M268.025 22.988a1.131 1.131 0 0 0-1.131-1.131h-7.376a1.131 1.131 0 1 0 0 2.262h7.376a1.131 1.131 0 0 0 1.131-1.131z" transform="translate(-210.824 -18.626)" style="fill:#fff"/>
            <g data-name="Group 2671">
                <path data-name="Path 3591" d="M393.409 24.119h-1.474a1.131 1.131 0 0 1 0-2.262h1.474a1.131 1.131 0 1 1 0 2.262z" transform="translate(-323.669 -18.626)" style="fill:#fff"/>
            </g>
            <g data-name="Group 2672">
                <path data-name="Path 3592" d="M358.73 24.119h-1.474a1.131 1.131 0 0 1 0-2.262h1.474a1.131 1.131 0 0 1 0 2.262z" transform="translate(-294.115 -18.626)" style="fill:#fff"/>
            </g>
            <path data-name="Path 3593" d="M181.834 125.422h-37.726v16.043h37.727a1.524 1.524 0 0 0 1.524-1.524v-12.995a1.524 1.524 0 0 0-1.525-1.524z" transform="translate(-113.435 -106.884)" style="fill:#fff"/>
            <path data-name="Path 3594" d="M81.184 126.947v12.994a1.524 1.524 0 0 0 1.524 1.524h8.072v-16.043h-8.072a1.525 1.525 0 0 0-1.524 1.525z" transform="translate(-59.812 -106.884)" style="fill:#fff"/>
            <path data-name="Path 3595" d="M334.8 224h-18.342a4.931 4.931 0 0 0-1.358 3.237 3.74 3.74 0 0 0 1.352 2.668c-.06.073-.133.168-.213.281h21.542v-3.21A2.986 2.986 0 0 0 334.8 224z" transform="translate(-259.153 -190.889)" style="fill:#fff"/>
            <path data-name="Path 3596" d="M267.566 224h-7.222a2.986 2.986 0 0 0-2.977 2.977v3.21h9.945a3.372 3.372 0 0 1 .255-.3c-3.251-2.765-.001-5.887-.001-5.887z" transform="translate(-209.955 -190.889)" style="fill:#fff"/>
            <g data-name="Group 2673">
                <path data-name="Path 3597" d="M94.11 271.275h-8.632a1.885 1.885 0 1 1 0-3.77h8.632a1.885 1.885 0 1 1 0 3.77z" transform="translate(-61.865 -227.967)" style="fill:#fff"/>
            </g>
            <g data-name="Group 2674">
                <path data-name="Path 3598" d="M103.8 313.846H84.724a1.131 1.131 0 1 1 0-2.262H103.8a1.131 1.131 0 0 1 0 2.262z" transform="translate(-61.865 -265.531)" style="fill:#fff"/>
            </g>
            <g data-name="Group 2675">
                <path data-name="Path 3599" d="M103.8 344.7H84.724a1.131 1.131 0 1 1 0-2.262H103.8a1.131 1.131 0 1 1 0 2.262z" transform="translate(-61.865 -291.825)" style="fill:#fff"/>
            </g>
            <g data-name="Group 2676">
                <path data-name="Path 3600" d="M103.8 375.553H84.724a1.131 1.131 0 1 1 0-2.262H103.8a1.131 1.131 0 0 1 0 2.262z" transform="translate(-61.865 -318.117)" style="fill:#fff"/>
            </g>
            <g data-name="Group 2677">
                <path data-name="Path 3601" d="M103.8 406.407H84.724a1.131 1.131 0 1 1 0-2.262H103.8a1.131 1.131 0 0 1 0 2.262z" transform="translate(-61.865 -344.411)" style="fill:#fff"/>
            </g>
            <path data-name="Path 3602" d="M103.918 435H84.845a1.131 1.131 0 0 0-1.11.916q.7.693 1.438 1.346h18.745a1.131 1.131 0 1 0 0-2.262z" transform="translate(-61.986 -370.704)" style="fill:#fff"/>
            <path data-name="Path 3603" d="M128.749 465.851h-15.876a36.266 36.266 0 0 0 3.557 2.262h12.319a1.131 1.131 0 1 0 0-2.262z" transform="translate(-86.818 -396.997)" style="fill:#fff"/>
            <path data-name="Path 3604" d="M288.346 235.584a1.62 1.62 0 1 1-1.62-1.62 1.62 1.62 0 0 1 1.62 1.62z" transform="translate(-233.594 -199.383)" style="fill:#fff"/>
            <path data-name="Path 3605" d="M318.651 235.584a1.62 1.62 0 1 1-1.62-1.62 1.62 1.62 0 0 1 1.62 1.62z" transform="translate(-259.42 -199.383)" style="fill:#fff"/>
            <path data-name="Path 3606" d="M348.956 235.584a1.62 1.62 0 1 1-1.62-1.62 1.62 1.62 0 0 1 1.62 1.62z" transform="translate(-285.246 -199.383)" style="fill:#fff"/>
            <path data-name="Path 3607" d="m318.6 263.812.021.02a3.5 3.5 0 0 0 .09 4.9v11.682a3.2 3.2 0 0 0-.957 2.055 2.982 2.982 0 0 0 .957 2.178v11.237a3.089 3.089 0 0 0-.23 2.173 2.642 2.642 0 0 0 .487.912 36.3 36.3 0 0 0 20.986-16.669v-18.488z" transform="translate(-261.325 -224.82)" style="fill:#fff"/>
            <path data-name="Path 3608" d="M257.367 263.81v35.935a2.95 2.95 0 0 0 .1.744 36.193 36.193 0 0 0 10.363-1.6 2.683 2.683 0 0 1-.262-2.96v-11.377a2.66 2.66 0 0 1 0-4.047v-11.869a3.348 3.348 0 0 1 0-4.826h-10.2z" transform="translate(-209.955 -224.818)" style="fill:#fff"/>
            <path data-name="Path 3609" d="M339.447 296.465h-15.185l.083.091v11.682a1.26 1.26 0 0 0-.091.1h15.193a1.312 1.312 0 0 0 1.312-1.312v-9.245a1.312 1.312 0 0 0-1.312-1.316z" transform="translate(-266.956 -252.646)" style="fill:#fff"/>
            <path data-name="Path 3610" d="M290.019 297.776v9.245a1.312 1.312 0 0 0 1.312 1.312h4.062v-11.869h-4.062a1.312 1.312 0 0 0-1.312 1.312z" transform="translate(-237.781 -252.646)" style="fill:#fff"/>
            <g data-name="Group 2678">
                <path data-name="Path 3611" d="M311 406.407h-19.073a1.131 1.131 0 1 1 0-2.262H311a1.131 1.131 0 1 1 0 2.262z" transform="translate(-238.443 -343.968)" style="fill:#fff"/>
            </g>
            <g data-name="Group 2679">
                <path data-name="Path 3612" d="M311.743 435.277A1.125 1.125 0 0 0 311 435h-19.073a1.131 1.131 0 1 0 0 2.262h17.749q1.072-.953 2.067-1.985z" transform="translate(-238.443 -370.703)" style="fill:#fff"/>
                <path data-name="Path 3613" d="M291.926 465.851a1.131 1.131 0 1 0 0 2.262h11.323a36.213 36.213 0 0 0 3.557-2.262z" transform="translate(-238.442 -396.997)" style="fill:#fff"/>
            </g>
        </g>
        <g data-name="responsive (1)" transform="translate(-10.998 2)">
            <path data-name="Path 3580" d="M15.792 76.226h62.837a36.212 36.212 0 1 0-62.837 0z" transform="translate(0 -18.746)" style="fill:#ff7757"/>
            <path data-name="Path 3581" d="M132.325 57.122a4.817 4.817 0 0 1-4.816 4.816h47.285v-4.816z" transform="translate(-99.29 -48.679)" style="fill:#52bbef"/>
            <path data-name="Path 3582" d="M43.43 57.122v4.816h12.729a4.817 4.817 0 0 0 4.816-4.816z" transform="translate(-27.638 -48.679)" style="fill:#3c58a0"/>
            <path data-name="Path 3583" d="M179.377 114V87.668h-45.6s-2.447 3.157.768 5.58v16.043a3.023 3.023 0 0 0 0 4.958V146.4a36.054 36.054 0 0 0 16.537 3.99c.179 0 .356 0 .535-.007a2.834 2.834 0 0 1-.037-.445V114z" transform="translate(-103.873 -74.71)" style="fill:#fff"/>
            <path data-name="Path 3584" d="M43.43 87.668v44.523a36.376 36.376 0 0 0 15.177 14.356v-32.3a3.023 3.023 0 0 1 0-4.958V93.248c-3.215-2.423-.768-5.58-.768-5.58z" transform="translate(-27.638 -74.71)" style="fill:#ebebeb"/>
            <path data-name="Path 3585" d="M188.766 0H150.7a2.04 2.04 0 0 0 0 2.891l.2 2.809a2.12 2.12 0 0 0 .659 3.022h42.469V5.26A5.276 5.276 0 0 0 188.766 0z" transform="translate(-118.522)" style="fill:#484848"/>
            <path data-name="Path 3586" d="M48.69 0a5.276 5.276 0 0 0-5.26 5.26v3.463h17.545a2.12 2.12 0 0 1-.659-3.023l-.193-2.81a2.04 2.04 0 0 1 0-2.891H48.69z" transform="translate(-27.638)" style="fill:#2e2e2e"/>
            <path data-name="Path 3587" d="M79.145 19.734a1.7 1.7 0 1 1-1.7-1.7 1.7 1.7 0 0 1 1.7 1.7z" transform="translate(-55.185 -15.372)" style="fill:#ff4155"/>
            <path data-name="Path 3588" d="M110.864 19.734a1.7 1.7 0 1 1-1.7-1.7 1.7 1.7 0 0 1 1.7 1.7z" transform="translate(-82.216 -15.372)" style="fill:#ffdd40"/>
            <circle data-name="Ellipse 67" cx="1.696" cy="1.696" r="1.696" transform="rotate(-45 19.888 -33.115)" style="fill:#88ce65"/>
            <path data-name="Path 3589" d="M202.249 22.988a1.131 1.131 0 0 1 1.131-1.131h-10.091a1.131 1.131 0 0 0 0 2.262h10.091a1.131 1.131 0 0 1-1.131-1.131z" transform="translate(-154.384 -18.626)" style="fill:#3c58a0"/>
            <path data-name="Path 3590" d="M268.025 22.988a1.131 1.131 0 0 0-1.131-1.131h-7.376a1.131 1.131 0 1 0 0 2.262h7.376a1.131 1.131 0 0 0 1.131-1.131z" transform="translate(-210.824 -18.626)" style="fill:#6289cc"/>
            <g data-name="Group 2671">
                <path data-name="Path 3591" d="M393.409 24.119h-1.474a1.131 1.131 0 0 1 0-2.262h1.474a1.131 1.131 0 1 1 0 2.262z" transform="translate(-323.669 -18.626)" style="fill:#6289cc"/>
            </g>
            <g data-name="Group 2672">
                <path data-name="Path 3592" d="M358.73 24.119h-1.474a1.131 1.131 0 0 1 0-2.262h1.474a1.131 1.131 0 0 1 0 2.262z" transform="translate(-294.115 -18.626)" style="fill:#3c58a0"/>
            </g>
            <path data-name="Path 3593" d="M181.834 125.422h-37.726v16.043h37.727a1.524 1.524 0 0 0 1.524-1.524v-12.995a1.524 1.524 0 0 0-1.525-1.524z" transform="translate(-113.435 -106.884)" style="fill:#003adc"/>
            <path data-name="Path 3594" d="M81.184 126.947v12.994a1.524 1.524 0 0 0 1.524 1.524h8.072v-16.043h-8.072a1.525 1.525 0 0 0-1.524 1.525z" transform="translate(-59.812 -106.884)" style="fill:#0331b1"/>
            <path data-name="Path 3595" d="M334.8 224h-18.342a4.931 4.931 0 0 0-1.358 3.237 3.74 3.74 0 0 0 1.352 2.668c-.06.073-.133.168-.213.281h21.542v-3.21A2.986 2.986 0 0 0 334.8 224z" transform="translate(-259.153 -190.889)" style="fill:#313131"/>
            <path data-name="Path 3596" d="M57.611 33.111h-7.222a2.986 2.986 0 0 0-2.977 2.977v3.21h9.945a3.372 3.372 0 0 1 .255-.3c-3.251-2.765-.001-5.887-.001-5.887z"/>
            <g data-name="Group 2673">
                <path data-name="Path 3597" d="M94.11 271.275h-8.632a1.885 1.885 0 1 1 0-3.77h8.632a1.885 1.885 0 1 1 0 3.77z" transform="translate(-61.865 -227.967)" style="fill:#0331b1"/>
            </g>
            <g data-name="Group 2674">
                <path data-name="Path 3598" d="M103.8 313.846H84.724a1.131 1.131 0 1 1 0-2.262H103.8a1.131 1.131 0 0 1 0 2.262z" transform="translate(-61.865 -265.531)" style="fill:#0331b1"/>
            </g>
            <g data-name="Group 2675">
                <path data-name="Path 3599" d="M103.8 344.7H84.724a1.131 1.131 0 1 1 0-2.262H103.8a1.131 1.131 0 1 1 0 2.262z" transform="translate(-61.865 -291.825)" style="fill:#0331b1"/>
            </g>
            <g data-name="Group 2676">
                <path data-name="Path 3600" d="M103.8 375.553H84.724a1.131 1.131 0 1 1 0-2.262H103.8a1.131 1.131 0 0 1 0 2.262z" transform="translate(-61.865 -318.117)" style="fill:#0331b1"/>
            </g>
            <g data-name="Group 2677">
                <path data-name="Path 3601" d="M103.8 406.407H84.724a1.131 1.131 0 1 1 0-2.262H103.8a1.131 1.131 0 0 1 0 2.262z" transform="translate(-61.865 -344.411)" style="fill:#0331b1"/>
            </g>
            <path data-name="Path 3602" d="M103.918 435H84.845a1.131 1.131 0 0 0-1.11.916q.7.693 1.438 1.346h18.745a1.131 1.131 0 1 0 0-2.262z" transform="translate(-61.986 -370.704)" style="fill:#0331b1"/>
            <path data-name="Path 3603" d="M128.749 465.851h-15.876a36.266 36.266 0 0 0 3.557 2.262h12.319a1.131 1.131 0 1 0 0-2.262z" transform="translate(-86.818 -396.997)" style="fill:#0331b1"/>
            <path data-name="Path 3604" d="M288.346 235.584a1.62 1.62 0 1 1-1.62-1.62 1.62 1.62 0 0 1 1.62 1.62z" transform="translate(-233.594 -199.383)" style="fill:#ff4155"/>
            <path data-name="Path 3605" d="M318.651 235.584a1.62 1.62 0 1 1-1.62-1.62 1.62 1.62 0 0 1 1.62 1.62z" transform="translate(-259.42 -199.383)" style="fill:#ffdd40"/>
            <path data-name="Path 3606" d="M348.956 235.584a1.62 1.62 0 1 1-1.62-1.62 1.62 1.62 0 0 1 1.62 1.62z" transform="translate(-285.246 -199.383)" style="fill:#88ce65"/>
            <path data-name="Path 3607" d="m318.6 263.812.021.02a3.5 3.5 0 0 0 .09 4.9v11.682a3.2 3.2 0 0 0-.957 2.055 2.982 2.982 0 0 0 .957 2.178v11.237a3.089 3.089 0 0 0-.23 2.173 2.642 2.642 0 0 0 .487.912 36.3 36.3 0 0 0 20.986-16.669v-18.488z" transform="translate(-261.325 -224.82)" style="fill:#fff"/>
            <path data-name="Path 3608" d="M257.367 263.81v35.935a2.95 2.95 0 0 0 .1.744 36.193 36.193 0 0 0 10.363-1.6 2.683 2.683 0 0 1-.262-2.96v-11.377a2.66 2.66 0 0 1 0-4.047v-11.869a3.348 3.348 0 0 1 0-4.826h-10.2z" transform="translate(-209.955 -224.818)" style="fill:#ebebeb"/>
            <path data-name="Path 3609" d="M339.447 296.465h-15.185l.083.091v11.682a1.26 1.26 0 0 0-.091.1h15.193a1.312 1.312 0 0 0 1.312-1.312v-9.245a1.312 1.312 0 0 0-1.312-1.316z" transform="translate(-266.956 -252.646)" style="fill:#deeeff"/>
            <path data-name="Path 3610" d="M290.019 297.776v9.245a1.312 1.312 0 0 0 1.312 1.312h4.062v-11.869h-4.062a1.312 1.312 0 0 0-1.312 1.312z" transform="translate(-237.781 -252.646)" style="fill:#becaf5"/>
            <g data-name="Group 2678">
                <path data-name="Path 3611" d="M311 406.407h-19.073a1.131 1.131 0 1 1 0-2.262H311a1.131 1.131 0 1 1 0 2.262z" transform="translate(-238.443 -343.968)" style="fill:#003adc"/>
            </g>
            <g data-name="Group 2679">
                <path data-name="Path 3612" d="M311.743 435.277A1.125 1.125 0 0 0 311 435h-19.073a1.131 1.131 0 1 0 0 2.262h17.749q1.072-.953 2.067-1.985z" transform="translate(-238.443 -370.703)" style="fill:#003adc"/>
                <path data-name="Path 3613" d="M291.926 465.851a1.131 1.131 0 1 0 0 2.262h11.323a36.213 36.213 0 0 0 3.557-2.262z" transform="translate(-238.442 -396.997)" style="fill:#003adc"/>
            </g>
        </g>
    </g>
</svg>
