<svg xmlns="http://www.w3.org/2000/svg" width="80.431" height="76.583" viewBox="0 0 80.431 76.583">
    <g data-name="Group 2670">
        <g data-name="search (3)" transform="translate(2 -11.5)">
            <circle data-name="Ellipse 64" cx="37.291" cy="37.291" r="37.291" transform="translate(1.912 11.5)" style="fill:#fff"/>
            <path data-name="Path 3550" d="M86.8 156.689a.613.613 0 0 1 .613-.613h17.623v-32.864H55.384v1.536a.4.4 0 0 1-.4.4H38.351V160.8a37.7 37.7 0 0 0 11.554 13.317H86.8v-17.428z" transform="translate(-32.476 -95.001)" style="fill:#fff"/>
            <path data-name="Path 3551" d="M38.351 135.823v35.654a37.555 37.555 0 0 0 3.04 4.9v-40.554z" transform="translate(-32.476 -105.68)" style="fill:#fff"/>
            <path data-name="Path 3552" d="M197.581 69.011h-48.038v8.456h49.648v-6.845a1.615 1.615 0 0 0-1.61-1.611z" transform="translate(-126.635 -49.103)" style="fill:#fff"/>
            <path data-name="Path 3553" d="M420.695 89.709h-3.866a1.149 1.149 0 1 1 0-2.3h3.866a1.149 1.149 0 0 1 0 2.3z" transform="translate(-352.004 -64.684)" style="fill:#fff"/>
            <path data-name="Path 3554" d="M130.447 160.508a.722.722 0 0 1-.72.72H75.711a.722.722 0 0 1-.72-.72v-7.2a.723.723 0 0 1 .72-.72h54.015a.722.722 0 0 1 .72.72v7.2z" transform="translate(-63.504 -119.875)" style="fill:#fff"/>
            <path data-name="Path 3555" d="M78.031 160.508v-7.2a.723.723 0 0 1 .72-.72h-3.04a.723.723 0 0 0-.72.72v7.2a.722.722 0 0 0 .72.72h3.04a.722.722 0 0 1-.72-.72z" transform="translate(-63.504 -119.875)" style="fill:#fff"/>
            <path data-name="Path 3556" d="M378.038 152.586h-9.817v8.642h9.817a.722.722 0 0 0 .72-.72v-7.2a.722.722 0 0 0-.72-.722z" transform="translate(-311.815 -119.875)" style="fill:#fff"/>
            <path data-name="Path 3557" d="M377.87 361.149a.768.768 0 0 1-.766.766h-22.732a.768.768 0 0 1-.766-.766v-23.628a.768.768 0 0 1 .766-.766H377.1a.768.768 0 0 1 .766.766z" transform="translate(-299.439 -275.832)" style="fill:#fff"/>
            <g data-name="Group 2666">
                <path data-name="Path 3558" d="M356.646 361.149v-23.628a.768.768 0 0 1 .766-.766h-3.04a.768.768 0 0 0-.766.766v23.628a.768.768 0 0 0 .766.766h3.04a.768.768 0 0 1-.766-.766z" transform="translate(-299.439 -275.832)" style="fill:#fff"/>
                <path data-name="Path 3559" d="M398.4 372.026h-12.385a1.149 1.149 0 1 1 0-2.3H398.4a1.149 1.149 0 0 1 0 2.3z" transform="translate(-325.91 -303.754)" style="fill:#fff"/>
                <path data-name="Path 3560" d="M398.4 398.323h-12.385a1.149 1.149 0 1 1 0-2.3H398.4a1.149 1.149 0 0 1 0 2.3z" transform="translate(-325.91 -326.023)" style="fill:#fff"/>
                <path data-name="Path 3561" d="M398.4 424.622h-12.385a1.149 1.149 0 0 1 0-2.3H398.4a1.149 1.149 0 0 1 0 2.3z" transform="translate(-325.91 -348.293)" style="fill:#fff"/>
                <path data-name="Path 3562" d="M392.234 450.919h-6.219a1.149 1.149 0 0 1 0-2.3h6.219a1.149 1.149 0 1 1 0 2.3z" transform="translate(-325.91 -370.562)" style="fill:#fff"/>
            </g>
            <g data-name="Group 2667">
                <path data-name="Path 3563" d="M103.243 238.262a.768.768 0 0 1-.766.766h-6.623a.768.768 0 0 1-.766-.766v-6.623a.768.768 0 0 1 .766-.766h6.623a.768.768 0 0 1 .766.766z" transform="translate(-80.522 -186.17)" style="fill:#fff"/>
                <path data-name="Path 3564" d="M189.12 240.3H165.6a1.149 1.149 0 0 1 0-2.3h23.52a1.149 1.149 0 1 1 0 2.3z" transform="translate(-139.264 -192.207)" style="fill:#fff"/>
                <path data-name="Path 3565" d="M181.613 264.28H165.6a1.149 1.149 0 0 1 0-2.3h16.008a1.149 1.149 0 0 1 0 2.3z" transform="translate(-139.264 -212.514)" style="fill:#fff"/>
            </g>
            <g data-name="Group 2668">
                <path data-name="Path 3566" d="M103.243 305.764a.768.768 0 0 1-.766.766h-6.623a.768.768 0 0 1-.766-.766v-6.623a.768.768 0 0 1 .766-.766h6.623a.768.768 0 0 1 .766.766z" transform="translate(-80.522 -243.332)" style="fill:#fff"/>
                <path data-name="Path 3567" d="M189.12 307.8H165.6a1.149 1.149 0 1 1 0-2.3h23.52a1.149 1.149 0 1 1 0 2.3z" transform="translate(-139.264 -249.369)" style="fill:#fff"/>
                <path data-name="Path 3568" d="M181.613 331.782H165.6a1.149 1.149 0 0 1 0-2.3h16.008a1.149 1.149 0 1 1 0 2.3z" transform="translate(-139.264 -269.676)" style="fill:#fff"/>
            </g>
            <path data-name="Path 3569" d="M103.243 373.267a.768.768 0 0 1-.766.766h-6.623a.768.768 0 0 1-.766-.766v-6.623a.768.768 0 0 1 .766-.766h6.623a.768.768 0 0 1 .766.766z" transform="translate(-80.522 -300.494)" style="fill:#fff"/>
            <path data-name="Path 3570" d="M98.128 238.262v-6.623a.768.768 0 0 1 .766-.766h-3.04a.768.768 0 0 0-.766.766v6.623a.768.768 0 0 0 .766.766h3.04a.768.768 0 0 1-.766-.766z" transform="translate(-80.522 -186.17)" style="fill:#fff"/>
            <path data-name="Path 3571" d="M98.128 305.764v-6.623a.768.768 0 0 1 .766-.766h-3.04a.768.768 0 0 0-.766.766v6.623a.768.768 0 0 0 .766.766h3.04a.768.768 0 0 1-.766-.766z" transform="translate(-80.522 -243.332)" style="fill:#fff"/>
            <path data-name="Path 3572" d="M98.128 373.267v-6.623a.768.768 0 0 1 .766-.766h-3.04a.768.768 0 0 0-.766.766v6.623a.768.768 0 0 0 .766.766h3.04a.768.768 0 0 1-.766-.766z" transform="translate(-80.522 -300.494)" style="fill:#fff"/>
            <g data-name="Group 2669">
                <path data-name="Path 3573" d="M189.12 375.3H165.6a1.149 1.149 0 0 1 0-2.3h23.52a1.149 1.149 0 1 1 0 2.3z" transform="translate(-139.264 -306.53)" style="fill:#fff"/>
                <path data-name="Path 3574" d="M181.613 399.284H165.6a1.149 1.149 0 1 1 0-2.3h16.008a1.149 1.149 0 1 1 0 2.3z" transform="translate(-139.264 -326.837)" style="fill:#fff"/>
            </g>
            <circle data-name="Ellipse 65" cx="3.978" cy="3.978" r="3.978" transform="translate(55.628 45.611)" style="fill:#fff"/>
            <path data-name="Path 3575" d="M367.343 243.589a3.979 3.979 0 0 1 1.293-6.49 3.979 3.979 0 1 0 0 7.354 3.966 3.966 0 0 1-1.293-.864z" transform="translate(-307.511 -191.188)" style="fill:#fff"/>
            <path data-name="Path 3576" d="m368.138 240.157-3.014-3.014a5.12 5.12 0 1 0-1.624 1.626l3.013 3.013a1.149 1.149 0 1 0 1.625-1.625zm-9.359-3.734a2.829 2.829 0 1 1 2 .829 2.833 2.833 0 0 1-2.001-.828z" transform="translate(-301.173 -184.834)" style="fill:#fff"/>
            <path data-name="Path 3577" d="M0 48.859a.551.551 0 0 0 .549.549h21.963a.551.551 0 0 0 .549-.549V34.144a.551.551 0 0 0-.549-.549H.549a.551.551 0 0 0-.549.549z" transform="translate(0 -19.112)" style="fill:#fff"/>
            <path data-name="Path 3578" d="M3.04 48.859V34.144a.551.551 0 0 1 .549-.549H.549a.551.551 0 0 0-.549.549v14.715a.551.551 0 0 0 .549.549h3.04a.551.551 0 0 1-.549-.549z" transform="translate(0 -19.112)" style="fill:#fff"/>
            <path data-name="Path 3579" d="M5.267 72.149a.448.448 0 0 1 .708 0l2.855 3.387a.448.448 0 0 0 .708 0l5.388-6.392a.448.448 0 0 1 .708 0l7.428 8.813v.859a.551.551 0 0 1-.549.549H.549a.551.551 0 0 1-.549-.55V78.4z" transform="translate(0 -49.068)" style="fill:#fff"/>
            <circle data-name="Ellipse 66" cx="1.647" cy="1.647" r="1.647" transform="translate(18.319 15.715)" style="fill:#fff"/>
        </g>
        <g data-name="search (3)" transform="translate(0 -9.5)">
            <circle data-name="Ellipse 64" cx="37.291" cy="37.291" r="37.291" transform="translate(1.912 11.5)" style="fill:#ff7757"/>
            <path data-name="Path 3550" d="M86.8 156.689a.613.613 0 0 1 .613-.613h17.623v-32.864H55.384v1.536a.4.4 0 0 1-.4.4H38.351V160.8a37.7 37.7 0 0 0 11.554 13.317H86.8v-17.428z" transform="translate(-32.476 -95.001)" style="fill:#eef6ff"/>
            <path data-name="Path 3551" d="M38.351 135.823v35.654a37.555 37.555 0 0 0 3.04 4.9v-40.554z" transform="translate(-32.476 -105.68)" style="fill:#d9eafc"/>
            <path data-name="Path 3552" d="M197.581 69.011h-48.038v8.456h49.648v-6.845a1.615 1.615 0 0 0-1.61-1.611z" transform="translate(-126.635 -49.103)" style="fill:#003adc"/>
            <path data-name="Path 3553" d="M420.695 89.709h-3.866a1.149 1.149 0 1 1 0-2.3h3.866a1.149 1.149 0 0 1 0 2.3z" transform="translate(-352.004 -64.684)" style="fill:#aec1ed"/>
            <path data-name="Path 3554" d="M130.447 160.508a.722.722 0 0 1-.72.72H75.711a.722.722 0 0 1-.72-.72v-7.2a.723.723 0 0 1 .72-.72h54.015a.722.722 0 0 1 .72.72v7.2z" transform="translate(-63.504 -119.875)" style="fill:#fff"/>
            <path data-name="Path 3555" d="M78.031 160.508v-7.2a.723.723 0 0 1 .72-.72h-3.04a.723.723 0 0 0-.72.72v7.2a.722.722 0 0 0 .72.72h3.04a.722.722 0 0 1-.72-.72z" transform="translate(-63.504 -119.875)" style="fill:#eef6ff"/>
            <path data-name="Path 3556" d="M378.038 152.586h-9.817v8.642h9.817a.722.722 0 0 0 .72-.72v-7.2a.722.722 0 0 0-.72-.722z" transform="translate(-311.815 -119.875)" style="fill:#ff9518"/>
            <path data-name="Path 3557" d="M377.87 361.149a.768.768 0 0 1-.766.766h-22.732a.768.768 0 0 1-.766-.766v-23.628a.768.768 0 0 1 .766-.766H377.1a.768.768 0 0 1 .766.766z" transform="translate(-299.439 -275.832)" style="fill:#52bbef"/>
            <g data-name="Group 2666">
                <path data-name="Path 3558" d="M356.646 361.149v-23.628a.768.768 0 0 1 .766-.766h-3.04a.768.768 0 0 0-.766.766v23.628a.768.768 0 0 0 .766.766h3.04a.768.768 0 0 1-.766-.766z" transform="translate(-299.439 -275.832)" style="fill:#1e99d6"/>
                <path data-name="Path 3559" d="M398.4 372.026h-12.385a1.149 1.149 0 1 1 0-2.3H398.4a1.149 1.149 0 0 1 0 2.3z" transform="translate(-325.91 -303.754)" style="fill:#1e99d6"/>
                <path data-name="Path 3560" d="M398.4 398.323h-12.385a1.149 1.149 0 1 1 0-2.3H398.4a1.149 1.149 0 0 1 0 2.3z" transform="translate(-325.91 -326.023)" style="fill:#1e99d6"/>
                <path data-name="Path 3561" d="M398.4 424.622h-12.385a1.149 1.149 0 0 1 0-2.3H398.4a1.149 1.149 0 0 1 0 2.3z" transform="translate(-325.91 -348.293)" style="fill:#1e99d6"/>
                <path data-name="Path 3562" d="M392.234 450.919h-6.219a1.149 1.149 0 0 1 0-2.3h6.219a1.149 1.149 0 1 1 0 2.3z" transform="translate(-325.91 -370.562)" style="fill:#1e99d6"/>
            </g>
            <g data-name="Group 2667">
                <path data-name="Path 3563" d="M103.243 238.262a.768.768 0 0 1-.766.766h-6.623a.768.768 0 0 1-.766-.766v-6.623a.768.768 0 0 1 .766-.766h6.623a.768.768 0 0 1 .766.766z" transform="translate(-80.522 -186.17)" style="fill:#64b5f6"/>
                <path data-name="Path 3564" d="M189.12 240.3H165.6a1.149 1.149 0 0 1 0-2.3h23.52a1.149 1.149 0 1 1 0 2.3z" transform="translate(-139.264 -192.207)" style="fill:#64b5f6"/>
                <path data-name="Path 3565" d="M181.613 264.28H165.6a1.149 1.149 0 0 1 0-2.3h16.008a1.149 1.149 0 0 1 0 2.3z" transform="translate(-139.264 -212.514)" style="fill:#64b5f6"/>
            </g>
            <g data-name="Group 2668">
                <path data-name="Path 3566" d="M103.243 305.764a.768.768 0 0 1-.766.766h-6.623a.768.768 0 0 1-.766-.766v-6.623a.768.768 0 0 1 .766-.766h6.623a.768.768 0 0 1 .766.766z" transform="translate(-80.522 -243.332)" style="fill:#747474"/>
                <path data-name="Path 3567" d="M189.12 307.8H165.6a1.149 1.149 0 1 1 0-2.3h23.52a1.149 1.149 0 1 1 0 2.3z" transform="translate(-139.264 -249.369)" style="fill:#747474"/>
                <path data-name="Path 3568" d="M181.613 331.782H165.6a1.149 1.149 0 0 1 0-2.3h16.008a1.149 1.149 0 1 1 0 2.3z" transform="translate(-139.264 -269.676)" style="fill:#747474"/>
            </g>
            <path data-name="Path 3569" d="M103.243 373.267a.768.768 0 0 1-.766.766h-6.623a.768.768 0 0 1-.766-.766v-6.623a.768.768 0 0 1 .766-.766h6.623a.768.768 0 0 1 .766.766z" transform="translate(-80.522 -300.494)" style="fill:#747474"/>
            <path data-name="Path 3570" d="M98.128 238.262v-6.623a.768.768 0 0 1 .766-.766h-3.04a.768.768 0 0 0-.766.766v6.623a.768.768 0 0 0 .766.766h3.04a.768.768 0 0 1-.766-.766z" transform="translate(-80.522 -186.17)" style="fill:#1e99d6"/>
            <path data-name="Path 3571" d="M98.128 305.764v-6.623a.768.768 0 0 1 .766-.766h-3.04a.768.768 0 0 0-.766.766v6.623a.768.768 0 0 0 .766.766h3.04a.768.768 0 0 1-.766-.766z" transform="translate(-80.522 -243.332)" style="fill:#9a9a9a"/>
            <path data-name="Path 3572" d="M98.128 373.267v-6.623a.768.768 0 0 1 .766-.766h-3.04a.768.768 0 0 0-.766.766v6.623a.768.768 0 0 0 .766.766h3.04a.768.768 0 0 1-.766-.766z" transform="translate(-80.522 -300.494)" style="fill:#9a9a9a"/>
            <g data-name="Group 2669">
                <path data-name="Path 3573" d="M189.12 375.3H165.6a1.149 1.149 0 0 1 0-2.3h23.52a1.149 1.149 0 1 1 0 2.3z" transform="translate(-139.264 -306.53)" style="fill:#747474"/>
                <path data-name="Path 3574" d="M181.613 399.284H165.6a1.149 1.149 0 1 1 0-2.3h16.008a1.149 1.149 0 1 1 0 2.3z" transform="translate(-139.264 -326.837)" style="fill:#747474"/>
            </g>
            <circle data-name="Ellipse 65" cx="3.978" cy="3.978" r="3.978" transform="translate(55.628 45.611)" style="fill:#91e0e8"/>
            <path data-name="Path 3575" d="M367.343 243.589a3.979 3.979 0 0 1 1.293-6.49 3.979 3.979 0 1 0 0 7.354 3.966 3.966 0 0 1-1.293-.864z" transform="translate(-307.511 -191.188)" style="fill:#5dc1d8"/>
            <path data-name="Path 3576" d="m368.138 240.157-3.014-3.014a5.12 5.12 0 1 0-1.624 1.626l3.013 3.013a1.149 1.149 0 1 0 1.625-1.625zm-9.359-3.734a2.829 2.829 0 1 1 2 .829 2.833 2.833 0 0 1-2.001-.828z" transform="translate(-301.173 -184.834)" style="fill:#1a2b63"/>
            <path data-name="Path 3577" d="M0 48.859a.551.551 0 0 0 .549.549h21.963a.551.551 0 0 0 .549-.549V34.144a.551.551 0 0 0-.549-.549H.549a.551.551 0 0 0-.549.549z" transform="translate(0 -19.112)" style="fill:#91e0e8"/>
            <path data-name="Path 3578" d="M3.04 48.859V34.144a.551.551 0 0 1 .549-.549H.549a.551.551 0 0 0-.549.549v14.715a.551.551 0 0 0 .549.549h3.04a.551.551 0 0 1-.549-.549z" transform="translate(0 -19.112)" style="fill:#5dc1d8"/>
            <path data-name="Path 3579" d="M5.267 72.149a.448.448 0 0 1 .708 0l2.855 3.387a.448.448 0 0 0 .708 0l5.388-6.392a.448.448 0 0 1 .708 0l7.428 8.813v.859a.551.551 0 0 1-.549.549H.549a.551.551 0 0 1-.549-.55V78.4z" transform="translate(0 -49.068)" style="fill:#37c47a"/>
            <circle data-name="Ellipse 66" cx="1.647" cy="1.647" r="1.647" transform="translate(18.319 15.715)" style="fill:#fff"/>
        </g>
    </g>
</svg>
