<svg xmlns="http://www.w3.org/2000/svg" width="78.443" height="75.786" viewBox="0 0 78.443 75.786">
    <g data-name="Group 2663">
        <path data-name="Path 3520" d="M361.024 113.073h-6.414l-2.61-2.61.039-70.463 20.548 3.632a1.631 1.631 0 0 1 1.324 1.881l-11.279 66.2a1.631 1.631 0 0 1-1.608 1.36z" transform="translate(-295.491 -37.287)" style="fill:#fff"/>
        <path data-name="Path 3521" d="M352.039 40 352 110.463l2.61 2.61h2.61V40.916z" transform="translate(-295.491 -37.287)" style="fill:#fff"/>
        <g data-name="Group 2662" transform="translate(3.009)">
            <rect data-name="Rectangle 1834" width="56.043" height="75.786" rx="10" style="fill:#fff"/>
            <rect data-name="Rectangle 1835" width="13.374" height="12.737" rx="6.369" transform="translate(6.369 38.211)" style="fill:#fff"/>
            <rect data-name="Rectangle 1836" width="13.374" height="13.374" rx="6.687" transform="translate(6.369 57.317)" style="fill:#fff"/>
            <g data-name="Group 2660">
                <path data-name="Path 3522" d="M87.18 262.081a1.305 1.305 0 0 1-.923-.382l-3.915-3.915 1.845-1.845 2.918 2.918 6.912-8.064 1.981 1.7-7.829 9.134a1.3 1.3 0 0 1-.941.455z" transform="translate(-72.827 -213.698)" style="fill:#fff"/>
                <path data-name="Path 3523" d="M87.18 382.081a1.3 1.3 0 0 1-.923-.382l-3.915-3.915 1.845-1.845 2.918 2.918 6.912-8.064 1.981 1.7-7.829 9.134a1.3 1.3 0 0 1-.941.455z" transform="translate(-72.827 -314.125)" style="fill:#fff"/>
                <g data-name="Group 2659">
                    <path data-name="Path 3524" d="M184 368h19.573v2.61H184z" transform="translate(-157.903 -311.787)" style="fill:#fff"/>
                    <path data-name="Path 3525" d="M184 408h6.524v2.61H184z" transform="translate(-157.903 -345.263)" style="fill:#fff"/>
                </g>
            </g>
            <g data-name="Group 2661">
                <path data-name="Path 3526" d="M240 408h10.439v2.61H240z" transform="translate(-204.768 -345.262)" style="fill:#fff"/>
                <path data-name="Path 3527" d="M184 248h19.573v2.61H184z" transform="translate(-157.902 -211.36)" style="fill:#fff"/>
                <path data-name="Path 3528" d="M184 288h6.524v2.61H184z" transform="translate(-157.902 -244.836)" style="fill:#fff"/>
                <path data-name="Path 3529" d="M240 288h10.439v2.61H240z" transform="translate(-204.768 -244.836)" style="fill:#fff"/>
                <path data-name="Path 3530" d="M139.728 56 128 61.229l.978 6.206a20.059 20.059 0 0 0 7.916 12.577l2.845 2.1 2.71-1.97a20.052 20.052 0 0 0 8.019-12.651l.988-6.258zm-.4 16.591a1.3 1.3 0 0 1-1.845 0l-3.915-3.915 1.845-1.846 2.992 2.992 6.907-6.907 1.845 1.845z" transform="translate(-111.036 -50.677)" style="fill:#fff"/>
                <path data-name="Path 3531" d="M56 48h7.829v2.61H56z" transform="translate(-50.78 -43.982)" style="fill:#fff"/>
                <path data-name="Path 3532" d="M56 80h5.22v2.61H56z" transform="translate(-50.78 -70.762)" style="fill:#fff"/>
                <path data-name="Path 3533" d="M296 48h2.61v2.61H296z" transform="translate(-251.634 -43.982)" style="fill:#fff"/>
                <path data-name="Path 3534" d="M328 48h2.61v2.61H328z" transform="translate(-278.414 -43.982)" style="fill:#fff"/>
            </g>
        </g>
        <g data-name="document">
            <path data-name="Path 3520" d="M361.024 113.073h-6.414l-2.61-2.61.039-70.463 20.548 3.632a1.631 1.631 0 0 1 1.324 1.881l-11.279 66.2a1.631 1.631 0 0 1-1.608 1.36z" transform="translate(-298.5 -37.287)" style="fill:#ff7757"/>
            <path data-name="Path 3521" d="M352.039 40 352 110.463l2.61 2.61h2.61V40.916z" transform="translate(-298.5 -37.287)" style="fill:#ef6544"/>
            <g data-name="Group 2662">
                <rect data-name="Rectangle 1834" width="56.043" height="75.786" rx="10" style="fill:#64b5f6"/>
                <rect data-name="Rectangle 1835" width="13.374" height="12.737" rx="6.369" transform="translate(6.369 38.211)" style="fill:#fcfeff"/>
                <rect data-name="Rectangle 1836" width="13.374" height="13.374" rx="6.687" transform="translate(6.369 57.317)" style="fill:#fcfeff"/>
                <g data-name="Group 2660">
                    <path data-name="Path 3522" d="M87.18 262.081a1.305 1.305 0 0 1-.923-.382l-3.915-3.915 1.845-1.845 2.918 2.918 6.912-8.064 1.981 1.7-7.829 9.134a1.3 1.3 0 0 1-.941.455z" transform="translate(-72.827 -213.698)" style="fill:#80daff"/>
                    <path data-name="Path 3523" d="M87.18 382.081a1.3 1.3 0 0 1-.923-.382l-3.915-3.915 1.845-1.845 2.918 2.918 6.912-8.064 1.981 1.7-7.829 9.134a1.3 1.3 0 0 1-.941.455z" transform="translate(-72.827 -314.125)" style="fill:#80daff"/>
                    <g data-name="Group 2659">
                        <path data-name="Path 3524" d="M184 368h19.573v2.61H184z" transform="translate(-157.903 -311.787)" style="fill:#fcfeff"/>
                        <path data-name="Path 3525" d="M184 408h6.524v2.61H184z" transform="translate(-157.903 -345.263)" style="fill:#fcfeff"/>
                    </g>
                </g>
                <g data-name="Group 2661">
                    <path data-name="Path 3526" d="M240 408h10.439v2.61H240z" transform="translate(-204.768 -345.262)" style="fill:#fcfeff"/>
                    <path data-name="Path 3527" d="M184 248h19.573v2.61H184z" transform="translate(-157.902 -211.36)" style="fill:#fcfeff"/>
                    <path data-name="Path 3528" d="M184 288h6.524v2.61H184z" transform="translate(-157.902 -244.836)" style="fill:#fcfeff"/>
                    <path data-name="Path 3529" d="M240 288h10.439v2.61H240z" transform="translate(-204.768 -244.836)" style="fill:#fcfeff"/>
                    <path data-name="Path 3530" d="M139.728 56 128 61.229l.978 6.206a20.059 20.059 0 0 0 7.916 12.577l2.845 2.1 2.71-1.97a20.052 20.052 0 0 0 8.019-12.651l.988-6.258zm-.4 16.591a1.3 1.3 0 0 1-1.845 0l-3.915-3.915 1.845-1.846 2.992 2.992 6.907-6.907 1.845 1.845z" transform="translate(-111.036 -50.677)" style="fill:#fcfeff"/>
                    <path data-name="Path 3531" d="M56 48h7.829v2.61H56z" transform="translate(-50.78 -43.982)" style="fill:#fcfeff"/>
                    <path data-name="Path 3532" d="M56 80h5.22v2.61H56z" transform="translate(-50.78 -70.762)" style="fill:#fcfeff"/>
                    <path data-name="Path 3533" d="M296 48h2.61v2.61H296z" transform="translate(-251.634 -43.982)" style="fill:#fcfeff"/>
                    <path data-name="Path 3534" d="M328 48h2.61v2.61H328z" transform="translate(-278.414 -43.982)" style="fill:#fcfeff"/>
                </g>
            </g>
        </g>
    </g>
</svg>
