<svg xmlns="http://www.w3.org/2000/svg" width="66.193" height="75.245" viewBox="0 0 66.193 75.245">
    <g data-name="Group 2665">
        <path data-name="Path 3535" d="M37.6 125.085V63.852a2.5 2.5 0 0 1 2.5-2.5h50.483a2.5 2.5 0 0 1 2.5 2.5v61.233a2.5 2.5 0 0 1-2.5 2.5H40.1a2.5 2.5 0 0 1-2.5-2.5z" transform="translate(-35.6 -52.338)" style="fill:#fff"/>
        <path data-name="Path 3536" d="M366.77 61.356h-2.9v63.73a2.5 2.5 0 0 1-2.5 2.5h5.4a2.5 2.5 0 0 0 2.5-2.5V63.853a2.5 2.5 0 0 0-2.5-2.5z" transform="translate(-311.786 -52.339)" style="fill:#fff"/>
        <path data-name="Path 3537" d="M74.383 61.356v58.459a1.647 1.647 0 0 0 1.647 1.647h41.37a1.647 1.647 0 0 0 1.647-1.647V61.356z" transform="translate(-66.977 -52.339)" style="fill:#fff"/>
        <path data-name="Path 3538" d="M158.356 3.581A3.581 3.581 0 0 0 154.775 0h-2.731a3.581 3.581 0 0 0-3.581 3.581 1.817 1.817 0 0 1-1.817 1.819h-2.185a3.619 3.619 0 0 0-3.619 3.619v1.9a1.718 1.718 0 0 0 1.718 1.718h21.7a1.718 1.718 0 0 0 1.718-1.718v-1.9a3.619 3.619 0 0 0-3.62-3.619h-2.185a1.817 1.817 0 0 1-1.817-1.819z" transform="translate(-123.669)" style="fill:#fff"/>
        <path data-name="Path 3539" d="M232.5 5.4h-2.185a1.817 1.817 0 0 1-1.815-1.819A3.581 3.581 0 0 0 224.92 0h-1.848v5.473a1.817 1.817 0 0 0 1.817 1.817h2.185a3.619 3.619 0 0 1 3.619 3.619v1.727h3.707a1.718 1.718 0 0 0 1.718-1.718v-1.9A3.619 3.619 0 0 0 232.5 5.4z" transform="translate(-193.815)" style="fill:#fff"/>
        <path data-name="Path 3540" d="m118.535 141.3-2.489-2.213a1.135 1.135 0 0 1 1.509-1.7l2.339 2.079 3.609-5.161a1.136 1.136 0 0 1 1.861 1.3l-3.724 5.326a2.093 2.093 0 0 1-3.105.369z" transform="translate(-102.193 -114.156)" style="fill:#fff"/>
        <path data-name="Path 3541" d="m118.535 254.166-2.489-2.213a1.135 1.135 0 0 1 1.509-1.7l2.339 2.079 3.609-5.161a1.136 1.136 0 0 1 1.861 1.3l-3.724 5.326a2.092 2.092 0 0 1-3.105.369z" transform="translate(-102.192 -210.435)" style="fill:#fff"/>
        <path data-name="Path 3542" d="m118.535 365.518-2.489-2.212a1.135 1.135 0 0 1 1.509-1.7l2.339 2.079 3.609-5.161a1.136 1.136 0 0 1 1.861 1.3l-3.724 5.326a2.093 2.093 0 0 1-3.105.368z" transform="translate(-102.193 -305.423)" style="fill:#fff"/>
        <g data-name="Group 2664">
            <path data-name="Path 3543" d="M229.59 140.155h-16.047a1.135 1.135 0 0 1 0-2.271h16.047a1.135 1.135 0 1 1 0 2.271z" transform="translate(-184.718 -117.62)" style="fill:#fff"/>
            <path data-name="Path 3544" d="M229.59 174.492h-16.047a1.135 1.135 0 0 1 0-2.271h16.047a1.135 1.135 0 1 1 0 2.271z" transform="translate(-184.718 -146.911)" style="fill:#fff"/>
            <path data-name="Path 3545" d="M229.59 250.545h-16.047a1.135 1.135 0 0 1 0-2.271h16.047a1.135 1.135 0 1 1 0 2.271z" transform="translate(-184.718 -211.787)" style="fill:#fff"/>
            <path data-name="Path 3546" d="M221.566 284.882h-8.023a1.135 1.135 0 1 1 0-2.271h8.023a1.135 1.135 0 1 1 0 2.271z" transform="translate(-184.717 -241.078)" style="fill:#fff"/>
        </g>
        <path data-name="Path 3547" d="m235.437 193.816-4.409-3.534-1.519.821-25.761 32.142-4.1 8.223a1.586 1.586 0 0 0 2.419 1.938l7.134-5.788 25.761-32.142z" transform="translate(-173.696 -162.318)" style="fill:#fff"/>
        <path data-name="Path 3548" d="m203.853 414.278-4.118 8.269a1.595 1.595 0 0 0 2.432 1.949l7.174-5.82z" transform="translate(-173.765 -353.395)" style="fill:#fff"/>
        <path data-name="Path 3549" d="M412.844 152.461a3.5 3.5 0 0 0-4.916.542l-4.153 5.182 5.457 4.374 4.153-5.182a3.5 3.5 0 0 0-.541-4.916z" transform="translate(-347.961 -129.399)" style="fill:#fff"/>
        <g data-name="task">
            <path data-name="Path 3535" d="M37.6 125.085V63.852a2.5 2.5 0 0 1 2.5-2.5h50.483a2.5 2.5 0 0 1 2.5 2.5v61.233a2.5 2.5 0 0 1-2.5 2.5H40.1a2.5 2.5 0 0 1-2.5-2.5z" transform="translate(-37.6 -52.338)" style="fill:#64b5f6"/>
            <path data-name="Path 3536" d="M366.77 61.356h-2.9v63.73a2.5 2.5 0 0 1-2.5 2.5h5.4a2.5 2.5 0 0 0 2.5-2.5V63.853a2.5 2.5 0 0 0-2.5-2.5z" transform="translate(-313.786 -52.339)" style="fill:#64b5f6"/>
            <path data-name="Path 3537" d="M74.383 61.356v58.459a1.647 1.647 0 0 0 1.647 1.647h41.37a1.647 1.647 0 0 0 1.647-1.647V61.356z" transform="translate(-68.977 -52.339)" style="fill:#f7f0f0"/>
            <path data-name="Path 3538" d="M158.356 3.581A3.581 3.581 0 0 0 154.775 0h-2.731a3.581 3.581 0 0 0-3.581 3.581 1.817 1.817 0 0 1-1.817 1.819h-2.185a3.619 3.619 0 0 0-3.619 3.619v1.9a1.718 1.718 0 0 0 1.718 1.718h21.7a1.718 1.718 0 0 0 1.718-1.718v-1.9a3.619 3.619 0 0 0-3.62-3.619h-2.185a1.817 1.817 0 0 1-1.817-1.819z" transform="translate(-125.669)" style="fill:#ff7757"/>
            <path data-name="Path 3539" d="M232.5 5.4h-2.185a1.817 1.817 0 0 1-1.815-1.819A3.581 3.581 0 0 0 224.92 0h-1.848v5.473a1.817 1.817 0 0 0 1.817 1.817h2.185a3.619 3.619 0 0 1 3.619 3.619v1.727h3.707a1.718 1.718 0 0 0 1.718-1.718v-1.9A3.619 3.619 0 0 0 232.5 5.4z" transform="translate(-195.815)" style="fill:#fa6931"/>
            <path data-name="Path 3540" d="m118.535 141.3-2.489-2.213a1.135 1.135 0 0 1 1.509-1.7l2.339 2.079 3.609-5.161a1.136 1.136 0 0 1 1.861 1.3l-3.724 5.326a2.093 2.093 0 0 1-3.105.369z" transform="translate(-104.193 -114.156)" style="fill:#ff7757"/>
            <path data-name="Path 3541" d="m118.535 254.166-2.489-2.213a1.135 1.135 0 0 1 1.509-1.7l2.339 2.079 3.609-5.161a1.136 1.136 0 0 1 1.861 1.3l-3.724 5.326a2.092 2.092 0 0 1-3.105.369z" transform="translate(-104.192 -210.435)" style="fill:#ff7757"/>
            <path data-name="Path 3542" d="m118.535 365.518-2.489-2.212a1.135 1.135 0 0 1 1.509-1.7l2.339 2.079 3.609-5.161a1.136 1.136 0 0 1 1.861 1.3l-3.724 5.326a2.093 2.093 0 0 1-3.105.368z" transform="translate(-104.193 -305.423)" style="fill:#ff7757"/>
            <g data-name="Group 2664">
                <path data-name="Path 3543" d="M229.59 140.155h-16.047a1.135 1.135 0 0 1 0-2.271h16.047a1.135 1.135 0 1 1 0 2.271z" transform="translate(-186.718 -117.62)" style="fill:#786e79"/>
                <path data-name="Path 3544" d="M229.59 174.492h-16.047a1.135 1.135 0 0 1 0-2.271h16.047a1.135 1.135 0 1 1 0 2.271z" transform="translate(-186.718 -146.911)" style="fill:#786e79"/>
                <path data-name="Path 3545" d="M229.59 250.545h-16.047a1.135 1.135 0 0 1 0-2.271h16.047a1.135 1.135 0 1 1 0 2.271z" transform="translate(-186.718 -211.787)" style="fill:#786e79"/>
                <path data-name="Path 3546" d="M221.566 284.882h-8.023a1.135 1.135 0 1 1 0-2.271h8.023a1.135 1.135 0 1 1 0 2.271z" transform="translate(-186.717 -241.078)" style="fill:#786e79"/>
            </g>
            <path data-name="Path 3547" d="m235.437 193.816-4.409-3.534-1.519.821-25.761 32.142-4.1 8.223a1.586 1.586 0 0 0 2.419 1.938l7.134-5.788 25.761-32.142z" transform="translate(-175.696 -162.318)" style="fill:#ff7757"/>
            <path data-name="Path 3548" d="m203.853 414.278-4.118 8.269a1.595 1.595 0 0 0 2.432 1.949l7.174-5.82z" transform="translate(-175.765 -353.395)" style="fill:#404040"/>
            <path data-name="Path 3549" d="M412.844 152.461a3.5 3.5 0 0 0-4.916.542l-4.153 5.182 5.457 4.374 4.153-5.182a3.5 3.5 0 0 0-.541-4.916z" transform="translate(-349.961 -129.399)" style="fill:#ffc3ab"/>
        </g>
    </g>
</svg>
