<svg xmlns="http://www.w3.org/2000/svg" width="81" height="75.973" viewBox="0 0 81 75.973">
    <g data-name="Group 2655">
        <path data-name="Path 3511" d="M54.908 32.424c-6.879-7.255-20.024-5-24.034 4.257-6.165 13.276 8.865 26.75 21.44 18.86a14.937 14.937 0 0 0 2.594-23.117zm-2.551 4.539a1.4 1.4 0 0 1-2 0 8.457 8.457 0 0 0-11.953 0 1.421 1.421 0 0 1-2 0 1.4 1.4 0 0 1 0-1.988 11.3 11.3 0 0 1 15.957 0 1.4 1.4 0 0 1 0 1.988z" transform="translate(8.482 4.885)" style="fill:#fff"/>
        <path data-name="Path 3512" d="M45.711 30.282v-12.8a1.424 1.424 0 0 0-2.086-1.24 107.433 107.433 0 0 1-12.278 5.653 1.409 1.409 0 0 0-.888 1.311v13.236c.327-.377.635-.726.987-1.071a17.583 17.583 0 0 1 14.265-5.089z" transform="translate(8.897 -.048)" style="fill:#fff"/>
        <path data-name="Path 3513" d="M55.093 58.57h2.453a1.414 1.414 0 0 0 1.41-1.41V6.81a1.418 1.418 0 0 0-2.537-.846 48.556 48.556 0 0 1-12.096 10.995 1.384 1.384 0 0 0-.634 1.17v17.183a17.7 17.7 0 0 1 11.4 23.258z" transform="translate(14.316 -4.416)" style="fill:#fff"/>
        <path data-name="Path 3514" d="M30.621 21.826c-3.848 1.325-7.894 2.523-12.334 3.693a1.43 1.43 0 0 0-1.057 1.367v23.583a1.414 1.414 0 0 0 1.41 1.41h12.432a1.389 1.389 0 0 0 1.381-1.142 17.757 17.757 0 0 1 .028-10.459V23.151a1.412 1.412 0 0 0-1.861-1.325z" transform="translate(3.477 2.276)" style="fill:#fff"/>
        <path data-name="Path 3515" d="M17.532 25.515c-5.332 1.227-9.656 2.016-12.348 2.453A1.407 1.407 0 0 0 4 29.35v19.593a1.414 1.414 0 0 0 1.41 1.41h12.432a1.414 1.414 0 0 0 1.41-1.41v-22.06a1.41 1.41 0 0 0-.536-1.1 1.366 1.366 0 0 0-1.184-.268z" transform="translate(-1.942 3.802)" style="fill:#fff"/>
        <path data-name="Path 3516" d="m63.766 55.045-7.992-7.978a1.535 1.535 0 0 0-2.326.324l-1.678-1.677a17.758 17.758 0 0 1-4.652 4.666l1.682 1.677a1.519 1.519 0 0 0-.338 2.326l7.978 7.978a5.178 5.178 0 1 0 7.33-7.316z" transform="translate(15.721 12.092)" style="fill:#fff"/>
        <g data-name="statistics">
            <path data-name="Path 3511" d="M54.908 32.424c-6.879-7.255-20.024-5-24.034 4.257-6.165 13.276 8.865 26.75 21.44 18.86a14.937 14.937 0 0 0 2.594-23.117zm-2.551 4.539a1.4 1.4 0 0 1-2 0 8.457 8.457 0 0 0-11.953 0 1.421 1.421 0 0 1-2 0 1.4 1.4 0 0 1 0-1.988 11.3 11.3 0 0 1 15.957 0 1.4 1.4 0 0 1 0 1.988z" transform="translate(6.424 3.885)" style="fill:#ff7757"/>
            <path data-name="Path 3512" d="M45.711 30.282v-12.8a1.424 1.424 0 0 0-2.086-1.24 107.433 107.433 0 0 1-12.278 5.653 1.409 1.409 0 0 0-.888 1.311v13.236c.327-.377.635-.726.987-1.071a17.583 17.583 0 0 1 14.265-5.089z" transform="translate(6.839 -1.048)" style="fill:#ff7757"/>
            <path data-name="Path 3513" d="M55.093 58.57h2.453a1.414 1.414 0 0 0 1.41-1.41V6.81a1.418 1.418 0 0 0-2.537-.846 48.556 48.556 0 0 1-12.096 10.995 1.384 1.384 0 0 0-.634 1.17v17.183a17.7 17.7 0 0 1 11.4 23.258z" transform="translate(12.258 -5.416)" style="fill:#ff7757"/>
            <path data-name="Path 3514" d="M30.621 21.826c-3.848 1.325-7.894 2.523-12.334 3.693a1.43 1.43 0 0 0-1.057 1.367v23.583a1.414 1.414 0 0 0 1.41 1.41h12.432a1.389 1.389 0 0 0 1.381-1.142 17.757 17.757 0 0 1 .028-10.459V23.151a1.412 1.412 0 0 0-1.861-1.325z" transform="translate(1.419 1.276)" style="fill:#ff7757"/>
            <path data-name="Path 3515" d="M17.532 25.515c-5.332 1.227-9.656 2.016-12.348 2.453A1.407 1.407 0 0 0 4 29.35v19.593a1.414 1.414 0 0 0 1.41 1.41h12.432a1.414 1.414 0 0 0 1.41-1.41v-22.06a1.41 1.41 0 0 0-.536-1.1 1.366 1.366 0 0 0-1.184-.268z" transform="translate(-4 2.802)" style="fill:#ff7757"/>
            <path data-name="Path 3516" d="m63.766 55.045-7.992-7.978a1.535 1.535 0 0 0-2.326.324l-1.678-1.677a17.758 17.758 0 0 1-4.652 4.666l1.682 1.677a1.519 1.519 0 0 0-.338 2.326l7.978 7.978a5.178 5.178 0 1 0 7.33-7.316z" transform="translate(13.663 11.092)" style="fill:#ff7757"/>
        </g>
    </g>
</svg>
