<svg xmlns="http://www.w3.org/2000/svg" width="92.19" height="76.761" viewBox="0 0 92.19 76.761">
    <g data-name="Group 2714">
        <g data-name="Group 2705">
            <g data-name="Group 2703">
                <g data-name="Group 2682">
                    <g data-name="Group 2681">
                        <path data-name="Path 3614" d="M146.042 114.057h-39.564v28.207h-1.952a.908.908 0 0 0-.907.907v1.952H67.976v28.595a2.722 2.722 0 0 0 2.722 2.722h72.772a2.722 2.722 0 0 0 2.722-2.722v-59.456z" transform="translate(-54.002 -101.68)" style="fill:#fff"/>
                    </g>
                </g>
                <path data-name="Path 3615" d="M146.042 114.057h-6.5V168.1a.907.907 0 0 1-.907.907H67.976v4.716a2.722 2.722 0 0 0 2.722 2.722h72.772a2.722 2.722 0 0 0 2.722-2.722v-59.461z" transform="translate(-54.002 -101.68)" style="fill:#fff"/>
                <g data-name="Group 2683">
                    <path data-name="Path 3616" d="M169.742 151.82h-32.154v21.555h-1.952a.908.908 0 0 0-.907.907v1.952h-28.991v22.971a.907.907 0 0 0 .907.907h63.1a.907.907 0 0 0 .907-.907v-46.478a.907.907 0 0 0-.91-.907z" transform="translate(-85.112 -132.791)" style="fill:#fff"/>
                </g>
                <g data-name="Group 2684">
                    <path data-name="Path 3617" d="M169.742 151.82h-4.508v41.942a.907.907 0 0 1-.907.907h-58.589v4.537a.907.907 0 0 0 .907.907h63.1a.907.907 0 0 0 .907-.907v-46.479a.907.907 0 0 0-.91-.907z" transform="translate(-85.112 -132.791)" style="fill:#fff"/>
                </g>
                <g data-name="Group 2685">
                    <path data-name="Path 3618" d="M143.469 43.794H70.7a2.722 2.722 0 0 0-2.722 2.722v5.674h35.819v-.99a.732.732 0 0 1 .731-.731h4.267a.732.732 0 0 1 .731.731v4.267a.732.732 0 0 1-.731.731h-.176v.176h37.574v-9.86a2.722 2.722 0 0 0-2.724-2.72z" transform="translate(-54.001 -43.794)" style="fill:#fff"/>
                </g>
                <g data-name="Group 2686">
                    <path data-name="Path 3619" d="M334.369 43.794h-3.93v6.259a.881.881 0 0 1-.881.881h-29a.9.9 0 0 1 .045.267v4.267a.907.907 0 0 1-.907.907h37.4v-9.86a2.722 2.722 0 0 0-2.727-2.721z" transform="translate(-244.902 -43.794)" style="fill:#fff"/>
                </g>
                <g data-name="Group 2698">
                    <g data-name="Group 2697">
                        <g data-name="Group 2693">
                            <g data-name="Group 2687">
                                <path data-name="Path 3620" d="M62.747 100.815a.727.727 0 0 1-.726-.726v-2.134h-41.9v2.134a.727.727 0 0 1-.726.726h-2.131v28.365H19.4a.727.727 0 0 1 .726.726v2.134h41.9v-2.134a.727.727 0 0 1 .726-.726h2.134v-28.365z" transform="translate(-12.223 -88.415)" style="fill:#fff"/>
                            </g>
                            <g data-name="Group 2688">
                                <path data-name="Path 3621" d="M17.264 129.18H19.4a.727.727 0 0 1 .726.726v2.134h41.9v-2.134a.727.727 0 0 1 .726-.726h2.134v-28.365h-2.139a.727.727 0 0 1-.726-.726v-2.134h-2.885v26.9a1.815 1.815 0 0 1-1.815 1.815H17.264z" transform="translate(-12.223 -88.415)" style="fill:#fff"/>
                            </g>
                            <g data-name="Group 2689">
                                <path data-name="Path 3622" d="M17.264 169.055H19.4a.727.727 0 0 1 .726.726v2.134h41.9v-2.134a.727.727 0 0 1 .726-.726h2.134v-9.33l-12.6-12.6a2.621 2.621 0 0 0-3.707 0l-14.648 14.639a.874.874 0 0 1-1.236 0l-5.607-5.607a2.621 2.621 0 0 0-3.707 0l-6.118 6.118v6.779z" transform="translate(-12.223 -128.289)" style="fill:#fff"/>
                            </g>
                            <path data-name="Path 3623" d="M59.136 189.641v10.751a1.815 1.815 0 0 1-1.815 1.815H17.264v2.509H19.4a.727.727 0 0 1 .726.726v2.134h41.9v-2.134a.727.727 0 0 1 .726-.726h2.134v-9.33z" transform="translate(-12.223 -163.95)" style="fill:#fff"/>
                            <g data-name="Group 2690">
                                <path data-name="Path 3624" d="M33.528 90.455h41.887V93.1H33.528z" transform="translate(-25.622 -82.236)" style="fill:#fff"/>
                                <path data-name="Path 3625" d="M9.764 114.219h2.642v28.355H9.764z" transform="translate(-6.044 -101.814)" style="fill:#fff"/>
                                <path data-name="Path 3626" d="M280.081 114.219h2.642v28.355h-2.642z" transform="translate(-228.744 -101.814)" style="fill:#fff"/>
                                <path data-name="Path 3627" d="M33.528 283.953h41.887v2.647H33.528z" transform="translate(-25.622 -241.649)" style="fill:#fff"/>
                            </g>
                            <g data-name="Group 2691" transform="translate(17.927 15.199)">
                                <circle data-name="Ellipse 68" cx="3.189" cy="3.189" r="3.189" style="fill:#fff"/>
                            </g>
                            <g data-name="Group 2692">
                                <path data-name="Path 3628" d="M96.17 130.089a3.189 3.189 0 0 1-2.648 4.966h-.032a3.188 3.188 0 1 0 2.68-4.964z" transform="translate(-75.022 -114.888)" style="fill:#fff"/>
                            </g>
                        </g>
                        <g data-name="Group 2694">
                            <path data-name="Path 3629" d="M5.175 86.773H.907A.907.907 0 0 1 0 85.866V81.6a.907.907 0 0 1 .907-.907h4.268a.907.907 0 0 1 .907.907v4.267a.907.907 0 0 1-.907.906z" transform="translate(2 -74.192)" style="fill:#fff"/>
                        </g>
                        <g data-name="Group 2695">
                            <path data-name="Path 3630" d="M275.492 86.773h-4.267a.907.907 0 0 1-.907-.907V81.6a.907.907 0 0 1 .907-.907h4.267a.907.907 0 0 1 .907.907v4.267a.907.907 0 0 1-.907.906z" transform="translate(-220.7 -74.192)" style="fill:#fff"/>
                        </g>
                        <g data-name="Group 2696">
                            <path data-name="Path 3631" d="M275.492 280.271h-4.267a.907.907 0 0 1-.907-.907V275.1a.907.907 0 0 1 .907-.907h4.267a.907.907 0 0 1 .907.907v4.267a.907.907 0 0 1-.907.904z" transform="translate(-220.7 -233.605)" style="fill:#fff"/>
                        </g>
                    </g>
                </g>
                <g data-name="Group 2700">
                    <g data-name="Group 2699">
                        <path data-name="Path 3632" d="M338.259 189.515h15.694a.881.881 0 0 1 .881.881v11.542a.881.881 0 0 1-.881.881h-15.694a.881.881 0 0 1-.881-.881V190.4a.881.881 0 0 1 .881-.885z" transform="translate(-275.948 -163.846)" style="fill:#fff"/>
                    </g>
                    <path data-name="Path 3633" d="M353.953 189.515h-3.146v7.413a1.815 1.815 0 0 1-1.815 1.815h-11.614v3.2a.881.881 0 0 0 .881.881h15.694a.881.881 0 0 0 .881-.881V190.4a.881.881 0 0 0-.881-.885z" transform="translate(-275.948 -163.846)" style="fill:#fff"/>
                </g>
                <g data-name="Group 2702">
                    <g data-name="Group 2701">
                        <path data-name="Path 3634" d="M338.259 303.277h15.694a.881.881 0 0 1 .881.881V315.7a.881.881 0 0 1-.881.881h-15.694a.881.881 0 0 1-.881-.881v-11.542a.881.881 0 0 1 .881-.881z" transform="translate(-275.948 -257.569)" style="fill:#fff"/>
                    </g>
                    <path data-name="Path 3635" d="M353.953 303.277h-3.146v7.413a1.815 1.815 0 0 1-1.815 1.815h-11.614v3.2a.881.881 0 0 0 .881.881h15.694a.881.881 0 0 0 .881-.881v-11.547a.881.881 0 0 0-.881-.881z" transform="translate(-275.948 -257.569)" style="fill:#fff"/>
                </g>
            </g>
            <g data-name="Group 2704">
                <path data-name="Path 3636" d="M5.175 280.271H.907a.907.907 0 0 1-.907-.907V275.1a.907.907 0 0 1 .907-.907h4.268a.907.907 0 0 1 .907.907v4.267a.907.907 0 0 1-.907.904z" transform="translate(2 -233.605)" style="fill:#fff"/>
            </g>
        </g>
        <g data-name="Group 2713">
            <g data-name="Group 2706">
                <path data-name="Path 3637" d="M404.846 74.648h-.21a1.321 1.321 0 1 1 0-2.642h.21a1.321 1.321 0 0 1 0 2.642z" transform="translate(-330.271 -67.036)" style="fill:#fff"/>
            </g>
            <g data-name="Group 2707">
                <path data-name="Path 3638" d="M436.987 74.648h-.21a1.321 1.321 0 0 1 0-2.642h.21a1.321 1.321 0 1 1 0 2.642z" transform="translate(-356.75 -67.036)" style="fill:#fff"/>
            </g>
            <g data-name="Group 2708">
                <path data-name="Path 3639" d="M469.129 74.648h-.21a1.321 1.321 0 0 1 0-2.642h.21a1.321 1.321 0 0 1 0 2.642z" transform="translate(-383.23 -67.036)" style="fill:#fff"/>
            </g>
            <path data-name="Path 3640" d="M354.835 190.4a.881.881 0 0 0-.881-.881h-1.3l-6.548 4.991-6.548-4.991h-1.3a.881.881 0 0 0-.881.881v.78l6.548 4.991-6.548 4.991v.78a.881.881 0 0 0 .881.881h1.3l6.548-4.991 6.548 4.991h1.3a.881.881 0 0 0 .881-.881v-.78l-6.548-4.991 6.548-4.991z" transform="translate(-275.95 -163.846)" style="fill:#fff"/>
            <path data-name="Path 3641" d="M354.835 304.158a.881.881 0 0 0-.881-.881h-1.3l-6.548 4.991-6.548-4.991h-1.3a.881.881 0 0 0-.881.881v.78l6.548 4.991-6.548 4.991v.78a.881.881 0 0 0 .881.881h1.3l6.548-4.991 6.548 4.991h1.3a.881.881 0 0 0 .881-.881v-.78l-6.548-4.991 6.548-4.991z" transform="translate(-275.95 -257.568)" style="fill:#fff"/>
            <g data-name="Group 2712">
                <g data-name="Group 2709">
                    <path data-name="Path 3642" d="M260.949 341.577h-8.065a1.321 1.321 0 1 1 0-2.642h8.065a1.321 1.321 0 1 1 0 2.642z" transform="translate(-205.25 -286.945)" style="fill:#fff"/>
                </g>
                <g data-name="Group 2710">
                    <path data-name="Path 3643" d="M149.374 341.577h-16.335a1.321 1.321 0 1 1 0-2.642h16.335a1.321 1.321 0 1 1 0 2.642z" transform="translate(-106.516 -286.945)" style="fill:#fff"/>
                </g>
                <g data-name="Group 2711">
                    <path data-name="Path 3644" d="M162.215 373.945h-29.176a1.321 1.321 0 0 1 0-2.642h29.175a1.321 1.321 0 1 1 0 2.642z" transform="translate(-106.516 -313.611)" style="fill:#fff"/>
                </g>
            </g>
        </g>
        <g data-name="website-layout">
            <g data-name="Group 2705">
                <g data-name="Group 2703">
                    <g data-name="Group 2682">
                        <g data-name="Group 2681">
                            <path data-name="Path 3614" d="M146.042 114.057h-39.564v28.207h-1.952a.908.908 0 0 0-.907.907v1.952H67.976v28.595a2.722 2.722 0 0 0 2.722 2.722h72.772a2.722 2.722 0 0 0 2.722-2.722v-59.456z" transform="translate(-56.002 -99.68)" style="fill:#eaf6ff"/>
                        </g>
                    </g>
                    <path data-name="Path 3615" d="M146.042 114.057h-6.5V168.1a.907.907 0 0 1-.907.907H67.976v4.716a2.722 2.722 0 0 0 2.722 2.722h72.772a2.722 2.722 0 0 0 2.722-2.722v-59.461z" transform="translate(-56.002 -99.68)" style="fill:#d8ecfe"/>
                    <g data-name="Group 2683">
                        <path data-name="Path 3616" d="M169.742 151.82h-32.154v21.555h-1.952a.908.908 0 0 0-.907.907v1.952h-28.991v22.971a.907.907 0 0 0 .907.907h63.1a.907.907 0 0 0 .907-.907v-46.478a.907.907 0 0 0-.91-.907z" transform="translate(-87.112 -130.791)" style="fill:#fff"/>
                    </g>
                    <g data-name="Group 2684">
                        <path data-name="Path 3617" d="M169.742 151.82h-4.508v41.942a.907.907 0 0 1-.907.907h-58.589v4.537a.907.907 0 0 0 .907.907h63.1a.907.907 0 0 0 .907-.907v-46.479a.907.907 0 0 0-.91-.907z" transform="translate(-87.112 -130.791)" style="fill:#f8f6f6"/>
                    </g>
                    <g data-name="Group 2685">
                        <path data-name="Path 3618" d="M143.469 43.794H70.7a2.722 2.722 0 0 0-2.722 2.722v5.674h35.819v-.99a.732.732 0 0 1 .731-.731h4.267a.732.732 0 0 1 .731.731v4.267a.732.732 0 0 1-.731.731h-.176v.176h37.574v-9.86a2.722 2.722 0 0 0-2.724-2.72z" transform="translate(-56.001 -41.794)" style="fill:#ff7757"/>
                    </g>
                    <g data-name="Group 2686">
                        <path data-name="Path 3619" d="M334.369 43.794h-3.93v6.259a.881.881 0 0 1-.881.881h-29a.9.9 0 0 1 .045.267v4.267a.907.907 0 0 1-.907.907h37.4v-9.86a2.722 2.722 0 0 0-2.727-2.721z" transform="translate(-246.902 -41.794)" style="fill:#e1694d"/>
                    </g>
                    <g data-name="Group 2698">
                        <g data-name="Group 2697">
                            <g data-name="Group 2693">
                                <g data-name="Group 2687">
                                    <path data-name="Path 3620" d="M62.747 100.815a.727.727 0 0 1-.726-.726v-2.134h-41.9v2.134a.727.727 0 0 1-.726.726h-2.131v28.365H19.4a.727.727 0 0 1 .726.726v2.134h41.9v-2.134a.727.727 0 0 1 .726-.726h2.134v-28.365z" transform="translate(-14.223 -86.415)" style="fill:#fff"/>
                                </g>
                                <g data-name="Group 2688">
                                    <path data-name="Path 3621" d="M17.264 129.18H19.4a.727.727 0 0 1 .726.726v2.134h41.9v-2.134a.727.727 0 0 1 .726-.726h2.134v-28.365h-2.139a.727.727 0 0 1-.726-.726v-2.134h-2.885v26.9a1.815 1.815 0 0 1-1.815 1.815H17.264z" transform="translate(-14.223 -86.415)" style="fill:#f8f6f6"/>
                                </g>
                                <g data-name="Group 2689">
                                    <path data-name="Path 3622" d="M17.264 169.055H19.4a.727.727 0 0 1 .726.726v2.134h41.9v-2.134a.727.727 0 0 1 .726-.726h2.134v-9.33l-12.6-12.6a2.621 2.621 0 0 0-3.707 0l-14.648 14.639a.874.874 0 0 1-1.236 0l-5.607-5.607a2.621 2.621 0 0 0-3.707 0l-6.118 6.118v6.779z" transform="translate(-14.223 -126.289)" style="fill:#003adc"/>
                                </g>
                                <path data-name="Path 3623" d="M59.136 189.641v10.751a1.815 1.815 0 0 1-1.815 1.815H17.264v2.509H19.4a.727.727 0 0 1 .726.726v2.134h41.9v-2.134a.727.727 0 0 1 .726-.726h2.134v-9.33z" transform="translate(-14.223 -161.95)" style="fill:#002a9e"/>
                                <g data-name="Group 2690">
                                    <path data-name="Path 3624" d="M33.528 90.455h41.887V93.1H33.528z" transform="translate(-27.622 -80.236)" style="fill:#404040"/>
                                    <path data-name="Path 3625" d="M9.764 114.219h2.642v28.355H9.764z" transform="translate(-8.044 -99.814)" style="fill:#404040"/>
                                    <path data-name="Path 3626" d="M280.081 114.219h2.642v28.355h-2.642z" transform="translate(-230.744 -99.814)" style="fill:#404040"/>
                                    <path data-name="Path 3627" d="M33.528 283.953h41.887v2.647H33.528z" transform="translate(-27.622 -239.649)" style="fill:#404040"/>
                                </g>
                                <g data-name="Group 2691" transform="translate(15.927 17.199)">
                                    <circle data-name="Ellipse 68" cx="3.189" cy="3.189" r="3.189" style="fill:#e1694d"/>
                                </g>
                                <g data-name="Group 2692">
                                    <path data-name="Path 3628" d="M96.17 130.089a3.189 3.189 0 0 1-2.648 4.966h-.032a3.188 3.188 0 1 0 2.68-4.964z" transform="translate(-77.022 -112.888)" style="fill:#ff7757"/>
                                </g>
                            </g>
                            <g data-name="Group 2694">
                                <path data-name="Path 3629" d="M5.175 86.773H.907A.907.907 0 0 1 0 85.866V81.6a.907.907 0 0 1 .907-.907h4.268a.907.907 0 0 1 .907.907v4.267a.907.907 0 0 1-.907.906z" transform="translate(0 -72.192)" style="fill:#ececec"/>
                            </g>
                            <g data-name="Group 2695">
                                <path data-name="Path 3630" d="M275.492 86.773h-4.267a.907.907 0 0 1-.907-.907V81.6a.907.907 0 0 1 .907-.907h4.267a.907.907 0 0 1 .907.907v4.267a.907.907 0 0 1-.907.906z" transform="translate(-222.7 -72.192)" style="fill:#ececec"/>
                            </g>
                            <g data-name="Group 2696">
                                <path data-name="Path 3631" d="M275.492 280.271h-4.267a.907.907 0 0 1-.907-.907V275.1a.907.907 0 0 1 .907-.907h4.267a.907.907 0 0 1 .907.907v4.267a.907.907 0 0 1-.907.904z" transform="translate(-222.7 -231.605)" style="fill:#ececec"/>
                            </g>
                        </g>
                    </g>
                    <g data-name="Group 2700">
                        <g data-name="Group 2699">
                            <path data-name="Path 3632" d="M338.259 189.515h15.694a.881.881 0 0 1 .881.881v11.542a.881.881 0 0 1-.881.881h-15.694a.881.881 0 0 1-.881-.881V190.4a.881.881 0 0 1 .881-.885z" transform="translate(-277.948 -161.846)" style="fill:#003adc"/>
                        </g>
                        <path data-name="Path 3633" d="M353.953 189.515h-3.146v7.413a1.815 1.815 0 0 1-1.815 1.815h-11.614v3.2a.881.881 0 0 0 .881.881h15.694a.881.881 0 0 0 .881-.881V190.4a.881.881 0 0 0-.881-.885z" transform="translate(-277.948 -161.846)" style="fill:#002a9e"/>
                    </g>
                    <g data-name="Group 2702">
                        <g data-name="Group 2701">
                            <path data-name="Path 3634" d="M338.259 303.277h15.694a.881.881 0 0 1 .881.881V315.7a.881.881 0 0 1-.881.881h-15.694a.881.881 0 0 1-.881-.881v-11.542a.881.881 0 0 1 .881-.881z" transform="translate(-277.948 -255.569)" style="fill:#ff7757"/>
                        </g>
                        <path data-name="Path 3635" d="M353.953 303.277h-3.146v7.413a1.815 1.815 0 0 1-1.815 1.815h-11.614v3.2a.881.881 0 0 0 .881.881h15.694a.881.881 0 0 0 .881-.881v-11.547a.881.881 0 0 0-.881-.881z" transform="translate(-277.948 -255.569)" style="fill:#e1694d"/>
                    </g>
                </g>
                <g data-name="Group 2704">
                    <path data-name="Path 3636" d="M5.175 280.271H.907a.907.907 0 0 1-.907-.907V275.1a.907.907 0 0 1 .907-.907h4.268a.907.907 0 0 1 .907.907v4.267a.907.907 0 0 1-.907.904z" transform="translate(0 -231.605)" style="fill:#ececec"/>
                </g>
            </g>
            <g data-name="Group 2713">
                <g data-name="Group 2706">
                    <path data-name="Path 3637" d="M404.846 74.648h-.21a1.321 1.321 0 1 1 0-2.642h.21a1.321 1.321 0 0 1 0 2.642z" transform="translate(-332.271 -65.036)" style="fill:#fff"/>
                </g>
                <g data-name="Group 2707">
                    <path data-name="Path 3638" d="M436.987 74.648h-.21a1.321 1.321 0 0 1 0-2.642h.21a1.321 1.321 0 1 1 0 2.642z" transform="translate(-358.75 -65.036)" style="fill:#fff"/>
                </g>
                <g data-name="Group 2708">
                    <path data-name="Path 3639" d="M469.129 74.648h-.21a1.321 1.321 0 0 1 0-2.642h.21a1.321 1.321 0 0 1 0 2.642z" transform="translate(-385.23 -65.036)" style="fill:#fff"/>
                </g>
                <path data-name="Path 3640" d="M354.835 190.4a.881.881 0 0 0-.881-.881h-1.3l-6.548 4.991-6.548-4.991h-1.3a.881.881 0 0 0-.881.881v.78l6.548 4.991-6.548 4.991v.78a.881.881 0 0 0 .881.881h1.3l6.548-4.991 6.548 4.991h1.3a.881.881 0 0 0 .881-.881v-.78l-6.548-4.991 6.548-4.991z" transform="translate(-277.95 -161.846)" style="fill:#ff7757"/>
                <path data-name="Path 3641" d="M354.835 304.158a.881.881 0 0 0-.881-.881h-1.3l-6.548 4.991-6.548-4.991h-1.3a.881.881 0 0 0-.881.881v.78l6.548 4.991-6.548 4.991v.78a.881.881 0 0 0 .881.881h1.3l6.548-4.991 6.548 4.991h1.3a.881.881 0 0 0 .881-.881v-.78l-6.548-4.991 6.548-4.991z" transform="translate(-277.95 -255.568)" style="fill:#003adc"/>
                <g data-name="Group 2712">
                    <g data-name="Group 2709">
                        <path data-name="Path 3642" d="M260.949 341.577h-8.065a1.321 1.321 0 1 1 0-2.642h8.065a1.321 1.321 0 1 1 0 2.642z" transform="translate(-207.25 -284.945)" style="fill:#acacac"/>
                    </g>
                    <g data-name="Group 2710">
                        <path data-name="Path 3643" d="M149.374 341.577h-16.335a1.321 1.321 0 1 1 0-2.642h16.335a1.321 1.321 0 1 1 0 2.642z" transform="translate(-108.516 -284.945)" style="fill:#acacac"/>
                    </g>
                    <g data-name="Group 2711">
                        <path data-name="Path 3644" d="M162.215 373.945h-29.176a1.321 1.321 0 0 1 0-2.642h29.175a1.321 1.321 0 1 1 0 2.642z" transform="translate(-108.516 -311.611)" style="fill:#acacac"/>
                    </g>
                </g>
            </g>
        </g>
    </g>
</svg>
