<svg xmlns="http://www.w3.org/2000/svg" width="16.888" height="22.518" viewBox="0 0 16.888 22.518">
    <path d="M2.464 0a1.42 1.42 0 0 0-1.406 1.407v19.7a1.418 1.418 0 0 0 1.406 1.406h14.075a1.418 1.418 0 0 0 1.406-1.406V5.628h-4.919a.715.715 0 0 1-.708-.7V0zm11.261 0v4.221h4.222a.7.7 0 0 0-.212-.5L14.268.253A.622.622 0 0 0 13.725 0zM5.281 7.739h8.439a.7.7 0 0 1 0 1.409H5.281a.7.7 0 0 1 0-1.409zm0 3.517h8.439a.7.7 0 1 1 0 1.407H5.281a.7.7 0 1 1 0-1.407zm0 3.523h8.439a.7.7 0 1 1 0 1.407H5.281a.7.7 0 1 1 0-1.407z" transform="translate(-1.058)" style="fill:#ff7757"/>
</svg>
