<svg xmlns="http://www.w3.org/2000/svg" width="27.998" height="22.561" viewBox="0 0 27.998 22.561">
    <g data-name="Group 2720">
        <path data-name="Path 3645" d="M151.333 401.144h-1.028a5.417 5.417 0 0 1-1.408-2.123h-5.757a5.418 5.418 0 0 1-1.408 2.123h-1.027a1.05 1.05 0 0 0-1.05 1.05.286.286 0 0 0 .286.286H152.1a.286.286 0 0 0 .286-.286 1.05 1.05 0 0 0-1.053-1.05z" transform="translate(-132.018 -379.92)" style="fill:#ff7757"/>
        <path data-name="Path 3646" d="M26.741 49.718H1.26A1.267 1.267 0 0 0 0 50.978v15.968a1.277 1.277 0 0 0 1.278 1.278h25.463A1.253 1.253 0 0 0 28 66.967V50.978a1.256 1.256 0 0 0-1.259-1.26zM13.659 67.27a.56.56 0 1 1 .563-.56.559.559 0 0 1-.563.56zm12.85-2.07H1.489V51.207h25.02V65.2z" transform="translate(0 -49.718)" style="fill:#ff7757"/>
        <path data-name="Path 3647" d="M116.553 124.172c3.529 0 6.55-2.874 7.789-4.244a1.06 1.06 0 0 0 0-1.424c-1.239-1.37-4.259-4.241-7.789-4.241s-6.55 2.871-7.792 4.241a1.059 1.059 0 0 0 0 1.424c1.239 1.372 4.262 4.244 7.792 4.244zm0-8.852a3.9 3.9 0 1 1-3.9 3.9 3.894 3.894 0 0 1 3.9-3.901z" transform="translate(-102.554 -110.732)" style="fill:#ff7757"/>
        <path data-name="Path 3648" d="M218.567 169.576a2.164 2.164 0 0 0 2.165-2.165 2.207 2.207 0 0 0-.125-.721.971.971 0 1 1-1.319-1.319 2.206 2.206 0 0 0-.721-.125 2.165 2.165 0 1 0 0 4.331z" transform="translate(-204.568 -158.928)" style="fill:#ff7757"/>
    </g>
</svg>
