<svg xmlns="http://www.w3.org/2000/svg" width="20.151" height="25.188" viewBox="0 0 20.151 25.188">
    <g data-name="search (4)">
        <path data-name="Path 3655" d="M8.453 2.59 5.59 5.453h2.863z" transform="translate(-4.255 -1.255)" style="fill:#ff7757"/>
        <path data-name="Path 3656" d="M7.358 19.472v-1.68H9.13a7.506 7.506 0 0 1 .756-2.519H7.358v-1.679h3.686a7.489 7.489 0 0 1 8.069-2.057V1.84a.84.84 0 0 0-.84-.84h-8.4v5.038a.84.84 0 0 1-.84.84H4V21.99a.84.84 0 0 0 .84.84h5.491a7.5 7.5 0 0 1-1.217-3.358zm0-10.075h5.877v1.679H7.358z" style="fill:#ff7757" transform="translate(-4 -1)"/>
        <path data-name="Path 3657" d="M22.619 24.435a5.877 5.877 0 1 0-1.184 1.184l2.821 2.821 1.184-1.184zm-4.643-1.872a.841.841 0 0 1-1.184 0l-1.629-1.629 1.192-1.184 1.033 1.033 2.1-2.1 1.184 1.184z" transform="translate(-5.289 -3.251)" style="fill:#ff7757"/>
    </g>
</svg>
