<svg xmlns="http://www.w3.org/2000/svg" width="23.329" height="15.559" viewBox="0 0 23.329 15.559">
  <path id="Icon_ionic-ios-arrow-round-up" data-name="Icon ionic-ios-arrow-round-up" d="M15.261,8.452a1.059,1.059,0,0,1-1.491.008L8.835,3.541V22.283a1.053,1.053,0,0,1-2.107,0V3.541L1.794,8.468A1.066,1.066,0,0,1,.3,8.46,1.049,1.049,0,0,1,.311,6.977L7.037.3h0A1.183,1.183,0,0,1,7.369.081,1,1,0,0,1,7.774,0a1.056,1.056,0,0,1,.737.3l6.726,6.677A1.032,1.032,0,0,1,15.261,8.452Z" transform="translate(23.329) rotate(90)" fill="#fff"/>
</svg>
