<svg xmlns="http://www.w3.org/2000/svg" width="30.304" height="52.979" viewBox="0 0 30.304 52.979">
  <g id="ui_ux" transform="translate(-0.268 -2.305)">
    <path id="Path_1707" data-name="Path 1707" d="M23.135,26.676a4.836,4.836,0,0,1-1.527,3.808c-1.354,1.334-2.688,2.688-4.022,4.032l-2.159,2.159a1.388,1.388,0,0,1-.112-.092L8.87,30.108a4.517,4.517,0,0,1-.713-5.081,4.33,4.33,0,0,1,2.393-2.138,4.327,4.327,0,0,1,4.521.753c.122.092.234.193.346.3.081-.071.153-.132.214-.193a4.473,4.473,0,0,1,7.188,1.639,4.6,4.6,0,0,1,.316,1.3Z" fill="none" stroke="#000" stroke-linecap="round" stroke-linejoin="round" stroke-width="1.5"/>
    <path id="Path_1708" data-name="Path 1708" d="M27.073,3.054H3.767A2.749,2.749,0,0,0,1.018,5.8V51.785a2.749,2.749,0,0,0,2.749,2.749H27.073a2.749,2.749,0,0,0,2.749-2.749V5.8A2.749,2.749,0,0,0,27.073,3.054Z" fill="none" stroke="#000" stroke-linecap="round" stroke-linejoin="round" stroke-width="1.5"/>
    <path id="Path_1709" data-name="Path 1709" d="M27.133,7.137H3.695V48.4H27.133Z" fill="none" stroke="#000" stroke-linecap="round" stroke-linejoin="round" stroke-width="1.5"/>
    <path id="Path_1710" data-name="Path 1710" d="M12.512,5.162h5.712" fill="none" stroke="#000" stroke-linecap="round" stroke-linejoin="round" stroke-width="1.5"/>
  </g>
</svg>
