<svg xmlns="http://www.w3.org/2000/svg" xmlns:xlink="http://www.w3.org/1999/xlink" width="182" height="471" viewBox="0 0 182 471">
  <defs>
    <filter id="Rectangle_1872" x="0" y="0" width="182" height="471" filterUnits="userSpaceOnUse">
      <feOffset dy="3" input="SourceAlpha"/>
      <feGaussianBlur stdDeviation="12" result="blur"/>
      <feFlood flood-opacity="0.161"/>
      <feComposite operator="in" in2="blur"/>
      <feComposite in="SourceGraphic"/>
    </filter>
  </defs>
  <g id="Souffront_stats" data-name="Souffront stats" transform="translate(-1971.156 824)">
    <g transform="matrix(1, 0, 0, 1, 1971.16, -824)" filter="url(#Rectangle_1872)">
      <rect id="Rectangle_1872-2" data-name="Rectangle 1872" width="110" height="399" transform="translate(36 33)" fill="#fff"/>
    </g>
    <path id="Path_3902" data-name="Path 3902" d="M14.2,0V-3.752L6.664-3.7l4.088-3.892c2.464-2.324,3.388-4,3.388-6.16,0-3.472-2.408-5.572-6.44-5.572-4.312,0-6.86,2.352-6.86,6.384H5.124a2.213,2.213,0,0,1,2.464-2.492c1.4,0,2.156.728,2.156,1.988,0,1.092-.616,2.1-2.352,3.808l-6.356,6.3V0Zm.616-18.9v3.948H22.96L15.54,0h4.48l7.364-15.12V-18.9ZM35.224.42c4.536,0,7.224-2.072,7.224-5.572a4.624,4.624,0,0,0-3.612-4.816v-.084a4.144,4.144,0,0,0,3.08-4.172c0-3.164-2.576-5.1-6.692-5.1s-6.664,1.932-6.664,5.1a4.121,4.121,0,0,0,3.052,4.172v.084A4.651,4.651,0,0,0,28-5.152C28-1.652,30.688.42,35.224.42Zm0-12.124a2,2,0,0,1-2.184-1.988,1.988,1.988,0,0,1,2.184-2.016,1.988,1.988,0,0,1,2.184,2.016A2,2,0,0,1,35.224-11.7Zm0,8.344a2.515,2.515,0,0,1-2.688-2.576,2.537,2.537,0,0,1,2.688-2.6,2.537,2.537,0,0,1,2.688,2.6A2.5,2.5,0,0,1,35.224-3.36Z" transform="translate(2040.156 -719)" fill="#0d0d0d"/>
    <path id="Path_3901" data-name="Path 3901" d="M18,14V4.2h1.274v8.652h4.858V14Zm13.678-3.85a4.96,4.96,0,0,1-.028.546H26.083a2.584,2.584,0,0,0,.679,1.715,2.087,2.087,0,0,0,1.575.651,2.328,2.328,0,0,0,1.344-.364,1.645,1.645,0,0,0,.686-1.022l1.12.266a2.694,2.694,0,0,1-1.1,1.6,3.528,3.528,0,0,1-2.051.574,3.2,3.2,0,0,1-2.5-1.05,3.73,3.73,0,0,1-.945-2.59,3.756,3.756,0,0,1,.931-2.6,3.167,3.167,0,0,1,2.485-1.043,3.223,3.223,0,0,1,3.374,3.318ZM26.153,9.7h4.27a2.058,2.058,0,0,0-.644-1.358,2.282,2.282,0,0,0-2.87-.021A2.4,2.4,0,0,0,26.153,9.7Zm9.618-2.87a3.031,3.031,0,0,1,2.1.714,2.462,2.462,0,0,1,.8,1.932V14H37.493V12.8a2.281,2.281,0,0,1-.945.959,2.829,2.829,0,0,1-1.407.357,2.512,2.512,0,0,1-1.715-.581,1.905,1.905,0,0,1-.665-1.505q0-1.988,3.36-2.324l1.372-.154v-.14a1.485,1.485,0,0,0-.469-1.155,2.02,2.02,0,0,0-2.457-.021,1.613,1.613,0,0,0-.546,1.12l-1.106-.21a2.536,2.536,0,0,1,.945-1.68A2.972,2.972,0,0,1,35.771,6.832Zm-.448,6.3a2.05,2.05,0,0,0,1.6-.63,2.419,2.419,0,0,0,.574-1.694v-.336l-1.372.154q-2.17.238-2.17,1.386a.994.994,0,0,0,.385.8A1.508,1.508,0,0,0,35.323,13.132Zm8.274.98A3.172,3.172,0,0,1,41.1,13.1a3.8,3.8,0,0,1-.9-2.625,3.82,3.82,0,0,1,.9-2.625,3.15,3.15,0,0,1,2.492-1.015,3.034,3.034,0,0,1,1.337.308,2.378,2.378,0,0,1,.973.812V4.088h1.19V14h-1.19V12.978a1.843,1.843,0,0,1-.882.812A3.117,3.117,0,0,1,43.6,14.112Zm-1.554-1.771a2.316,2.316,0,0,0,3.332,0A2.7,2.7,0,0,0,46,10.472a2.7,2.7,0,0,0-.63-1.869,2.316,2.316,0,0,0-3.332,0,2.7,2.7,0,0,0-.63,1.869A2.7,2.7,0,0,0,42.043,12.341Zm9.338,1.771a2.931,2.931,0,0,1-2.94-2.058l1.022-.448a1.889,1.889,0,0,0,1.918,1.5,1.611,1.611,0,0,0,1.029-.315.943.943,0,0,0,.4-.763.878.878,0,0,0-.42-.77,3.091,3.091,0,0,0-1.015-.42q-.6-.14-1.19-.315A2.228,2.228,0,0,1,49.169,9.9a1.669,1.669,0,0,1-.42-1.19,1.634,1.634,0,0,1,.672-1.358,2.884,2.884,0,0,1,1.806-.518,2.944,2.944,0,0,1,1.666.483,2.224,2.224,0,0,1,.952,1.253L52.851,9a1.489,1.489,0,0,0-.609-.861A1.775,1.775,0,0,0,51.2,7.812a1.71,1.71,0,0,0-.952.231.736.736,0,0,0-.35.651.686.686,0,0,0,.3.574,1.86,1.86,0,0,0,.756.315q.455.091.987.252a8.824,8.824,0,0,1,.98.357,1.7,1.7,0,0,1,.749.665,2.1,2.1,0,0,1,.3,1.155,1.87,1.87,0,0,1-.714,1.512A2.857,2.857,0,0,1,51.381,14.112ZM7,32.112A4.66,4.66,0,0,1,3.662,30.8a4.866,4.866,0,0,1-1.379-3.7,5.356,5.356,0,0,1,.686-2.772,4.29,4.29,0,0,1,1.743-1.7,5.026,5.026,0,0,1,2.317-.539,4.5,4.5,0,0,1,2.765.84,3.638,3.638,0,0,1,1.421,2.254l-1.26.266a2.635,2.635,0,0,0-.987-1.631,3.1,3.1,0,0,0-1.939-.595,3.22,3.22,0,0,0-2.478,1.029A4.035,4.035,0,0,0,3.6,27.1a4.027,4.027,0,0,0,.945,2.842,3.209,3.209,0,0,0,2.471,1.022A3,3,0,0,0,9.2,30.159a2.9,2.9,0,0,0,.854-2.107H6.637V26.946h4.62V32H10.1V30.488A2.5,2.5,0,0,1,8.9,31.671,4.088,4.088,0,0,1,7,32.112ZM19.447,28.15a4.96,4.96,0,0,1-.028.546H13.847a2.584,2.584,0,0,0,.679,1.715,2.087,2.087,0,0,0,1.575.651,2.328,2.328,0,0,0,1.344-.364,1.645,1.645,0,0,0,.686-1.022l1.12.266a2.694,2.694,0,0,1-1.1,1.6,3.528,3.528,0,0,1-2.051.574,3.2,3.2,0,0,1-2.5-1.05,4.054,4.054,0,0,1-.014-5.187,3.167,3.167,0,0,1,2.485-1.043,3.223,3.223,0,0,1,3.374,3.318Zm-5.53-.448h4.27a2.058,2.058,0,0,0-.644-1.358,2.282,2.282,0,0,0-2.87-.021A2.4,2.4,0,0,0,13.917,27.7ZM20.973,32V24.944h1.19v1.33a2.94,2.94,0,0,1,1.008-1.05,2.622,2.622,0,0,1,1.414-.392,2.5,2.5,0,0,1,1.813.686,2.4,2.4,0,0,1,.707,1.806V32h-1.19V27.548a1.643,1.643,0,0,0-.434-1.183,1.531,1.531,0,0,0-1.162-.455,1.842,1.842,0,0,0-1.575.805,3.676,3.676,0,0,0-.581,2.191V32Zm14.448-3.85a4.96,4.96,0,0,1-.028.546H29.821a2.584,2.584,0,0,0,.679,1.715,2.087,2.087,0,0,0,1.575.651,2.328,2.328,0,0,0,1.344-.364,1.645,1.645,0,0,0,.686-1.022l1.12.266a2.694,2.694,0,0,1-1.1,1.6,3.528,3.528,0,0,1-2.051.574,3.2,3.2,0,0,1-2.5-1.05,4.054,4.054,0,0,1-.014-5.187,3.167,3.167,0,0,1,2.485-1.043,3.223,3.223,0,0,1,3.374,3.318Zm-5.53-.448h4.27a2.058,2.058,0,0,0-.644-1.358,2.282,2.282,0,0,0-2.87-.021A2.4,2.4,0,0,0,29.891,27.7Zm11.186-1.6a2.294,2.294,0,0,0-.91-.168A1.7,1.7,0,0,0,38.7,26.8a4.585,4.585,0,0,0-.567,2.513V32h-1.19V24.944h1.19v1.428a2.719,2.719,0,0,1,.924-1.106,2.185,2.185,0,0,1,1.274-.434,2.393,2.393,0,0,1,.812.126Zm3.612-1.274a3.031,3.031,0,0,1,2.1.714,2.462,2.462,0,0,1,.8,1.932V32H46.411V30.8a2.281,2.281,0,0,1-.945.959,2.828,2.828,0,0,1-1.407.357,2.512,2.512,0,0,1-1.715-.581,1.905,1.905,0,0,1-.665-1.5q0-1.988,3.36-2.324l1.372-.154v-.14a1.485,1.485,0,0,0-.469-1.155,2.02,2.02,0,0,0-2.457-.021,1.613,1.613,0,0,0-.546,1.12l-1.106-.21a2.536,2.536,0,0,1,.945-1.68A2.972,2.972,0,0,1,44.689,24.832Zm-.448,6.3a2.05,2.05,0,0,0,1.6-.63,2.419,2.419,0,0,0,.574-1.694v-.336l-1.372.154q-2.17.238-2.17,1.386a.994.994,0,0,0,.385.805A1.508,1.508,0,0,0,44.241,31.132Zm8.988.812a3.244,3.244,0,0,1-1.106.168,2.082,2.082,0,0,1-1.519-.553,2.24,2.24,0,0,1-.567-1.673V25.994H48.721v-1.05h1.316V22.8h1.19v2.142h1.89v1.05h-1.89v3.934a1.12,1.12,0,0,0,.28.826,1.022,1.022,0,0,0,.756.28,1.956,1.956,0,0,0,.882-.182Zm7.588-3.794a4.96,4.96,0,0,1-.028.546H55.217a2.584,2.584,0,0,0,.679,1.715,2.087,2.087,0,0,0,1.575.651,2.328,2.328,0,0,0,1.344-.364,1.645,1.645,0,0,0,.686-1.022l1.12.266a2.694,2.694,0,0,1-1.1,1.6,3.528,3.528,0,0,1-2.051.574,3.2,3.2,0,0,1-2.5-1.05,4.054,4.054,0,0,1-.014-5.187,3.167,3.167,0,0,1,2.485-1.043,3.223,3.223,0,0,1,3.374,3.318Zm-5.53-.448h4.27a2.058,2.058,0,0,0-.644-1.358,2.282,2.282,0,0,0-2.87-.021A2.4,2.4,0,0,0,55.287,27.7Zm10.052,4.41a3.172,3.172,0,0,1-2.5-1.015,3.8,3.8,0,0,1-.9-2.625,3.82,3.82,0,0,1,.9-2.625,3.15,3.15,0,0,1,2.492-1.015,3.034,3.034,0,0,1,1.337.308,2.378,2.378,0,0,1,.973.812V22.088h1.19V32h-1.19V30.978a1.843,1.843,0,0,1-.882.812A3.117,3.117,0,0,1,65.339,32.112Zm-1.554-1.771a2.316,2.316,0,0,0,3.332,0,3.087,3.087,0,0,0,0-3.738,2.316,2.316,0,0,0-3.332,0,3.087,3.087,0,0,0,0,3.738Z" transform="translate(2029.156 -711)" fill="#0d0d0d"/>
    <path id="Path_3900" data-name="Path 3900" d="M7.392-19.32c-4.284,0-6.72,2.1-6.748,5.768h4.34c.028-1.176.868-1.876,2.24-1.876,1.344,0,2.1.672,2.1,1.9,0,1.54-.924,2.212-3,2.212H5.684V-8.12h.644c2.772,0,3.78.588,3.78,2.268,0,1.568-.868,2.38-2.576,2.38s-2.66-.784-2.772-2.3H.336C.336-1.764,2.884.42,7.5.42c4.424,0,7-2.156,7-5.824a4.29,4.29,0,0,0-3.948-4.648v-.056a4.075,4.075,0,0,0,3.36-4.228C13.916-17.528,11.592-19.32,7.392-19.32ZM29.4,0V-3.752L21.868-3.7l4.088-3.892c2.464-2.324,3.388-4,3.388-6.16,0-3.472-2.408-5.572-6.44-5.572-4.312,0-6.86,2.352-6.86,6.384h4.284a2.213,2.213,0,0,1,2.464-2.492c1.4,0,2.156.728,2.156,1.988,0,1.092-.616,2.1-2.352,3.808l-6.356,6.3V0ZM43.288-6.832V-18.9h-4.4l-8.9,12.516v3.22h9.324V0h3.976V-3.164H45V-6.832ZM39.2-13.748h.112v6.916H34.3ZM51.715-9.666a4.467,4.467,0,0,1-3.37-1.326,4.925,4.925,0,0,1-1.278-3.568,5.414,5.414,0,0,1,1.36-3.883,4.766,4.766,0,0,1,3.63-1.436,4.442,4.442,0,0,1,3.4,1.3,5.116,5.116,0,0,1,1.224,3.65,5.342,5.342,0,0,1-1.354,3.842A4.75,4.75,0,0,1,51.715-9.666Zm.26-7.807q-2,0-2,2.775,0,2.625,1.9,2.625,1.941,0,1.941-2.734Q53.82-17.473,51.975-17.473Zm14.055-2.133L53.26,0H49.924L62.666-19.605ZM63.924.273a4.467,4.467,0,0,1-3.37-1.326,4.925,4.925,0,0,1-1.278-3.568A5.414,5.414,0,0,1,60.636-8.5a4.766,4.766,0,0,1,3.63-1.436,4.462,4.462,0,0,1,3.4,1.285,5.084,5.084,0,0,1,1.217,3.637,5.391,5.391,0,0,1-1.354,3.855A4.726,4.726,0,0,1,63.924.273Zm.219-7.807q-1.982,0-1.982,2.775,0,2.625,1.928,2.625t1.941-2.734a3.243,3.243,0,0,0-.52-1.969A1.625,1.625,0,0,0,64.143-7.533Z" transform="translate(2026.156 -598)" fill="#0d0d0d"/>
    <path id="Path_3899" data-name="Path 3899" d="M11.49,14.112A4.61,4.61,0,0,1,8.025,12.7,4.969,4.969,0,0,1,6.66,9.1,4.969,4.969,0,0,1,8.025,5.5,4.61,4.61,0,0,1,11.49,4.088,4.593,4.593,0,0,1,14.941,5.5a4.969,4.969,0,0,1,1.365,3.6,4.969,4.969,0,0,1-1.365,3.6A4.593,4.593,0,0,1,11.49,14.112Zm-.014-1.148a3.275,3.275,0,0,0,2.534-1.092A3.96,3.96,0,0,0,15,9.1a3.986,3.986,0,0,0-.994-2.779,3.265,3.265,0,0,0-2.534-1.1,3.25,3.25,0,0,0-2.52,1.1A3.986,3.986,0,0,0,7.962,9.1a3.96,3.96,0,0,0,.994,2.772A3.259,3.259,0,0,0,11.476,12.964Zm10.5-4.858a2.294,2.294,0,0,0-.91-.168A1.7,1.7,0,0,0,19.6,8.8a4.585,4.585,0,0,0-.567,2.513V14h-1.19V6.944h1.19V8.372a2.719,2.719,0,0,1,.924-1.106,2.185,2.185,0,0,1,1.274-.434,2.393,2.393,0,0,1,.812.126Zm6.118-1.162H29.27v6.72a2.787,2.787,0,0,1-.917,2.163,3.393,3.393,0,0,1-2.373.833,3.624,3.624,0,0,1-2.1-.595,2.267,2.267,0,0,1-1.022-1.547l1.148-.2a1.27,1.27,0,0,0,.609.959,2.4,2.4,0,0,0,1.365.371,2.223,2.223,0,0,0,1.526-.518,1.707,1.707,0,0,0,.588-1.344v-.98a1.722,1.722,0,0,1-.868.728,3.374,3.374,0,0,1-1.386.28,3.179,3.179,0,0,1-2.471-.973,3.581,3.581,0,0,1-.889-2.513A3.618,3.618,0,0,1,23.362,7.8a3.139,3.139,0,0,1,2.45-.973,3.047,3.047,0,0,1,1.33.3,2.371,2.371,0,0,1,.952.763ZM24.314,12.1a2.138,2.138,0,0,0,1.638.658,2.115,2.115,0,0,0,1.631-.658,2.494,2.494,0,0,0,.609-1.764,2.52,2.52,0,0,0-.609-1.771,2.35,2.35,0,0,0-3.276,0,2.52,2.52,0,0,0-.609,1.771A2.477,2.477,0,0,0,24.314,12.1Zm9.52-5.264a3.031,3.031,0,0,1,2.1.714,2.462,2.462,0,0,1,.8,1.932V14H35.556V12.8a2.281,2.281,0,0,1-.945.959,2.828,2.828,0,0,1-1.407.357,2.512,2.512,0,0,1-1.715-.581,1.905,1.905,0,0,1-.665-1.505q0-1.988,3.36-2.324l1.372-.154v-.14a1.485,1.485,0,0,0-.469-1.155,2.02,2.02,0,0,0-2.457-.021,1.613,1.613,0,0,0-.546,1.12l-1.106-.21a2.536,2.536,0,0,1,.945-1.68A2.972,2.972,0,0,1,33.834,6.832Zm-.448,6.3a2.05,2.05,0,0,0,1.6-.63,2.419,2.419,0,0,0,.574-1.694v-.336l-1.372.154q-2.17.238-2.17,1.386a.994.994,0,0,0,.385.8A1.508,1.508,0,0,0,33.386,13.132ZM38.664,14V6.944h1.19v1.33a2.94,2.94,0,0,1,1.008-1.05,2.622,2.622,0,0,1,1.414-.392,2.5,2.5,0,0,1,1.813.686A2.4,2.4,0,0,1,44.8,9.324V14h-1.19V9.548a1.643,1.643,0,0,0-.434-1.183A1.531,1.531,0,0,0,42.01,7.91a1.842,1.842,0,0,0-1.575.805,3.676,3.676,0,0,0-.581,2.191V14Zm7.98-9.912h1.372V5.6H46.644ZM46.728,14V6.944h1.19V14Zm6.216.112a3.362,3.362,0,0,1-2.534-1,3.64,3.64,0,0,1-.966-2.639,3.64,3.64,0,0,1,.966-2.639,3.719,3.719,0,0,1,4.6-.378,2.613,2.613,0,0,1,1.029,1.673l-1.176.238a1.679,1.679,0,0,0-.63-1.057,1.958,1.958,0,0,0-1.26-.413,2.1,2.1,0,0,0-1.659.707,2.724,2.724,0,0,0-.623,1.869,2.724,2.724,0,0,0,.623,1.869,2.1,2.1,0,0,0,1.659.707,2.02,2.02,0,0,0,1.267-.392,1.755,1.755,0,0,0,.651-1.092l1.162.238A2.692,2.692,0,0,1,55,13.5,3.381,3.381,0,0,1,52.944,14.112ZM14.381,32V23.334H11.259V22.2h7.5v1.134H15.655V32Zm8.988-5.894a2.294,2.294,0,0,0-.91-.168A1.7,1.7,0,0,0,21,26.8a4.585,4.585,0,0,0-.567,2.513V32h-1.19V24.944h1.19v1.428a2.719,2.719,0,0,1,.924-1.106,2.185,2.185,0,0,1,1.274-.434,2.393,2.393,0,0,1,.812.126Zm3.612-1.274a3.031,3.031,0,0,1,2.1.714,2.462,2.462,0,0,1,.8,1.932V32H28.7V30.8a2.281,2.281,0,0,1-.945.959,2.828,2.828,0,0,1-1.407.357,2.512,2.512,0,0,1-1.715-.581,1.905,1.905,0,0,1-.665-1.5q0-1.988,3.36-2.324l1.372-.154v-.14a1.485,1.485,0,0,0-.469-1.155,2.02,2.02,0,0,0-2.457-.021,1.613,1.613,0,0,0-.546,1.12l-1.106-.21a2.536,2.536,0,0,1,.945-1.68A2.972,2.972,0,0,1,26.981,24.832Zm-.448,6.3a2.05,2.05,0,0,0,1.6-.63,2.419,2.419,0,0,0,.574-1.694v-.336l-1.372.154q-2.17.238-2.17,1.386a.994.994,0,0,0,.385.805A1.508,1.508,0,0,0,26.533,31.132ZM32.259,32V25.994h-1.2v-1.05h1.2v-.658a2.5,2.5,0,0,1,.574-1.757,1.959,1.959,0,0,1,1.512-.623,3.5,3.5,0,0,1,.952.112l-.056,1.064a2.051,2.051,0,0,0-.742-.14.945.945,0,0,0-.763.343,1.361,1.361,0,0,0-.287.9v.756h1.806v1.05H33.449V32Zm5.124,0V25.994h-1.2v-1.05h1.2v-.658a2.5,2.5,0,0,1,.574-1.757,1.959,1.959,0,0,1,1.512-.623,3.5,3.5,0,0,1,.952.112l-.056,1.064a2.051,2.051,0,0,0-.742-.14.945.945,0,0,0-.763.343,1.361,1.361,0,0,0-.287.9v.756h1.806v1.05H38.573V32Zm4.34-9.912H43.1V23.6H41.723ZM41.807,32V24.944H43V32Zm6.216.112a3.362,3.362,0,0,1-2.534-1,3.64,3.64,0,0,1-.966-2.639,3.64,3.64,0,0,1,.966-2.639,3.719,3.719,0,0,1,4.6-.378,2.613,2.613,0,0,1,1.029,1.673l-1.176.238a1.679,1.679,0,0,0-.63-1.057,1.958,1.958,0,0,0-1.26-.413,2.1,2.1,0,0,0-1.659.707,3.115,3.115,0,0,0,0,3.738,2.1,2.1,0,0,0,1.659.707,2.02,2.02,0,0,0,1.267-.392,1.755,1.755,0,0,0,.651-1.092l1.162.238a2.692,2.692,0,0,1-1.057,1.7A3.381,3.381,0,0,1,48.023,32.112Z" transform="translate(2031.156 -590)" fill="#0d0d0d"/>
    <path id="Path_3898" data-name="Path 3898" d="M13.72-6.832V-18.9h-4.4L.42-6.384v3.22H9.744V0H13.72V-3.164h1.708V-6.832ZM9.632-13.748h.112v6.916H4.732ZM24.416-19.32c-4.984,0-7.812,3.556-7.812,9.856S19.46.42,24.416.42c4.984,0,7.812-3.584,7.812-9.884S29.428-19.32,24.416-19.32Zm0,4c2.184,0,3.444,2.128,3.444,5.852s-1.26,5.88-3.444,5.88C22.26-3.584,21-5.74,21-9.464S22.26-15.316,24.416-15.316ZM39-9.666a4.467,4.467,0,0,1-3.37-1.326,4.925,4.925,0,0,1-1.278-3.568,5.414,5.414,0,0,1,1.36-3.883,4.766,4.766,0,0,1,3.63-1.436,4.442,4.442,0,0,1,3.4,1.3,5.116,5.116,0,0,1,1.224,3.65,5.342,5.342,0,0,1-1.354,3.842A4.75,4.75,0,0,1,39-9.666Zm.26-7.807q-2,0-2,2.775,0,2.625,1.9,2.625,1.941,0,1.941-2.734Q41.108-17.473,39.263-17.473Zm14.055-2.133L40.548,0H37.212L49.954-19.605ZM51.212.273a4.467,4.467,0,0,1-3.37-1.326,4.925,4.925,0,0,1-1.278-3.568A5.414,5.414,0,0,1,47.924-8.5a4.766,4.766,0,0,1,3.63-1.436,4.463,4.463,0,0,1,3.4,1.285,5.084,5.084,0,0,1,1.217,3.637,5.391,5.391,0,0,1-1.354,3.855A4.726,4.726,0,0,1,51.212.273Zm.219-7.807q-1.982,0-1.982,2.775,0,2.625,1.928,2.625t1.941-2.734a3.243,3.243,0,0,0-.52-1.969A1.625,1.625,0,0,0,51.431-7.533Z" transform="translate(2033.656 -465)" fill="#0d0d0d"/>
    <path id="Path_3897" data-name="Path 3897" d="M24.325,14V4.2h1.54l3.3,7.952,3.3-7.952h1.54V14h-1.26V6.608L29.7,14H28.637L25.571,6.608V14Zm17.423-.917a3.748,3.748,0,0,1-5.159,0,3.577,3.577,0,0,1-1.008-2.611,3.577,3.577,0,0,1,1.008-2.611,3.748,3.748,0,0,1,5.159,0,3.564,3.564,0,0,1,1.015,2.611A3.564,3.564,0,0,1,41.748,13.083Zm-4.291-.756a2.384,2.384,0,0,0,3.416,0,2.645,2.645,0,0,0,.658-1.855,2.645,2.645,0,0,0-.658-1.855,2.384,2.384,0,0,0-3.416,0,2.645,2.645,0,0,0-.658,1.855A2.645,2.645,0,0,0,37.457,12.327ZM44.289,14V6.944h1.19v1.33a2.94,2.94,0,0,1,1.008-1.05A2.622,2.622,0,0,1,47.9,6.832a2.5,2.5,0,0,1,1.813.686,2.4,2.4,0,0,1,.707,1.806V14h-1.19V9.548A1.643,1.643,0,0,0,48.8,8.365a1.531,1.531,0,0,0-1.162-.455,1.842,1.842,0,0,0-1.575.805,3.676,3.676,0,0,0-.581,2.191V14Zm11.55-.056a3.244,3.244,0,0,1-1.106.168,2.082,2.082,0,0,1-1.519-.553,2.24,2.24,0,0,1-.567-1.673V7.994H51.331V6.944h1.316V4.8h1.19V6.944h1.89v1.05h-1.89v3.934a1.12,1.12,0,0,0,.28.826,1.022,1.022,0,0,0,.756.28,1.956,1.956,0,0,0,.882-.182ZM57.351,14V4.088h1.19V8.33a2.54,2.54,0,0,1,2.408-1.5,2.677,2.677,0,0,1,1.925.686,2.413,2.413,0,0,1,.721,1.834V14H62.4V9.576a1.627,1.627,0,0,0-.455-1.225,1.744,1.744,0,0,0-1.267-.441,1.816,1.816,0,0,0-1.561.826,3.83,3.83,0,0,0-.581,2.24V14Zm8.176,0V4.088h1.19V14ZM73.3,6.944h1.218l-3.7,9.6H69.6L70.623,13.9,67.865,6.944h1.288l2.072,5.4ZM30.359,32H28.9l-2.716-4.368h-2.17V32H22.743V22.2h3.528a3.26,3.26,0,0,1,2.24.742,2.5,2.5,0,0,1,.84,1.974,2.585,2.585,0,0,1-.483,1.561,2.678,2.678,0,0,1-1.337.959Zm-6.342-8.666v3.15h2.114a2.173,2.173,0,0,0,1.414-.413,1.41,1.41,0,0,0,.5-1.155,1.43,1.43,0,0,0-.5-1.162,2.148,2.148,0,0,0-1.414-.42ZM37.569,28.15a4.96,4.96,0,0,1-.028.546H31.969a2.584,2.584,0,0,0,.679,1.715,2.087,2.087,0,0,0,1.575.651,2.328,2.328,0,0,0,1.344-.364,1.645,1.645,0,0,0,.686-1.022l1.12.266a2.694,2.694,0,0,1-1.1,1.6,3.528,3.528,0,0,1-2.051.574,3.2,3.2,0,0,1-2.5-1.05,4.054,4.054,0,0,1-.014-5.187A3.167,3.167,0,0,1,34.2,24.832a3.223,3.223,0,0,1,3.374,3.318Zm-5.53-.448h4.27a2.058,2.058,0,0,0-.644-1.358,2.282,2.282,0,0,0-2.87-.021A2.4,2.4,0,0,0,32.039,27.7Zm8.61,4.3-2.576-7.056h1.218l1.96,5.67,1.974-5.67h1.232L41.867,32Zm11.1-3.85a4.96,4.96,0,0,1-.028.546H46.151a2.584,2.584,0,0,0,.679,1.715,2.087,2.087,0,0,0,1.575.651,2.328,2.328,0,0,0,1.344-.364,1.645,1.645,0,0,0,.686-1.022l1.12.266a2.694,2.694,0,0,1-1.1,1.6,3.528,3.528,0,0,1-2.051.574,3.2,3.2,0,0,1-2.5-1.05,4.054,4.054,0,0,1-.014-5.187,3.167,3.167,0,0,1,2.485-1.043,3.223,3.223,0,0,1,3.374,3.318Zm-5.53-.448h4.27a2.058,2.058,0,0,0-.644-1.358,2.282,2.282,0,0,0-2.87-.021A2.4,2.4,0,0,0,46.221,27.7ZM53.277,32V24.944h1.19v1.33a2.94,2.94,0,0,1,1.008-1.05,2.622,2.622,0,0,1,1.414-.392,2.5,2.5,0,0,1,1.813.686,2.4,2.4,0,0,1,.707,1.806V32h-1.19V27.548a1.643,1.643,0,0,0-.434-1.183,1.531,1.531,0,0,0-1.162-.455,1.842,1.842,0,0,0-1.575.805,3.676,3.676,0,0,0-.581,2.191V32ZM67.4,24.944V32h-1.19V30.67a2.94,2.94,0,0,1-1.008,1.05,2.622,2.622,0,0,1-1.414.392,2.5,2.5,0,0,1-1.813-.686,2.4,2.4,0,0,1-.707-1.806V24.944h1.19V29.4a1.643,1.643,0,0,0,.434,1.183,1.531,1.531,0,0,0,1.162.455,1.842,1.842,0,0,0,1.575-.805,3.676,3.676,0,0,0,.581-2.191V24.944Zm8.316,3.206a4.959,4.959,0,0,1-.028.546H70.119a2.584,2.584,0,0,0,.679,1.715,2.087,2.087,0,0,0,1.575.651,2.328,2.328,0,0,0,1.344-.364,1.645,1.645,0,0,0,.686-1.022l1.12.266a2.694,2.694,0,0,1-1.1,1.6,3.528,3.528,0,0,1-2.051.574,3.2,3.2,0,0,1-2.5-1.05,4.054,4.054,0,0,1-.014-5.187,3.167,3.167,0,0,1,2.485-1.043,3.223,3.223,0,0,1,3.374,3.318Zm-5.53-.448h4.27a2.058,2.058,0,0,0-.644-1.358,2.282,2.282,0,0,0-2.87-.021A2.4,2.4,0,0,0,70.189,27.7Z" transform="translate(2013.156 -454)" fill="#0d0d0d"/>
    <line id="Line_495" data-name="Line 495" x2="110" transform="translate(2008 -656.5)" fill="none" stroke="#cfcfcf" stroke-width="1"/>
    <line id="Line_496" data-name="Line 496" x2="110" transform="translate(2008 -532.5)" fill="none" stroke="#cfcfcf" stroke-width="1"/>
  </g>
</svg>
