<svg xmlns="http://www.w3.org/2000/svg" xmlns:xlink="http://www.w3.org/1999/xlink" width="182" height="471" viewBox="0 0 182 471">
  <defs>
    <filter id="Rectangle_1817" x="0" y="0" width="182" height="471" filterUnits="userSpaceOnUse">
      <feOffset dy="3" input="SourceAlpha"/>
      <feGaussianBlur stdDeviation="12" result="blur"/>
      <feFlood flood-opacity="0.161"/>
      <feComposite operator="in" in2="blur"/>
      <feComposite in="SourceGraphic"/>
    </filter>
  </defs>
  <g id="Steam_Sauna_Stats" data-name="Steam Sauna Stats" transform="translate(-1786 829)">
    <g transform="matrix(1, 0, 0, 1, 1786, -829)" filter="url(#Rectangle_1817)">
      <rect id="Rectangle_1817-2" data-name="Rectangle 1817" width="110" height="399" transform="translate(36 33)" fill="#fff"/>
    </g>
    <path id="Path_3894" data-name="Path 3894" d="M1.344-18.9v4.06H2.408V0H6.692V-18.9ZM23.184,0V-3.752L15.652-3.7,19.74-7.588c2.464-2.324,3.388-4,3.388-6.16,0-3.472-2.408-5.572-6.44-5.572-4.312,0-6.86,2.352-6.86,6.384h4.284a2.213,2.213,0,0,1,2.464-2.492c1.4,0,2.156.728,2.156,1.988,0,1.092-.616,2.1-2.352,3.808l-6.356,6.3V0Zm8.148-19.32c-4.284,0-6.72,2.1-6.748,5.768h4.34c.028-1.176.868-1.876,2.24-1.876,1.344,0,2.1.672,2.1,1.9,0,1.54-.924,2.212-3,2.212h-.644V-8.12h.644c2.772,0,3.78.588,3.78,2.268,0,1.568-.868,2.38-2.576,2.38s-2.66-.784-2.772-2.3H24.276c0,4,2.548,6.188,7.168,6.188,4.424,0,7-2.156,7-5.824A4.29,4.29,0,0,0,34.5-10.052v-.056a4.075,4.075,0,0,0,3.36-4.228C37.856-17.528,35.532-19.32,31.332-19.32Z" transform="translate(1855 -724)" fill="#0d0d0d"/>
    <path id="Path_3893" data-name="Path 3893" d="M6.653,14V4.2h1.54l3.3,7.952L14.8,4.2h1.54V14h-1.26V6.608L12.029,14H10.965L7.9,6.608V14Zm17.423-.917a3.474,3.474,0,0,1-2.583,1.029,3.451,3.451,0,0,1-2.576-1.029,3.577,3.577,0,0,1-1.008-2.611,3.577,3.577,0,0,1,1.008-2.611,3.451,3.451,0,0,1,2.576-1.029,3.474,3.474,0,0,1,2.583,1.029,3.564,3.564,0,0,1,1.015,2.611A3.564,3.564,0,0,1,24.076,13.083Zm-4.291-.756a2.384,2.384,0,0,0,3.416,0,2.645,2.645,0,0,0,.658-1.855A2.645,2.645,0,0,0,23.2,8.617a2.384,2.384,0,0,0-3.416,0,2.645,2.645,0,0,0-.658,1.855A2.645,2.645,0,0,0,19.785,12.327ZM26.617,14V6.944h1.19v1.33a2.94,2.94,0,0,1,1.008-1.05,2.622,2.622,0,0,1,1.414-.392,2.5,2.5,0,0,1,1.813.686,2.4,2.4,0,0,1,.707,1.806V14h-1.19V9.548a1.643,1.643,0,0,0-.434-1.183,1.531,1.531,0,0,0-1.162-.455,1.842,1.842,0,0,0-1.575.805,3.676,3.676,0,0,0-.581,2.191V14Zm11.55-.056a3.244,3.244,0,0,1-1.106.168,2.082,2.082,0,0,1-1.519-.553,2.24,2.24,0,0,1-.567-1.673V7.994H33.659V6.944h1.316V4.8h1.19V6.944h1.89v1.05h-1.89v3.934a1.12,1.12,0,0,0,.28.826,1.022,1.022,0,0,0,.756.28,1.956,1.956,0,0,0,.882-.182ZM39.679,14V4.088h1.19V8.33a2.54,2.54,0,0,1,2.408-1.5,2.677,2.677,0,0,1,1.925.686,2.413,2.413,0,0,1,.721,1.834V14h-1.19V9.576a1.627,1.627,0,0,0-.455-1.225,1.744,1.744,0,0,0-1.267-.441,1.816,1.816,0,0,0-1.561.826,3.83,3.83,0,0,0-.581,2.24V14Zm8.176,0V4.088h1.19V14Zm7.77-7.056h1.218l-3.7,9.6H51.929L52.951,13.9,50.193,6.944h1.288l2.072,5.4ZM12.687,32H11.231L8.515,27.632H6.345V32H5.071V22.2H8.6a3.26,3.26,0,0,1,2.24.742,2.5,2.5,0,0,1,.84,1.974,2.585,2.585,0,0,1-.483,1.561,2.678,2.678,0,0,1-1.337.959ZM6.345,23.334v3.15H8.459a2.173,2.173,0,0,0,1.414-.413,1.41,1.41,0,0,0,.5-1.155,1.43,1.43,0,0,0-.5-1.162,2.148,2.148,0,0,0-1.414-.42ZM19.9,28.15a4.96,4.96,0,0,1-.028.546H14.3a2.584,2.584,0,0,0,.679,1.715,2.087,2.087,0,0,0,1.575.651A2.328,2.328,0,0,0,17.9,30.7a1.645,1.645,0,0,0,.686-1.022l1.12.266a2.694,2.694,0,0,1-1.1,1.6,3.528,3.528,0,0,1-2.051.574,3.2,3.2,0,0,1-2.5-1.05,4.054,4.054,0,0,1-.014-5.187,3.167,3.167,0,0,1,2.485-1.043A3.223,3.223,0,0,1,19.9,28.15Zm-5.53-.448h4.27a2.058,2.058,0,0,0-.644-1.358,2.282,2.282,0,0,0-2.87-.021A2.4,2.4,0,0,0,14.367,27.7Zm8.61,4.3L20.4,24.944h1.218l1.96,5.67,1.974-5.67h1.232L24.2,32Zm11.1-3.85a4.96,4.96,0,0,1-.028.546H28.479a2.584,2.584,0,0,0,.679,1.715,2.087,2.087,0,0,0,1.575.651,2.328,2.328,0,0,0,1.344-.364,1.645,1.645,0,0,0,.686-1.022l1.12.266a2.694,2.694,0,0,1-1.1,1.6,3.528,3.528,0,0,1-2.051.574,3.2,3.2,0,0,1-2.5-1.05,4.054,4.054,0,0,1-.014-5.187,3.167,3.167,0,0,1,2.485-1.043,3.223,3.223,0,0,1,3.374,3.318Zm-5.53-.448h4.27a2.058,2.058,0,0,0-.644-1.358,2.282,2.282,0,0,0-2.87-.021A2.4,2.4,0,0,0,28.549,27.7ZM35.605,32V24.944H36.8v1.33a2.94,2.94,0,0,1,1.008-1.05,2.622,2.622,0,0,1,1.414-.392,2.5,2.5,0,0,1,1.813.686,2.4,2.4,0,0,1,.707,1.806V32h-1.19V27.548a1.643,1.643,0,0,0-.434-1.183,1.531,1.531,0,0,0-1.162-.455,1.842,1.842,0,0,0-1.575.805,3.676,3.676,0,0,0-.581,2.191V32Zm14.126-7.056V32h-1.19V30.67a2.94,2.94,0,0,1-1.008,1.05,2.622,2.622,0,0,1-1.414.392,2.5,2.5,0,0,1-1.813-.686A2.4,2.4,0,0,1,43.6,29.62V24.944h1.19V29.4a1.643,1.643,0,0,0,.434,1.183,1.531,1.531,0,0,0,1.162.455,1.842,1.842,0,0,0,1.575-.805,3.676,3.676,0,0,0,.581-2.191V24.944Zm8.316,3.206a4.961,4.961,0,0,1-.028.546H52.447a2.584,2.584,0,0,0,.679,1.715,2.087,2.087,0,0,0,1.575.651,2.328,2.328,0,0,0,1.344-.364,1.645,1.645,0,0,0,.686-1.022l1.12.266a2.694,2.694,0,0,1-1.1,1.6,3.528,3.528,0,0,1-2.051.574,3.2,3.2,0,0,1-2.5-1.05,4.054,4.054,0,0,1-.014-5.187,3.167,3.167,0,0,1,2.485-1.043,3.223,3.223,0,0,1,3.374,3.318Zm-5.53-.448h4.27a2.058,2.058,0,0,0-.644-1.358,2.282,2.282,0,0,0-2.87-.021A2.4,2.4,0,0,0,52.517,27.7Z" transform="translate(1846 -716)" fill="#0d0d0d"/>
    <path id="Path_3892" data-name="Path 3892" d="M14.2,0V-3.752L6.664-3.7l4.088-3.892c2.464-2.324,3.388-4,3.388-6.16,0-3.472-2.408-5.572-6.44-5.572-4.312,0-6.86,2.352-6.86,6.384H5.124a2.213,2.213,0,0,1,2.464-2.492c1.4,0,2.156.728,2.156,1.988,0,1.092-.616,2.1-2.352,3.808l-6.356,6.3V0Zm8.148-19.32c-4.284,0-6.72,2.1-6.748,5.768h4.34c.028-1.176.868-1.876,2.24-1.876,1.344,0,2.1.672,2.1,1.9,0,1.54-.924,2.212-3,2.212h-.644V-8.12h.644c2.772,0,3.78.588,3.78,2.268,0,1.568-.868,2.38-2.576,2.38s-2.66-.784-2.772-2.3H15.288c0,4,2.548,6.188,7.168,6.188,4.424,0,7-2.156,7-5.824a4.29,4.29,0,0,0-3.948-4.648v-.056a4.075,4.075,0,0,0,3.36-4.228C28.868-17.528,26.544-19.32,22.344-19.32ZM38.388.42c4.536,0,7.224-2.072,7.224-5.572A4.624,4.624,0,0,0,42-9.968v-.084a4.144,4.144,0,0,0,3.08-4.172c0-3.164-2.576-5.1-6.692-5.1s-6.664,1.932-6.664,5.1a4.121,4.121,0,0,0,3.052,4.172v.084a4.651,4.651,0,0,0-3.612,4.816C31.164-1.652,33.852.42,38.388.42Zm0-12.124A2,2,0,0,1,36.2-13.692a1.988,1.988,0,0,1,2.184-2.016,1.988,1.988,0,0,1,2.184,2.016A2,2,0,0,1,38.388-11.7Zm0,8.344A2.515,2.515,0,0,1,35.7-5.936a2.537,2.537,0,0,1,2.688-2.6,2.537,2.537,0,0,1,2.688,2.6A2.5,2.5,0,0,1,38.388-3.36ZM52.471-9.666a4.467,4.467,0,0,1-3.37-1.326,4.925,4.925,0,0,1-1.278-3.568,5.414,5.414,0,0,1,1.36-3.883,4.766,4.766,0,0,1,3.63-1.436,4.442,4.442,0,0,1,3.4,1.3,5.116,5.116,0,0,1,1.224,3.65,5.342,5.342,0,0,1-1.354,3.842A4.75,4.75,0,0,1,52.471-9.666Zm.26-7.807q-2,0-2,2.775,0,2.625,1.9,2.625,1.941,0,1.941-2.734Q54.576-17.473,52.731-17.473Zm14.055-2.133L54.016,0H50.68L63.422-19.605ZM64.68.273a4.467,4.467,0,0,1-3.37-1.326,4.925,4.925,0,0,1-1.278-3.568A5.414,5.414,0,0,1,61.392-8.5a4.766,4.766,0,0,1,3.63-1.436,4.462,4.462,0,0,1,3.4,1.285,5.084,5.084,0,0,1,1.217,3.637,5.391,5.391,0,0,1-1.354,3.855A4.726,4.726,0,0,1,64.68.273ZM64.9-7.533q-1.982,0-1.982,2.775,0,2.625,1.928,2.625t1.941-2.734a3.243,3.243,0,0,0-.52-1.969A1.625,1.625,0,0,0,64.9-7.533Z" transform="translate(1841 -603)" fill="#0d0d0d"/>
    <path id="Path_3891" data-name="Path 3891" d="M11.49,14.112A4.61,4.61,0,0,1,8.025,12.7,4.969,4.969,0,0,1,6.66,9.1,4.969,4.969,0,0,1,8.025,5.5,4.61,4.61,0,0,1,11.49,4.088,4.593,4.593,0,0,1,14.941,5.5a4.969,4.969,0,0,1,1.365,3.6,4.969,4.969,0,0,1-1.365,3.6A4.593,4.593,0,0,1,11.49,14.112Zm-.014-1.148a3.275,3.275,0,0,0,2.534-1.092A3.96,3.96,0,0,0,15,9.1a3.986,3.986,0,0,0-.994-2.779,3.265,3.265,0,0,0-2.534-1.1,3.25,3.25,0,0,0-2.52,1.1A3.986,3.986,0,0,0,7.962,9.1a3.96,3.96,0,0,0,.994,2.772A3.259,3.259,0,0,0,11.476,12.964Zm10.5-4.858a2.294,2.294,0,0,0-.91-.168A1.7,1.7,0,0,0,19.6,8.8a4.585,4.585,0,0,0-.567,2.513V14h-1.19V6.944h1.19V8.372a2.719,2.719,0,0,1,.924-1.106,2.185,2.185,0,0,1,1.274-.434,2.393,2.393,0,0,1,.812.126Zm6.118-1.162H29.27v6.72a2.787,2.787,0,0,1-.917,2.163,3.393,3.393,0,0,1-2.373.833,3.624,3.624,0,0,1-2.1-.595,2.267,2.267,0,0,1-1.022-1.547l1.148-.2a1.27,1.27,0,0,0,.609.959,2.4,2.4,0,0,0,1.365.371,2.223,2.223,0,0,0,1.526-.518,1.707,1.707,0,0,0,.588-1.344v-.98a1.722,1.722,0,0,1-.868.728,3.374,3.374,0,0,1-1.386.28,3.179,3.179,0,0,1-2.471-.973,3.581,3.581,0,0,1-.889-2.513A3.618,3.618,0,0,1,23.362,7.8a3.139,3.139,0,0,1,2.45-.973,3.047,3.047,0,0,1,1.33.3,2.371,2.371,0,0,1,.952.763ZM24.314,12.1a2.138,2.138,0,0,0,1.638.658,2.115,2.115,0,0,0,1.631-.658,2.494,2.494,0,0,0,.609-1.764,2.52,2.52,0,0,0-.609-1.771,2.35,2.35,0,0,0-3.276,0,2.52,2.52,0,0,0-.609,1.771A2.477,2.477,0,0,0,24.314,12.1Zm9.52-5.264a3.031,3.031,0,0,1,2.1.714,2.462,2.462,0,0,1,.8,1.932V14H35.556V12.8a2.281,2.281,0,0,1-.945.959,2.828,2.828,0,0,1-1.407.357,2.512,2.512,0,0,1-1.715-.581,1.905,1.905,0,0,1-.665-1.505q0-1.988,3.36-2.324l1.372-.154v-.14a1.485,1.485,0,0,0-.469-1.155,2.02,2.02,0,0,0-2.457-.021,1.613,1.613,0,0,0-.546,1.12l-1.106-.21a2.536,2.536,0,0,1,.945-1.68A2.972,2.972,0,0,1,33.834,6.832Zm-.448,6.3a2.05,2.05,0,0,0,1.6-.63,2.419,2.419,0,0,0,.574-1.694v-.336l-1.372.154q-2.17.238-2.17,1.386a.994.994,0,0,0,.385.8A1.508,1.508,0,0,0,33.386,13.132ZM38.664,14V6.944h1.19v1.33a2.94,2.94,0,0,1,1.008-1.05,2.622,2.622,0,0,1,1.414-.392,2.5,2.5,0,0,1,1.813.686A2.4,2.4,0,0,1,44.8,9.324V14h-1.19V9.548a1.643,1.643,0,0,0-.434-1.183A1.531,1.531,0,0,0,42.01,7.91a1.842,1.842,0,0,0-1.575.805,3.676,3.676,0,0,0-.581,2.191V14Zm7.98-9.912h1.372V5.6H46.644ZM46.728,14V6.944h1.19V14Zm6.216.112a3.362,3.362,0,0,1-2.534-1,3.64,3.64,0,0,1-.966-2.639,3.64,3.64,0,0,1,.966-2.639,3.719,3.719,0,0,1,4.6-.378,2.613,2.613,0,0,1,1.029,1.673l-1.176.238a1.679,1.679,0,0,0-.63-1.057,1.958,1.958,0,0,0-1.26-.413,2.1,2.1,0,0,0-1.659.707,2.724,2.724,0,0,0-.623,1.869,2.724,2.724,0,0,0,.623,1.869,2.1,2.1,0,0,0,1.659.707,2.02,2.02,0,0,0,1.267-.392,1.755,1.755,0,0,0,.651-1.092l1.162.238A2.692,2.692,0,0,1,55,13.5,3.381,3.381,0,0,1,52.944,14.112ZM14.381,32V23.334H11.259V22.2h7.5v1.134H15.655V32Zm8.988-5.894a2.294,2.294,0,0,0-.91-.168A1.7,1.7,0,0,0,21,26.8a4.585,4.585,0,0,0-.567,2.513V32h-1.19V24.944h1.19v1.428a2.719,2.719,0,0,1,.924-1.106,2.185,2.185,0,0,1,1.274-.434,2.393,2.393,0,0,1,.812.126Zm3.612-1.274a3.031,3.031,0,0,1,2.1.714,2.462,2.462,0,0,1,.8,1.932V32H28.7V30.8a2.281,2.281,0,0,1-.945.959,2.828,2.828,0,0,1-1.407.357,2.512,2.512,0,0,1-1.715-.581,1.905,1.905,0,0,1-.665-1.5q0-1.988,3.36-2.324l1.372-.154v-.14a1.485,1.485,0,0,0-.469-1.155,2.02,2.02,0,0,0-2.457-.021,1.613,1.613,0,0,0-.546,1.12l-1.106-.21a2.536,2.536,0,0,1,.945-1.68A2.972,2.972,0,0,1,26.981,24.832Zm-.448,6.3a2.05,2.05,0,0,0,1.6-.63,2.419,2.419,0,0,0,.574-1.694v-.336l-1.372.154q-2.17.238-2.17,1.386a.994.994,0,0,0,.385.805A1.508,1.508,0,0,0,26.533,31.132ZM32.259,32V25.994h-1.2v-1.05h1.2v-.658a2.5,2.5,0,0,1,.574-1.757,1.959,1.959,0,0,1,1.512-.623,3.5,3.5,0,0,1,.952.112l-.056,1.064a2.051,2.051,0,0,0-.742-.14.945.945,0,0,0-.763.343,1.361,1.361,0,0,0-.287.9v.756h1.806v1.05H33.449V32Zm5.124,0V25.994h-1.2v-1.05h1.2v-.658a2.5,2.5,0,0,1,.574-1.757,1.959,1.959,0,0,1,1.512-.623,3.5,3.5,0,0,1,.952.112l-.056,1.064a2.051,2.051,0,0,0-.742-.14.945.945,0,0,0-.763.343,1.361,1.361,0,0,0-.287.9v.756h1.806v1.05H38.573V32Zm4.34-9.912H43.1V23.6H41.723ZM41.807,32V24.944H43V32Zm6.216.112a3.362,3.362,0,0,1-2.534-1,3.64,3.64,0,0,1-.966-2.639,3.64,3.64,0,0,1,.966-2.639,3.719,3.719,0,0,1,4.6-.378,2.613,2.613,0,0,1,1.029,1.673l-1.176.238a1.679,1.679,0,0,0-.63-1.057,1.958,1.958,0,0,0-1.26-.413,2.1,2.1,0,0,0-1.659.707,3.115,3.115,0,0,0,0,3.738,2.1,2.1,0,0,0,1.659.707,2.02,2.02,0,0,0,1.267-.392,1.755,1.755,0,0,0,.651-1.092l1.162.238a2.692,2.692,0,0,1-1.057,1.7A3.381,3.381,0,0,1,48.023,32.112Z" transform="translate(1846 -595)" fill="#0d0d0d"/>
    <path id="Path_3896" data-name="Path 3896" d="M13.72-6.832V-18.9h-4.4L.42-6.384v3.22H9.744V0H13.72V-3.164h1.708V-6.832ZM9.632-13.748h.112v6.916H4.732Zm7.784,9.24V0H21.9V-4.508ZM29.344,0l3.192-3.528c2.772-3.052,4-5.712,4-8.6,0-4.4-2.856-7.2-7.42-7.2-4.34,0-7.392,2.772-7.392,6.748A6.217,6.217,0,0,0,27.692-6.1a5.546,5.546,0,0,0,3.052-.98l.056.056L24.22,0Zm-.2-9.548a2.854,2.854,0,0,1-3.024-2.912,2.892,2.892,0,0,1,3.024-2.94A2.9,2.9,0,0,1,32.2-12.46,2.862,2.862,0,0,1,29.148-9.548Zm7.98-9.352v3.948h8.148L37.856,0h4.48L49.7-15.12V-18.9Zm23.856,8.484L69.076-19.6H63.168L56.2-10.948V-19.6h-4.34V0H56.2V-9.38L64.288,0h6.188Z" transform="translate(1845 -477)" fill="#0d0d0d"/>
    <path id="Path_3895" data-name="Path 3895" d="M24.325,14V4.2h1.54l3.3,7.952,3.3-7.952h1.54V14h-1.26V6.608L29.7,14H28.637L25.571,6.608V14Zm17.423-.917a3.748,3.748,0,0,1-5.159,0,3.577,3.577,0,0,1-1.008-2.611,3.577,3.577,0,0,1,1.008-2.611,3.748,3.748,0,0,1,5.159,0,3.564,3.564,0,0,1,1.015,2.611A3.564,3.564,0,0,1,41.748,13.083Zm-4.291-.756a2.384,2.384,0,0,0,3.416,0,2.645,2.645,0,0,0,.658-1.855,2.645,2.645,0,0,0-.658-1.855,2.384,2.384,0,0,0-3.416,0,2.645,2.645,0,0,0-.658,1.855A2.645,2.645,0,0,0,37.457,12.327ZM44.289,14V6.944h1.19v1.33a2.94,2.94,0,0,1,1.008-1.05A2.622,2.622,0,0,1,47.9,6.832a2.5,2.5,0,0,1,1.813.686,2.4,2.4,0,0,1,.707,1.806V14h-1.19V9.548A1.643,1.643,0,0,0,48.8,8.365a1.531,1.531,0,0,0-1.162-.455,1.842,1.842,0,0,0-1.575.805,3.676,3.676,0,0,0-.581,2.191V14Zm11.55-.056a3.244,3.244,0,0,1-1.106.168,2.082,2.082,0,0,1-1.519-.553,2.24,2.24,0,0,1-.567-1.673V7.994H51.331V6.944h1.316V4.8h1.19V6.944h1.89v1.05h-1.89v3.934a1.12,1.12,0,0,0,.28.826,1.022,1.022,0,0,0,.756.28,1.956,1.956,0,0,0,.882-.182ZM57.351,14V4.088h1.19V8.33a2.54,2.54,0,0,1,2.408-1.5,2.677,2.677,0,0,1,1.925.686,2.413,2.413,0,0,1,.721,1.834V14H62.4V9.576a1.627,1.627,0,0,0-.455-1.225,1.744,1.744,0,0,0-1.267-.441,1.816,1.816,0,0,0-1.561.826,3.83,3.83,0,0,0-.581,2.24V14Zm8.176,0V4.088h1.19V14ZM73.3,6.944h1.218l-3.7,9.6H69.6L70.623,13.9,67.865,6.944h1.288l2.072,5.4ZM7.154,32.112A4.61,4.61,0,0,1,3.689,30.7a4.969,4.969,0,0,1-1.365-3.6,4.969,4.969,0,0,1,1.365-3.6,4.61,4.61,0,0,1,3.465-1.414A4.593,4.593,0,0,1,10.605,23.5a4.969,4.969,0,0,1,1.365,3.6,4.969,4.969,0,0,1-1.365,3.6A4.593,4.593,0,0,1,7.154,32.112ZM7.14,30.964a3.275,3.275,0,0,0,2.534-1.092,3.96,3.96,0,0,0,.994-2.772,3.986,3.986,0,0,0-.994-2.779,3.265,3.265,0,0,0-2.534-1.1,3.25,3.25,0,0,0-2.52,1.1A3.986,3.986,0,0,0,3.626,27.1a3.96,3.96,0,0,0,.994,2.772A3.259,3.259,0,0,0,7.14,30.964Zm10.5-4.858a2.294,2.294,0,0,0-.91-.168,1.7,1.7,0,0,0-1.463.861,4.585,4.585,0,0,0-.567,2.513V32H13.51V24.944H14.7v1.428a2.719,2.719,0,0,1,.924-1.106,2.185,2.185,0,0,1,1.274-.434,2.393,2.393,0,0,1,.812.126Zm6.118-1.162h1.176v6.72a2.787,2.787,0,0,1-.917,2.163,3.393,3.393,0,0,1-2.373.833,3.624,3.624,0,0,1-2.1-.6,2.267,2.267,0,0,1-1.022-1.547l1.148-.2a1.27,1.27,0,0,0,.609.959,2.4,2.4,0,0,0,1.365.371,2.223,2.223,0,0,0,1.526-.518,1.707,1.707,0,0,0,.588-1.344v-.98a1.722,1.722,0,0,1-.868.728,3.374,3.374,0,0,1-1.386.28,3.179,3.179,0,0,1-2.471-.973,3.581,3.581,0,0,1-.889-2.513,3.618,3.618,0,0,1,.882-2.527,3.139,3.139,0,0,1,2.45-.973,3.047,3.047,0,0,1,1.33.3,2.371,2.371,0,0,1,.952.763ZM19.978,30.1a2.138,2.138,0,0,0,1.638.658,2.115,2.115,0,0,0,1.631-.658,2.494,2.494,0,0,0,.609-1.764,2.52,2.52,0,0,0-.609-1.771,2.35,2.35,0,0,0-3.276,0,2.52,2.52,0,0,0-.609,1.771A2.477,2.477,0,0,0,19.978,30.1Zm9.52-5.264a3.031,3.031,0,0,1,2.1.714,2.462,2.462,0,0,1,.8,1.932V32H31.22V30.8a2.281,2.281,0,0,1-.945.959,2.828,2.828,0,0,1-1.407.357,2.512,2.512,0,0,1-1.715-.581,1.905,1.905,0,0,1-.665-1.5q0-1.988,3.36-2.324l1.372-.154v-.14a1.485,1.485,0,0,0-.469-1.155,2.02,2.02,0,0,0-2.457-.021,1.613,1.613,0,0,0-.546,1.12l-1.106-.21a2.536,2.536,0,0,1,.945-1.68A2.972,2.972,0,0,1,29.5,24.832Zm-.448,6.3a2.05,2.05,0,0,0,1.6-.63,2.419,2.419,0,0,0,.574-1.694v-.336l-1.372.154q-2.17.238-2.17,1.386a.994.994,0,0,0,.385.805A1.508,1.508,0,0,0,29.05,31.132ZM34.328,32V24.944h1.19v1.33a2.94,2.94,0,0,1,1.008-1.05,2.622,2.622,0,0,1,1.414-.392,2.5,2.5,0,0,1,1.813.686,2.4,2.4,0,0,1,.707,1.806V32H39.27V27.548a1.643,1.643,0,0,0-.434-1.183,1.531,1.531,0,0,0-1.162-.455,1.842,1.842,0,0,0-1.575.805,3.676,3.676,0,0,0-.581,2.191V32Zm7.98-9.912H43.68V23.6H42.308ZM42.392,32V24.944h1.19V32Zm6.216.112a3.362,3.362,0,0,1-2.534-1,3.64,3.64,0,0,1-.966-2.639,3.64,3.64,0,0,1,.966-2.639,3.719,3.719,0,0,1,4.6-.378A2.613,2.613,0,0,1,51.7,27.128l-1.176.238a1.679,1.679,0,0,0-.63-1.057,1.958,1.958,0,0,0-1.26-.413,2.1,2.1,0,0,0-1.659.707,3.115,3.115,0,0,0,0,3.738,2.1,2.1,0,0,0,1.659.707,2.02,2.02,0,0,0,1.267-.392,1.755,1.755,0,0,0,.651-1.092l1.162.238a2.692,2.692,0,0,1-1.057,1.7A3.381,3.381,0,0,1,48.608,32.112ZM58.982,32V23.334H55.86V22.2h7.5v1.134H60.256V32Zm8.988-5.894a2.294,2.294,0,0,0-.91-.168A1.7,1.7,0,0,0,65.6,26.8a4.585,4.585,0,0,0-.567,2.513V32H63.84V24.944h1.19v1.428a2.718,2.718,0,0,1,.924-1.106,2.185,2.185,0,0,1,1.274-.434,2.393,2.393,0,0,1,.812.126Zm3.612-1.274a3.031,3.031,0,0,1,2.1.714,2.462,2.462,0,0,1,.8,1.932V32H73.3V30.8a2.281,2.281,0,0,1-.945.959,2.828,2.828,0,0,1-1.407.357,2.512,2.512,0,0,1-1.715-.581,1.905,1.905,0,0,1-.665-1.5q0-1.988,3.36-2.324l1.372-.154v-.14a1.485,1.485,0,0,0-.469-1.155,2.02,2.02,0,0,0-2.457-.021,1.613,1.613,0,0,0-.546,1.12l-1.106-.21a2.536,2.536,0,0,1,.945-1.68A2.972,2.972,0,0,1,71.582,24.832Zm-.448,6.3a2.05,2.05,0,0,0,1.6-.63,2.419,2.419,0,0,0,.574-1.694v-.336l-1.372.154q-2.17.238-2.17,1.386a.994.994,0,0,0,.385.805A1.508,1.508,0,0,0,71.134,31.132ZM76.86,32V25.994h-1.2v-1.05h1.2v-.658a2.5,2.5,0,0,1,.574-1.757,1.959,1.959,0,0,1,1.512-.623,3.5,3.5,0,0,1,.952.112l-.056,1.064a2.051,2.051,0,0,0-.742-.14.945.945,0,0,0-.763.343,1.361,1.361,0,0,0-.287.9v.756h1.806v1.05H78.05V32Zm5.124,0V25.994h-1.2v-1.05h1.2v-.658a2.5,2.5,0,0,1,.574-1.757,1.959,1.959,0,0,1,1.512-.623,3.5,3.5,0,0,1,.952.112l-.056,1.064a2.051,2.051,0,0,0-.742-.14.945.945,0,0,0-.763.343,1.361,1.361,0,0,0-.287.9v.756H84.98v1.05H83.174V32Zm4.34-9.912H87.7V23.6H86.324ZM86.408,32V24.944H87.6V32Zm6.216.112a3.362,3.362,0,0,1-2.534-1,3.64,3.64,0,0,1-.966-2.639,3.64,3.64,0,0,1,.966-2.639,3.719,3.719,0,0,1,4.6-.378,2.613,2.613,0,0,1,1.029,1.673l-1.176.238a1.679,1.679,0,0,0-.63-1.057,1.958,1.958,0,0,0-1.26-.413,2.1,2.1,0,0,0-1.659.707,3.115,3.115,0,0,0,0,3.738,2.1,2.1,0,0,0,1.659.707,2.02,2.02,0,0,0,1.267-.392,1.755,1.755,0,0,0,.651-1.092l1.162.238a2.692,2.692,0,0,1-1.057,1.7A3.381,3.381,0,0,1,92.624,32.112Z" transform="translate(1828 -466)" fill="#0d0d0d"/>
    <line id="Line_423" data-name="Line 423" x2="110" transform="translate(1822 -658)" fill="none" stroke="#cfcfcf" stroke-width="1"/>
    <line id="Line_425" data-name="Line 425" x2="110" transform="translate(1822 -534)" fill="none" stroke="#cfcfcf" stroke-width="1"/>
  </g>
</svg>
