<svg xmlns="http://www.w3.org/2000/svg" width="83" height="11.047" viewBox="0 0 83 11.047">
  <g id="Group_10" data-name="Group 10" transform="translate(357 -170)">
    <path id="Path_19" data-name="Path 19" d="M7.308-42,5.1-37.473H5.068L2.874-42H0l3.893,6.937v3.878H6.288v-3.909L10.182-42Zm5.068,3.445a3.738,3.738,0,0,0-4,3.8,3.738,3.738,0,0,0,4,3.8,3.743,3.743,0,0,0,4.017-3.8A3.743,3.743,0,0,0,12.376-38.555Zm0,2.132a1.6,1.6,0,0,1,1.669,1.669,1.6,1.6,0,0,1-1.669,1.669,1.606,1.606,0,0,1-1.669-1.669A1.606,1.606,0,0,1,12.376-36.422Zm7.679,5.469a2.5,2.5,0,0,0,2.24-1.344h.031v1.112h2.287v-7.138H22.279v3.445c0,1.313-.525,1.885-1.344,1.885-.7,0-1.174-.4-1.174-1.437v-3.893h-2.41v4.4C17.351-31.88,18.54-30.953,20.055-30.953Zm10.661-7.586a2.294,2.294,0,0,0-2.364,1.669h-.031v-1.452H26.034v7.138h2.333v-2.627c0-1.823.633-2.395,2.194-2.395h.2v-2.333Zm8.034.556h-4.5V-42H31.859v10.815h2.395v-4.542h4.5v4.542h2.395V-42H38.75Zm6.675,7.03a2.5,2.5,0,0,0,2.24-1.344H47.7v1.112h2.287v-7.138H47.649v3.445c0,1.313-.525,1.885-1.344,1.885-.7,0-1.174-.4-1.174-1.437v-3.893H42.72v4.4C42.72-31.88,43.91-30.953,45.424-30.953Zm8.652,0c1.9,0,3.152-.711,3.152-2.41a2.168,2.168,0,0,0-1.73-2.179l-1.236-.464c-.355-.139-.541-.232-.541-.448,0-.185.108-.309.572-.309a6.212,6.212,0,0,1,2.117.525l.649-1.885a8.434,8.434,0,0,0-2.58-.433c-2.055,0-3.059.85-3.059,2.318a2.264,2.264,0,0,0,1.746,2.209l1.251.494c.216.093.494.139.494.417,0,.232-.232.324-.649.324a5.228,5.228,0,0,1-2.534-.819l-.881,1.916A7.447,7.447,0,0,0,54.076-30.953Zm8.668-7.37H61.276v-2.858H58.943v2.858H57.553v1.947h1.391V-33.6a2.137,2.137,0,0,0,2.395,2.41h.973v-2.163h-.263c-.6,0-.773-.216-.773-.881v-2.148h1.468ZM63.717-42v10.815H66.05V-42Zm7.138,3.461a3.556,3.556,0,0,0-3.77,3.816,3.661,3.661,0,0,0,3.986,3.77,5.554,5.554,0,0,0,2.951-.834l-.85-1.761a3.909,3.909,0,0,1-2.07.649,1.618,1.618,0,0,1-1.823-1.3h5.114v-.525C74.393-37.3,73-38.539,70.855-38.539Zm-.077,1.653a1.285,1.285,0,0,1,1.36,1.313H69.295A1.356,1.356,0,0,1,70.778-36.886Zm9.27-1.653a2.294,2.294,0,0,0-2.364,1.669h-.031v-1.452H75.367v7.138H77.7v-2.627c0-1.823.633-2.395,2.194-2.395h.2v-2.333Z" transform="translate(-357 212)" fill="#fff"/>
    <rect id="Rectangle_3" data-name="Rectangle 3" width="3" height="3" transform="translate(-277 178)" fill="#ff7757"/>
  </g>
</svg>
