<svg xmlns="http://www.w3.org/2000/svg" width="24.792" height="17.432" viewBox="0 0 24.792 17.432">
  <path id="Icon_awesome-youtube" data-name="Icon awesome-youtube" d="M25.324,7.227a3.115,3.115,0,0,0-2.192-2.206C21.2,4.5,13.446,4.5,13.446,4.5s-7.753,0-9.686.521A3.115,3.115,0,0,0,1.568,7.227a32.678,32.678,0,0,0-.518,6.006,32.679,32.679,0,0,0,.518,6.006A3.069,3.069,0,0,0,3.76,21.41c1.933.521,9.686.521,9.686.521s7.753,0,9.686-.521a3.069,3.069,0,0,0,2.192-2.171,32.678,32.678,0,0,0,.518-6.006,32.678,32.678,0,0,0-.518-6.006ZM10.91,16.92V9.547l6.48,3.686L10.91,16.92Z" transform="translate(-1.05 -4.5)" fill="#fff"/>
</svg>
