<svg xmlns="http://www.w3.org/2000/svg" width="29.139" height="28.499" viewBox="0 0 29.139 28.499">
  <g id="alarm-clock" transform="translate(0 -5.623)">
    <circle id="Ellipse_79" data-name="Ellipse 79" cx="9.747" cy="9.747" r="9.747" transform="translate(4.765 11.295)" fill="#485d6d"/>
    <path id="Path_3903" data-name="Path 3903" d="M123.52,144.285a.313.313,0,1,1,0-.625h1.217l-.009-.165a8.308,8.308,0,0,0-.886-3.3l-.075-.147-1.053.608a.313.313,0,0,1-.313-.541l1.052-.607-.091-.138a8.414,8.414,0,0,0-2.416-2.416l-.138-.091-.607,1.051a.313.313,0,0,1-.541-.313l.608-1.052-.147-.075a8.307,8.307,0,0,0-3.3-.886l-.165-.009v1.217a.313.313,0,0,1-.625,0v-1.217l-.165.009a8.306,8.306,0,0,0-3.3.886l-.147.075.608,1.053a.313.313,0,1,1-.541.312l-.607-1.052-.138.091a8.414,8.414,0,0,0-2.416,2.416l-.091.138,1.052.607a.312.312,0,0,1,.114.427.312.312,0,0,1-.427.114l-1.053-.608-.075.147a8.309,8.309,0,0,0-.886,3.3l-.009.165h1.217a.313.313,0,1,1,0,.625h-1.217l.009.165a8.308,8.308,0,0,0,.886,3.3l.075.147,1.053-.608a.313.313,0,0,1,.312.541l-1.052.607.091.138a8.413,8.413,0,0,0,2.416,2.416l.138.091.607-1.052a.313.313,0,1,1,.541.313l-.608,1.053.147.075a8.306,8.306,0,0,0,3.3.886l.165.009v-1.217a.313.313,0,0,1,.625,0v1.217l.165-.009a8.308,8.308,0,0,0,3.3-.886l.147-.075-.608-1.053a.313.313,0,1,1,.541-.313l.607,1.052.138-.091a8.414,8.414,0,0,0,2.416-2.416l.091-.138-1.052-.607a.313.313,0,1,1,.313-.541l1.053.608.074-.147a8.309,8.309,0,0,0,.886-3.3l.009-.165H123.52Zm-8.07,2.688h1.779a.313.313,0,1,1,0,.625h-1.779a.313.313,0,1,1,0-.625Zm.889-1.336a1.664,1.664,0,1,1,.442-3.267l.117.032,1.9-3.343a.313.313,0,1,1,.543.309l-1.907,3.351.083.084a1.652,1.652,0,0,1,.463.914l.012.075,2.65,1.488a1,1,0,1,1-.978,1.741l-2.689-1.51-.068.025A1.652,1.652,0,0,1,116.34,145.636Z" transform="translate(-101.799 -122.556)" fill="#c9d1e3"/>
    <path id="Path_3904" data-name="Path 3904" d="M227.727,42.448h-2.235a.625.625,0,0,0-.625.625v1.558a.625.625,0,0,0,.678.623l.135-.011c.231-.02.462-.032.688-.037.162,0,.32,0,.485,0,.224,0,.456.017.686.037l.136.011.053,0a.625.625,0,0,0,.625-.625V43.073A.625.625,0,0,0,227.727,42.448Z" transform="translate(-212.069 -34.729)" fill="#485d6d"/>
    <g id="Group_2835" data-name="Group 2835" transform="translate(0.403 6.473)">
      <path id="Path_3905" data-name="Path 3905" d="M460.01,20.554a1.583,1.583,0,0,0-.688.158.625.625,0,0,0-.044,1.1,4.629,4.629,0,0,1,.763.56c.111.1.218.208.32.32l.025.026.021.021.076.075a.625.625,0,0,0,1.05-.276,1.578,1.578,0,0,0-1.523-1.985Z" transform="translate(-433.252 -20.554)" fill="#c9d1e3"/>
      <path id="Path_3906" data-name="Path 3906" d="M9.332,20.712a1.577,1.577,0,0,0-2.21,1.826.625.625,0,0,0,1.05.276l.071-.07.026-.026.024-.025c.1-.112.209-.22.32-.32a4.638,4.638,0,0,1,.763-.56.625.625,0,0,0-.044-1.1Z" transform="translate(-7.068 -20.554)" fill="#c9d1e3"/>
    </g>
    <g id="Group_2836" data-name="Group 2836" transform="translate(5.68 30.213)">
      <path id="Path_3907" data-name="Path 3907" d="M103.456,438.524l-.111-.062c-.315-.176-.625-.369-.919-.574l-.112-.078a.625.625,0,0,0-.9.2l-1.527,2.658a.625.625,0,0,0,.542.937h1.617a.625.625,0,0,0,.541-.313l1.1-1.912a.625.625,0,0,0-.237-.859Z" transform="translate(-99.805 -437.699)" fill="#485d6d"/>
      <path id="Path_3908" data-name="Path 3908" d="M345.282,440.674l-1.527-2.658a.625.625,0,0,0-.9-.2l-.112.078c-.3.205-.6.4-.919.574l-.111.062a.625.625,0,0,0-.237.859l1.1,1.912a.625.625,0,0,0,.541.313h1.617a.625.625,0,0,0,.542-.936Z" transform="translate(-327.644 -437.702)" fill="#485d6d"/>
    </g>
    <g id="Group_2837" data-name="Group 2837" transform="translate(0 6.659)">
      <path id="Path_3909" data-name="Path 3909" d="M360.522,28.622a4.978,4.978,0,0,0-1.287-3.129l-.016-.017-.006-.006-.012-.012c-.064-.062-.128-.123-.193-.181a8.3,8.3,0,0,0-1-.776l-.017-.011-.007,0-.02-.012a5.042,5.042,0,0,0-6.211,1c-.049.054-.1.11-.145.168l-.076.092a.625.625,0,0,0,.061.861l6.526,5.926a.625.625,0,0,0,.864-.022l.084-.085c.052-.052.1-.106.153-.161A5.009,5.009,0,0,0,360.522,28.622Z" transform="translate(-331.389 -23.822)" fill="#ff7757"/>
      <path id="Path_3910" data-name="Path 3910" d="M8.921,25.643c-.047-.057-.1-.113-.145-.168a5.042,5.042,0,0,0-6.21-1l-.02.012-.007,0-.017.011a8.3,8.3,0,0,0-1,.776c-.064.059-.129.119-.193.181l-.014.014-.006.006-.014.015a5.043,5.043,0,0,0,.016,6.761c.049.054.1.109.153.162l.084.085a.625.625,0,0,0,.863.022L8.936,26.6A.625.625,0,0,0,9,25.736Z" transform="translate(0 -23.823)" fill="#ff7757"/>
    </g>
    <g id="Group_2838" data-name="Group 2838" transform="translate(0 6.659)">
      <path id="Path_3911" data-name="Path 3911" d="M352.6,26.794l.076-.092c.047-.057.1-.114.145-.168a5.042,5.042,0,0,1,6.211-1l.02.012.007,0,.017.011q.266.176.517.37a5.139,5.139,0,0,0-.353-.438l-.016-.017-.006-.006-.012-.012c-.064-.062-.128-.123-.193-.181a8.29,8.29,0,0,0-1-.776l-.017-.011-.008,0-.02-.012a5.042,5.042,0,0,0-6.211,1c-.049.054-.1.11-.145.168l-.076.092a.625.625,0,0,0,.061.861l.9.814A.624.624,0,0,1,352.6,26.794Z" transform="translate(-331.392 -23.821)" fill="#485d6d" opacity="0.19"/>
      <path id="Path_3912" data-name="Path 3912" d="M3.366,43.035a.624.624,0,0,1-.443-.184l-.084-.085c-.053-.053-.1-.107-.153-.161a5.042,5.042,0,0,1-.19-6.557,8.3,8.3,0,0,0-.975.758c-.064.059-.129.119-.193.181L1.313,37l-.006.006-.014.015a5.043,5.043,0,0,0,.016,6.761c.049.054.1.109.153.162l.084.085a.625.625,0,0,0,.863.022L3.567,43A.627.627,0,0,1,3.366,43.035Z" transform="translate(0 -35.352)" fill="#485d6d" opacity="0.19"/>
    </g>
    <path id="Path_3913" data-name="Path 3913" d="M74.769,86.677l-.007-.012a11.686,11.686,0,0,0-3.49-3.725,11.322,11.322,0,0,0-4.885-1.868l-.03,0h-.031c-.374-.048-.747-.079-1.107-.092h-.012c-.248-.009-.482-.008-.727,0h-.012c-.361.013-.731.043-1.1.091h-.02l-.041,0a11.506,11.506,0,0,0-3.7,21.643l.007,0h0a11.36,11.36,0,0,0,5.231,1.26,11.521,11.521,0,0,0,11.39-9.884c0-.013,0-.026,0-.04A12.8,12.8,0,0,0,74.769,86.677ZM69.1,99.751l-.025.016-.01.007-.026.014a8.419,8.419,0,0,1-8.386,0l-.025-.014-.009-.006-.024-.015a8.508,8.508,0,0,1-3.033-3.038l-.019-.031,0-.005-.011-.019a8.419,8.419,0,0,1,0-8.371l.012-.022,0-.009h0v0l.007-.01.015-.024a8.508,8.508,0,0,1,3.026-3.026l.027-.017.01-.006h0l.009,0,.023-.012a8.415,8.415,0,0,1,4.183-1.113h0a8.415,8.415,0,0,1,4.181,1.111l.023.013.01,0h0l.01.007.026.016a8.51,8.51,0,0,1,3.024,3.024l.015.024.007.01,0,0,0,0,.005.01.012.022a8.418,8.418,0,0,1,0,8.363l-.011.019,0,.009h0l-.02.032A8.5,8.5,0,0,1,69.1,99.751Z" transform="translate(-50.303 -71.057)" fill="#ff7757"/>
    <g id="Group_2839" data-name="Group 2839" transform="translate(3.036 9.911)" opacity="0.19">
      <path id="Path_3914" data-name="Path 3914" d="M60.993,102.718h0l-.007,0a11.5,11.5,0,0,1,3.7-21.643l.041,0h.02c.264-.034.527-.059.786-.075-.106-.007-.211-.012-.315-.016h-.012c-.248-.009-.482-.008-.727,0h-.012c-.361.013-.731.043-1.1.091h-.02l-.041,0a11.506,11.506,0,0,0-3.7,21.643l.007,0h0a11.36,11.36,0,0,0,5.231,1.26c.228,0,.455-.007.681-.021A11.339,11.339,0,0,1,60.993,102.718Z" transform="translate(-53.338 -80.968)" fill="#485d6d"/>
    </g>
    <g id="Group_2840" data-name="Group 2840" transform="translate(6.144 13.019)" opacity="0.19">
      <path id="Path_3915" data-name="Path 3915" d="M109.2,217.732a8.369,8.369,0,0,1,.686-3.057l-.974-.562-.075.147a8.308,8.308,0,0,0-.886,3.3l-.009.165h1.217A.346.346,0,0,1,109.2,217.732Z" transform="translate(-107.942 -209.643)" fill="#485d6d"/>
      <path id="Path_3916" data-name="Path 3916" d="M190.1,135.688v-.113l-.165.009a8.306,8.306,0,0,0-3.3.886l-.147.075.318.551A8.367,8.367,0,0,1,190.1,135.688Z" transform="translate(-182.013 -135.575)" fill="#485d6d"/>
      <path id="Path_3917" data-name="Path 3917" d="M133.5,158.747l-.359-.622-.138.091a8.414,8.414,0,0,0-2.416,2.416l-.091.138.931.537A8.445,8.445,0,0,1,133.5,158.747Z" transform="translate(-129.207 -156.842)" fill="#485d6d"/>
      <path id="Path_3918" data-name="Path 3918" d="M261.089,135.582l-.109-.006v.018Z" transform="translate(-252.27 -135.576)" fill="#485d6d"/>
      <path id="Path_3919" data-name="Path 3919" d="M109.2,288.537a.3.3,0,0,1-.042,0h-1.217l.009.165a8.308,8.308,0,0,0,.886,3.3l.075.147.99-.571A8.369,8.369,0,0,1,109.2,288.537Z" transform="translate(-107.941 -279.832)" fill="#485d6d"/>
      <path id="Path_3920" data-name="Path 3920" d="M260.981,429.556v.063l.165-.009c.083,0,.165-.011.247-.018Q261.185,429.579,260.981,429.556Z" transform="translate(-252.271 -412.825)" fill="#485d6d"/>
      <path id="Path_3921" data-name="Path 3921" d="M186.818,403.391l-.336.583.147.074a8.305,8.305,0,0,0,3.3.886l.165.009v-.158A8.369,8.369,0,0,1,186.818,403.391Z" transform="translate(-182.012 -388.149)" fill="#485d6d"/>
      <path id="Path_3922" data-name="Path 3922" d="M131.439,352l-.949.548.091.138A8.413,8.413,0,0,0,133,355.106l.138.091.377-.653A8.448,8.448,0,0,1,131.439,352Z" transform="translate(-129.207 -339.686)" fill="#485d6d"/>
    </g>
    <path id="Path_3923" data-name="Path 3923" d="M230.268,148.338a.313.313,0,0,1,.313-.313H231.8l-.009-.165a8.308,8.308,0,0,0-.886-3.3l-.075-.147-1.053.608a.313.313,0,0,1-.313-.541l1.052-.607-.091-.139a8.414,8.414,0,0,0-2.416-2.416l-.138-.091-.607,1.051a.313.313,0,0,1-.541-.313l.608-1.052-.147-.075a8.326,8.326,0,0,0-1.673-.632,7.78,7.78,0,0,0-2.741,11.134h1.523a.313.313,0,1,1,0,.625h-1.06a7.791,7.791,0,0,0,3.5,2.427.311.311,0,0,1,.534.01l.1.177a7.754,7.754,0,0,0,1.41.214,8.411,8.411,0,0,0,1.65-1.847l.091-.139-1.052-.607a.313.313,0,1,1,.313-.541l1.053.608.074-.147a8.309,8.309,0,0,0,.886-3.3l.009-.165h-1.217A.313.313,0,0,1,230.268,148.338ZM228.087,151a1,1,0,0,1-1.36.381l-2.689-1.51-.068.025a1.664,1.664,0,1,1-.129-3.167l.117.032,1.9-3.343a.313.313,0,1,1,.543.309l-1.907,3.351.083.084a1.652,1.652,0,0,1,.462.914l.012.075,2.65,1.488A1,1,0,0,1,228.087,151Z" transform="translate(-208.86 -126.922)" fill="#d9e0ed"/>
    <path id="Path_3924" data-name="Path 3924" d="M203.675,5.623h-5.324a.625.625,0,0,0-.625.625V7.656a.625.625,0,0,0,.625.625h5.324a.625.625,0,0,0,.625-.625V6.248A.625.625,0,0,0,203.675,5.623Z" transform="translate(-186.473 0)" fill="#485d6d"/>
    <g id="Group_2841" data-name="Group 2841" transform="translate(11.253 5.623)">
      <path id="Path_3925" data-name="Path 3925" d="M200.353,7.656V6.248a.625.625,0,0,1,.625-.625h-2.625a.625.625,0,0,0-.625.625V7.656a.625.625,0,0,0,.625.625h2.625A.625.625,0,0,1,200.353,7.656Z" transform="translate(-197.727 -5.623)" fill="#2a2a2b" opacity="0.19"/>
      <circle id="Ellipse_80" data-name="Ellipse 80" cx="1.649" cy="1.649" r="1.649" transform="translate(1.609 14.129)" fill="#2a2a2b" opacity="0.19"/>
    </g>
  </g>
</svg>
