<svg xmlns="http://www.w3.org/2000/svg" width="68.387" height="45.924" viewBox="0 0 68.387 45.924">
  <g id="arr" transform="translate(0.5 0.5)">
    <path id="Path_53" data-name="Path 53" d="M38.931,8.119A17.972,17.972,0,0,1,37.093,1h2.793a15.071,15.071,0,0,0,1.567,5.865,30.431,30.431,0,0,0,4.37,6.839c3.715,4.407,8.6,7.706,13.616,7.706v2.916c-6.159,0-11.747-3.99-15.713-8.7A33.363,33.363,0,0,1,38.931,8.119Z" transform="translate(7.948 -1)" fill="#fff" fill-rule="evenodd"/>
    <path id="Path_54" data-name="Path 54" d="M38.931,34.515a17.971,17.971,0,0,0-1.838,7.119h2.793a15.071,15.071,0,0,1,1.567-5.865,30.43,30.43,0,0,1,4.37-6.839c3.715-4.407,8.6-7.706,13.616-7.706V18.308c-6.159,0-11.747,3.99-15.713,8.7A33.362,33.362,0,0,0,38.931,34.515Z" transform="translate(7.948 3.291)" fill="#fff" fill-rule="evenodd"/>
    <path id="Path_55" data-name="Path 55" d="M1,17.615H68.387v3.456H1Z" transform="translate(-1 3.119)" fill="#fff" fill-rule="evenodd"/>
    <path id="Path_56" data-name="Path 56" d="M38.931,8.119A17.972,17.972,0,0,1,37.093,1h2.793a15.071,15.071,0,0,0,1.567,5.865,30.431,30.431,0,0,0,4.37,6.839c3.715,4.407,8.6,7.706,13.616,7.706v2.916c-6.159,0-11.747-3.99-15.713-8.7A33.363,33.363,0,0,1,38.931,8.119Z" transform="translate(7.948 -1)" fill="none" stroke="#fff" stroke-width="1" fill-rule="evenodd"/>
    <path id="Path_57" data-name="Path 57" d="M38.931,34.515a17.971,17.971,0,0,0-1.838,7.119h2.793a15.071,15.071,0,0,1,1.567-5.865,30.43,30.43,0,0,1,4.37-6.839c3.715-4.407,8.6-7.706,13.616-7.706V18.308c-6.159,0-11.747,3.99-15.713,8.7A33.362,33.362,0,0,0,38.931,34.515Z" transform="translate(7.948 3.291)" fill="none" stroke="#fff" stroke-width="1" fill-rule="evenodd"/>
    <path id="Path_58" data-name="Path 58" d="M1,17.615H68.387v3.456H1Z" transform="translate(-1 3.119)" fill="none" stroke="#fff" stroke-width="1" fill-rule="evenodd"/>
  </g>
</svg>
