<svg xmlns="http://www.w3.org/2000/svg" width="37.11" height="60.416" viewBox="0 0 37.11 60.416">
  <g id="Group_2649" data-name="Group 2649" transform="translate(-753.48 -922.932)">
    <g id="Group_2644" data-name="Group 2644" transform="translate(753.48 922.932)">
      <g id="Group_2643" data-name="Group 2643" transform="translate(1.378)">
        <path id="Path_3497" data-name="Path 3497" d="M188.212,121.65c-.113.113-.225.075-.338.075h-7.055c-.263,0-.375.075-.338.375v13.622c0,.3-.075.338-.338.338H161.118c-.488,0-.488,0-.488-.488V122.1c0-.3-.075-.338-.338-.338H152.75c-.075,0-.225.075-.263-.038s.075-.15.15-.225c5.7-5.779,11.408-11.52,17.111-17.3l.788-.788c.113-.15.188-.15.338,0,1.914,2.026,3.828,4.053,5.741,6.042l11.6,12.158C188.174,121.575,188.174,121.612,188.212,121.65Z" transform="translate(-152.48 -103.3)" fill="#fff"/>
        <path id="Path_3498" data-name="Path 3498" d="M199.265,228.393v7.918c0,.3-.075.375-.375.375-.938,0-1.876-.038-2.814,0-.3,0-.375-.075-.375-.375V220.363c0-.188.038-.263.225-.263h3.115c.225,0,.225.113.225.263v1.914c0,2.026,0,4.09,0,6.117Z" transform="translate(-179.482 -176.271)" fill="#fff"/>
        <path id="Path_3499" data-name="Path 3499" d="M217.6,209.917v-5.329c0-.225.038-.338.3-.3h2.965c.263,0,.338.075.338.338V214.8c0,.751,0,.751-.75.751H217.9c-.225,0-.263-.075-.263-.3-.038-1.764-.038-3.565-.038-5.329Z" transform="translate(-193.164 -166.388)" fill="#fff"/>
        <path id="Path_3500" data-name="Path 3500" d="M174.038,209.891v-5.254c0-.3.075-.338.338-.338h2.852c.188,0,.263.075.263.263v10.695c0,.225-.038.3-.3.3h-2.852c-.263,0-.338-.038-.338-.338C174.075,213.456,174.038,211.655,174.038,209.891Z" transform="translate(-165.925 -166.4)" fill="#fff"/>
        <path id="Path_3501" data-name="Path 3501" d="M217.6,245.6v-1.539c0-.188.038-.263.225-.263H220.9c.188,0,.263.075.263.263v3.115c0,.188-.075.225-.225.225H217.9c-.225,0-.3-.038-.3-.3,0-.525,0-1.013,0-1.5Z" transform="translate(-193.164 -191.077)" fill="#fff"/>
        <path id="Path_3502" data-name="Path 3502" d="M174.038,245.6v-1.539c0-.225.075-.263.263-.263h2.889c.263,0,.3.113.3.338V247.1c0,.225-.075.263-.263.263h-2.964c-.188,0-.263-.038-.263-.263A10.029,10.029,0,0,0,174.038,245.6Z" transform="translate(-165.925 -191.077)" fill="#fff"/>
      </g>
      <g id="Group_2640" data-name="Group 2640" transform="translate(0)">
        <path id="Path_3497-2" data-name="Path 3497" d="M188.212,121.65c-.113.113-.225.075-.338.075h-7.055c-.263,0-.375.075-.338.375v13.622c0,.3-.075.338-.338.338H161.118c-.488,0-.488,0-.488-.488V122.1c0-.3-.075-.338-.338-.338H152.75c-.075,0-.225.075-.263-.038s.075-.15.15-.225c5.7-5.779,11.408-11.52,17.111-17.3l.788-.788c.113-.15.188-.15.338,0,1.914,2.026,3.828,4.053,5.741,6.042l11.6,12.158C188.174,121.575,188.174,121.612,188.212,121.65Z" transform="translate(-152.48 -103.3)" fill="#ff7757"/>
        <path id="Path_3498-2" data-name="Path 3498" d="M199.265,228.393v7.918c0,.3-.075.375-.375.375-.938,0-1.876-.038-2.814,0-.3,0-.375-.075-.375-.375V220.363c0-.188.038-.263.225-.263h3.115c.225,0,.225.113.225.263v1.914c0,2.026,0,4.09,0,6.117Z" transform="translate(-179.482 -176.271)" fill="#ff7757"/>
        <path id="Path_3499-2" data-name="Path 3499" d="M217.6,209.917v-5.329c0-.225.038-.338.3-.3h2.965c.263,0,.338.075.338.338V214.8c0,.751,0,.751-.75.751H217.9c-.225,0-.263-.075-.263-.3-.038-1.764-.038-3.565-.038-5.329Z" transform="translate(-193.164 -166.388)" fill="#ff7757"/>
        <path id="Path_3500-2" data-name="Path 3500" d="M174.038,209.891v-5.254c0-.3.075-.338.338-.338h2.852c.188,0,.263.075.263.263v10.695c0,.225-.038.3-.3.3h-2.852c-.263,0-.338-.038-.338-.338C174.075,213.456,174.038,211.655,174.038,209.891Z" transform="translate(-165.925 -166.4)" fill="#ff7757"/>
        <path id="Path_3501-2" data-name="Path 3501" d="M217.6,245.6v-1.539c0-.188.038-.263.225-.263H220.9c.188,0,.263.075.263.263v3.115c0,.188-.075.225-.225.225H217.9c-.225,0-.3-.038-.3-.3,0-.525,0-1.013,0-1.5Z" transform="translate(-193.164 -191.077)" fill="#ff7757"/>
        <path id="Path_3502-2" data-name="Path 3502" d="M174.038,245.6v-1.539c0-.225.075-.263.263-.263h2.889c.263,0,.3.113.3.338V247.1c0,.225-.075.263-.263.263h-2.964c-.188,0-.263-.038-.263-.263A10.029,10.029,0,0,0,174.038,245.6Z" transform="translate(-165.925 -191.077)" fill="#ff7757"/>
      </g>
    </g>
  </g>
</svg>
