<svg xmlns="http://www.w3.org/2000/svg" width="74.277" height="74.903" viewBox="0 0 74.277 74.903">
    <g data-name="Group 2638">
        <path data-name="Path 3455" d="M8.688 11.061H66.2a6.382 6.382 0 0 1 6.382 6.382v53.839a6.382 6.382 0 0 1-6.382 6.382H8.688a6.382 6.382 0 0 1-6.382-6.382V17.443a6.382 6.382 0 0 1 6.382-6.382z" transform="translate(1.694 -2.761)" style="fill:#fff"/>
        <path data-name="Path 3456" d="M72.584 26.272v-8.828a6.382 6.382 0 0 0-6.384-6.382H8.69a6.382 6.382 0 0 0-6.379 6.382v8.828z" transform="translate(1.692 -2.762)" style="fill:#fff"/>
        <path data-name="Path 3457" d="M23.912 16.034a2.677 2.677 0 1 0 2.677 2.677 2.677 2.677 0 0 0-2.677-2.677z" transform="translate(-6.454 -4.902)" style="fill:#fff"/>
        <path data-name="Path 3458" d="M49.289 16.034a2.677 2.677 0 1 0 2.677 2.677 2.677 2.677 0 0 0-2.677-2.677z" transform="translate(-17.377 -4.902)" style="fill:#fff"/>
        <path data-name="Path 3459" d="M74.665 16.034a2.677 2.677 0 1 0 2.677 2.677 2.677 2.677 0 0 0-2.677-2.677z" transform="translate(-28.3 -4.902)" style="fill:#fff"/>
        <path data-name="Path 3460" d="M100.041 16.034a2.677 2.677 0 1 0 2.677 2.677 2.677 2.677 0 0 0-2.677-2.677z" transform="translate(-39.223 -4.902)" style="fill:#fff"/>
        <g data-name="Group 2637">
            <path data-name="Path 3461" d="M98.221 0c-1.936 0-3.4 2.708-3.4 6.3h1.837c0-2.768 1.013-4.463 1.565-4.463s1.564 1.695 1.564 4.463c0 2.25-.669 3.79-1.216 4.289a.98.98 0 0 0-.35.716.911.911 0 0 0 1.493.7c1.15-.988 1.909-3.118 1.909-5.705 0-3.592-1.461-6.3-3.4-6.3z" transform="translate(-38.129 2)" style="fill:#fff"/>
            <path data-name="Path 3462" d="M72.845 0c-1.936 0-3.4 2.708-3.4 6.3h1.835c0-2.768 1.013-4.463 1.565-4.463s1.566 1.695 1.566 4.463c0 2.25-.669 3.79-1.216 4.289a.98.98 0 0 0-.35.716.911.911 0 0 0 1.493.7c1.15-.988 1.909-3.118 1.909-5.705 0-3.592-1.463-6.3-3.4-6.3z" transform="translate(-27.205 2)" style="fill:#fff"/>
            <path data-name="Path 3463" d="M47.468 0c-1.936 0-3.4 2.708-3.4 6.3H45.9c0-2.768 1.013-4.463 1.565-4.463s1.57 1.695 1.57 4.463c0 2.25-.669 3.79-1.217 4.289a.98.98 0 0 0-.35.716.911.911 0 0 0 1.494.7c1.15-.988 1.909-3.118 1.909-5.705 0-3.592-1.463-6.3-3.4-6.3z" transform="translate(-16.282 2)" style="fill:#fff"/>
            <path data-name="Path 3464" d="M22.092 0c-1.936 0-3.4 2.708-3.4 6.3h1.837c0-2.768 1.013-4.463 1.565-4.463s1.564 1.695 1.564 4.463c0 2.25-.669 3.79-1.216 4.289a.98.98 0 0 0-.35.716.911.911 0 0 0 1.493.7c1.15-.988 1.909-3.118 1.909-5.705 0-3.592-1.463-6.3-3.4-6.3z" transform="translate(-5.359 2)" style="fill:#fff"/>
        </g>
        <path data-name="Path 3465" d="M46.584 70.62a6.651 6.651 0 0 1 3.873 2.552 7.424 7.424 0 0 1 1.36 4.446 8 8 0 0 1-2.607 6.188 9.234 9.234 0 0 1-6.473 2.385 9.289 9.289 0 0 1-6.322-2.12 7.647 7.647 0 0 1-2.626-5.609h3.658a4.931 4.931 0 0 0 1.367 3.489 5.1 5.1 0 0 0 3.921 1.463 5.116 5.116 0 0 0 3.949-1.595 5.843 5.843 0 0 0 1.473-4.127 5.126 5.126 0 0 0-1.529-3.987 6.39 6.39 0 0 0-4.455-1.4h-1.348v-2.754h.807q5.14 0 5.14-4.727a4.272 4.272 0 0 0-1.125-3.189 4.329 4.329 0 0 0-3.17-1.107q-4.2 0-4.69 4.371h-3.64a7.587 7.587 0 0 1 2.663-5.319 8.624 8.624 0 0 1 5.59-1.829 8.318 8.318 0 0 1 5.853 2A6.675 6.675 0 0 1 50.43 64.9a6.328 6.328 0 0 1-.947 3.329 5.976 5.976 0 0 1-2.9 2.395z" transform="translate(-11.858 -22.857)" style="fill:#fff"/>
        <path data-name="Path 3466" d="M82.289 85.725h-3.527V64.1q-2.139 1.424-6.622 1.424v-2.779q6.472 0 7.429-4.99h2.72z" transform="translate(-28.366 -22.86)" style="fill:#fff"/>
        <g data-name="calendar">
            <path data-name="Path 3455" d="M8.688 11.061H66.2a6.382 6.382 0 0 1 6.382 6.382v53.839a6.382 6.382 0 0 1-6.382 6.382H8.688a6.382 6.382 0 0 1-6.382-6.382V17.443a6.382 6.382 0 0 1 6.382-6.382z" transform="translate(-2.306 -4.761)" style="fill:#e1e6e9"/>
            <path data-name="Path 3456" d="M72.584 26.272v-8.828a6.382 6.382 0 0 0-6.384-6.382H8.69a6.382 6.382 0 0 0-6.379 6.382v8.828z" transform="translate(-2.308 -4.762)" style="fill:#ff7757"/>
            <path data-name="Path 3457" d="M23.912 16.034a2.677 2.677 0 1 0 2.677 2.677 2.677 2.677 0 0 0-2.677-2.677z" transform="translate(-10.454 -6.902)" style="fill:#43567c"/>
            <path data-name="Path 3458" d="M49.289 16.034a2.677 2.677 0 1 0 2.677 2.677 2.677 2.677 0 0 0-2.677-2.677z" transform="translate(-21.377 -6.902)" style="fill:#43567c"/>
            <path data-name="Path 3459" d="M74.665 16.034a2.677 2.677 0 1 0 2.677 2.677 2.677 2.677 0 0 0-2.677-2.677z" transform="translate(-32.3 -6.902)" style="fill:#43567c"/>
            <path data-name="Path 3460" d="M100.041 16.034a2.677 2.677 0 1 0 2.677 2.677 2.677 2.677 0 0 0-2.677-2.677z" transform="translate(-43.223 -6.902)" style="fill:#43567c"/>
            <g data-name="Group 2637">
                <path data-name="Path 3461" d="M98.221 0c-1.936 0-3.4 2.708-3.4 6.3h1.837c0-2.768 1.013-4.463 1.565-4.463s1.564 1.695 1.564 4.463c0 2.25-.669 3.79-1.216 4.289a.98.98 0 0 0-.35.716.911.911 0 0 0 1.493.7c1.15-.988 1.909-3.118 1.909-5.705 0-3.592-1.461-6.3-3.4-6.3z" transform="translate(-42.129)" style="fill:#e1e6e9"/>
                <path data-name="Path 3462" d="M72.845 0c-1.936 0-3.4 2.708-3.4 6.3h1.835c0-2.768 1.013-4.463 1.565-4.463s1.566 1.695 1.566 4.463c0 2.25-.669 3.79-1.216 4.289a.98.98 0 0 0-.35.716.911.911 0 0 0 1.493.7c1.15-.988 1.909-3.118 1.909-5.705 0-3.592-1.463-6.3-3.4-6.3z" transform="translate(-31.205)" style="fill:#e1e6e9"/>
                <path data-name="Path 3463" d="M47.468 0c-1.936 0-3.4 2.708-3.4 6.3H45.9c0-2.768 1.013-4.463 1.565-4.463s1.57 1.695 1.57 4.463c0 2.25-.669 3.79-1.217 4.289a.98.98 0 0 0-.35.716.911.911 0 0 0 1.494.7c1.15-.988 1.909-3.118 1.909-5.705 0-3.592-1.463-6.3-3.4-6.3z" transform="translate(-20.282)" style="fill:#e1e6e9"/>
                <path data-name="Path 3464" d="M22.092 0c-1.936 0-3.4 2.708-3.4 6.3h1.837c0-2.768 1.013-4.463 1.565-4.463s1.564 1.695 1.564 4.463c0 2.25-.669 3.79-1.216 4.289a.98.98 0 0 0-.35.716.911.911 0 0 0 1.493.7c1.15-.988 1.909-3.118 1.909-5.705 0-3.592-1.463-6.3-3.4-6.3z" transform="translate(-9.359)" style="fill:#e1e6e9"/>
            </g>
            <path data-name="Path 3465" d="M46.584 70.62a6.651 6.651 0 0 1 3.873 2.552 7.424 7.424 0 0 1 1.36 4.446 8 8 0 0 1-2.607 6.188 9.234 9.234 0 0 1-6.473 2.385 9.289 9.289 0 0 1-6.322-2.12 7.647 7.647 0 0 1-2.626-5.609h3.658a4.931 4.931 0 0 0 1.367 3.489 5.1 5.1 0 0 0 3.921 1.463 5.116 5.116 0 0 0 3.949-1.595 5.843 5.843 0 0 0 1.473-4.127 5.126 5.126 0 0 0-1.529-3.987 6.39 6.39 0 0 0-4.455-1.4h-1.348v-2.754h.807q5.14 0 5.14-4.727a4.272 4.272 0 0 0-1.125-3.189 4.329 4.329 0 0 0-3.17-1.107q-4.2 0-4.69 4.371h-3.64a7.587 7.587 0 0 1 2.663-5.319 8.624 8.624 0 0 1 5.59-1.829 8.318 8.318 0 0 1 5.853 2A6.675 6.675 0 0 1 50.43 64.9a6.328 6.328 0 0 1-.947 3.329 5.976 5.976 0 0 1-2.9 2.395z" transform="translate(-15.858 -24.857)" style="fill:#003adc"/>
            <path data-name="Path 3466" d="M82.289 85.725h-3.527V64.1q-2.139 1.424-6.622 1.424v-2.779q6.472 0 7.429-4.99h2.72z" transform="translate(-32.366 -24.86)" style="fill:#003adc"/>
        </g>
    </g>
</svg>
