<svg xmlns="http://www.w3.org/2000/svg" width="81" height="70.144" viewBox="0 0 86.067 70.144">
  <g id="Group_2651" data-name="Group 2651" transform="translate(-737.372 -1256.356)">
    <g id="Group_2648" data-name="Group 2648" transform="translate(280.872 35.256)">
      <g id="Group_2647" data-name="Group 2647" transform="translate(458.548 1221.1)">
        <path id="Path_3505" data-name="Path 3505" d="M178.613,231.282H163.2a6.8,6.8,0,0,1-6.963-5.939,6.529,6.529,0,0,1-.051-1.024c0-4.71-.051-9.421.051-14.131A18.464,18.464,0,0,1,169.4,193.036a17.6,17.6,0,0,1,4.915-.768c3.123,0,6.246-.1,9.37.051a18.567,18.567,0,0,1,17.408,18.637v13.261a6.814,6.814,0,0,1-4.659,6.707,6.406,6.406,0,0,1-2.2.358Z" transform="translate(-136.578 -161.139)" fill="#fff"/>
        <path id="Path_3506" data-name="Path 3506" d="M171.5,146.092a14.618,14.618,0,1,1,14.49,14.643A14.652,14.652,0,0,1,171.5,146.092Z" transform="translate(-144.057 -131.5)" fill="#fff"/>
        <path id="Path_3507" data-name="Path 3507" d="M118,209.849c.051-2.2-.1-4.915.051-7.68a10.725,10.725,0,0,1,7.731-9.472,11.981,11.981,0,0,1,3.277-.41c1.485,0,2.97-.051,4.454.051a11.037,11.037,0,0,1,6.2,2.611c.256.2.1.307-.051.461a22.987,22.987,0,0,0-3.686,5.222,22.2,22.2,0,0,0-2.406,9.728c-.051,4.864,0,9.728,0,14.592,0,.307-.051.41-.41.41-2.867,0-5.683.051-8.55,0A6.887,6.887,0,0,1,117.9,218.4C118.054,215.788,118,213.126,118,209.849Z" transform="translate(-117.9 -161.158)" fill="#fff"/>
        <path id="Path_3508" data-name="Path 3508" d="M261.141,210.768v7.68a6.728,6.728,0,0,1-3.635,6.3,6.506,6.506,0,0,1-3.072.768h-8.448c-.358,0-.461-.1-.461-.461,0-4.813.051-9.574,0-14.387a21.837,21.837,0,0,0-5.734-14.745c-.563-.666-.614-.666.1-1.229a10.378,10.378,0,0,1,6.6-2.3c1.536,0,3.123-.051,4.659.051a10.694,10.694,0,0,1,9.677,8.038,14.7,14.7,0,0,1,.358,2.97C261.141,205.9,261.141,208.311,261.141,210.768Z" transform="translate(-177.174 -161.207)" fill="#fff"/>
        <path id="Path_3509" data-name="Path 3509" d="M143.354,160.279a9.728,9.728,0,1,1-9.677-9.779A9.811,9.811,0,0,1,143.354,160.279Z" transform="translate(-120.826 -140.772)" fill="#fff"/>
        <path id="Path_3510" data-name="Path 3510" d="M257.555,160.279a9.728,9.728,0,1,1-9.677-9.779A9.746,9.746,0,0,1,257.555,160.279Z" transform="translate(-176.558 -140.772)" fill="#fff"/>
      </g>
      <g id="Group_2642" data-name="Group 2642" transform="translate(456.5 1221.1)">
        <path id="Path_3505-2" data-name="Path 3505" d="M178.613,231.282H163.2a6.8,6.8,0,0,1-6.963-5.939,6.529,6.529,0,0,1-.051-1.024c0-4.71-.051-9.421.051-14.131A18.464,18.464,0,0,1,169.4,193.036a17.6,17.6,0,0,1,4.915-.768c3.123,0,6.246-.1,9.37.051a18.567,18.567,0,0,1,17.408,18.637v13.261a6.814,6.814,0,0,1-4.659,6.707,6.406,6.406,0,0,1-2.2.358Z" transform="translate(-136.578 -161.139)" fill="#ff7757"/>
        <path id="Path_3506-2" data-name="Path 3506" d="M171.5,146.092a14.618,14.618,0,1,1,14.49,14.643A14.652,14.652,0,0,1,171.5,146.092Z" transform="translate(-144.057 -131.5)" fill="#ff7757"/>
        <path id="Path_3507-2" data-name="Path 3507" d="M118,209.849c.051-2.2-.1-4.915.051-7.68a10.725,10.725,0,0,1,7.731-9.472,11.981,11.981,0,0,1,3.277-.41c1.485,0,2.97-.051,4.454.051a11.037,11.037,0,0,1,6.2,2.611c.256.2.1.307-.051.461a22.987,22.987,0,0,0-3.686,5.222,22.2,22.2,0,0,0-2.406,9.728c-.051,4.864,0,9.728,0,14.592,0,.307-.051.41-.41.41-2.867,0-5.683.051-8.55,0A6.887,6.887,0,0,1,117.9,218.4C118.054,215.788,118,213.126,118,209.849Z" transform="translate(-117.9 -161.158)" fill="#ff7757"/>
        <path id="Path_3508-2" data-name="Path 3508" d="M261.141,210.768v7.68a6.728,6.728,0,0,1-3.635,6.3,6.506,6.506,0,0,1-3.072.768h-8.448c-.358,0-.461-.1-.461-.461,0-4.813.051-9.574,0-14.387a21.837,21.837,0,0,0-5.734-14.745c-.563-.666-.614-.666.1-1.229a10.378,10.378,0,0,1,6.6-2.3c1.536,0,3.123-.051,4.659.051a10.694,10.694,0,0,1,9.677,8.038,14.7,14.7,0,0,1,.358,2.97C261.141,205.9,261.141,208.311,261.141,210.768Z" transform="translate(-177.174 -161.207)" fill="#ff7757"/>
        <path id="Path_3509-2" data-name="Path 3509" d="M143.354,160.279a9.728,9.728,0,1,1-9.677-9.779A9.811,9.811,0,0,1,143.354,160.279Z" transform="translate(-120.826 -140.772)" fill="#ff7757"/>
        <path id="Path_3510-2" data-name="Path 3510" d="M257.555,160.279a9.728,9.728,0,1,1-9.677-9.779A9.746,9.746,0,0,1,257.555,160.279Z" transform="translate(-176.558 -140.772)" fill="#ff7757"/>
      </g>
    </g>
  </g>
</svg>
