<svg xmlns="http://www.w3.org/2000/svg" width="24.107" height="24.059" viewBox="0 0 24.107 24.059">
    <path data-name="Path 3467" d="M231.816 349.469c1.843-.262 3.46-2.186 4.476-5.027a21.875 21.875 0 0 0-4.476-.527zm0 0" transform="translate(-219.332 -325.409)" style="fill:#ff7757"/>
    <path data-name="Path 3468" d="M279.874 361.978c.109-.032.218-.063.325-.1.091-.029.181-.061.27-.092.106-.037.212-.074.317-.114.09-.034.178-.07.267-.106l.307-.129c.089-.039.176-.08.264-.121s.2-.095.3-.144.172-.089.259-.135.193-.1.288-.159.169-.1.253-.148l.279-.172c.083-.053.165-.106.247-.161s.18-.125.27-.189l.238-.172c.078-.057.175-.135.261-.2s.153-.122.229-.185.169-.146.252-.22.147-.129.218-.2.162-.156.243-.235.14-.136.208-.206l.038-.041a14.486 14.486 0 0 0-2.952-1.136 10.69 10.69 0 0 1-2.754 4.471l.1-.025c.092-.026.183-.059.273-.081zm0 0" transform="translate(-264.444 -338.37)" style="fill:#ff7757"/>
    <path data-name="Path 3469" d="M341.594 231.684h-5.166a22.343 22.343 0 0 1-.87 5.961 14.983 14.983 0 0 1 3.27 1.3 12.037 12.037 0 0 0 2.766-7.261zm0 0" transform="translate(-317.487 -219.223)" style="fill:#ff7757"/>
    <path data-name="Path 3470" d="M231.816 114.691h5.6a21.553 21.553 0 0 0-.848-5.749 22.692 22.692 0 0 1-4.747.566zm0 0" transform="translate(-219.332 -103.092)" style="fill:#ff7757"/>
    <path data-name="Path 3471" d="M231.816.316v5.555a21.9 21.9 0 0 0 4.476-.527C235.276 2.5 233.659.578 231.816.316zm0 0" transform="translate(-219.332 -.316)" style="fill:#ff7757"/>
    <path data-name="Path 3472" d="M231.816 236.866a22.709 22.709 0 0 1 4.747.566 21.552 21.552 0 0 0 .848-5.749h-5.6zm0 0" transform="translate(-219.331 -219.223)" style="fill:#ff7757"/>
    <path data-name="Path 3473" d="M338.828 80.844a14.983 14.983 0 0 1-3.27 1.3 22.343 22.343 0 0 1 .87 5.961h5.166a12.04 12.04 0 0 0-2.766-7.262zm0 0" transform="translate(-317.487 -76.507)" style="fill:#ff7757"/>
    <path data-name="Path 3474" d="m285.166 10.131-.037-.04c-.068-.07-.139-.138-.208-.206s-.16-.159-.242-.235-.145-.129-.218-.2-.167-.149-.253-.22-.151-.123-.227-.183-.175-.139-.263-.206-.157-.115-.236-.172-.181-.129-.272-.191-.162-.107-.244-.159-.186-.119-.281-.175-.167-.1-.251-.147-.193-.109-.29-.161-.172-.09-.259-.133-.2-.1-.3-.146q-.129-.062-.263-.12c-.1-.045-.205-.086-.308-.129s-.177-.072-.267-.106c-.1-.04-.211-.077-.317-.114a8.577 8.577 0 0 0-.596-.192c-.09-.026-.18-.053-.27-.077l-.105-.026a10.691 10.691 0 0 1 2.754 4.471 14.459 14.459 0 0 0 2.956-1.137zm0 0" transform="translate(-264.407 -6.447)" style="fill:#ff7757"/>
    <path data-name="Path 3475" d="M0 88.106h5.166a22.352 22.352 0 0 1 .87-5.961 14.965 14.965 0 0 1-3.27-1.3A12.038 12.038 0 0 0 0 88.106zm0 0" transform="translate(0 -76.507)" style="fill:#ff7757"/>
    <path data-name="Path 3476" d="M137.171 349.468v-5.554a21.9 21.9 0 0 0-4.476.527c1.017 2.841 2.633 4.766 4.476 5.027zm0 0" transform="translate(-125.549 -325.409)" style="fill:#ff7757"/>
    <path data-name="Path 3477" d="M117.516 231.684h-5.6a21.546 21.546 0 0 0 .848 5.749 22.673 22.673 0 0 1 4.747-.566zm0 0" transform="translate(-105.894 -219.223)" style="fill:#ff7757"/>
    <path data-name="Path 3478" d="M137.171.316c-1.843.262-3.46 2.186-4.476 5.027a21.867 21.867 0 0 0 4.476.527zm0 0" transform="translate(-125.549 -.316)" style="fill:#ff7757"/>
    <path data-name="Path 3479" d="M117.517 109.507a22.7 22.7 0 0 1-4.747-.566 21.545 21.545 0 0 0-.848 5.749h5.6zm0 0" transform="translate(-105.894 -103.091)" style="fill:#ff7757"/>
    <path data-name="Path 3480" d="m67.9 6.789-.1.025c-.091.024-.181.052-.272.078-.108.032-.215.063-.324.1-.092.03-.182.061-.272.093-.105.037-.211.074-.315.114s-.179.07-.268.107l-.306.129a23.237 23.237 0 0 0-.564.265c-.1.049-.173.089-.259.135s-.192.1-.287.159-.171.1-.254.148-.186.115-.278.172-.165.106-.247.162-.181.125-.27.189-.16.115-.238.173-.172.135-.261.2-.154.122-.229.185-.168.145-.251.218-.148.129-.22.2l-.242.234c-.08.078-.14.136-.208.207l-.037.041a14.465 14.465 0 0 0 2.952 1.136 10.688 10.688 0 0 1 2.75-4.47zm0 0" transform="translate(-58.842 -6.44)" style="fill:#ff7757"/>
    <path data-name="Path 3481" d="M62.472 358.945c.08.079.16.159.242.235s.145.129.219.2.167.149.253.22.15.123.227.183.172.139.264.206l.235.173a7.787 7.787 0 0 0 .517.35c.082.052.186.118.281.175s.167.1.251.147.193.109.29.161.172.09.259.133.2.1.3.146q.129.061.263.12c.1.045.2.086.308.129s.177.072.267.106.211.078.317.114c.09.031.179.063.27.092.108.035.215.067.326.1.09.026.18.053.27.077l.105.026a10.694 10.694 0 0 1-2.754-4.471 14.46 14.46 0 0 0-2.952 1.137l.037.04c.065.065.133.132.205.201zm0 0" transform="translate(-58.879 -338.322)" style="fill:#ff7757"/>
    <path data-name="Path 3482" d="M2.766 238.945a14.983 14.983 0 0 1 3.27-1.3 22.352 22.352 0 0 1-.87-5.961H0a12.04 12.04 0 0 0 2.766 7.261zm0 0" transform="translate(0 -219.222)" style="fill:#ff7757"/>
</svg>
