<svg xmlns="http://www.w3.org/2000/svg" width="21.353" height="24.404" viewBox="0 0 21.353 24.404">
    <path data-name="Icon awesome-hand-pointer" d="M21.353 11.439v4.576a1.906 1.906 0 0 1-.051.437l-1.525 6.482a1.907 1.907 0 0 1-1.856 1.47H8.007a1.907 1.907 0 0 1-1.542-.785l-6.1-8.389a1.907 1.907 0 1 1 3.084-2.243l1.508 2.074V1.907a1.907 1.907 0 0 1 3.813 0v9.533h.381V9.533a1.907 1.907 0 0 1 3.813 0v1.907h.381V10.3a1.907 1.907 0 0 1 3.813 0v1.144h.381a1.907 1.907 0 0 1 3.813 0zm-12.2 3.813H8.77v4.576h.381zm4.194 0h-.381v4.576h.381zm4.194 0h-.381v4.576h.381z" style="fill:#ff7757"/>
</svg>
