<svg xmlns="http://www.w3.org/2000/svg" width="31.003" height="20.928" viewBox="0 0 31.003 20.928">
  <path id="Icon_zocial-email" data-name="Icon zocial-email" d="M.072,23.142V5.922q0-.03.09-.568L10.3,14.024.192,23.74a2.534,2.534,0,0,1-.12-.6ZM1.417,4.158a1.288,1.288,0,0,1,.508-.09h27.3a1.693,1.693,0,0,1,.538.09l-10.165,8.7-1.345,1.076-2.661,2.182-2.661-2.182-1.345-1.076Zm.03,20.748L11.642,15.13l3.946,3.2,3.946-3.2L29.73,24.906a1.435,1.435,0,0,1-.508.09H1.926a1.354,1.354,0,0,1-.478-.09ZM20.88,14.024l10.105-8.67a1.784,1.784,0,0,1,.09.568V23.142a2.291,2.291,0,0,1-.09.6Z" transform="translate(-0.072 -4.068)" fill="#ff7757"/>
</svg>
