<svg xmlns="http://www.w3.org/2000/svg" width="76.96" height="74.96" viewBox="0 0 76.96 74.96">
    <g data-name="Group 2635">
        <path data-name="Path 3404" d="M0 64h73.96v38.255H0zm0 0" transform="translate(0 -53.799)" style="fill:#def0ff"/>
        <path data-name="Path 3405" d="M73.96 64v38.255H0C33.466 98.031 58.9 86.039 73.96 64zm0 0" transform="translate(0 -53.799)" style="fill:#a1d6ff"/>
        <path data-name="Path 3406" d="M158.6 432a2.55 2.55 0 1 1 0 5.1h-28.05a2.55 2.55 0 1 1 0-5.1zm0 0" transform="translate(-107.597 -363.141)" style="fill:#f0f0f0"/>
        <path data-name="Path 3407" d="M188.4 378.2H168l1.275-10.2h17.852zm0 0" transform="translate(-141.221 -309.342)" style="fill:#f0f0f0"/>
        <path data-name="Path 3408" d="M73.96 304v5.1a5.115 5.115 0 0 1-5.1 5.1H5.1a5.115 5.115 0 0 1-5.1-5.1V304zm0 0" transform="translate(0 -255.543)" style="fill:#f0f0f0"/>
        <path data-name="Path 3409" d="M73.96 5.1v5.1H0V5.1A5.115 5.115 0 0 1 5.1 0h63.759a5.1 5.1 0 0 1 5.101 5.1zm0 0" style="fill:#ff7757"/>
        <path data-name="Path 3410" d="M192.49 370.55H174l.319-2.55h17.852zm0 0" transform="translate(-146.265 -309.342)" style="fill:#c5c5c5"/>
        <path data-name="Path 3411" d="M106.2 202.55v7.65H96V200h10.2zm0 0" transform="translate(-80.698 -168.121)" style="fill:#003adc"/>
        <path data-name="Path 3412" d="M106.2 106.55v7.65H96V104h10.2zm0 0" transform="translate(-80.698 -87.423)" style="fill:#003adc"/>
        <path data-name="Path 3413" d="M117.8 106.9a1.275 1.275 0 0 1-.9-.374l-2.55-2.55 1.8-1.8 1.649 1.649 5.474-5.474 1.8 1.8-6.376 6.376a1.275 1.275 0 0 1-.9.374zm0 0" transform="translate(-96.118 -82.668)" style="fill:#ff7757"/>
        <path data-name="Path 3414" d="M117.8 202.9a1.275 1.275 0 0 1-.9-.374l-2.55-2.55 1.8-1.8 1.649 1.649 5.474-5.474 1.8 1.8-6.376 6.376a1.275 1.275 0 0 1-.9.374zm0 0" transform="translate(-96.118 -163.366)" style="fill:#ff7757"/>
        <g data-name="Group 2593">
            <path data-name="Path 3415" d="M208 112h7.651v2.55H208zm0 0" transform="translate(-174.846 -94.148)" style="fill:#1e81ce"/>
            <path data-name="Path 3416" d="M272 112h10.2v2.55H272zm0 0" transform="translate(-228.645 -94.148)" style="fill:#1e81ce"/>
            <path data-name="Path 3417" d="M352 112h2.55v2.55H352zm0 0" transform="translate(-295.893 -94.148)" style="fill:#1e81ce"/>
            <path data-name="Path 3418" d="M208 144h15.3v2.55H208zm0 0" transform="translate(-174.846 -121.047)" style="fill:#1e81ce"/>
            <path data-name="Path 3419" d="M320 144h7.651v2.55H320zm0 0" transform="translate(-268.994 -121.047)" style="fill:#1e81ce"/>
            <path data-name="Path 3420" d="M208 208h12.752v2.55H208zm0 0" transform="translate(-174.846 -174.846)" style="fill:#1e81ce"/>
            <path data-name="Path 3421" d="M208 240h15.3v2.55H208zm0 0" transform="translate(-174.846 -201.745)" style="fill:#1e81ce"/>
            <path data-name="Path 3422" d="M320 240h7.651v2.55H320zm0 0" transform="translate(-268.994 -201.745)" style="fill:#1e81ce"/>
            <path data-name="Path 3423" d="M304 208h2.55v2.55H304zm0 0" transform="translate(-255.544 -174.846)" style="fill:#1e81ce"/>
            <path data-name="Path 3424" d="M336 208h5.1v2.55H336zm0 0" transform="translate(-282.443 -174.846)" style="fill:#1e81ce"/>
        </g>
        <path data-name="Path 3425" d="M408 328h2.55v2.55H408zm0 0" transform="translate(-342.966 -275.718)" style="fill:#898890"/>
        <path data-name="Path 3426" d="M40 24h2.55v2.55H40zm0 0" transform="translate(-33.624 -20.174)" style="fill:#cd2a00"/>
        <path data-name="Path 3427" d="M72 24h2.55v2.55H72zm0 0" transform="translate(-60.523 -20.174)" style="fill:#cd2a00"/>
        <path data-name="Path 3428" d="M104 24h2.55v2.55H104zm0 0" transform="translate(-87.423 -20.174)" style="fill:#cd2a00"/>
        <g data-name="list">
            <path data-name="Path 3404" d="M0 64h73.96v38.255H0zm0 0" transform="translate(3 -52.799)" style="fill:#fff"/>
            <path data-name="Path 3405" d="M73.96 64v38.255H0C33.466 98.031 58.9 86.039 73.96 64zm0 0" transform="translate(3 -52.799)" style="fill:#fff"/>
            <path data-name="Path 3406" d="M158.6 432a2.55 2.55 0 1 1 0 5.1h-28.05a2.55 2.55 0 1 1 0-5.1zm0 0" transform="translate(-104.597 -362.141)" style="fill:#fff"/>
            <path data-name="Path 3407" d="M188.4 378.2H168l1.275-10.2h17.852zm0 0" transform="translate(-138.221 -308.342)" style="fill:#fff"/>
            <path data-name="Path 3408" d="M73.96 304v5.1a5.115 5.115 0 0 1-5.1 5.1H5.1a5.115 5.115 0 0 1-5.1-5.1V304zm0 0" transform="translate(3 -254.543)" style="fill:#fff"/>
            <path data-name="Path 3409" d="M73.96 5.1v5.1H0V5.1A5.115 5.115 0 0 1 5.1 0h63.759a5.1 5.1 0 0 1 5.101 5.1zm0 0" style="fill:#fff" transform="translate(3 1)"/>
            <path data-name="Path 3410" d="M192.49 370.55H174l.319-2.55h17.852zm0 0" transform="translate(-143.265 -308.342)" style="fill:#fff"/>
            <path data-name="Path 3411" d="M106.2 202.55v7.65H96V200h10.2zm0 0" transform="translate(-77.698 -167.121)" style="fill:#fff"/>
            <path data-name="Path 3412" d="M106.2 106.55v7.65H96V104h10.2zm0 0" transform="translate(-77.698 -86.423)" style="fill:#fff"/>
            <path data-name="Path 3413" d="M117.8 106.9a1.275 1.275 0 0 1-.9-.374l-2.55-2.55 1.8-1.8 1.649 1.649 5.474-5.474 1.8 1.8-6.376 6.376a1.275 1.275 0 0 1-.9.374zm0 0" transform="translate(-93.118 -81.668)" style="fill:#fff"/>
            <path data-name="Path 3414" d="M117.8 202.9a1.275 1.275 0 0 1-.9-.374l-2.55-2.55 1.8-1.8 1.649 1.649 5.474-5.474 1.8 1.8-6.376 6.376a1.275 1.275 0 0 1-.9.374zm0 0" transform="translate(-93.118 -162.366)" style="fill:#fff"/>
            <g data-name="Group 2593">
                <path data-name="Path 3415" d="M208 112h7.651v2.55H208zm0 0" transform="translate(-171.846 -93.148)" style="fill:#fff"/>
                <path data-name="Path 3416" d="M272 112h10.2v2.55H272zm0 0" transform="translate(-225.645 -93.148)" style="fill:#fff"/>
                <path data-name="Path 3417" d="M352 112h2.55v2.55H352zm0 0" transform="translate(-292.893 -93.148)" style="fill:#fff"/>
                <path data-name="Path 3418" d="M208 144h15.3v2.55H208zm0 0" transform="translate(-171.846 -120.047)" style="fill:#fff"/>
                <path data-name="Path 3419" d="M320 144h7.651v2.55H320zm0 0" transform="translate(-265.994 -120.047)" style="fill:#fff"/>
                <path data-name="Path 3420" d="M208 208h12.752v2.55H208zm0 0" transform="translate(-171.846 -173.846)" style="fill:#fff"/>
                <path data-name="Path 3421" d="M208 240h15.3v2.55H208zm0 0" transform="translate(-171.846 -200.745)" style="fill:#fff"/>
                <path data-name="Path 3422" d="M320 240h7.651v2.55H320zm0 0" transform="translate(-265.994 -200.745)" style="fill:#fff"/>
                <path data-name="Path 3423" d="M304 208h2.55v2.55H304zm0 0" transform="translate(-252.544 -173.846)" style="fill:#fff"/>
                <path data-name="Path 3424" d="M336 208h5.1v2.55H336zm0 0" transform="translate(-279.443 -173.846)" style="fill:#fff"/>
            </g>
            <path data-name="Path 3425" d="M408 328h2.55v2.55H408zm0 0" transform="translate(-339.966 -274.718)" style="fill:#fff"/>
            <path data-name="Path 3426" d="M40 24h2.55v2.55H40zm0 0" transform="translate(-30.624 -19.174)" style="fill:#fff"/>
            <path data-name="Path 3427" d="M72 24h2.55v2.55H72zm0 0" transform="translate(-57.523 -19.174)" style="fill:#fff"/>
            <path data-name="Path 3428" d="M104 24h2.55v2.55H104zm0 0" transform="translate(-84.423 -19.174)" style="fill:#fff"/>
        </g>
        <g data-name="list">
            <path data-name="Path 3404" d="M0 64h73.96v38.255H0zm0 0" transform="translate(0 -53.799)" style="fill:#def0ff"/>
            <path data-name="Path 3405" d="M73.96 64v38.255H0C33.466 98.031 58.9 86.039 73.96 64zm0 0" transform="translate(0 -53.799)" style="fill:#a1d6ff"/>
            <path data-name="Path 3406" d="M158.6 432a2.55 2.55 0 1 1 0 5.1h-28.05a2.55 2.55 0 1 1 0-5.1zm0 0" transform="translate(-107.597 -363.141)" style="fill:#f0f0f0"/>
            <path data-name="Path 3407" d="M188.4 378.2H168l1.275-10.2h17.852zm0 0" transform="translate(-141.221 -309.342)" style="fill:#f0f0f0"/>
            <path data-name="Path 3408" d="M73.96 304v5.1a5.115 5.115 0 0 1-5.1 5.1H5.1a5.115 5.115 0 0 1-5.1-5.1V304zm0 0" transform="translate(0 -255.543)" style="fill:#f0f0f0"/>
            <path data-name="Path 3409" d="M73.96 5.1v5.1H0V5.1A5.115 5.115 0 0 1 5.1 0h63.759a5.1 5.1 0 0 1 5.101 5.1zm0 0" style="fill:#ff7757"/>
            <path data-name="Path 3410" d="M192.49 370.55H174l.319-2.55h17.852zm0 0" transform="translate(-146.265 -309.342)" style="fill:#c5c5c5"/>
            <path data-name="Path 3411" d="M106.2 202.55v7.65H96V200h10.2zm0 0" transform="translate(-80.698 -168.121)" style="fill:#003adc"/>
            <path data-name="Path 3412" d="M106.2 106.55v7.65H96V104h10.2zm0 0" transform="translate(-80.698 -87.423)" style="fill:#003adc"/>
            <path data-name="Path 3413" d="M117.8 106.9a1.275 1.275 0 0 1-.9-.374l-2.55-2.55 1.8-1.8 1.649 1.649 5.474-5.474 1.8 1.8-6.376 6.376a1.275 1.275 0 0 1-.9.374zm0 0" transform="translate(-96.118 -82.668)" style="fill:#ff7757"/>
            <path data-name="Path 3414" d="M117.8 202.9a1.275 1.275 0 0 1-.9-.374l-2.55-2.55 1.8-1.8 1.649 1.649 5.474-5.474 1.8 1.8-6.376 6.376a1.275 1.275 0 0 1-.9.374zm0 0" transform="translate(-96.118 -163.366)" style="fill:#ff7757"/>
            <g data-name="Group 2593">
                <path data-name="Path 3415" d="M208 112h7.651v2.55H208zm0 0" transform="translate(-174.846 -94.148)" style="fill:#1e81ce"/>
                <path data-name="Path 3416" d="M272 112h10.2v2.55H272zm0 0" transform="translate(-228.645 -94.148)" style="fill:#1e81ce"/>
                <path data-name="Path 3417" d="M352 112h2.55v2.55H352zm0 0" transform="translate(-295.893 -94.148)" style="fill:#1e81ce"/>
                <path data-name="Path 3418" d="M208 144h15.3v2.55H208zm0 0" transform="translate(-174.846 -121.047)" style="fill:#1e81ce"/>
                <path data-name="Path 3419" d="M320 144h7.651v2.55H320zm0 0" transform="translate(-268.994 -121.047)" style="fill:#1e81ce"/>
                <path data-name="Path 3420" d="M208 208h12.752v2.55H208zm0 0" transform="translate(-174.846 -174.846)" style="fill:#1e81ce"/>
                <path data-name="Path 3421" d="M208 240h15.3v2.55H208zm0 0" transform="translate(-174.846 -201.745)" style="fill:#1e81ce"/>
                <path data-name="Path 3422" d="M320 240h7.651v2.55H320zm0 0" transform="translate(-268.994 -201.745)" style="fill:#1e81ce"/>
                <path data-name="Path 3423" d="M304 208h2.55v2.55H304zm0 0" transform="translate(-255.544 -174.846)" style="fill:#1e81ce"/>
                <path data-name="Path 3424" d="M336 208h5.1v2.55H336zm0 0" transform="translate(-282.443 -174.846)" style="fill:#1e81ce"/>
            </g>
            <path data-name="Path 3425" d="M408 328h2.55v2.55H408zm0 0" transform="translate(-342.966 -275.718)" style="fill:#898890"/>
            <path data-name="Path 3426" d="M40 24h2.55v2.55H40zm0 0" transform="translate(-33.624 -20.174)" style="fill:#cd2a00"/>
            <path data-name="Path 3427" d="M72 24h2.55v2.55H72zm0 0" transform="translate(-60.523 -20.174)" style="fill:#cd2a00"/>
            <path data-name="Path 3428" d="M104 24h2.55v2.55H104zm0 0" transform="translate(-87.423 -20.174)" style="fill:#cd2a00"/>
        </g>
    </g>
</svg>
