<svg xmlns="http://www.w3.org/2000/svg" width="82.742" height="78.75" viewBox="0 0 82.742 78.75">
    <g data-name="Group 2632">
        <path data-name="Path 3343" d="M173.129 229.847a24.8 24.8 0 0 0 6.93-16.959c0-7.755-3.831-14.779-9.967-19.762-.14 17.769-16.85 32.22-37.375 32.22h-13.891c5.373 8.861 16.289 14.95 28.841 14.95h29.9a2.493 2.493 0 0 0 2.3-1.542 2.465 2.465 0 0 0-.545-2.71z" transform="translate(-97.321 -161.546)" style="fill:#f0f0f0"/>
        <path data-name="Path 3344" d="M32.4 16.026C14.534 16.026 0 28.313 0 43.434a24.825 24.825 0 0 0 6.93 16.959l-6.2 6.2a2.488 2.488 0 0 0 1.77 4.25h29.9c17.862 0 32.392-12.287 32.392-27.408S50.258 16.026 32.4 16.026z" transform="translate(3 -12.026)" style="fill:#f0f0f0"/>
        <g data-name="Group 2566">
            <path data-name="Path 3345" d="M128.418 144.026h-29.9a2.492 2.492 0 0 0 0 4.983h29.9a2.492 2.492 0 0 0 0-4.983z" transform="translate(-78.072 -120.093)" style="fill:#f0f0f0"/>
            <path data-name="Path 3346" d="M118.451 208.026H98.518a2.492 2.492 0 0 0 0 4.983h19.933a2.492 2.492 0 1 0 0-4.983z" transform="translate(-78.072 -174.126)" style="fill:#f0f0f0"/>
        </g>
        <g data-name="chat">
            <path data-name="Path 3343" d="M173.129 229.847a24.8 24.8 0 0 0 6.93-16.959c0-7.755-3.831-14.779-9.967-19.762-.14 17.769-16.85 32.22-37.375 32.22h-13.891c5.373 8.861 16.289 14.95 28.841 14.95h29.9a2.493 2.493 0 0 0 2.3-1.542 2.465 2.465 0 0 0-.545-2.71z" transform="translate(-100.321 -165.546)" style="fill:#64b5f6"/>
            <path data-name="Path 3344" d="M32.4 16.026C14.534 16.026 0 28.313 0 43.434a24.825 24.825 0 0 0 6.93 16.959l-6.2 6.2a2.488 2.488 0 0 0 1.77 4.25h29.9c17.862 0 32.392-12.287 32.392-27.408S50.258 16.026 32.4 16.026z" transform="translate(0 -16.026)" style="fill:#ff7757"/>
            <g data-name="Group 2566">
                <path data-name="Path 3345" d="M128.418 144.026h-29.9a2.492 2.492 0 0 0 0 4.983h29.9a2.492 2.492 0 0 0 0-4.983z" transform="translate(-81.072 -124.093)" style="fill:#fafafa"/>
                <path data-name="Path 3346" d="M118.451 208.026H98.518a2.492 2.492 0 0 0 0 4.983h19.933a2.492 2.492 0 1 0 0-4.983z" transform="translate(-81.072 -178.126)" style="fill:#fafafa"/>
            </g>
        </g>
    </g>
</svg>
