<svg xmlns="http://www.w3.org/2000/svg" width="99.842" height="70.96" viewBox="0 0 99.842 70.96">
    <g data-name="Group 2570">
        <path data-name="Path 3352" d="M662.786 4074h76.1a2.8 2.8 0 0 1 2.792 2.792v49.3a2.8 2.8 0 0 1-2.792 2.786h-76.1A2.791 2.791 0 0 1 660 4126.1v-49.3a2.8 2.8 0 0 1 2.786-2.8z" transform="translate(-660 -4069.733)" style="fill-rule:evenodd;fill:#1c3b5c"/>
        <path data-name="Path 3353" d="M2.192 13064.946H87.82a2.2 2.2 0 0 0 2.192-2.192v-3.563a2.2 2.2 0 0 0-2.192-2.191H2.192a2.2 2.2 0 0 0-2.192 2.19v3.563a2.2 2.2 0 0 0 2.192 2.193z" transform="translate(9.831 -12993.986)" style="fill:#e1e3e8;fill-rule:evenodd"/>
        <path data-name="Path 3354" d="M1287 4682h73.752v47.2H1287z" transform="translate(-1269.039 -4671.892)" style="fill:#64b5f6;fill-rule:evenodd"/>
        <g data-name="Group 2568">
            <path data-name="Path 3355" d="M2672 12484h6.412v3.619H2672z" transform="translate(-2645.29 -12424.607)" style="fill:#205081;fill-rule:evenodd"/>
            <path data-name="Path 3356" d="M10561 12484h6.418v3.619H10561z" transform="translate(-10484.454 -12424.607)" style="fill:#205081;fill-rule:evenodd"/>
        </g>
        <g data-name="Group 2569">
            <path data-name="Path 3357" d="M5441 13057h21.27v2.521H5441z" transform="translate(-5396.798 -12993.986)" style="fill:#c5c7cb;fill-rule:evenodd"/>
            <path data-name="Path 3358" d="M88.919 13940.29H1.087A2.195 2.195 0 0 1 0 13940v.177a2.2 2.2 0 0 0 2.192 2.191H87.82a2.2 2.2 0 0 0 2.192-2.191v-.177a2.2 2.2 0 0 1-1.093.29z" transform="translate(9.831 -13871.41)" style="fill:#c5c7cb;fill-rule:evenodd"/>
        </g>
    </g>
    <g data-name="Group 2571">
        <path data-name="Path 3359" d="M8901 5467h10.878v1.093H8901z" transform="translate(-8834.941 -5451.934)" style="fill:#fff;fill-rule:evenodd"/>
        <path data-name="Path 3360" d="M10900 5467h5.806v1.093H10900z" transform="translate(-10821.313 -5451.934)" style="fill:#fff;fill-rule:evenodd"/>
        <path data-name="Path 3361" d="M10098 6141h7.233v1.093H10098z" transform="translate(-10024.379 -6121.676)" style="fill:#fff;fill-rule:evenodd"/>
        <path data-name="Path 3362" d="M8901 6141h5.806v1.093H8901z" transform="translate(-8834.941 -6121.676)" style="fill:#fff;fill-rule:evenodd"/>
        <path data-name="Path 3363" d="M8901 6834h10.878v1.093H8901z" transform="translate(-8834.941 -6810.298)" style="fill:#fff;fill-rule:evenodd"/>
        <path data-name="Path 3364" d="M10900 6834h5.806v1.093H10900z" transform="translate(-10821.313 -6810.298)" style="fill:#fff;fill-rule:evenodd"/>
    </g>
    <path data-name="Path 3365" d="M8901 7766h5.806v1.093H8901z" transform="translate(-8834.94 -7736.411)" style="fill:#ff7757;fill-rule:evenodd"/>
    <g data-name="Group 2592">
        <g data-name="Group 2573" transform="translate(22.067)">
            <path data-name="Path 3366" d="M1937 4011h38.8v51.44H1937z" transform="translate(-1937 -4005.131)" style="fill:#fff;fill-rule:evenodd"/>
            <path data-name="Path 3367" d="M1939.938 3082h32.931a2.944 2.944 0 0 1 2.938 2.938v2.931H1937v-2.931a2.944 2.944 0 0 1 2.938-2.938z" transform="translate(-1937 -3082)" style="fill:#2d2d2d;fill-rule:evenodd"/>
            <rect data-name="Rectangle 1819" width="19.109" height="1.718" rx=".859" transform="translate(3.55 2.072)" style="fill:#55ace0"/>
            <g data-name="Group 2572" transform="translate(26.216 1.864)">
                <circle data-name="Ellipse 60" cx="1.074" cy="1.074" r="1.074" style="fill:#ff576b"/>
                <circle data-name="Ellipse 61" cx="1.074" cy="1.074" r="1.074" transform="translate(3.809)" style="fill:#ffc42e"/>
                <circle data-name="Ellipse 62" cx="1.074" cy="1.074" r="1.074" transform="translate(7.625)" style="fill:#53b4ed"/>
            </g>
        </g>
        <g data-name="Group 2580">
            <g data-name="Group 2575">
                <path data-name="Path 3368" d="M2344 7244h8.806v5.306H2344z" transform="translate(-2319.362 -7217.708)" style="fill:#003adc;fill-rule:evenodd"/>
                <g data-name="Group 2574">
                    <path data-name="Path 3369" d="M2344 8279h5.957v.777H2344z" transform="translate(-2319.362 -8246.17)" style="fill:#afb0b5;fill-rule:evenodd"/>
                    <path data-name="Path 3370" d="M2344 8535h7.056v.391H2344zm0 2.331h5.306v.386H2344zm0-1.169h7.056v.393H2344z" transform="translate(-2319.362 -8500.554)" style="fill:#afb0b5;fill-rule:evenodd"/>
                </g>
            </g>
            <g data-name="Group 2577">
                <path data-name="Path 3371" d="M4312 7244h8.806v5.306H4312z" transform="translate(-4274.93 -7217.708)" style="fill:#ff7757;fill-rule:evenodd"/>
                <g data-name="Group 2576">
                    <path data-name="Path 3372" d="M4312 8279h5.957v.777H4312z" transform="translate(-4274.93 -8246.17)" style="fill:#afb0b5;fill-rule:evenodd"/>
                    <path data-name="Path 3373" d="M4312 8535h7.057v.391H4312zm0 2.331h5.306v.386H4312zm0-1.169h7.057v.393H4312z" transform="translate(-4274.93 -8500.554)" style="fill:#afb0b5;fill-rule:evenodd"/>
                </g>
            </g>
            <g data-name="Group 2579">
                <path data-name="Path 3374" d="M6279 7244h8.806v5.306H6279z" transform="translate(-6229.504 -7217.708)" style="fill:#ffc42e;fill-rule:evenodd"/>
                <g data-name="Group 2578">
                    <path data-name="Path 3375" d="M6279 8279h5.957v.777H6279z" transform="translate(-6229.504 -8246.17)" style="fill:#afb0b5;fill-rule:evenodd"/>
                    <path data-name="Path 3376" d="M6279 8535h7.056v.391H6279zm0 2.331h5.313v.386H6279zm0-1.169h7.056v.393H6279z" transform="translate(-6229.504 -8500.554)" style="fill:#afb0b5;fill-rule:evenodd"/>
                </g>
            </g>
        </g>
        <path data-name="Path 3377" d="M1937 4011h38.8v5.824H1937z" transform="translate(-1914.933 -4005.131)" style="fill:#fff;fill-rule:evenodd"/>
        <path data-name="Path 3378" d="M1937 4933h38.8v13.007H1937z" transform="translate(-1914.933 -4921.307)" style="fill:#ff7757;fill-rule:evenodd"/>
        <g data-name="Group 2581" transform="translate(40.071 6.942)">
            <circle data-name="Ellipse 63" cx="1.396" cy="1.396" r="1.396" style="fill:#ff576b"/>
            <path data-name="Path 3379" d="M4840 4709h2.294v.343H4840z" transform="translate(-4839.665 -4705.664)" style="fill:#ff576b;fill-rule:evenodd"/>
        </g>
        <g data-name="Group 2584">
            <g data-name="Group 2582">
                <path data-name="Path 3380" d="M2262.021 5642a2.016 2.016 0 0 1 2.021 2.021 1.99 1.99 0 0 1-.587 1.428v.006a2.036 2.036 0 0 1-2.862 0v-.006a1.994 1.994 0 0 1-.594-1.428 2.028 2.028 0 0 1 2.021-2.021zm1.207.821a1.7 1.7 0 1 0 .5 1.2 1.693 1.693 0 0 0-.5-1.2z" transform="translate(-2235.893 -5625.828)" style="fill:#fff"/>
                <path data-name="Path 3381" d="m2473 5821.891.891-.891v1.781z" transform="translate(-2447.548 -5803.697)" style="fill:#fff;fill-rule:evenodd"/>
            </g>
            <g data-name="Group 2583">
                <path data-name="Path 3382" d="M7004.021 5642a2.016 2.016 0 0 0-2.021 2.021 1.991 1.991 0 0 0 .587 1.428v.006a2.037 2.037 0 0 0 2.862 0v-.006a2 2 0 0 0 .594-1.428 2.027 2.027 0 0 0-2.021-2.021zm-1.207.821a1.7 1.7 0 1 1-.5 1.2 1.694 1.694 0 0 1 .5-1.2z" transform="translate(-6947.938 -5625.828)" style="fill:#fff"/>
                <path data-name="Path 3383" d="M7288.891 5821.891 7288 5821v1.781z" transform="translate(-7232.131 -5803.697)" style="fill:#fff;fill-rule:evenodd"/>
            </g>
            <path data-name="Path 3384" d="M3395 5446.209h11.825v.462H3395zm0-1.711h20.385v.461H3395zm0-1.706h20.385v.461H3395zm4.232-2.792h11.92v1.181h-11.92z" transform="translate(-3363.723 -5425.104)" style="fill:#fff;fill-rule:evenodd"/>
        </g>
        <g data-name="Group 2591">
            <g data-name="Group 2586">
                <path data-name="Path 3385" d="M2344 9274h8.806v5.307H2344z" transform="translate(-2319.362 -9234.885)" style="fill:#ff7757;fill-rule:evenodd"/>
                <g data-name="Group 2585">
                    <path data-name="Path 3386" d="M2344 10309h5.957v.777H2344z" transform="translate(-2319.362 -10263.347)" style="fill:#afb0b5;fill-rule:evenodd"/>
                    <path data-name="Path 3387" d="M2344 10565h7.056v.392H2344zm0 2.33h5.306v.393H2344zm0-1.162h7.056v.386H2344z" transform="translate(-2319.362 -10517.731)" style="fill:#afb0b5;fill-rule:evenodd"/>
                </g>
            </g>
            <g data-name="Group 2588">
                <path data-name="Path 3388" d="M4312 9274h8.806v5.307H4312z" transform="translate(-4274.93 -9234.885)" style="fill:#ffc42e;fill-rule:evenodd"/>
                <g data-name="Group 2587">
                    <path data-name="Path 3389" d="M4312 10309h5.957v.777H4312z" transform="translate(-4274.93 -10263.347)" style="fill:#afb0b5;fill-rule:evenodd"/>
                    <path data-name="Path 3390" d="M4312 10565h7.057v.392H4312zm0 2.33h5.306v.393H4312zm0-1.162h7.057v.386H4312z" transform="translate(-4274.93 -10517.731)" style="fill:#afb0b5;fill-rule:evenodd"/>
                </g>
            </g>
            <g data-name="Group 2590">
                <path data-name="Path 3391" d="M6279 9274h8.806v5.307H6279z" transform="translate(-6229.504 -9234.885)" style="fill:#003adc;fill-rule:evenodd"/>
                <g data-name="Group 2589">
                    <path data-name="Path 3392" d="M6279 10309h5.957v.777H6279z" transform="translate(-6229.504 -10263.347)" style="fill:#afb0b5;fill-rule:evenodd"/>
                    <path data-name="Path 3393" d="M6279 10565h7.056v.392H6279zm0 2.33h5.313v.393H6279zm0-1.162h7.056v.386H6279z" transform="translate(-6229.504 -10517.731)" style="fill:#afb0b5;fill-rule:evenodd"/>
                </g>
            </g>
        </g>
    </g>
    <path data-name="Path 3394" d="M10098 8440h7.233v1.092H10098z" transform="translate(-10024.379 -8406.153)" style="fill:#fff;fill-rule:evenodd"/>
    <path data-name="Path 3395" d="M8901 8440h5.806v1.092H8901z" transform="translate(-8834.94 -8406.153)" style="fill:#fff;fill-rule:evenodd"/>
    <path data-name="Path 3396" d="M8901 9133h10.878v1.092H8901z" transform="translate(-8834.94 -9094.775)" style="fill:#fff;fill-rule:evenodd"/>
    <path data-name="Path 3397" d="M10900 9133h5.806v1.092H10900z" transform="translate(-10821.314 -9094.775)" style="fill:#fff;fill-rule:evenodd"/>
    <path data-name="Path 3398" d="M8901 10113h5.806v1.093H8901z" transform="translate(-8834.94 -10068.584)" style="fill:#ff7757;fill-rule:evenodd"/>
    <path data-name="Path 3399" d="M10098 10787h7.233v1.093H10098z" transform="translate(-10024.379 -10738.326)" style="fill:#fff;fill-rule:evenodd"/>
    <path data-name="Path 3400" d="M8901 10787h5.806v1.093H8901z" transform="translate(-8834.94 -10738.326)" style="fill:#fff;fill-rule:evenodd"/>
    <path data-name="Path 3401" d="M8901 11480h10.878v1.093H8901z" transform="translate(-8834.94 -11426.948)" style="fill:#fff;fill-rule:evenodd"/>
    <path data-name="Path 3402" d="M10900 11480h5.806v1.093H10900z" transform="translate(-10821.314 -11426.948)" style="fill:#fff;fill-rule:evenodd"/>
    <path data-name="Path 3403" d="M8901 4947h10.878v1.093H8901z" transform="translate(-8834.94 -4935.219)" style="fill:#ff7757;fill-rule:evenodd"/>
</svg>
