<svg xmlns="http://www.w3.org/2000/svg" width="74.525" height="72.525" viewBox="0 0 74.525 72.525">
    <g data-name="Group 2634">
        <path d="M0 35.263A35.3 35.3 0 0 1 35.263 0a34.937 34.937 0 0 1 21.494 7.306l-8.194 10.645a21.618 21.618 0 0 0-13.3-4.518 21.829 21.829 0 1 0 20.772 28.546H35.263V28.546h35.262v6.717a35.263 35.263 0 0 1-70.525 0z" style="fill:#ff7757"/>
        <path data-name="google" d="M0 35.263A35.3 35.3 0 0 1 35.263 0a34.937 34.937 0 0 1 21.494 7.306l-8.194 10.645a21.618 21.618 0 0 0-13.3-4.518 21.829 21.829 0 1 0 20.772 28.546H35.263V28.546h35.262v6.717a35.263 35.263 0 0 1-70.525 0z" transform="translate(4 2)" style="fill:#fff"/>
        <path data-name="google" d="M0 35.263A35.3 35.3 0 0 1 35.263 0a34.937 34.937 0 0 1 21.494 7.306l-8.194 10.645a21.618 21.618 0 0 0-13.3-4.518 21.829 21.829 0 1 0 20.772 28.546H35.263V28.546h35.262v6.717a35.263 35.263 0 0 1-70.525 0z" style="fill:#ff7757"/>
    </g>
</svg>
