<svg xmlns="http://www.w3.org/2000/svg" width="27.412" height="18.282" viewBox="0 0 27.412 18.282">
  <path id="Icon_ionic-ios-arrow-round-up" data-name="Icon ionic-ios-arrow-round-up" d="M17.932,9.931a1.244,1.244,0,0,1-1.752.01l-5.8-5.779V26.184a1.238,1.238,0,0,1-2.476,0V4.161L2.108,9.95A1.253,1.253,0,0,1,.356,9.94,1.233,1.233,0,0,1,.365,8.2L8.268.352h0A1.39,1.39,0,0,1,8.658.1,1.181,1.181,0,0,1,9.135,0,1.241,1.241,0,0,1,10,.352L17.9,8.2A1.213,1.213,0,0,1,17.932,9.931Z" transform="translate(0 18.282) rotate(-90)" fill="#fff"/>
</svg>
