<svg xmlns="http://www.w3.org/2000/svg" width="72.528" height="70.525" viewBox="0 0 72.528 70.525">
    <g data-name="Group 2633">
        <g transform="translate(0 -.011)">
            <g data-name="Group 2567">
                <path data-name="Path 3347" d="M1.769 154a6.04 6.04 0 0 1 0-8.541l44.15-44.15a2.008 2.008 0 0 1 2.839 0l5.7 5.7a2.007 2.007 0 0 1 0 2.839L10.31 154a6.047 6.047 0 0 1-8.541 0z" transform="translate(0 -87.233)" style="fill:#464b52"/>
            </g>
            <path data-name="Path 3348" d="M65.909 129.269a2.007 2.007 0 0 1 0 2.839l-44.15 44.15a6.047 6.047 0 0 1-8.541 0l49.84-49.84z" transform="translate(-11.448 -109.488)" style="fill:#292b2f"/>
            <circle data-name="Ellipse 58" cx="26.2" cy="26.2" r="26.2" transform="translate(16.128 .011)" style="fill:#ff7757"/>
            <path data-name="Path 3349" d="M214.934 57.409A26.188 26.188 0 1 1 177.9 94.444z" transform="translate(-154.088 -49.716)" style="fill:#ff9c85"/>
            <circle data-name="Ellipse 59" cx="18.136" cy="18.136" r="18.136" transform="translate(24.192 8.075)" style="fill:#e1faff"/>
            <path data-name="Path 3350" d="M233.3 130.947a18.079 18.079 0 0 1-12.818-5.318l25.636-25.636a18.127 18.127 0 0 1-12.818 30.954z" transform="translate(-190.972 -86.6)" style="fill:#c7f5ff"/>
        </g>
        <g data-name="magnifying-glass" transform="translate(4 1.989)">
            <g data-name="Group 2567">
                <path data-name="Path 3347" d="M1.769 154a6.04 6.04 0 0 1 0-8.541l44.15-44.15a2.008 2.008 0 0 1 2.839 0l5.7 5.7a2.007 2.007 0 0 1 0 2.839L10.31 154a6.047 6.047 0 0 1-8.541 0z" transform="translate(0 -87.233)" style="fill:#fff"/>
            </g>
            <path data-name="Path 3348" d="M65.909 129.269a2.007 2.007 0 0 1 0 2.839l-44.15 44.15a6.047 6.047 0 0 1-8.541 0l49.84-49.84z" transform="translate(-11.448 -109.488)" style="fill:#fff"/>
            <circle data-name="Ellipse 58" cx="26.2" cy="26.2" r="26.2" transform="translate(16.128 .011)" style="fill:#fff"/>
            <path data-name="Path 3349" d="M214.934 57.409A26.188 26.188 0 1 1 177.9 94.444z" transform="translate(-154.088 -49.716)" style="fill:#fff"/>
            <circle data-name="Ellipse 59" cx="18.136" cy="18.136" r="18.136" transform="translate(24.192 8.075)" style="fill:#fff"/>
            <path data-name="Path 3350" d="M233.3 130.947a18.079 18.079 0 0 1-12.818-5.318l25.636-25.636a18.127 18.127 0 0 1-12.818 30.954z" transform="translate(-190.972 -86.6)" style="fill:#fff"/>
        </g>
        <g data-name="magnifying-glass" transform="translate(0 -.011)">
            <g data-name="Group 2567">
                <path data-name="Path 3347" d="M1.769 154a6.04 6.04 0 0 1 0-8.541l44.15-44.15a2.008 2.008 0 0 1 2.839 0l5.7 5.7a2.007 2.007 0 0 1 0 2.839L10.31 154a6.047 6.047 0 0 1-8.541 0z" transform="translate(0 -87.233)" style="fill:#464b52"/>
            </g>
            <path data-name="Path 3348" d="M65.909 129.269a2.007 2.007 0 0 1 0 2.839l-44.15 44.15a6.047 6.047 0 0 1-8.541 0l49.84-49.84z" transform="translate(-11.448 -109.488)" style="fill:#292b2f"/>
            <circle data-name="Ellipse 58" cx="26.2" cy="26.2" r="26.2" transform="translate(16.128 .011)" style="fill:#ff7757"/>
            <path data-name="Path 3349" d="M214.934 57.409A26.188 26.188 0 1 1 177.9 94.444z" transform="translate(-154.088 -49.716)" style="fill:#ff9c85"/>
            <circle data-name="Ellipse 59" cx="18.136" cy="18.136" r="18.136" transform="translate(24.192 8.075)" style="fill:#e1faff"/>
            <path data-name="Path 3350" d="M233.3 130.947a18.079 18.079 0 0 1-12.818-5.318l25.636-25.636a18.127 18.127 0 0 1-12.818 30.954z" transform="translate(-190.972 -86.6)" style="fill:#c7f5ff"/>
        </g>
    </g>
</svg>
