<svg xmlns="http://www.w3.org/2000/svg" width="76.932" height="74.96" viewBox="0 0 76.932 74.96">
    <g data-name="Group 2636">
        <g data-name="Group 2602">
            <g data-name="Group 2600">
                <g data-name="Group 2594">
                    <path data-name="Path 3429" d="M114.146 114.948a.8.8 0 0 1-.564-.234l-4.456-4.455a.8.8 0 0 1 1.128-1.128l4.456 4.455a.8.8 0 0 1-.564 1.361z" transform="translate(-93.51 -93.5)" style="fill:#f0f0f0"/>
                </g>
                <g data-name="Group 2595">
                    <path data-name="Path 3430" d="M170.39 89.4a.8.8 0 0 1-.8-.8v-3.209a.8.8 0 1 1 1.595 0V88.6a.8.8 0 0 1-.795.8z" transform="translate(-145.098 -72.844)" style="fill:#f0f0f0"/>
                </g>
                <g data-name="Group 2596">
                    <path data-name="Path 3431" d="M85.4 171.2a.8.8 0 0 1 0-1.595h3.207a.8.8 0 0 1 0 1.595z" transform="translate(-72.867 -145.095)" style="fill:#f0f0f0"/>
                </g>
                <g data-name="Group 2597">
                    <path data-name="Path 3432" d="M368.05 368.85a.8.8 0 0 1-.564-.234l-4.456-4.455a.8.8 0 0 1 1.128-1.128l4.456 4.455a.8.8 0 0 1-.564 1.361z" transform="translate(-309.299 -309.288)" style="fill:#f0f0f0"/>
                </g>
                <g data-name="Group 2598">
                    <path data-name="Path 3433" d="M332.576 400.223a.8.8 0 0 1-.8-.8v-3.207a.8.8 0 0 1 1.595 0v3.207a.8.8 0 0 1-.795.8z" transform="translate(-282.937 -337.012)" style="fill:#f0f0f0"/>
                </g>
                <g data-name="Group 2599">
                    <path data-name="Path 3434" d="M396.207 333.362a.8.8 0 0 1 0-1.595h3.207a.8.8 0 0 1 0 1.595z" transform="translate(-337.017 -282.912)" style="fill:#f0f0f0"/>
                </g>
                <path data-name="Path 3435" d="M56.592 186.885a18.485 18.485 0 0 1-3.006 3.971L38.339 206.1a18.579 18.579 0 0 1-13.222 5.479h-.008a18.716 18.716 0 0 1-13.222-31.946l15.239-15.247a19.2 19.2 0 0 1 4.043-3.07 18.734 18.734 0 0 0-1.738 14.394L18.7 186.446a9.074 9.074 0 0 0 6.419 15.5 9 9 0 0 0 6.411-2.656l10.726-10.726 4.522-4.522a9.073 9.073 0 0 0-6.419-15.5 9.348 9.348 0 0 0-1.834.183 9.053 9.053 0 0 1 2.464-4.569l4.522-4.522a18.692 18.692 0 0 1 12.831 12.855 18.772 18.772 0 0 1-1.747 14.394z" transform="translate(-6.415 -136.621)" style="fill:#fff"/>
                <path data-name="Path 3436" d="M202.136 38.267 186.9 53.514a19.2 19.2 0 0 1-4.043 3.07A18.772 18.772 0 0 0 184.6 42.19l10.726-10.734a9.074 9.074 0 0 0-6.419-15.5 9 9 0 0 0-6.407 2.654l-10.73 10.726-4.522 4.522a9.083 9.083 0 0 0 6.419 15.5 9.35 9.35 0 0 0 1.834-.183 9.054 9.054 0 0 1-2.464 4.569l-4.522 4.522a18.663 18.663 0 0 1-12.823-12.855 18.734 18.734 0 0 1 1.738-14.394 18.481 18.481 0 0 1 3.006-3.971L175.685 11.8a18.579 18.579 0 0 1 13.222-5.479h.008a18.716 18.716 0 0 1 13.222 31.946z" transform="translate(-132.676 -6.321)" style="fill:#ff7757"/>
                <path data-name="Path 3437" d="M58.545 279.123a18.485 18.485 0 0 1-3.006 3.971l-15.248 15.247a18.579 18.579 0 0 1-13.222 5.479h-.008a18.71 18.71 0 0 1-18.349-15.128 47.494 47.494 0 0 0 10.888 1.571 8.707 8.707 0 0 0 1.053 1.268 9.022 9.022 0 0 0 6.419 2.656 9 9 0 0 0 6.411-2.655l4.394-4.394a47.363 47.363 0 0 0 23.046-18.971 18.691 18.691 0 0 1-2.378 10.956z" transform="translate(-8.367 -228.86)" style="opacity:.12"/>
                <path data-name="Path 3438" d="m359.961 38.584-15.239 15.247a19.2 19.2 0 0 1-4.043 3.07 18.691 18.691 0 0 0 2.376-10.957 18.106 18.106 0 0 0-.63-3.437l4.737-4.737 5.989-6a9.089 9.089 0 0 0-2.943-14.817l-.064-.024a46.738 46.738 0 0 0-1.978-10.239 18.716 18.716 0 0 1 11.794 31.89z" transform="translate(-290.501 -6.638)" style="opacity:.12"/>
                <path data-name="Path 3439" d="M357.049 213.714a46.116 46.116 0 0 1-4.107 8.174 18.1 18.1 0 0 0-.63-3.437z" transform="translate(-300.388 -182.582)" style="opacity:.12"/>
            </g>
            <g data-name="_x35_1_Backlinks">
                <g data-name="Group 2600">
                    <path data-name="Path 3435" d="M56.592 186.885a18.485 18.485 0 0 1-3.006 3.971L38.339 206.1a18.579 18.579 0 0 1-13.222 5.479h-.008a18.716 18.716 0 0 1-13.222-31.946l15.239-15.247a19.2 19.2 0 0 1 4.043-3.07 18.734 18.734 0 0 0-1.738 14.394L18.7 186.446a9.074 9.074 0 0 0 6.419 15.5 9 9 0 0 0 6.411-2.656l10.726-10.726 4.522-4.522a9.073 9.073 0 0 0-6.419-15.5 9.348 9.348 0 0 0-1.834.183 9.053 9.053 0 0 1 2.464-4.569l4.522-4.522a18.692 18.692 0 0 1 12.831 12.855 18.772 18.772 0 0 1-1.747 14.394z" transform="translate(-4.415 -136.621)" style="fill:#fff"/>
                    <path data-name="Path 3436" d="M202.136 38.267 186.9 53.514a19.2 19.2 0 0 1-4.043 3.07A18.772 18.772 0 0 0 184.6 42.19l10.726-10.734a9.074 9.074 0 0 0-6.419-15.5 9 9 0 0 0-6.407 2.654l-10.73 10.726-4.522 4.522a9.083 9.083 0 0 0 6.419 15.5 9.35 9.35 0 0 0 1.834-.183 9.054 9.054 0 0 1-2.464 4.569l-4.522 4.522a18.663 18.663 0 0 1-12.823-12.855 18.734 18.734 0 0 1 1.738-14.394 18.481 18.481 0 0 1 3.006-3.971L175.685 11.8a18.579 18.579 0 0 1 13.222-5.479h.008a18.716 18.716 0 0 1 13.222 31.946z" transform="translate(-130.676 -6.321)" style="fill:#fff"/>
                    <path data-name="Path 3437" d="M58.545 279.123a18.485 18.485 0 0 1-3.006 3.971l-15.248 15.247a18.579 18.579 0 0 1-13.222 5.479h-.008a18.71 18.71 0 0 1-18.349-15.128 47.494 47.494 0 0 0 10.888 1.571 8.707 8.707 0 0 0 1.053 1.268 9.022 9.022 0 0 0 6.419 2.656 9 9 0 0 0 6.411-2.655l4.394-4.394a47.363 47.363 0 0 0 23.046-18.971 18.691 18.691 0 0 1-2.378 10.956z" transform="translate(-6.367 -228.86)" style="opacity:.12;fill:#fff"/>
                    <path data-name="Path 3438" d="m359.961 38.584-15.239 15.247a19.2 19.2 0 0 1-4.043 3.07 18.691 18.691 0 0 0 2.376-10.957 18.106 18.106 0 0 0-.63-3.437l4.737-4.737 5.989-6a9.089 9.089 0 0 0-2.943-14.817l-.064-.024a46.738 46.738 0 0 0-1.978-10.239 18.716 18.716 0 0 1 11.794 31.89z" transform="translate(-288.501 -6.638)" style="opacity:.12;fill:#fff"/>
                    <path data-name="Path 3439" d="M357.049 213.714a46.116 46.116 0 0 1-4.107 8.174 18.1 18.1 0 0 0-.63-3.437z" transform="translate(-298.388 -182.582)" style="opacity:.12;fill:#fff"/>
                </g>
            </g>
            <g data-name="_x35_1_Backlinks">
                <g data-name="Group 2600">
                    <g data-name="Group 2594">
                        <path data-name="Path 3429" d="M114.146 114.948a.8.8 0 0 1-.564-.234l-4.456-4.455a.8.8 0 0 1 1.128-1.128l4.456 4.455a.8.8 0 0 1-.564 1.361z" transform="translate(-93.51 -93.5)" style="fill:#f0f0f0"/>
                    </g>
                    <g data-name="Group 2595">
                        <path data-name="Path 3430" d="M170.39 89.4a.8.8 0 0 1-.8-.8v-3.209a.8.8 0 1 1 1.595 0V88.6a.8.8 0 0 1-.795.8z" transform="translate(-145.098 -72.844)" style="fill:#f0f0f0"/>
                    </g>
                    <g data-name="Group 2596">
                        <path data-name="Path 3431" d="M85.4 171.2a.8.8 0 0 1 0-1.595h3.207a.8.8 0 0 1 0 1.595z" transform="translate(-72.867 -145.095)" style="fill:#f0f0f0"/>
                    </g>
                    <g data-name="Group 2597">
                        <path data-name="Path 3432" d="M368.05 368.85a.8.8 0 0 1-.564-.234l-4.456-4.455a.8.8 0 0 1 1.128-1.128l4.456 4.455a.8.8 0 0 1-.564 1.361z" transform="translate(-309.299 -309.288)" style="fill:#f0f0f0"/>
                    </g>
                    <g data-name="Group 2598">
                        <path data-name="Path 3433" d="M332.576 400.223a.8.8 0 0 1-.8-.8v-3.207a.8.8 0 0 1 1.595 0v3.207a.8.8 0 0 1-.795.8z" transform="translate(-282.937 -337.012)" style="fill:#f0f0f0"/>
                    </g>
                    <g data-name="Group 2599">
                        <path data-name="Path 3434" d="M396.207 333.362a.8.8 0 0 1 0-1.595h3.207a.8.8 0 0 1 0 1.595z" transform="translate(-337.017 -282.912)" style="fill:#f0f0f0"/>
                    </g>
                    <path data-name="Path 3435" d="M56.592 186.885a18.485 18.485 0 0 1-3.006 3.971L38.339 206.1a18.579 18.579 0 0 1-13.222 5.479h-.008a18.716 18.716 0 0 1-13.222-31.946l15.239-15.247a19.2 19.2 0 0 1 4.043-3.07 18.734 18.734 0 0 0-1.738 14.394L18.7 186.446a9.074 9.074 0 0 0 6.419 15.5 9 9 0 0 0 6.411-2.656l10.726-10.726 4.522-4.522a9.073 9.073 0 0 0-6.419-15.5 9.348 9.348 0 0 0-1.834.183 9.053 9.053 0 0 1 2.464-4.569l4.522-4.522a18.692 18.692 0 0 1 12.831 12.855 18.772 18.772 0 0 1-1.747 14.394z" transform="translate(-6.415 -136.621)" style="fill:#fff"/>
                    <path data-name="Path 3436" d="M202.136 38.267 186.9 53.514a19.2 19.2 0 0 1-4.043 3.07A18.772 18.772 0 0 0 184.6 42.19l10.726-10.734a9.074 9.074 0 0 0-6.419-15.5 9 9 0 0 0-6.407 2.654l-10.73 10.726-4.522 4.522a9.083 9.083 0 0 0 6.419 15.5 9.35 9.35 0 0 0 1.834-.183 9.054 9.054 0 0 1-2.464 4.569l-4.522 4.522a18.663 18.663 0 0 1-12.823-12.855 18.734 18.734 0 0 1 1.738-14.394 18.481 18.481 0 0 1 3.006-3.971L175.685 11.8a18.579 18.579 0 0 1 13.222-5.479h.008a18.716 18.716 0 0 1 13.222 31.946z" transform="translate(-132.676 -6.321)" style="fill:#ff7757"/>
                    <path data-name="Path 3437" d="M58.545 279.123a18.485 18.485 0 0 1-3.006 3.971l-15.248 15.247a18.579 18.579 0 0 1-13.222 5.479h-.008a18.71 18.71 0 0 1-18.349-15.128 47.494 47.494 0 0 0 10.888 1.571 8.707 8.707 0 0 0 1.053 1.268 9.022 9.022 0 0 0 6.419 2.656 9 9 0 0 0 6.411-2.655l4.394-4.394a47.363 47.363 0 0 0 23.046-18.971 18.691 18.691 0 0 1-2.378 10.956z" transform="translate(-8.367 -228.86)" style="opacity:.12"/>
                    <path data-name="Path 3438" d="m359.961 38.584-15.239 15.247a19.2 19.2 0 0 1-4.043 3.07 18.691 18.691 0 0 0 2.376-10.957 18.106 18.106 0 0 0-.63-3.437l4.737-4.737 5.989-6a9.089 9.089 0 0 0-2.943-14.817l-.064-.024a46.738 46.738 0 0 0-1.978-10.239 18.716 18.716 0 0 1 11.794 31.89z" transform="translate(-290.501 -6.638)" style="opacity:.12"/>
                    <path data-name="Path 3439" d="M357.049 213.714a46.116 46.116 0 0 1-4.107 8.174 18.1 18.1 0 0 0-.63-3.437z" transform="translate(-300.388 -182.582)" style="opacity:.12"/>
                </g>
            </g>
        </g>
    </g>
</svg>
