<svg xmlns="http://www.w3.org/2000/svg" width="25.58" height="25.58" viewBox="0 0 25.58 25.58">
    <g data-name="Group 2639">
        <path data-name="Path 3483" d="M16.587 0a8.983 8.983 0 0 0-6.861 14.794l-1.581 1.58A2.233 2.233 0 0 0 5.6 16.8L.69 21.713a2.248 2.248 0 0 0 3.179 3.179l4.913-4.915a2.233 2.233 0 0 0 .418-2.543l1.581-1.581A8.989 8.989 0 1 0 16.587 0zm5.2 7.008-2.248 6a.751.751 0 0 1-1.4 0l-1.552-4.129L15.04 13a.781.781 0 0 1-1.4 0l-2.248-6a.75.75 0 0 1 1.4-.527l1.546 4.125 1.546-4.125a.781.781 0 0 1 1.4 0l1.546 4.125 1.546-4.125a.75.75 0 0 1 1.409.535z" style="fill:#ff7757"/>
    </g>
</svg>
