<svg xmlns="http://www.w3.org/2000/svg" width="29.264" height="29.25" viewBox="0 0 29.264 29.25">
    <g data-name="Icon ionic-ios-link">
        <path data-name="Path 3290" d="m19.688 23.984-.084.007a1.163 1.163 0 0 0-.675.316l-4.542 4.542a5.121 5.121 0 0 1-7.242-7.242l4.823-4.823a5.09 5.09 0 0 1 .8-.654 5.168 5.168 0 0 1 1.041-.527 4.923 4.923 0 0 1 1.055-.26 4.986 4.986 0 0 1 .717-.049c.1 0 .2.007.323.014a5.106 5.106 0 0 1 3.296 1.476 5.042 5.042 0 0 1 1.2 1.92 1.107 1.107 0 0 0 1.357.71c.007 0 .014-.007.021-.007s.014 0 .014-.007a1.1 1.1 0 0 0 .738-1.343 6.372 6.372 0 0 0-1.73-2.883 7.4 7.4 0 0 0-4.05-2.06c-.134-.021-.267-.042-.4-.056a7.256 7.256 0 0 0-.78-.042c-.183 0-.366.007-.541.021a7.091 7.091 0 0 0-1.139.176c-.077.014-.148.035-.225.056a7.314 7.314 0 0 0-1.371.513 7.223 7.223 0 0 0-1.948 1.4L5.52 20a7.417 7.417 0 0 0-2.145 5.238 7.393 7.393 0 0 0 12.614 5.224l4.591-4.591a1.113 1.113 0 0 0-.892-1.887z" style="fill:#ff7757" transform="translate(-3.375 -3.375)"/>
        <path data-name="Path 3291" d="M30.466 5.534a7.41 7.41 0 0 0-10.455 0l-4.479 4.479a1.13 1.13 0 0 0 .71 1.927 1.142 1.142 0 0 0 .893-.323l4.486-4.472a5.121 5.121 0 0 1 7.242 7.242l-4.823 4.822a5.09 5.09 0 0 1-.8.654 5.168 5.168 0 0 1-1.041.527 4.923 4.923 0 0 1-1.055.26 4.986 4.986 0 0 1-.717.049c-.1 0-.2-.007-.323-.014a5.053 5.053 0 0 1-4.444-3.27 1.123 1.123 0 0 0-1.343-.689 1.136 1.136 0 0 0-.795 1.441 6.423 6.423 0 0 0 1.666 2.637l.014.014a7.4 7.4 0 0 0 4.451 2.116 7.256 7.256 0 0 0 .78.042q.274 0 .548-.021a8.039 8.039 0 0 0 1.357-.225 7.314 7.314 0 0 0 1.371-.513 7.223 7.223 0 0 0 1.948-1.4L30.48 16a7.4 7.4 0 0 0-.014-10.462z" style="fill:#ff7757" transform="translate(-3.375 -3.375)"/>
    </g>
</svg>
