<svg xmlns="http://www.w3.org/2000/svg" width="29.704" height="24.134" viewBox="0 0 29.704 24.134">
    <path data-name="Icon awesome-list" d="M4.641 21.94H.928a.928.928 0 0 0-.928.928v3.713a.928.928 0 0 0 .928.928h3.713a.928.928 0 0 0 .928-.928v-3.713a.928.928 0 0 0-.928-.928zm0-18.565H.928A.928.928 0 0 0 0 4.3v3.716a.928.928 0 0 0 .928.928h3.713a.928.928 0 0 0 .928-.928V4.3a.928.928 0 0 0-.928-.925zm0 9.282H.928a.928.928 0 0 0-.928.929V17.3a.928.928 0 0 0 .928.928h3.713a.928.928 0 0 0 .928-.928v-3.714a.928.928 0 0 0-.928-.929zm24.134 10.211H10.211a.928.928 0 0 0-.928.928v1.856a.928.928 0 0 0 .928.928h18.564a.928.928 0 0 0 .928-.928V23.8a.928.928 0 0 0-.928-.932zm0-18.565H10.211a.928.928 0 0 0-.928.928v1.857a.928.928 0 0 0 .928.928h18.564a.928.928 0 0 0 .928-.928V5.231a.928.928 0 0 0-.928-.931zm0 9.282H10.211a.928.928 0 0 0-.928.928v1.857a.928.928 0 0 0 .928.928h18.564a.928.928 0 0 0 .928-.928v-1.856a.928.928 0 0 0-.928-.928z" transform="translate(0 -3.375)" style="fill:#ff7757"/>
</svg>
