<svg xmlns="http://www.w3.org/2000/svg" width="80.85" height="87.668" viewBox="0 0 53.85 87.668">
  <g id="Group_2649" data-name="Group 2649" transform="translate(-753.48 -922.932)">
    <g id="Group_2644" data-name="Group 2644">
      <g id="Group_2643" data-name="Group 2643" transform="translate(603 819.632)">
        <path id="Path_3497" data-name="Path 3497" d="M204.33,129.927c-.163.163-.327.109-.49.109H193.6c-.381,0-.545.109-.49.545v19.766c0,.436-.109.49-.49.49H165.015c-.708,0-.708,0-.708-.708V130.581c0-.436-.109-.49-.49-.49H152.872c-.109,0-.327.109-.381-.054s.109-.218.218-.327c8.277-8.386,16.554-16.717,24.83-25.1l1.144-1.143c.163-.218.272-.218.49,0,2.777,2.94,5.554,5.881,8.331,8.767l16.826,17.643C204.275,129.818,204.275,129.873,204.33,129.927Z" fill="#fff"/>
        <path id="Path_3498" data-name="Path 3498" d="M200.873,232.134v11.489c0,.436-.109.545-.545.545-1.361,0-2.723-.054-4.084,0-.436,0-.545-.109-.545-.545V220.481c0-.272.054-.381.327-.381h4.52c.327,0,.327.163.327.381v2.777c0,2.94,0,5.935,0,8.876Z" transform="translate(-19.686 -53.2)" fill="#fff"/>
        <path id="Path_3499" data-name="Path 3499" d="M217.6,212.459v-7.732c0-.327.054-.49.436-.436h4.3c.381,0,.49.109.49.49v14.757c0,1.089,0,1.089-1.089,1.089h-3.7c-.327,0-.381-.109-.381-.436-.054-2.559-.054-5.173-.054-7.732Z" transform="translate(-29.66 -45.994)" fill="#fff"/>
        <path id="Path_3500" data-name="Path 3500" d="M174.054,212.413V204.79c0-.436.109-.49.49-.49h4.138c.272,0,.381.109.381.381V220.2c0,.327-.054.436-.436.436H174.49c-.381,0-.49-.054-.49-.49C174.109,217.586,174.054,214.973,174.054,212.413Z" transform="translate(-9.802 -46.003)" fill="#fff"/>
        <path id="Path_3501" data-name="Path 3501" d="M217.6,246.414v-2.233c0-.272.054-.381.327-.381h4.465c.272,0,.381.109.381.381v4.52c0,.272-.109.327-.327.327h-4.411c-.327,0-.436-.054-.436-.436,0-.762,0-1.47,0-2.178Z" transform="translate(-29.66 -63.994)" fill="#fff"/>
        <path id="Path_3502" data-name="Path 3502" d="M174.054,246.414v-2.233c0-.327.109-.381.381-.381h4.193c.381,0,.436.163.436.49v4.3c0,.327-.109.381-.381.381h-4.3c-.272,0-.381-.054-.381-.381A14.553,14.553,0,0,0,174.054,246.414Z" transform="translate(-9.802 -63.994)" fill="#fff"/>
      </g>
      <g id="Group_2640" data-name="Group 2640" transform="translate(601 819.632)">
        <path id="Path_3497-2" data-name="Path 3497" d="M204.33,129.927c-.163.163-.327.109-.49.109H193.6c-.381,0-.545.109-.49.545v19.766c0,.436-.109.49-.49.49H165.015c-.708,0-.708,0-.708-.708V130.581c0-.436-.109-.49-.49-.49H152.872c-.109,0-.327.109-.381-.054s.109-.218.218-.327c8.277-8.386,16.554-16.717,24.83-25.1l1.144-1.143c.163-.218.272-.218.49,0,2.777,2.94,5.554,5.881,8.331,8.767l16.826,17.643C204.275,129.818,204.275,129.873,204.33,129.927Z" fill="#ff7757"/>
        <path id="Path_3498-2" data-name="Path 3498" d="M200.873,232.134v11.489c0,.436-.109.545-.545.545-1.361,0-2.723-.054-4.084,0-.436,0-.545-.109-.545-.545V220.481c0-.272.054-.381.327-.381h4.52c.327,0,.327.163.327.381v2.777c0,2.94,0,5.935,0,8.876Z" transform="translate(-19.686 -53.2)" fill="#ff7757"/>
        <path id="Path_3499-2" data-name="Path 3499" d="M217.6,212.459v-7.732c0-.327.054-.49.436-.436h4.3c.381,0,.49.109.49.49v14.757c0,1.089,0,1.089-1.089,1.089h-3.7c-.327,0-.381-.109-.381-.436-.054-2.559-.054-5.173-.054-7.732Z" transform="translate(-29.66 -45.994)" fill="#ff7757"/>
        <path id="Path_3500-2" data-name="Path 3500" d="M174.054,212.413V204.79c0-.436.109-.49.49-.49h4.138c.272,0,.381.109.381.381V220.2c0,.327-.054.436-.436.436H174.49c-.381,0-.49-.054-.49-.49C174.109,217.586,174.054,214.973,174.054,212.413Z" transform="translate(-9.802 -46.003)" fill="#ff7757"/>
        <path id="Path_3501-2" data-name="Path 3501" d="M217.6,246.414v-2.233c0-.272.054-.381.327-.381h4.465c.272,0,.381.109.381.381v4.52c0,.272-.109.327-.327.327h-4.411c-.327,0-.436-.054-.436-.436,0-.762,0-1.47,0-2.178Z" transform="translate(-29.66 -63.994)" fill="#ff7757"/>
        <path id="Path_3502-2" data-name="Path 3502" d="M174.054,246.414v-2.233c0-.327.109-.381.381-.381h4.193c.381,0,.436.163.436.49v4.3c0,.327-.109.381-.381.381h-4.3c-.272,0-.381-.054-.381-.381A14.553,14.553,0,0,0,174.054,246.414Z" transform="translate(-9.802 -63.994)" fill="#ff7757"/>
      </g>
    </g>
  </g>
</svg>
