<svg xmlns="http://www.w3.org/2000/svg" width="23.937" height="19.584" viewBox="0 0 23.937 19.584">
    <path data-name="Path 3292" d="M41.632 11H40v15.232a1.632 1.632 0 1 0 3.264 0v-13.6A1.632 1.632 0 0 0 41.632 11z" transform="translate(-19.328 -8.28)" style="fill:#ff7757"/>
    <path data-name="Path 3293" d="M8 15h4.9v4.352H8z" transform="translate(-4.736 -10.104)" style="fill:#ff7757"/>
    <path data-name="Path 3294" d="M21.584 23.952V8.176A2.176 2.176 0 0 0 19.408 6H4.176A2.176 2.176 0 0 0 2 8.176v15.776a1.632 1.632 0 0 0 1.632 1.632h18.511a2.692 2.692 0 0 1-.559-1.632zM4.176 10.9a1.088 1.088 0 0 1 1.088-1.092h4.9a1.088 1.088 0 0 1 1.084 1.092v4.352a1.088 1.088 0 0 1-1.088 1.088h-4.9a1.088 1.088 0 0 1-1.088-1.088zm14.688 10.88H4.72a.544.544 0 0 1 0-1.088h14.144a.544.544 0 1 1 0 1.088zm0-2.72H4.72a.544.544 0 1 1 0-1.088h14.144a.544.544 0 1 1 0 1.088zm0-2.72h-5.44a.544.544 0 1 1 0-1.088h5.44a.544.544 0 1 1 0 1.088zm0-2.72h-5.44a.544.544 0 0 1 0-1.088h5.44a.544.544 0 1 1 0 1.088zm0-2.72h-5.44a.544.544 0 0 1 0-1.088h5.44a.544.544 0 1 1 0 1.088z" style="fill:#ff7757" transform="translate(-2 -6)"/>
</svg>
