<svg xmlns="http://www.w3.org/2000/svg" width="26.002" height="28.687" viewBox="0 0 26.002 28.687">
  <g id="Icon_feather-share-2" data-name="Icon feather-share-2" transform="translate(-4 -2.5)">
    <path id="Path_1558" data-name="Path 1558" d="M26.949,2.5A4.949,4.949,0,1,1,22,7.449,4.955,4.955,0,0,1,26.949,2.5Zm0,8.052a3.1,3.1,0,1,0-3.1-3.1A3.107,3.107,0,0,0,26.949,10.552Z" transform="translate(-1.896)" fill="#373737"/>
    <path id="Path_1559" data-name="Path 1559" d="M8.949,13A4.949,4.949,0,1,1,4,17.949,4.955,4.955,0,0,1,8.949,13Zm0,8.052a3.1,3.1,0,1,0-3.1-3.1A3.107,3.107,0,0,0,8.949,21.052Z" transform="translate(0 -1.106)" fill="#373737"/>
    <path id="Path_1560" data-name="Path 1560" d="M26.949,23.5A4.949,4.949,0,1,1,22,28.449,4.955,4.955,0,0,1,26.949,23.5Zm0,8.052a3.1,3.1,0,1,0-3.1-3.1A3.107,3.107,0,0,0,26.949,31.552Z" transform="translate(-1.896 -2.211)" fill="#373737"/>
    <path id="Path_1561" data-name="Path 1561" d="M22.473,26.952a.918.918,0,0,1-.464-.126l-9.166-5.341a.923.923,0,1,1,.929-1.595l9.166,5.341a.923.923,0,0,1-.465,1.72Z" transform="translate(-0.883 -1.818)" fill="#373737"/>
    <path id="Path_1562" data-name="Path 1562" d="M13.309,16.452a.923.923,0,0,1-.466-1.72L22,9.391a.923.923,0,1,1,.93,1.594l-9.153,5.341A.919.919,0,0,1,13.309,16.452Z" transform="translate(-0.883 -0.712)" fill="#373737"/>
  </g>
</svg>
