<svg data-name="Group 2498" xmlns="http://www.w3.org/2000/svg" width="33" height="33" viewBox="0 0 33 33">
    <circle data-name="Ellipse 49" cx="16.5" cy="16.5" r="16.5" style="fill:#f05708"/>
    <path data-name="Icon awesome-thumbs-up" d="M2.958 8.191H.683A.683.683 0 0 1 0 7.508V.683A.683.683 0 0 1 .683 0h2.275a.683.683 0 0 1 .682.683v6.825a.683.683 0 0 1-.682.683zM1.82 1.138a.683.683 0 1 0 .68.682.683.683 0 0 0-.68-.682zm9.1 11.108c0-1.206-.739-1.883-.946-2.689h2.893A1.7 1.7 0 0 0 14.562 7.9a2.059 2.059 0 0 0-.553-1.4 2.376 2.376 0 0 0-.265-2.26 2.249 2.249 0 0 0-.466-2.126A1.51 1.51 0 0 0 13.1.846C12.52.012 11.081 0 9.864 0h-.081a8.164 8.164 0 0 0-3.4.9 4.476 4.476 0 0 1-1.5.46.341.341 0 0 0-.335.341v6.08a.341.341 0 0 0 .1.242c1.127 1.113 1.611 2.292 2.535 3.217a3.444 3.444 0 0 1 .722 1.675c.126.526.391 1.644.965 1.644.686.003 2.051-.225 2.051-2.314z" transform="translate(9.292 9.332)" style="fill:#fff"/>
</svg>
