<svg xmlns="http://www.w3.org/2000/svg" width="33" height="33" viewBox="0 0 33 33">
    <g data-name="Group 2490" transform="translate(-285 -13903.945)">
        <circle data-name="Ellipse 49" cx="16.5" cy="16.5" r="16.5" transform="translate(285 13903.944)" style="fill:#309c17"/>
        <path data-name="Icon awesome-thumbs-up" d="M2.958 6.371H.683A.683.683 0 0 0 0 7.053v6.826a.683.683 0 0 0 .683.683h2.275a.683.683 0 0 0 .683-.683V7.053a.683.683 0 0 0-.683-.682zM1.82 13.424a.683.683 0 1 1 .683-.683.683.683 0 0 1-.683.683zm9.1-11.108c0 1.206-.739 1.883-.946 2.689h2.893a1.7 1.7 0 0 1 1.694 1.652 2.059 2.059 0 0 1-.553 1.4 2.376 2.376 0 0 1-.265 2.26 2.249 2.249 0 0 1-.466 2.126 1.51 1.51 0 0 1-.175 1.269c-.58.834-2.019.846-3.236.846h-.083a8.164 8.164 0 0 1-3.4-.9 4.476 4.476 0 0 0-1.5-.46.341.341 0 0 1-.335-.341V6.778a.341.341 0 0 1 .1-.242c1.13-1.113 1.615-2.292 2.538-3.217a3.444 3.444 0 0 0 .722-1.675C8.035 1.118 8.3 0 8.874 0c.682 0 2.047.228 2.047 2.317z" transform="translate(294.292 13913.051)" style="fill:#fff"/>
    </g>
</svg>
