<svg xmlns="http://www.w3.org/2000/svg" width="76.826" height="72.713" viewBox="0 0 76.826 72.713">
  <g id="Group_2650" data-name="Group 2650" transform="translate(-741.992 -1103.643)">
    <g id="Group_2646" data-name="Group 2646" transform="translate(86.056 173.5)">
      <g id="Group_2645" data-name="Group 2645" transform="translate(531.3 793.159)">
        <path id="Path_3503" data-name="Path 3503" d="M205.139,139.7a45.592,45.592,0,0,1-1.685,11.486,57.729,57.729,0,0,1-8.014,17.356,54.621,54.621,0,0,1-8.525,9.954,1.473,1.473,0,0,0-.562,1.225,37.831,37.831,0,0,1-5.922,19.092,35.282,35.282,0,0,1-5.054,6.33,1.634,1.634,0,0,1-2.042.459,1.412,1.412,0,0,1-.817-1.225l-1.378-9.8-.153-1.378c0-.051.051-.2-.051-.2a.265.265,0,0,0-.2.1c-.357.357-.766.664-1.123,1.021a1.6,1.6,0,0,1-2.6-.1l-18.99-18.99a3.517,3.517,0,0,1-.562-.664,1.376,1.376,0,0,1,.2-1.634c.357-.459.766-.868,1.174-1.327.051-.051.2-.1.153-.255-.051-.1-.153-.1-.255-.1-.97-.153-1.94-.306-2.91-.408-1.94-.255-3.88-.562-5.819-.817-.766-.1-1.582-.2-2.348-.306a1.556,1.556,0,0,1-1.429-1.021,1.529,1.529,0,0,1,.51-1.685,38.01,38.01,0,0,1,25.983-11.077.709.709,0,0,0,.51-.255,54.629,54.629,0,0,1,12-9.954,59.908,59.908,0,0,1,12.4-5.87,51.315,51.315,0,0,1,8.678-2.144,44.5,44.5,0,0,1,7.351-.51,1.526,1.526,0,0,1,1.48,1.531Zm-28.433,17.969a7.658,7.658,0,0,0,7.606,7.606,7.581,7.581,0,1,0-7.606-7.606Z" transform="translate(-3.677)" fill="#fff"/>
        <path id="Path_3504" data-name="Path 3504" d="M152.865,241.281a8.952,8.952,0,0,1-4.594,7.963,52.3,52.3,0,0,1-7.708,3.471c-3.165,1.174-6.381,2.3-9.648,3.267a2.047,2.047,0,0,1-.97.153,1.486,1.486,0,0,1-1.225-1.991c.664-2.4,1.48-4.747,2.3-7.147a73.991,73.991,0,0,1,3.829-9.291,10.13,10.13,0,0,1,2.706-3.675,9.412,9.412,0,0,1,15.161,5.513c.051.306.1.613.153.97Z" transform="translate(0 -46.452)" fill="#fff"/>
      </g>
      <g id="Group_2641" data-name="Group 2641" transform="translate(527.3 793.159)">
        <path id="Path_3503-2" data-name="Path 3503" d="M205.139,139.7a45.592,45.592,0,0,1-1.685,11.486,57.729,57.729,0,0,1-8.014,17.356,54.621,54.621,0,0,1-8.525,9.954,1.473,1.473,0,0,0-.562,1.225,37.831,37.831,0,0,1-5.922,19.092,35.282,35.282,0,0,1-5.054,6.33,1.634,1.634,0,0,1-2.042.459,1.412,1.412,0,0,1-.817-1.225l-1.378-9.8-.153-1.378c0-.051.051-.2-.051-.2a.265.265,0,0,0-.2.1c-.357.357-.766.664-1.123,1.021a1.6,1.6,0,0,1-2.6-.1l-18.99-18.99a3.517,3.517,0,0,1-.562-.664,1.376,1.376,0,0,1,.2-1.634c.357-.459.766-.868,1.174-1.327.051-.051.2-.1.153-.255-.051-.1-.153-.1-.255-.1-.97-.153-1.94-.306-2.91-.408-1.94-.255-3.88-.562-5.819-.817-.766-.1-1.582-.2-2.348-.306a1.556,1.556,0,0,1-1.429-1.021,1.529,1.529,0,0,1,.51-1.685,38.01,38.01,0,0,1,25.983-11.077.709.709,0,0,0,.51-.255,54.629,54.629,0,0,1,12-9.954,59.908,59.908,0,0,1,12.4-5.87,51.315,51.315,0,0,1,8.678-2.144,44.5,44.5,0,0,1,7.351-.51,1.526,1.526,0,0,1,1.48,1.531Zm-28.433,17.969a7.658,7.658,0,0,0,7.606,7.606,7.581,7.581,0,1,0-7.606-7.606Z" transform="translate(-3.677)" fill="#ff7757"/>
        <path id="Path_3504-2" data-name="Path 3504" d="M152.865,241.281a8.952,8.952,0,0,1-4.594,7.963,52.3,52.3,0,0,1-7.708,3.471c-3.165,1.174-6.381,2.3-9.648,3.267a2.047,2.047,0,0,1-.97.153,1.486,1.486,0,0,1-1.225-1.991c.664-2.4,1.48-4.747,2.3-7.147a73.991,73.991,0,0,1,3.829-9.291,10.13,10.13,0,0,1,2.706-3.675,9.412,9.412,0,0,1,15.161,5.513c.051.306.1.613.153.97Z" transform="translate(0 -46.452)" fill="#ff7757"/>
      </g>
    </g>
  </g>
</svg>
