<?xml version="1.0" encoding="utf-8"?>
<!-- Generator: Adobe Illustrator 27.7.0, SVG Export Plug-In . SVG Version: 6.00 Build 0)  -->
<svg version="1.1" id="Layer_1" xmlns="http://www.w3.org/2000/svg" xmlns:xlink="http://www.w3.org/1999/xlink" x="0px" y="0px"
	 viewBox="0 0 400 400" style="enable-background:new 0 0 400 400;" xml:space="preserve">
<style type="text/css">
	.st0{fill:#FF7757;}
</style>
<g>
	<path class="st0" d="M172.6,314c18.5-0.1,34.3-4.6,48.8-13.4c5.7-3.5,10.8-7.8,15.6-12.5c5.2-5.2,10.5-10.5,15.7-15.6
		c0.8-0.8,0.2-1.2-0.3-1.6c-5.1-5.1-10.2-10.3-15.4-15.4c-2.7-2.7-5.5-5.4-8.2-8.2c-0.7-0.7-1-0.6-1.7,0c-4.7,4.8-9.5,9.5-14.2,14.2
		c-7.8,7.9-17.2,13.1-28.1,15.4c-28.6,6-56.5-11.7-62.9-40.2c-4.2-18.6,0.4-35.2,13.6-49.2c5.2-5.5,10.6-10.7,16-16
		c0.8-0.7,0.6-1.1,0-1.7c-6.7-6.7-13.4-13.4-20.1-20.1c-1.3-1.3-2.5-2.5-3.8-3.7c-0.5-0.5-0.8-0.5-1.3,0c-1.1,1.1-2.2,2.2-3.3,3.3
		c-1.9,1.9-4.2,2-5.9,0.3c-1.7-1.7-1.8-4.1,0.1-5.9c7.4-7.5,14.9-14.9,22.3-22.3c4.3-4.3,8.5-8.5,12.8-12.8
		c6.7-6.7,15.6-6.8,22.4-0.1c4.9,4.8,9.8,9.7,14.6,14.6c6.5,6.7,6.6,15.6,0,22.3c-15.6,15.6-31.2,31.3-46.9,46.9
		c-6.1,6.1-10.4,13.3-12.4,21.7c-6,25.5,9.6,49.2,33.1,54.7c16.3,3.8,30.9-0.2,43-11.8c10.1-9.6,19.7-19.6,29.6-29.5
		c0.4-0.4,0.8-0.8,1.3-1.2c1.8-1.5,4-1.3,5.6,0.3c1.5,1.5,1.5,3.9,0,5.5c-2.1,2.2-4.2,4.3-6.3,6.4c-0.8,0.8-2.2,1.6-2.2,2.4
		c0,0.8,1.4,1.6,2.2,2.4c7.3,7.3,14.6,14.5,21.8,21.8c0.9,0.9,1.4,0.8,2.2-0.1c7.9-8,15.9-15.9,23.8-23.9c1.3-1.3,2.5-2.7,2.8-4.7
		c0.3-2.3-0.2-4.3-1.8-5.9c-5.2-5.2-10.3-10.4-15.6-15.6c-2.9-2.8-6.8-2.8-9.8-0.1c-1.2,1.1-2.3,2.3-3.5,3.4c-1.9,1.8-4.3,1.9-6,0.3
		c-1.7-1.7-1.7-4,0.2-6c1.5-1.6,3-3.2,4.7-4.5c5.9-4.7,14-4.5,19.5,0.6c5.6,5.3,11,10.9,16.5,16.4c1.9,1.9,3.1,4.3,3.7,7
		c1,5,0,9.5-3.5,13.2c-4.7,5-9.6,9.7-14.5,14.6c-11.6,11.6-23.2,23.4-35,34.9c-13.5,13.2-29.6,21.7-48.1,25.5
		c-12.1,2.5-24.3,2.7-36.5,0.5c-13.4-2.4-25.8-7.3-37.2-14.9c-21.3-14.4-35.4-34-41-59c-7.5-33.7,0.8-63.4,23.9-89
		c1.5-1.7,3.2-2.1,4.9-1.4c1.5,0.6,2.6,2.2,2.6,3.8c0,1.4-0.8,2.5-1.7,3.4c-2.8,3-5.5,6.2-7.8,9.6c-8.4,12-13.7,25.3-15.5,39.8
		c-2.6,20.3,1.1,39.5,11.7,57.1c12.3,20.6,30.1,34.2,53.3,40.7C158.1,313,166,313.9,172.6,314z M185.9,134.2
		c0.1-2.1-0.8-3.8-2.2-5.2c-4.8-4.8-9.7-9.7-14.5-14.5c-3.8-3.8-7.6-3.8-11.4,0c-8,8-15.9,16-23.9,24c-0.6,0.6-1.6,0.9-0.4,2
		c7.8,7.7,15.5,15.5,23.3,23.2c1.3,1.3,1.2,1.3,2.5,0c3-3,6-6,8.9-8.9c5-5,10-10,15-15C184.8,138.1,185.9,136.4,185.9,134.2z"/>
	<path class="st0" d="M288.3,121.2c-3.9,0.2-8.7-0.3-13.5,0.2c-6.3,0.7-11.5,6.3-11.7,12.7c-0.1,2.3,0,4.6,0,6.9
		c0,1.2,0.5,1.7,1.7,1.7c4.6,0,9.3,0,13.9,0c1,0,1.9,0,2.8,0.5c1.6,0.8,2.6,2.6,2.3,4.2c-0.3,1.9-1.8,3.3-3.7,3.4
		c-1.8,0.1-3.5,0.1-5.3,0.1c-3.6,0-7.3,0.1-10.9-0.1c-5.1-0.2-9-4.4-8.9-9.5c0.1-3.8-0.5-7.6,0.5-11.4c2.2-8.4,7.5-13.9,15.9-16.2
		c0.9-0.3,1.2-0.5,0.5-1.3c-9.3-12.3-3.1-29.7,11.8-33.9c11.8-3.3,24.6,4.7,26.8,16.8c1.1,6.2-0.2,11.9-3.8,17
		c-0.5,0.7-0.7,1.1,0.4,1.4c9.1,2.1,16.4,10.6,16.5,20.6c0,3,0.3,6-0.2,9c-0.7,4.1-4.4,7.4-8.5,7.5c-5.3,0.1-10.6,0.1-15.9,0.1
		c-2.5,0-4.1-1.7-4.2-3.9c0-2.3,1.6-4.1,4.1-4.2c1.9-0.1,3.7,0,5.6,0c3.1,0,6.2,0,9.3,0c1.3,0,1.8-0.6,1.8-1.8
		c-0.1-2.6,0.2-5.3-0.2-7.9c-0.8-6.9-6.5-11.7-13.7-11.8C297.4,121.1,293.3,121.2,288.3,121.2z M289.1,113
		c7.5,0.1,13.6-5.9,13.6-13.3c0.1-7.4-6-13.6-13.4-13.6c-7.5,0-13.7,6-13.7,13.5C275.7,106.9,281.7,112.9,289.1,113z"/>
	<path class="st0" d="M238.7,176.7c0,5.7,0,11.4,0,17.1c0,1.1,0,2.3-0.2,3.4c-0.8,4.6-6.1,6.8-9.8,4c-2.1-1.6-3.8-3.6-5.7-5.5
		c-0.7-0.7-1.1-0.7-1.8,0c-5.6,5.7-11.3,11.3-16.9,16.9c-1.7,1.7-3.6,2.7-6.1,2.1c-2.7-0.6-4.5-2.6-4.9-5.3
		c-0.1-0.9-0.2-1.9-0.2-2.8c0-11.7,0-23.5,0-35.2c0-1.1,0.1-2.2,0.3-3.2c0.9-4.4,6.1-6.4,9.7-3.7c2.1,1.5,3.8,3.5,5.6,5.4
		c0.9,0.9,1.3,0.8,2.2,0c5.6-5.7,11.3-11.4,17-17c1.7-1.7,3.7-2.5,6.1-1.8c2.7,0.8,4.3,2.5,4.7,5.3c0.3,2.3,0.2,4.6,0.2,6.9
		C238.7,167.7,238.7,172.2,238.7,176.7z M201.4,203.7c0.3,0,0.5-0.2,0.6-0.4c5.3-5.4,10.7-10.8,16.1-16.1c2.4-2.4,5.2-2.4,7.7-0.1
		c1.1,1,2.2,2.2,3.3,3.2c0.3,0.3,0.6,0.9,1,0.8c0.5-0.2,0.2-0.8,0.2-1.2c0-8.9,0-17.9,0-26.8c0-0.3,0.2-0.8-0.2-1
		c-0.5-0.2-0.7,0.3-0.9,0.6c-5.3,5.3-10.5,10.5-15.8,15.8c-2.5,2.5-5.3,2.5-7.8,0.1c-1.2-1.2-2.4-2.4-3.5-3.6
		c-0.2-0.2-0.4-0.6-0.8-0.4c-0.4,0.2-0.2,0.6-0.2,0.9c0,9.1,0,18.2,0,27.3C201.2,203,201.1,203.4,201.4,203.7z"/>
</g>
</svg>
