<?xml version="1.0" encoding="utf-8"?>
<!-- Generator: Adobe Illustrator 27.7.0, SVG Export Plug-In . SVG Version: 6.00 Build 0)  -->
<svg version="1.1" id="Layer_1" xmlns="http://www.w3.org/2000/svg" xmlns:xlink="http://www.w3.org/1999/xlink" x="0px" y="0px"
	 viewBox="0 0 400 400" style="enable-background:new 0 0 400 400;" xml:space="preserve">
<style type="text/css">
	.st0{fill:#FF7757;}
</style>
<g>
	<path class="st0" d="M266.3,182.8c0,7.9,0,15.9,0,23.8c0,1,0.2,1.8,0.9,2.6c9.6,12.3,15.5,26.2,17.4,41.6
		c2.8,22.5-2.5,43-15.9,61.3c-12.5,17-29.1,28-49.7,32.6c-21.7,4.9-42.3,1.8-61.6-9.4c-19.3-11.2-32.3-27.5-38.8-48.8
		c-6.9-22.4-4.5-44.1,6.3-64.9c2.2-4.3,5.1-8.3,8-12.2c0.6-0.8,0.9-1.7,0.9-2.7c0-15.9,0-31.8,0-47.7c0-1.2-0.2-1.6-1.6-1.6
		c-15,0.1-30,0-45,0c-1.4,0-2.7-0.2-3.8-1.1c-2.4-1.9-2.4-5.2,0-7.3c1.5-1.3,3-2.5,4.5-3.8c33.9-28.3,67.9-56.6,101.8-84.9
		c2.3-1.9,4.5-3.8,6.8-5.7c2.5-2,4.4-2.1,6.9,0c7.8,6.4,15.5,12.9,23.2,19.3c18.9,15.8,37.9,31.6,56.8,47.4
		c10.8,9,21.5,17.9,32.3,26.9c1.3,1.1,2.5,2.2,2.6,3.9c0.3,3-1.9,5.2-5.2,5.2c-14.9,0-29.9,0-44.8,0c-2,0-2,0-2,2
		C266.3,167.2,266.3,175,266.3,182.8z M200.1,185.9c-41.9,0-76.6,34-75.8,77.1c0.7,42.2,35.1,74.3,75.6,74.4
		c42.6,0.1,76.6-34.7,75.9-77C275,219.2,241.7,186,200.1,185.9z M256.8,198c0-1,0-1.7,0-2.3c0-14,0-28,0-42c0-4,1.7-5.8,5.8-5.8
		c11.9,0,23.9,0,35.8,0c0.6,0,1.1,0,1.8,0c-0.2-0.7-0.6-0.9-1-1.2c-32.7-27.3-65.5-54.6-98.2-81.9c-0.8-0.7-1.3-0.7-2.1,0
		c-32.8,27.4-65.7,54.8-98.5,82.2c-0.2,0.2-0.7,0.3-0.5,0.8c0.6,0,1.3,0,1.9,0c11.8,0,23.7,0,35.5,0c4.1,0,5.8,1.7,5.8,5.9
		c0,14.1,0,28.2,0,42.3c0,0.5-0.2,1.1,0.3,1.6c16.3-13.9,35.2-21.4,56.6-21.3C221.4,176.5,240.3,183.8,256.8,198z"/>
	<path class="st0" d="M204.8,218.5c0,1.6-0.5,3.5,0.1,4.8c0.7,1.5,2.8,1,4.3,1.5c8.6,3.1,14.5,11.1,14.5,19.8c0,2.9-2,5-4.7,5
		c-2.6,0-4.6-2-4.8-4.8c-0.3-6.9-5.3-11.8-12.3-11.7c-2.3,0-4.5-0.2-6.8,0.3c-5.1,1.1-8.7,5.4-8.9,10.6c-0.2,5.1,3.2,9.7,8.1,11
		c5.2,1.4,10.4,2.6,15.5,4.4c8.4,2.9,14.2,11.2,13.7,20.4c-0.6,10.1-7.5,17.7-17.1,19.3c-1.3,0.2-1.8,0.6-1.7,2c0.1,2.5,0.1,5,0,7.5
		c0,2.9-2.1,5-4.8,5c-2.6,0-4.6-2.1-4.7-4.9c0-2.5-0.1-5,0-7.5c0.1-1.4-0.4-1.8-1.7-2.1c-7.5-1.5-12.7-5.8-15.7-12.8
		c-1.1-2.5-1.6-5.2-1.6-7.9c0-2.9,2-5,4.7-5c2.6-0.1,4.7,2,4.8,4.8c0.2,3.9,1.7,7.1,4.9,9.5c1.2,0.9,2.5,1.6,4,1.9
		c4.1,0.7,8.2,0.8,12.2,0.1c5.1-0.9,8.7-5.5,8.7-10.7c0.1-5.2-3.5-9.7-8.5-11c-5.4-1.4-10.8-2.5-16.2-4.1
		c-8.6-2.5-14.5-10.6-14.6-19.4c-0.1-9.9,7.1-18.6,16.8-20.5c2.1-0.4,2.1-0.4,2.1-2.5c0-2.4,0-4.7,0-7.1c0-2.8,2.1-4.9,4.8-4.9
		c2.6,0,4.6,2.1,4.7,4.9C204.8,215.8,204.7,217.1,204.8,218.5C204.7,218.5,204.8,218.5,204.8,218.5z"/>
</g>
</svg>
