<?xml version="1.0" encoding="utf-8"?>
<!-- Generator: Adobe Illustrator 27.7.0, SVG Export Plug-In . SVG Version: 6.00 Build 0)  -->
<svg version="1.1" id="Layer_1" xmlns="http://www.w3.org/2000/svg" xmlns:xlink="http://www.w3.org/1999/xlink" x="0px" y="0px"
	 viewBox="0 0 400 400" style="enable-background:new 0 0 400 400;" xml:space="preserve">
<style type="text/css">
	.st0{fill:#FF7757;}
</style>
<g>
	<path class="st0" d="M236.3,150.9c-7.8-8.8-15-16.9-22.1-25c-4.2-4.8-8.6-9.6-12.7-14.5c-1.3-1.6-2.2-1.6-3.4,0
		c-1.9,2.4-4,4.6-6,6.8c-1.2,1.4-2.7,2.1-4.3,0.8c-1.8-1.5-1.2-3.1,0.1-4.6c2.5-2.8,5-5.7,7.5-8.5c3.2-3.5,5.6-3.5,8.8,0.1
		c9.5,10.6,18.8,21.3,28.3,32c2.9,3.3,5.8,6.6,8.8,9.9c1.5,1.7,2.5,3.5,1.5,5.8c-1,2.3-3,2.9-5.3,2.8c-2.9,0-5.8,0-8.7,0
		c-1.5,0-2.3,0.4-2.3,2.2c0.1,10.8,0,21.6,0,33.6c3-3.4,5.4-6.1,7.7-8.7c3.5-3.8,5.9-3.9,9.3,0c12.2,13.8,24.3,27.5,36.5,41.3
		c1.6,1.8,2.9,3.6,1.8,6.1c-1.2,2.6-3.5,2.9-6,3c-3.2,0.1-7.5-1.4-9.5,0.6c-2.2,2.2-0.6,6.4-0.7,9.8c-0.1,3.9-0.1,7.8,0,11.7
		c0,2.1-0.3,4-2.8,4.1c-2.5,0.1-3-1.8-3-3.9c0-8.1,0-16.1,0-24.2c0-2.6,1.2-4,3.9-3.9c3.5,0,7,0,10.5,0c0.4-1.5-0.7-2-1.3-2.7
		c-10.6-12.1-21.3-24.2-32-36.2c-1.2-1.4-2-2.7-3.9-0.5c-11,12.6-22.1,25.1-33.2,37.7c-0.3,0.3-0.5,0.7-1.2,1.7c3.7,0,6.8,0,9.9,0
		c4.6,0,5.3,0.6,5.3,5.2c0,17.7,0.1,35.5-0.1,53.2c0,3.6,0.9,4.7,4.6,4.6c11.3-0.2,22.7-0.2,34,0c2.8,0,3.7-0.8,3.6-3.6
		c-0.2-5.3-0.1-10.6-0.1-15.9c0-2.1,0.5-4,3-3.9c2.2,0.1,2.7,1.8,2.7,3.8c0,7,0,14.1,0,21.1c0,2.8-1.2,4.2-4.1,4.1
		c-2.8-0.1-5.5,0-8.3,0c-37.6,0-75.3,0-112.9,0c-5.8,0-6-0.2-6-5.9c0-36.3,0-72.5,0-108.8c0-5.5,0.7-4.7-4.9-4.7c-2.1,0-4.3,0-6.4,0
		c-2.2,0-3.9-0.8-4.9-2.9c-0.9-2-0.3-3.7,1-5.2c12.7-14.3,25.3-28.7,38-43c2.5-2.8,5.2-2.6,7.8-0.1c2.2,2.1,3.7,6.4,6.5,6.1
		c2.2-0.2,4.1-4,6.1-6.3c1.4-1.6,2.9-3.2,5-1.3c1.9,1.7,0.7,3.4-0.7,4.9c-0.1,0.1-0.2,0.2-0.2,0.3c-2.1,2.5-5.8,4.9-5.9,7.5
		c-0.2,2.9,3.8,5.2,6,7.7c6.7,7.7,13.5,15.3,20.2,22.9c1.6,1.8,3.2,3.7,1.9,6.4c-1.2,2.6-3.5,2.9-6,2.9c-3.2,0.1-7.5-1.4-9.4,0.6
		c-2.1,2.2-0.7,6.5-0.7,9.8c-0.1,33.1,0,66.2-0.1,99.3c0,3.1,0.8,4.1,4,4c5.7-0.3,11.3-0.2,17,0c2.5,0.1,3.5-0.5,3.5-3.3
		c-0.1-17-0.1-34,0-51c0-2.2-0.5-3.2-2.9-3c-2.5,0.2-5,0-7.5,0c-2.4,0-4.5-0.4-5.7-2.8c-1.2-2.5,0-4.3,1.6-6.1
		c6.8-7.7,13.6-15.5,20.5-23.2c1.9-2.1,2.8-4.2,2.7-7c-0.2-12.3-0.1-24.7-0.1-37c0-6.8,0-6.8,7-6.8
		C230.3,150.9,232.8,150.9,236.3,150.9z M197.5,171.6c-1.4-1.6-2.1-2.4-2.8-3.3c-10.4-11.8-20.9-23.5-31.2-35.4
		c-2.2-2.5-3.1-1.9-5,0.2c-10.3,11.8-20.6,23.4-30.9,35.1c-0.8,0.9-1.9,1.6-2.2,3.4c2.9,0,5.6,0,8.3,0c6.1,0,6.4,0.3,6.4,6.4
		c0,36.4,0,72.7-0.1,109.1c0,3.1,0.8,4.1,4,4c11.3-0.2,22.7-0.2,34,0c3.4,0.1,4.2-1,4.1-4.2c-0.1-31-0.1-61.9-0.1-92.9
		c0-5.9,0.1-11.8,0-17.7c-0.1-3.4,1.4-4.8,4.7-4.7C190,171.7,193.3,171.6,197.5,171.6z"/>
</g>
</svg>
