<?xml version="1.0" encoding="utf-8"?>
<!-- Generator: Adobe Illustrator 27.7.0, SVG Export Plug-In . SVG Version: 6.00 Build 0)  -->
<svg version="1.1" id="Layer_1" xmlns="http://www.w3.org/2000/svg" xmlns:xlink="http://www.w3.org/1999/xlink" x="0px" y="0px"
	 viewBox="0 0 400 400" style="enable-background:new 0 0 400 400;" xml:space="preserve">
<style type="text/css">
	.st0{fill:#FF7757;}
</style>
<g>
	<path class="st0" d="M138.3,244.5c-0.7-2.2-1.3-4.3-2-6.5c-1.7-5.4-3.4-10.8-5-16.2c-0.2-0.7-0.5-1.1-1.3-1.2
		c-9.1-1.9-14.8-7.3-17.3-16.3c-0.2-0.6-0.3-1.2-0.3-1.9c0-1-0.4-1.2-1.4-1.2c-9.8-0.1-17.4-4.2-22.5-12.7
		c-5.8-9.7-3.9-22.6,4.4-30.4c4.9-4.7,10.8-7,17.5-7.1c1.7,0,1.7,0,2-1.7c1.7-10.4,10.7-18,21.5-18c15.1,0,30.1,0,45.2,0
		c1.5,0,2.8-0.3,4.2-1c23.5-11.8,47-23.5,70.5-35.3c5.2-2.6,10.4-5.4,15.7-7.8c9.4-4.3,20,2.7,20.1,13.1c0,13,0,25.9,0,38.9
		c0,1,0.2,1.4,1.3,1.6c11.7,2,20.9,10.9,23.3,22.6c0.3,1.2,0.5,2.5,0.5,3.8c0.1,6.1,0.3,12.2-0.1,18.3c-0.5,8.1-4,14.7-10.1,19.9
		c-3.9,3.3-8.4,5.5-13.5,6.3c-1,0.2-1.3,0.5-1.3,1.6c0,12.9,0,25.8,0,38.6c0,6.5-3.9,11.9-10,13.9c-3.7,1.2-7.4,0.8-10.9-0.9
		c-8-4-16.1-8-24.1-12c-20.8-10.4-41.6-20.8-62.3-31.2c-1.2-0.6-2.4-0.5-3.6-0.5c-0.7,0-0.6,0.4-0.5,0.9c1.5,4.9,3,9.8,4.6,14.7
		c2.5,8.1,4.9,16.2,7.4,24.3c0.1,0.4,0.2,0.9,0.5,0.9c0.5,0.1,0.4-0.5,0.6-0.8c2.1-3.7,5-6.9,8.4-9.5c4.7-3.6,10-5.9,15.8-7.2
		c3.2-0.7,4.9,0.5,5.3,3.7c1.2,8.2,0.5,16.1-3.4,23.5c-3.9,7.6-10,12.6-18.3,14.7c-0.8,0.2-1,0.4-0.7,1.3c1,3.4,2.4,6.7,2.9,10.2
		c1.1,7.7-3.8,14.6-11.5,16.2c-1.1,0.2-2.1,0.3-3.2,0.3c-5.2,0-10.4,0-15.6,0c-7.3,0-12.5-3.7-14.6-10.7c-2.5-7.9-4.9-15.7-7.3-23.6
		c-0.2-0.7-0.3-1.1-1.2-0.8c-12.3,4.5-24.2,3.4-35.7-2.9c-9.5-5.2-16.4-13.1-21.5-22.5c-2-3.7-3.6-7.6-4.9-11.6
		c-1.1-3.4-0.2-5,3.2-5.9c12-3.1,23.8-3.1,35.6,1c4.6,1.6,8.8,3.9,12.7,6.8C137.6,244.2,137.8,244.5,138.3,244.5z M282.4,176
		c0-25.1,0-50.2,0-75.3c0-6.1-5.4-9.4-10.9-6.7c-4.9,2.5-9.8,5-14.7,7.3c-1.1,0.5-1.3,1.1-1.3,2.2c0,30.4,0,60.8,0,91.2
		c0,0.4,0,0.8,0,1.2c-0.2,2.7-3.4,4.2-5.6,2.6c-1.2-0.8-1.6-2.1-1.6-3.5c0-29.4,0-58.8,0-88.2c0-1.3,0-1.3-1.1-0.7
		c-20.1,10-40.2,20.1-60.4,30.1c-1,0.5-1.3,1-1.3,2.1c0,25.1,0,50.2,0,75.3c0,0.2,0,0.5,0,0.7c-0.1,0.5,0.2,0.8,0.7,1
		c13.6,6.7,27.1,13.5,40.6,20.3c14.9,7.4,29.7,14.9,44.6,22.3c1.3,0.6,2.6,1,4.1,1c4-0.2,6.8-3.3,6.8-7.4
		C282.5,226.4,282.4,201.2,282.4,176z M178.5,176.1c0-12.2,0-24.4,0-36.6c0-0.8-0.1-1.1-1-1.1c-14.5,0-29,0-43.5,0
		c-1.1,0-2.2,0.1-3.2,0.3c-6.8,1.4-11.5,7.2-11.5,14.3c0,15.3,0,30.7,0,46c0,8.2,6.2,14.5,14.4,14.6c14.5,0.1,29,0,43.5,0
		c1,0,1.3-0.2,1.3-1.3C178.4,200.3,178.5,188.2,178.5,176.1z M154.6,220.9C154.6,220.9,154.6,220.9,154.6,220.9c-4.7,0-9.5,0-14.2,0
		c-1.9,0-1.9,0-1.3,1.7c5.9,19.2,11.8,38.4,17.7,57.6c2.2,7,4.3,14,6.5,21c1.1,3.6,3.5,5.6,6.9,5.7c5.8,0.1,11.6,0.1,17.4,0
		c2.2,0,4-1,5.4-2.8c1.8-2.3,1.7-4.8,0.9-7.4c-7.7-25-15.4-49.9-23.1-74.9c-0.2-0.7-0.5-0.9-1.3-0.9
		C164.5,220.9,159.5,220.9,154.6,220.9z M105,241.2c-3.1,0.1-6.8,0.3-10.5,1.1c-0.7,0.1-0.9,0.4-0.6,1.1c2.5,6.3,5.7,12.1,10.2,17.1
		c8.3,9.2,18.4,14.6,31.1,14.1c3.6-0.1,7.1-1,10.4-2.3c0.5-0.2,0.9-0.4,0.7-1.1c-1.9-9.5-6.8-17-14.8-22.5
		C123.7,243.4,114.9,241.3,105,241.2z M289.6,176.1c0,9,0,18.1,0,27.1c0,1.3,0,1.3,1.3,1c9.6-2.2,16.6-10.9,16.6-20.7
		c0-4.9,0-9.8,0-14.7c0-1.6-0.2-3.3-0.6-4.9c-2.3-8.5-7.8-13.8-16.3-16c-0.9-0.2-1.1,0-1.1,0.9C289.6,157.8,289.6,166.9,289.6,176.1
		z M112.1,176c0-5.6,0-11.3,0-16.9c0-0.7-0.1-1.1-1-1c-1.3,0.1-2.5,0-3.8,0.2c-9.9,1.6-16.6,11.3-14.6,21.1
		c1.8,8.7,9.2,14.6,18.3,14.5c0.9,0,1.1-0.3,1.1-1.1C112.1,187.2,112.1,181.6,112.1,176z M214.1,255.2c0-0.8,0-1.6,0-2.4
		c0-0.6-0.3-0.8-0.8-0.6c-0.9,0.4-1.8,0.7-2.7,1.1c-5.9,2.6-10.7,6.4-13.6,12.2c-2,4.1-3.1,8.3-1.4,12.8c0.3,0.8,0.6,1.2,1.6,0.9
		c4.5-1.1,8.3-3.4,11.3-7.1C212.4,267.3,214,261.5,214.1,255.2z"/>
</g>
</svg>
