<?xml version="1.0" encoding="utf-8"?>
<!-- Generator: Adobe Illustrator 27.7.0, SVG Export Plug-In . SVG Version: 6.00 Build 0)  -->
<svg version="1.1" id="Layer_1" xmlns="http://www.w3.org/2000/svg" xmlns:xlink="http://www.w3.org/1999/xlink" x="0px" y="0px"
	 viewBox="0 0 400 400" style="enable-background:new 0 0 400 400;" xml:space="preserve">
<style type="text/css">
	.st0{fill:#FF7757;}
</style>
<g>
	<path class="st0" d="M199.9,316.4c-41.2,0-82.3,0-123.5,0c-0.6,0-1.2,0-1.8,0c-2.1-0.2-3.5-1.8-3.5-3.9c0.1-1.9,1.6-3.5,3.7-3.6
		c1.9-0.1,3.8,0,5.7,0c3.5,0,7-0.1,10.6,0c1,0,1.2-0.3,1.2-1.3c0-13.3,0-26.6,0-39.9c0-5.9,3.7-9.7,9.7-9.7c8.6,0,17.1,0,25.7,0
		c4.7,0,8,2.6,9.1,7c0.2,0.8,0.2,1.6,0.2,2.4c0,13.4,0,26.8,0,40.2c0,0.9,0.3,1.2,1.2,1.2c3.3-0.1,6.5-0.1,9.8,0
		c1,0,1.4-0.3,1.3-1.3c0-6.5,0-13,0-19.5c0-2.7,1.7-4.3,4.1-4.2c1.9,0.1,3.3,1.5,3.4,3.4c0.1,2.6,0,5.2,0,7.8c0,4.2,0,8.5-0.1,12.7
		c0,0.9,0.3,1.1,1.2,1.1c9.1,0,18.1,0,27.2,0c1.1,0,1.2-0.4,1.2-1.3c0-21.9,0-43.8,0-65.8c0-4.4-0.2-3.6-3.6-3.6
		c-7.9,0-15.8,0-23.8,0c-1.7,0-2.1,0.3-2.1,2c0,10.4,0,20.7,0,31.1c0,0.5,0,0.9,0,1.4c-0.2,2.1-1.6,3.5-3.7,3.5
		c-2.1,0-3.7-1.4-3.9-3.5c0-0.5,0-1,0-1.5c0-10.3,0.1-20.6,0-30.9c-0.1-5.9,4.5-9.8,9.6-9.7c8.5,0.2,16.9,0.2,25.4,0
		c4.7-0.1,9.8,3.2,9.7,9.7c-0.1,8.6,0,17.1,0,25.7c0,14,0,27.9-0.1,41.9c0,0.9,0.3,1.2,1.2,1.1c3.4,0,6.8-0.1,10.2,0
		c0.9,0,1.1-0.3,1-1.2c-0.1-0.9-0.1-1.8-0.1-2.8c0-29.8,0-59.6,0-89.4c0-1.5,0-3,0.2-4.5c0.5-4.3,3.7-7.6,8-7.8
		c4.2-0.2,8.4-0.1,12.6-0.1c4.6,0,9.2,0,13.8,0c5.2,0,8.5,2.3,9.7,6.6c0.3,0.9,0.3,1.8,0.3,2.7c0,31.7,0,63.4,0,95.1
		c0,1.1,0.3,1.4,1.4,1.4c3.1-0.1,6.2,0,9.3,0c1.6,0,1.6,0,1.6-1.6c0-17.2,0-34.5,0-51.7c0-23.4,0.1-46.9,0-70.3c0-5.6,4-9.8,9.8-9.7
		c8.3,0.1,16.7,0,25,0c6.2,0,9.8,3.6,9.8,9.8c0,12.4,0,24.7,0,37.1c0,2.8-1.8,4.5-4.3,4.2c-1.7-0.2-3.1-1.6-3.2-3.3c0-0.5,0-1,0-1.5
		c0-12.2,0-24.3,0-36.5c0-1.9-0.2-2.2-2.1-2.2c-8.4,0-16.9,0-25.3,0c-1.8,0-2,0.3-2,2.1c0,10.6,0,21.1-0.1,31.7
		c0,28.1,0,56.2,0,84.4c0,2.2,0.1,4.4,0.1,6.7c0,0.7,0.2,1,0.9,1c9.2,0,18.4,0,27.5,0c0.8,0,1-0.3,1-1c0-1.6,0-3.2,0-4.8
		c0-21.3,0-42.6,0-63.9c0-0.5,0-1.1,0-1.6c0.2-1.9,1.8-3.2,3.8-3.2c1.9,0,3.5,1.4,3.7,3.4c0.1,0.5,0,1,0,1.5c0,22.7,0,45.4,0,68.2
		c0,1.2,0.3,1.5,1.5,1.5c5-0.1,10.1,0,15.1,0c0.6,0,1.2,0,1.7,0.1c1.5,0.4,2.8,1.9,2.8,3.3c0.1,1.7-1.1,3.3-2.7,3.8
		c-0.7,0.2-1.5,0.2-2.2,0.2C282.5,316.4,241.2,316.4,199.9,316.4z M213.7,260.3C213.7,260.3,213.7,260.3,213.7,260.3
		c0,15.8,0,31.7,0,47.5c0,0.9,0.3,1.1,1.1,1.1c9.1,0,18.1,0,27.2,0c1,0,1.3-0.4,1.2-1.3c0-11.1,0-22.1,0-33.2c0-20.4,0-40.7,0-61.1
		c0-2.5-0.2-2.6-2.7-2.6c-8.1,0-16.3,0-24.4,0c-2.2,0-2.4,0.3-2.4,2.4C213.7,228.8,213.7,244.5,213.7,260.3z M129.4,287.6
		C129.4,287.6,129.4,287.6,129.4,287.6c0-6.7-0.1-13.4,0-20.1c0-1.2-0.5-1.7-1.6-1.7c-0.4,0-0.8,0-1.3,0c-7.6,0-15.2,0-22.8,0
		c-0.8,0-1.6,0-2.4,0c-1,0-1.4,0.6-1.4,1.5c0,0.4,0,0.8,0,1.1c0,13,0,26.1,0,39.1c0,1.1,0.2,1.4,1.4,1.4c8.8-0.1,17.7-0.1,26.5,0
		c1.3,0,1.6-0.4,1.6-1.6C129.4,300.7,129.4,294.1,129.4,287.6z"/>
	<path class="st0" d="M279.4,132c-0.6-6.2-1.2-12.2-1.8-18.2c-0.6-6.3-1.3-12.6-1.9-18.9c-0.1-0.9,0.1-2-0.4-2.5
		c-0.6-0.5-1.6,0.2-2.4,0.4c-11.2,2.9-22.3,5.8-33.5,8.7c-0.9,0.2-1.8,0.4-2.7,0.6c0,0.5,0.4,0.6,0.7,0.7c2.4,1.6,4.8,3.2,7.2,4.9
		c3,2.1,3.3,3.7,1.5,6.8c-5,8.4-11.3,15.8-18,22.8c-0.7,0.7-1.4,1.5-2.1,2.1c-1.8,1.7-3.9,1.8-5.5,0.2c-1.6-1.6-1.6-3.8,0.1-5.6
		c4.5-4.5,8.8-9.2,12.7-14.3c1.6-2.1,3.1-4.3,4.7-6.5c0.4-0.6,0.3-0.9-0.3-1.3c-3.7-2.5-7.5-5.1-11.2-7.7c-1.3-0.9-2.6-1.8-2.6-3.6
		c0-1.9,1.2-3.4,3.2-4c15.8-4.1,31.7-8.2,47.5-12.3c1.1-0.3,2.3-0.6,3.4-0.8c2.4-0.5,4.3,0.9,4.6,3.4c0.5,4.1,0.8,8.2,1.3,12.2
		c0.9,8.9,1.8,17.8,2.7,26.8c0.4,4.3,0.9,8.7,1.3,13c0.2,1.8-0.3,3.1-1.9,4c-1.6,0.9-3,0.6-4.4-0.4c-3.6-2.6-7.4-5.1-11-7.8
		c-1-0.8-1.5-0.7-2.2,0.3c-4.4,5.9-9.3,11.4-14.5,16.7c-14.4,14.8-30.9,26.8-49.3,36.2c-17,8.7-34.9,15-53.5,19.2
		c-12.3,2.8-24.7,4.6-37.2,5.5c-2.2,0.2-4.4,0.2-6.3-1c-3.2-1.9-4.6-4.8-4.2-8.4c0.4-3.5,2.4-5.9,5.7-7c5.1-1.8,10.2-3.3,15.2-5.1
		c23-8.1,44.9-18.4,65.2-32c6.6-4.4,12.9-9.1,19-14.2c0.8-0.7,1.6-1.4,2.7-1.6c1.7-0.3,3.3,0.5,4.1,2c0.8,1.6,0.5,3.2-0.9,4.4
		c-3,2.7-6.3,5.2-9.5,7.6c-17,12.8-35.5,23.1-54.9,31.7c-12.2,5.3-24.6,9.8-37.3,13.9c-0.8,0.2-2.1,0.2-1.7,1.5
		c0.3,1,1.4,0.6,2.2,0.5c18.1-1.3,35.9-4.5,53.4-9.8c23.5-7.1,45.1-17.9,64.4-33c12.5-9.8,23.6-21.1,33.1-33.9
		c0.4-0.5,0.8-1.1,1.2-1.6c1.6-2,3.4-2.3,5.5-0.9c2.7,1.8,5.4,3.7,8.1,5.5C278.9,131.7,279.1,131.8,279.4,132z"/>
</g>
</svg>
